ISO-10303-21;
HEADER;
/* Generated by software containing ST-Developer
 * from STEP Tools, Inc. (www.steptools.com) 
 */

FILE_DESCRIPTION(
/* description */ (''),
/* implementation_level */ '2;1');

FILE_NAME(
/* name */ '3028_2012BATTEYRHOLDER.step',
/* time_stamp */ '2026-07-28T22:40:50-07:00',
/* author */ (''),
/* organization */ (''),
/* preprocessor_version */ 'ST-DEVELOPER v20.1',
/* originating_system */ 'Autodesk Translation Framework v15.8.0.0',
/* authorisation */ '');

FILE_SCHEMA (('AUTOMOTIVE_DESIGN { 1 0 10303 214 3 1 1 }'));
ENDSEC;

DATA;
#10=MECHANICAL_DESIGN_GEOMETRIC_PRESENTATION_REPRESENTATION('',(#13),#583);
#11=SHAPE_REPRESENTATION_RELATIONSHIP('SRR','None',#590,#12);
#12=ADVANCED_BREP_SHAPE_REPRESENTATION('',(#14),#582);
#13=STYLED_ITEM('',(#599),#14);
#14=MANIFOLD_SOLID_BREP('Body1',#355);
#15=CYLINDRICAL_SURFACE('',#387,10.);
#16=CYLINDRICAL_SURFACE('',#388,10.);
#17=CIRCLE('',#378,10.);
#18=CIRCLE('',#379,10.);
#19=CIRCLE('',#386,10.);
#20=CIRCLE('',#389,10.);
#21=FACE_OUTER_BOUND('',#39,.T.);
#22=FACE_OUTER_BOUND('',#40,.T.);
#23=FACE_OUTER_BOUND('',#41,.T.);
#24=FACE_OUTER_BOUND('',#42,.T.);
#25=FACE_OUTER_BOUND('',#43,.T.);
#26=FACE_OUTER_BOUND('',#44,.T.);
#27=FACE_OUTER_BOUND('',#45,.T.);
#28=FACE_OUTER_BOUND('',#46,.T.);
#29=FACE_OUTER_BOUND('',#47,.T.);
#30=FACE_OUTER_BOUND('',#48,.T.);
#31=FACE_OUTER_BOUND('',#49,.T.);
#32=FACE_OUTER_BOUND('',#50,.T.);
#33=FACE_OUTER_BOUND('',#51,.T.);
#34=FACE_OUTER_BOUND('',#52,.T.);
#35=FACE_OUTER_BOUND('',#53,.T.);
#36=FACE_OUTER_BOUND('',#54,.T.);
#37=FACE_OUTER_BOUND('',#55,.T.);
#38=FACE_OUTER_BOUND('',#56,.T.);
#39=EDGE_LOOP('',(#225,#226,#227,#228));
#40=EDGE_LOOP('',(#229,#230,#231,#232));
#41=EDGE_LOOP('',(#233,#234,#235,#236));
#42=EDGE_LOOP('',(#237,#238,#239,#240));
#43=EDGE_LOOP('',(#241,#242,#243,#244));
#44=EDGE_LOOP('',(#245,#246,#247,#248));
#45=EDGE_LOOP('',(#249,#250,#251,#252));
#46=EDGE_LOOP('',(#253,#254,#255,#256));
#47=EDGE_LOOP('',(#257,#258,#259,#260,#261,#262,#263,#264,#265,#266,#267,
#268,#269,#270,#271,#272));
#48=EDGE_LOOP('',(#273,#274,#275,#276,#277,#278,#279,#280));
#49=EDGE_LOOP('',(#281,#282,#283,#284,#285,#286,#287,#288));
#50=EDGE_LOOP('',(#289,#290,#291,#292,#293,#294,#295,#296));
#51=EDGE_LOOP('',(#297,#298,#299,#300,#301,#302,#303,#304));
#52=EDGE_LOOP('',(#305,#306,#307,#308));
#53=EDGE_LOOP('',(#309,#310));
#54=EDGE_LOOP('',(#311,#312,#313,#314));
#55=EDGE_LOOP('',(#315,#316,#317,#318));
#56=EDGE_LOOP('',(#319,#320));
#57=LINE('',#485,#101);
#58=LINE('',#487,#102);
#59=LINE('',#489,#103);
#60=LINE('',#490,#104);
#61=LINE('',#493,#105);
#62=LINE('',#495,#106);
#63=LINE('',#496,#107);
#64=LINE('',#500,#108);
#65=LINE('',#502,#109);
#66=LINE('',#504,#110);
#67=LINE('',#505,#111);
#68=LINE('',#508,#112);
#69=LINE('',#510,#113);
#70=LINE('',#511,#114);
#71=LINE('',#514,#115);
#72=LINE('',#516,#116);
#73=LINE('',#517,#117);
#74=LINE('',#520,#118);
#75=LINE('',#522,#119);
#76=LINE('',#523,#120);
#77=LINE('',#525,#121);
#78=LINE('',#527,#122);
#79=LINE('',#530,#123);
#80=LINE('',#532,#124);
#81=LINE('',#536,#125);
#82=LINE('',#537,#126);
#83=LINE('',#539,#127);
#84=LINE('',#541,#128);
#85=LINE('',#545,#129);
#86=LINE('',#546,#130);
#87=LINE('',#549,#131);
#88=LINE('',#551,#132);
#89=LINE('',#552,#133);
#90=LINE('',#555,#134);
#91=LINE('',#557,#135);
#92=LINE('',#558,#136);
#93=LINE('',#560,#137);
#94=LINE('',#561,#138);
#95=LINE('',#564,#139);
#96=LINE('',#565,#140);
#97=LINE('',#568,#141);
#98=LINE('',#569,#142);
#99=LINE('',#571,#143);
#100=LINE('',#572,#144);
#101=VECTOR('',#395,10.);
#102=VECTOR('',#396,10.);
#103=VECTOR('',#397,10.);
#104=VECTOR('',#398,10.);
#105=VECTOR('',#401,10.);
#106=VECTOR('',#402,10.);
#107=VECTOR('',#403,10.);
#108=VECTOR('',#406,10.);
#109=VECTOR('',#407,10.);
#110=VECTOR('',#408,10.);
#111=VECTOR('',#409,10.);
#112=VECTOR('',#412,10.);
#113=VECTOR('',#413,10.);
#114=VECTOR('',#414,10.);
#115=VECTOR('',#417,10.);
#116=VECTOR('',#418,10.);
#117=VECTOR('',#419,10.);
#118=VECTOR('',#422,10.);
#119=VECTOR('',#423,10.);
#120=VECTOR('',#424,10.);
#121=VECTOR('',#427,10.);
#122=VECTOR('',#430,10.);
#123=VECTOR('',#433,10.);
#124=VECTOR('',#434,10.);
#125=VECTOR('',#437,10.);
#126=VECTOR('',#438,10.);
#127=VECTOR('',#439,10.);
#128=VECTOR('',#440,10.);
#129=VECTOR('',#443,10.);
#130=VECTOR('',#444,10.);
#131=VECTOR('',#447,10.);
#132=VECTOR('',#448,10.);
#133=VECTOR('',#449,10.);
#134=VECTOR('',#452,10.);
#135=VECTOR('',#453,10.);
#136=VECTOR('',#454,10.);
#137=VECTOR('',#455,10.);
#138=VECTOR('',#456,10.);
#139=VECTOR('',#459,10.);
#140=VECTOR('',#460,10.);
#141=VECTOR('',#463,10.);
#142=VECTOR('',#464,10.);
#143=VECTOR('',#465,10.);
#144=VECTOR('',#466,10.);
#145=VERTEX_POINT('',#483);
#146=VERTEX_POINT('',#484);
#147=VERTEX_POINT('',#486);
#148=VERTEX_POINT('',#488);
#149=VERTEX_POINT('',#492);
#150=VERTEX_POINT('',#494);
#151=VERTEX_POINT('',#498);
#152=VERTEX_POINT('',#499);
#153=VERTEX_POINT('',#501);
#154=VERTEX_POINT('',#503);
#155=VERTEX_POINT('',#507);
#156=VERTEX_POINT('',#509);
#157=VERTEX_POINT('',#513);
#158=VERTEX_POINT('',#515);
#159=VERTEX_POINT('',#519);
#160=VERTEX_POINT('',#521);
#161=VERTEX_POINT('',#529);
#162=VERTEX_POINT('',#531);
#163=VERTEX_POINT('',#533);
#164=VERTEX_POINT('',#535);
#165=VERTEX_POINT('',#538);
#166=VERTEX_POINT('',#540);
#167=VERTEX_POINT('',#542);
#168=VERTEX_POINT('',#544);
#169=VERTEX_POINT('',#548);
#170=VERTEX_POINT('',#550);
#171=VERTEX_POINT('',#554);
#172=VERTEX_POINT('',#556);
#173=VERTEX_POINT('',#559);
#174=VERTEX_POINT('',#563);
#175=VERTEX_POINT('',#567);
#176=VERTEX_POINT('',#570);
#177=EDGE_CURVE('',#145,#146,#57,.T.);
#178=EDGE_CURVE('',#145,#147,#58,.T.);
#179=EDGE_CURVE('',#147,#148,#59,.T.);
#180=EDGE_CURVE('',#146,#148,#60,.T.);
#181=EDGE_CURVE('',#146,#149,#61,.T.);
#182=EDGE_CURVE('',#148,#150,#62,.T.);
#183=EDGE_CURVE('',#150,#149,#63,.T.);
#184=EDGE_CURVE('',#151,#152,#64,.T.);
#185=EDGE_CURVE('',#151,#153,#65,.T.);
#186=EDGE_CURVE('',#153,#154,#66,.T.);
#187=EDGE_CURVE('',#154,#152,#67,.T.);
#188=EDGE_CURVE('',#149,#155,#68,.T.);
#189=EDGE_CURVE('',#156,#150,#69,.T.);
#190=EDGE_CURVE('',#156,#155,#70,.T.);
#191=EDGE_CURVE('',#157,#151,#71,.T.);
#192=EDGE_CURVE('',#157,#158,#72,.T.);
#193=EDGE_CURVE('',#158,#153,#73,.T.);
#194=EDGE_CURVE('',#152,#159,#74,.T.);
#195=EDGE_CURVE('',#160,#154,#75,.T.);
#196=EDGE_CURVE('',#160,#159,#76,.T.);
#197=EDGE_CURVE('',#158,#160,#77,.T.);
#198=EDGE_CURVE('',#147,#156,#78,.T.);
#199=EDGE_CURVE('',#161,#145,#79,.T.);
#200=EDGE_CURVE('',#162,#161,#80,.T.);
#201=EDGE_CURVE('',#163,#162,#17,.T.);
#202=EDGE_CURVE('',#164,#163,#81,.T.);
#203=EDGE_CURVE('',#159,#164,#82,.T.);
#204=EDGE_CURVE('',#165,#157,#83,.T.);
#205=EDGE_CURVE('',#166,#165,#84,.T.);
#206=EDGE_CURVE('',#167,#166,#18,.T.);
#207=EDGE_CURVE('',#168,#167,#85,.T.);
#208=EDGE_CURVE('',#155,#168,#86,.T.);
#209=EDGE_CURVE('',#168,#169,#87,.T.);
#210=EDGE_CURVE('',#170,#169,#88,.T.);
#211=EDGE_CURVE('',#161,#170,#89,.T.);
#212=EDGE_CURVE('',#171,#163,#90,.T.);
#213=EDGE_CURVE('',#172,#171,#91,.T.);
#214=EDGE_CURVE('',#162,#172,#92,.T.);
#215=EDGE_CURVE('',#173,#170,#93,.T.);
#216=EDGE_CURVE('',#164,#173,#94,.T.);
#217=EDGE_CURVE('',#174,#173,#95,.T.);
#218=EDGE_CURVE('',#165,#174,#96,.T.);
#219=EDGE_CURVE('',#166,#175,#97,.T.);
#220=EDGE_CURVE('',#169,#174,#98,.T.);
#221=EDGE_CURVE('',#176,#167,#99,.T.);
#222=EDGE_CURVE('',#175,#176,#100,.T.);
#223=EDGE_CURVE('',#176,#175,#19,.T.);
#224=EDGE_CURVE('',#171,#172,#20,.T.);
#225=ORIENTED_EDGE('',*,*,#177,.F.);
#226=ORIENTED_EDGE('',*,*,#178,.T.);
#227=ORIENTED_EDGE('',*,*,#179,.T.);
#228=ORIENTED_EDGE('',*,*,#180,.F.);
#229=ORIENTED_EDGE('',*,*,#181,.F.);
#230=ORIENTED_EDGE('',*,*,#180,.T.);
#231=ORIENTED_EDGE('',*,*,#182,.T.);
#232=ORIENTED_EDGE('',*,*,#183,.T.);
#233=ORIENTED_EDGE('',*,*,#184,.F.);
#234=ORIENTED_EDGE('',*,*,#185,.T.);
#235=ORIENTED_EDGE('',*,*,#186,.T.);
#236=ORIENTED_EDGE('',*,*,#187,.T.);
#237=ORIENTED_EDGE('',*,*,#188,.F.);
#238=ORIENTED_EDGE('',*,*,#183,.F.);
#239=ORIENTED_EDGE('',*,*,#189,.F.);
#240=ORIENTED_EDGE('',*,*,#190,.T.);
#241=ORIENTED_EDGE('',*,*,#191,.F.);
#242=ORIENTED_EDGE('',*,*,#192,.T.);
#243=ORIENTED_EDGE('',*,*,#193,.T.);
#244=ORIENTED_EDGE('',*,*,#185,.F.);
#245=ORIENTED_EDGE('',*,*,#194,.F.);
#246=ORIENTED_EDGE('',*,*,#187,.F.);
#247=ORIENTED_EDGE('',*,*,#195,.F.);
#248=ORIENTED_EDGE('',*,*,#196,.T.);
#249=ORIENTED_EDGE('',*,*,#197,.T.);
#250=ORIENTED_EDGE('',*,*,#195,.T.);
#251=ORIENTED_EDGE('',*,*,#186,.F.);
#252=ORIENTED_EDGE('',*,*,#193,.F.);
#253=ORIENTED_EDGE('',*,*,#198,.T.);
#254=ORIENTED_EDGE('',*,*,#189,.T.);
#255=ORIENTED_EDGE('',*,*,#182,.F.);
#256=ORIENTED_EDGE('',*,*,#179,.F.);
#257=ORIENTED_EDGE('',*,*,#199,.F.);
#258=ORIENTED_EDGE('',*,*,#200,.F.);
#259=ORIENTED_EDGE('',*,*,#201,.F.);
#260=ORIENTED_EDGE('',*,*,#202,.F.);
#261=ORIENTED_EDGE('',*,*,#203,.F.);
#262=ORIENTED_EDGE('',*,*,#196,.F.);
#263=ORIENTED_EDGE('',*,*,#197,.F.);
#264=ORIENTED_EDGE('',*,*,#192,.F.);
#265=ORIENTED_EDGE('',*,*,#204,.F.);
#266=ORIENTED_EDGE('',*,*,#205,.F.);
#267=ORIENTED_EDGE('',*,*,#206,.F.);
#268=ORIENTED_EDGE('',*,*,#207,.F.);
#269=ORIENTED_EDGE('',*,*,#208,.F.);
#270=ORIENTED_EDGE('',*,*,#190,.F.);
#271=ORIENTED_EDGE('',*,*,#198,.F.);
#272=ORIENTED_EDGE('',*,*,#178,.F.);
#273=ORIENTED_EDGE('',*,*,#177,.T.);
#274=ORIENTED_EDGE('',*,*,#181,.T.);
#275=ORIENTED_EDGE('',*,*,#188,.T.);
#276=ORIENTED_EDGE('',*,*,#208,.T.);
#277=ORIENTED_EDGE('',*,*,#209,.T.);
#278=ORIENTED_EDGE('',*,*,#210,.F.);
#279=ORIENTED_EDGE('',*,*,#211,.F.);
#280=ORIENTED_EDGE('',*,*,#199,.T.);
#281=ORIENTED_EDGE('',*,*,#212,.F.);
#282=ORIENTED_EDGE('',*,*,#213,.F.);
#283=ORIENTED_EDGE('',*,*,#214,.F.);
#284=ORIENTED_EDGE('',*,*,#200,.T.);
#285=ORIENTED_EDGE('',*,*,#211,.T.);
#286=ORIENTED_EDGE('',*,*,#215,.F.);
#287=ORIENTED_EDGE('',*,*,#216,.F.);
#288=ORIENTED_EDGE('',*,*,#202,.T.);
#289=ORIENTED_EDGE('',*,*,#194,.T.);
#290=ORIENTED_EDGE('',*,*,#203,.T.);
#291=ORIENTED_EDGE('',*,*,#216,.T.);
#292=ORIENTED_EDGE('',*,*,#217,.F.);
#293=ORIENTED_EDGE('',*,*,#218,.F.);
#294=ORIENTED_EDGE('',*,*,#204,.T.);
#295=ORIENTED_EDGE('',*,*,#191,.T.);
#296=ORIENTED_EDGE('',*,*,#184,.T.);
#297=ORIENTED_EDGE('',*,*,#219,.F.);
#298=ORIENTED_EDGE('',*,*,#205,.T.);
#299=ORIENTED_EDGE('',*,*,#218,.T.);
#300=ORIENTED_EDGE('',*,*,#220,.F.);
#301=ORIENTED_EDGE('',*,*,#209,.F.);
#302=ORIENTED_EDGE('',*,*,#207,.T.);
#303=ORIENTED_EDGE('',*,*,#221,.F.);
#304=ORIENTED_EDGE('',*,*,#222,.F.);
#305=ORIENTED_EDGE('',*,*,#210,.T.);
#306=ORIENTED_EDGE('',*,*,#220,.T.);
#307=ORIENTED_EDGE('',*,*,#217,.T.);
#308=ORIENTED_EDGE('',*,*,#215,.T.);
#309=ORIENTED_EDGE('',*,*,#222,.T.);
#310=ORIENTED_EDGE('',*,*,#223,.T.);
#311=ORIENTED_EDGE('',*,*,#219,.T.);
#312=ORIENTED_EDGE('',*,*,#223,.F.);
#313=ORIENTED_EDGE('',*,*,#221,.T.);
#314=ORIENTED_EDGE('',*,*,#206,.T.);
#315=ORIENTED_EDGE('',*,*,#212,.T.);
#316=ORIENTED_EDGE('',*,*,#201,.T.);
#317=ORIENTED_EDGE('',*,*,#214,.T.);
#318=ORIENTED_EDGE('',*,*,#224,.F.);
#319=ORIENTED_EDGE('',*,*,#213,.T.);
#320=ORIENTED_EDGE('',*,*,#224,.T.);
#321=PLANE('',#369);
#322=PLANE('',#370);
#323=PLANE('',#371);
#324=PLANE('',#372);
#325=PLANE('',#373);
#326=PLANE('',#374);
#327=PLANE('',#375);
#328=PLANE('',#376);
#329=PLANE('',#377);
#330=PLANE('',#380);
#331=PLANE('',#381);
#332=PLANE('',#382);
#333=PLANE('',#383);
#334=PLANE('',#384);
#335=PLANE('',#385);
#336=PLANE('',#390);
#337=ADVANCED_FACE('',(#21),#321,.T.);
#338=ADVANCED_FACE('',(#22),#322,.T.);
#339=ADVANCED_FACE('',(#23),#323,.T.);
#340=ADVANCED_FACE('',(#24),#324,.T.);
#341=ADVANCED_FACE('',(#25),#325,.T.);
#342=ADVANCED_FACE('',(#26),#326,.T.);
#343=ADVANCED_FACE('',(#27),#327,.T.);
#344=ADVANCED_FACE('',(#28),#328,.T.);
#345=ADVANCED_FACE('',(#29),#329,.F.);
#346=ADVANCED_FACE('',(#30),#330,.T.);
#347=ADVANCED_FACE('',(#31),#331,.T.);
#348=ADVANCED_FACE('',(#32),#332,.T.);
#349=ADVANCED_FACE('',(#33),#333,.T.);
#350=ADVANCED_FACE('',(#34),#334,.T.);
#351=ADVANCED_FACE('',(#35),#335,.T.);
#352=ADVANCED_FACE('',(#36),#15,.T.);
#353=ADVANCED_FACE('',(#37),#16,.T.);
#354=ADVANCED_FACE('',(#38),#336,.T.);
#355=CLOSED_SHELL('',(#337,#338,#339,#340,#341,#342,#343,#344,#345,#346,
#347,#348,#349,#350,#351,#352,#353,#354));
#356=DERIVED_UNIT_ELEMENT(#358,1.);
#357=DERIVED_UNIT_ELEMENT(#585,-3.);
#358=(
MASS_UNIT()
NAMED_UNIT(*)
SI_UNIT(.KILO.,.GRAM.)
);
#359=DERIVED_UNIT((#356,#357));
#360=MEASURE_REPRESENTATION_ITEM('density measure',
POSITIVE_RATIO_MEASURE(7850.),#359);
#361=PROPERTY_DEFINITION_REPRESENTATION(#366,#363);
#362=PROPERTY_DEFINITION_REPRESENTATION(#367,#364);
#363=REPRESENTATION('material name',(#365),#582);
#364=REPRESENTATION('density',(#360),#582);
#365=DESCRIPTIVE_REPRESENTATION_ITEM('Steel','Steel');
#366=PROPERTY_DEFINITION('material property','material name',#592);
#367=PROPERTY_DEFINITION('material property','density of part',#592);
#368=AXIS2_PLACEMENT_3D('',#481,#391,#392);
#369=AXIS2_PLACEMENT_3D('',#482,#393,#394);
#370=AXIS2_PLACEMENT_3D('',#491,#399,#400);
#371=AXIS2_PLACEMENT_3D('',#497,#404,#405);
#372=AXIS2_PLACEMENT_3D('',#506,#410,#411);
#373=AXIS2_PLACEMENT_3D('',#512,#415,#416);
#374=AXIS2_PLACEMENT_3D('',#518,#420,#421);
#375=AXIS2_PLACEMENT_3D('',#524,#425,#426);
#376=AXIS2_PLACEMENT_3D('',#526,#428,#429);
#377=AXIS2_PLACEMENT_3D('',#528,#431,#432);
#378=AXIS2_PLACEMENT_3D('',#534,#435,#436);
#379=AXIS2_PLACEMENT_3D('',#543,#441,#442);
#380=AXIS2_PLACEMENT_3D('',#547,#445,#446);
#381=AXIS2_PLACEMENT_3D('',#553,#450,#451);
#382=AXIS2_PLACEMENT_3D('',#562,#457,#458);
#383=AXIS2_PLACEMENT_3D('',#566,#461,#462);
#384=AXIS2_PLACEMENT_3D('',#573,#467,#468);
#385=AXIS2_PLACEMENT_3D('',#574,#469,#470);
#386=AXIS2_PLACEMENT_3D('',#575,#471,#472);
#387=AXIS2_PLACEMENT_3D('',#576,#473,#474);
#388=AXIS2_PLACEMENT_3D('',#577,#475,#476);
#389=AXIS2_PLACEMENT_3D('',#578,#477,#478);
#390=AXIS2_PLACEMENT_3D('',#579,#479,#480);
#391=DIRECTION('axis',(0.,0.,1.));
#392=DIRECTION('refdir',(1.,0.,0.));
#393=DIRECTION('center_axis',(0.,-1.,0.));
#394=DIRECTION('ref_axis',(1.,0.,0.));
#395=DIRECTION('',(0.,0.,1.));
#396=DIRECTION('',(1.,0.,0.));
#397=DIRECTION('',(0.,0.,1.));
#398=DIRECTION('',(1.,0.,0.));
#399=DIRECTION('center_axis',(0.,0.,1.));
#400=DIRECTION('ref_axis',(1.,0.,0.));
#401=DIRECTION('',(1.41429684665625E-16,1.,0.));
#402=DIRECTION('',(4.35381578284375E-16,1.,0.));
#403=DIRECTION('',(-1.,2.40308013988129E-17,0.));
#404=DIRECTION('center_axis',(0.,0.,1.));
#405=DIRECTION('ref_axis',(1.,0.,0.));
#406=DIRECTION('',(0.,-1.,0.));
#407=DIRECTION('',(-1.,2.40308013988129E-17,0.));
#408=DIRECTION('',(0.,-1.,0.));
#409=DIRECTION('',(1.,0.,0.));
#410=DIRECTION('center_axis',(2.40308013988129E-17,1.,0.));
#411=DIRECTION('ref_axis',(-1.,2.40308013988129E-17,0.));
#412=DIRECTION('',(0.,0.,-1.));
#413=DIRECTION('',(0.,0.,1.));
#414=DIRECTION('',(-1.,2.40308013988129E-17,0.));
#415=DIRECTION('center_axis',(2.40308013988129E-17,1.,0.));
#416=DIRECTION('ref_axis',(-1.,2.40308013988129E-17,0.));
#417=DIRECTION('',(0.,0.,1.));
#418=DIRECTION('',(-1.,2.40308013988129E-17,0.));
#419=DIRECTION('',(0.,0.,1.));
#420=DIRECTION('center_axis',(0.,-1.,0.));
#421=DIRECTION('ref_axis',(1.,0.,0.));
#422=DIRECTION('',(0.,0.,-1.));
#423=DIRECTION('',(0.,0.,1.));
#424=DIRECTION('',(1.,0.,0.));
#425=DIRECTION('center_axis',(-1.,0.,0.));
#426=DIRECTION('ref_axis',(0.,-1.,0.));
#427=DIRECTION('',(0.,-1.,0.));
#428=DIRECTION('center_axis',(1.,-4.35381578284375E-16,0.));
#429=DIRECTION('ref_axis',(4.35381578284375E-16,1.,0.));
#430=DIRECTION('',(4.35381578284375E-16,1.,0.));
#431=DIRECTION('center_axis',(0.,0.,1.));
#432=DIRECTION('ref_axis',(1.,0.,0.));
#433=DIRECTION('',(1.41429684665625E-16,1.,0.));
#434=DIRECTION('',(1.,5.26172049585382E-17,0.));
#435=DIRECTION('center_axis',(0.,0.,1.));
#436=DIRECTION('ref_axis',(1.,0.,0.));
#437=DIRECTION('',(1.,5.26172049585382E-17,0.));
#438=DIRECTION('',(0.,-1.,0.));
#439=DIRECTION('',(0.,-1.,0.));
#440=DIRECTION('',(-1.,0.,0.));
#441=DIRECTION('center_axis',(0.,0.,1.));
#442=DIRECTION('ref_axis',(1.,0.,0.));
#443=DIRECTION('',(-1.,0.,0.));
#444=DIRECTION('',(1.41429684665625E-16,1.,0.));
#445=DIRECTION('center_axis',(1.,-1.41429684665625E-16,0.));
#446=DIRECTION('ref_axis',(1.41429684665625E-16,1.,0.));
#447=DIRECTION('',(0.,0.,1.));
#448=DIRECTION('',(1.41429684665625E-16,1.,0.));
#449=DIRECTION('',(0.,0.,1.));
#450=DIRECTION('center_axis',(5.26172049585382E-17,-1.,0.));
#451=DIRECTION('ref_axis',(1.,5.26172049585382E-17,0.));
#452=DIRECTION('',(0.,0.,-1.));
#453=DIRECTION('',(-1.,-5.26172049585382E-17,0.));
#454=DIRECTION('',(0.,0.,1.));
#455=DIRECTION('',(1.,5.26172049585382E-17,0.));
#456=DIRECTION('',(0.,0.,1.));
#457=DIRECTION('center_axis',(-1.,0.,0.));
#458=DIRECTION('ref_axis',(0.,-1.,0.));
#459=DIRECTION('',(0.,-1.,0.));
#460=DIRECTION('',(0.,0.,1.));
#461=DIRECTION('center_axis',(0.,1.,0.));
#462=DIRECTION('ref_axis',(-1.,0.,0.));
#463=DIRECTION('',(0.,0.,1.));
#464=DIRECTION('',(-1.,0.,0.));
#465=DIRECTION('',(0.,0.,-1.));
#466=DIRECTION('',(1.,0.,0.));
#467=DIRECTION('center_axis',(0.,0.,1.));
#468=DIRECTION('ref_axis',(1.,0.,0.));
#469=DIRECTION('center_axis',(0.,0.,1.));
#470=DIRECTION('ref_axis',(1.,0.,0.));
#471=DIRECTION('center_axis',(0.,0.,1.));
#472=DIRECTION('ref_axis',(1.,0.,0.));
#473=DIRECTION('center_axis',(0.,0.,1.));
#474=DIRECTION('ref_axis',(1.,0.,0.));
#475=DIRECTION('center_axis',(0.,0.,1.));
#476=DIRECTION('ref_axis',(1.,0.,0.));
#477=DIRECTION('center_axis',(0.,0.,1.));
#478=DIRECTION('ref_axis',(1.,0.,0.));
#479=DIRECTION('center_axis',(0.,0.,1.));
#480=DIRECTION('ref_axis',(1.,0.,0.));
#481=CARTESIAN_POINT('',(0.,0.,0.));
#482=CARTESIAN_POINT('Origin',(-11.55,-2.55,0.));
#483=CARTESIAN_POINT('',(10.5500000000025,-2.55,0.));
#484=CARTESIAN_POINT('',(10.5500000000025,-2.55,0.2));
#485=CARTESIAN_POINT('',(10.5500000000025,-2.55,0.));
#486=CARTESIAN_POINT('',(11.55,-2.55,0.));
#487=CARTESIAN_POINT('',(-11.55,-2.55,0.));
#488=CARTESIAN_POINT('',(11.55,-2.55,0.2));
#489=CARTESIAN_POINT('',(11.55,-2.55,0.));
#490=CARTESIAN_POINT('',(-11.55,-2.55,0.2));
#491=CARTESIAN_POINT('Origin',(-4.66293670342566E-14,-3.88578058618805E-15,
0.2));
#492=CARTESIAN_POINT('',(10.5500000000025,2.55,0.2));
#493=CARTESIAN_POINT('',(10.5500000000025,-3.92499999999855,0.2));
#494=CARTESIAN_POINT('',(11.55,2.55,0.2));
#495=CARTESIAN_POINT('',(11.55,-2.55,0.2));
#496=CARTESIAN_POINT('',(11.55,2.55,0.2));
#497=CARTESIAN_POINT('Origin',(-4.66293670342566E-14,-3.88578058618805E-15,
0.2));
#498=CARTESIAN_POINT('',(-10.5499999999975,2.55,0.2));
#499=CARTESIAN_POINT('',(-10.5499999999975,-2.55,0.2));
#500=CARTESIAN_POINT('',(-10.5499999999975,3.92500000000145,0.2));
#501=CARTESIAN_POINT('',(-11.55,2.55,0.2));
#502=CARTESIAN_POINT('',(11.55,2.55,0.2));
#503=CARTESIAN_POINT('',(-11.55,-2.55,0.2));
#504=CARTESIAN_POINT('',(-11.55,2.55,0.2));
#505=CARTESIAN_POINT('',(-11.55,-2.55,0.2));
#506=CARTESIAN_POINT('Origin',(11.55,2.55,0.));
#507=CARTESIAN_POINT('',(10.5500000000025,2.55,0.));
#508=CARTESIAN_POINT('',(10.5500000000025,2.54999999999999,0.));
#509=CARTESIAN_POINT('',(11.55,2.55,0.));
#510=CARTESIAN_POINT('',(11.55,2.55,0.));
#511=CARTESIAN_POINT('',(11.55,2.55,0.));
#512=CARTESIAN_POINT('Origin',(11.55,2.55,0.));
#513=CARTESIAN_POINT('',(-10.5499999999975,2.55,0.));
#514=CARTESIAN_POINT('',(-10.5499999999975,2.55,0.));
#515=CARTESIAN_POINT('',(-11.55,2.55,0.));
#516=CARTESIAN_POINT('',(11.55,2.55,0.));
#517=CARTESIAN_POINT('',(-11.55,2.55,0.));
#518=CARTESIAN_POINT('Origin',(-11.55,-2.55,0.));
#519=CARTESIAN_POINT('',(-10.5499999999975,-2.55,0.));
#520=CARTESIAN_POINT('',(-10.5499999999975,-2.55,0.));
#521=CARTESIAN_POINT('',(-11.55,-2.55,0.));
#522=CARTESIAN_POINT('',(-11.55,-2.55,0.));
#523=CARTESIAN_POINT('',(-11.55,-2.55,0.));
#524=CARTESIAN_POINT('Origin',(-11.55,2.55,0.));
#525=CARTESIAN_POINT('',(-11.55,2.55,0.));
#526=CARTESIAN_POINT('Origin',(11.55,-2.55,0.));
#527=CARTESIAN_POINT('',(11.55,-2.55,0.));
#528=CARTESIAN_POINT('Origin',(0.,0.,0.));
#529=CARTESIAN_POINT('',(10.5500000000025,-7.8499999999971,0.));
#530=CARTESIAN_POINT('',(10.5500000000025,-7.8499999999971,0.));
#531=CARTESIAN_POINT('',(6.19495762697741,-7.8499999999971,0.));
#532=CARTESIAN_POINT('',(-10.5499999999975,-7.8499999999971,0.));
#533=CARTESIAN_POINT('',(-6.19495762697741,-7.8499999999971,0.));
#534=CARTESIAN_POINT('Origin',(0.,0.,0.));
#535=CARTESIAN_POINT('',(-10.5499999999975,-7.8499999999971,0.));
#536=CARTESIAN_POINT('',(-10.5499999999975,-7.8499999999971,0.));
#537=CARTESIAN_POINT('',(-10.5499999999975,7.8500000000029,0.));
#538=CARTESIAN_POINT('',(-10.5499999999975,7.8500000000029,0.));
#539=CARTESIAN_POINT('',(-10.5499999999975,7.8500000000029,0.));
#540=CARTESIAN_POINT('',(-6.19495762697005,7.8500000000029,0.));
#541=CARTESIAN_POINT('',(10.5500000000025,7.8500000000029,0.));
#542=CARTESIAN_POINT('',(6.19495762697005,7.8500000000029,0.));
#543=CARTESIAN_POINT('Origin',(0.,0.,0.));
#544=CARTESIAN_POINT('',(10.5500000000025,7.8500000000029,0.));
#545=CARTESIAN_POINT('',(10.5500000000025,7.8500000000029,0.));
#546=CARTESIAN_POINT('',(10.5500000000025,-7.8499999999971,0.));
#547=CARTESIAN_POINT('Origin',(10.5500000000025,-7.8499999999971,0.));
#548=CARTESIAN_POINT('',(10.5500000000025,7.8500000000029,1.7));
#549=CARTESIAN_POINT('',(10.5500000000025,7.8500000000029,0.));
#550=CARTESIAN_POINT('',(10.5500000000025,-7.8499999999971,1.7));
#551=CARTESIAN_POINT('',(10.5500000000025,-7.8499999999971,1.7));
#552=CARTESIAN_POINT('',(10.5500000000025,-7.8499999999971,0.));
#553=CARTESIAN_POINT('Origin',(-10.5499999999975,-7.8499999999971,0.));
#554=CARTESIAN_POINT('',(-6.19495762697741,-7.8499999999971,1.2));
#555=CARTESIAN_POINT('',(-6.19495762697741,-7.8499999999971,0.));
#556=CARTESIAN_POINT('',(6.19495762697741,-7.8499999999971,1.2));
#557=CARTESIAN_POINT('',(-5.27499999999876,-7.8499999999971,1.2));
#558=CARTESIAN_POINT('',(6.19495762697741,-7.8499999999971,0.));
#559=CARTESIAN_POINT('',(-10.5499999999975,-7.8499999999971,1.7));
#560=CARTESIAN_POINT('',(-10.5499999999975,-7.8499999999971,1.7));
#561=CARTESIAN_POINT('',(-10.5499999999975,-7.8499999999971,0.));
#562=CARTESIAN_POINT('Origin',(-10.5499999999975,7.8500000000029,0.));
#563=CARTESIAN_POINT('',(-10.5499999999975,7.8500000000029,1.7));
#564=CARTESIAN_POINT('',(-10.5499999999975,7.8500000000029,1.7));
#565=CARTESIAN_POINT('',(-10.5499999999975,7.8500000000029,0.));
#566=CARTESIAN_POINT('Origin',(10.5500000000025,7.8500000000029,0.));
#567=CARTESIAN_POINT('',(-6.19495762697005,7.8500000000029,1.2));
#568=CARTESIAN_POINT('',(-6.19495762697005,7.8500000000029,0.));
#569=CARTESIAN_POINT('',(10.5500000000025,7.8500000000029,1.7));
#570=CARTESIAN_POINT('',(6.19495762697005,7.8500000000029,1.2));
#571=CARTESIAN_POINT('',(6.19495762697005,7.8500000000029,0.));
#572=CARTESIAN_POINT('',(5.27500000000124,7.8500000000029,1.2));
#573=CARTESIAN_POINT('Origin',(2.4846791291111E-12,2.90212298637016E-12,
1.7));
#574=CARTESIAN_POINT('Origin',(0.,0.,1.2));
#575=CARTESIAN_POINT('Origin',(0.,0.,1.2));
#576=CARTESIAN_POINT('Origin',(0.,0.,0.));
#577=CARTESIAN_POINT('Origin',(0.,0.,0.));
#578=CARTESIAN_POINT('Origin',(0.,0.,1.2));
#579=CARTESIAN_POINT('Origin',(0.,0.,1.2));
#580=UNCERTAINTY_MEASURE_WITH_UNIT(LENGTH_MEASURE(0.01),#584,
'DISTANCE_ACCURACY_VALUE',
'Maximum model space distance between geometric entities at asserted c
onnectivities');
#581=UNCERTAINTY_MEASURE_WITH_UNIT(LENGTH_MEASURE(0.01),#584,
'DISTANCE_ACCURACY_VALUE',
'Maximum model space distance between geometric entities at asserted c
onnectivities');
#582=(
GEOMETRIC_REPRESENTATION_CONTEXT(3)
GLOBAL_UNCERTAINTY_ASSIGNED_CONTEXT((#580))
GLOBAL_UNIT_ASSIGNED_CONTEXT((#584,#586,#587))
REPRESENTATION_CONTEXT('','3D')
);
#583=(
GEOMETRIC_REPRESENTATION_CONTEXT(3)
GLOBAL_UNCERTAINTY_ASSIGNED_CONTEXT((#581))
GLOBAL_UNIT_ASSIGNED_CONTEXT((#584,#586,#587))
REPRESENTATION_CONTEXT('','3D')
);
#584=(
LENGTH_UNIT()
NAMED_UNIT(*)
SI_UNIT(.MILLI.,.METRE.)
);
#585=(
LENGTH_UNIT()
NAMED_UNIT(*)
SI_UNIT($,.METRE.)
);
#586=(
NAMED_UNIT(*)
PLANE_ANGLE_UNIT()
SI_UNIT($,.RADIAN.)
);
#587=(
NAMED_UNIT(*)
SI_UNIT($,.STERADIAN.)
SOLID_ANGLE_UNIT()
);
#588=SHAPE_DEFINITION_REPRESENTATION(#589,#590);
#589=PRODUCT_DEFINITION_SHAPE('',$,#592);
#590=SHAPE_REPRESENTATION('',(#368),#582);
#591=PRODUCT_DEFINITION_CONTEXT('part definition',#596,'design');
#592=PRODUCT_DEFINITION('3028_2012BATTEYRHOLDER',
'3028_2012BATTEYRHOLDER v1',#593,#591);
#593=PRODUCT_DEFINITION_FORMATION('',$,#598);
#594=PRODUCT_RELATED_PRODUCT_CATEGORY('3028_2012BATTEYRHOLDER v1',
'3028_2012BATTEYRHOLDER v1',(#598));
#595=APPLICATION_PROTOCOL_DEFINITION('international standard',
'automotive_design',2009,#596);
#596=APPLICATION_CONTEXT(
'Core Data for Automotive Mechanical Design Process');
#597=PRODUCT_CONTEXT('part definition',#596,'mechanical');
#598=PRODUCT('3028_2012BATTEYRHOLDER','3028_2012BATTEYRHOLDER v1',$,(#597));
#599=PRESENTATION_STYLE_ASSIGNMENT((#600));
#600=SURFACE_STYLE_USAGE(.BOTH.,#601);
#601=SURFACE_SIDE_STYLE('',(#602));
#602=SURFACE_STYLE_FILL_AREA(#603);
#603=FILL_AREA_STYLE('Steel - Satin',(#604));
#604=FILL_AREA_STYLE_COLOUR('Steel - Satin',#605);
#605=COLOUR_RGB('Steel - Satin',0.627450980392157,0.627450980392157,0.627450980392157);
ENDSEC;
END-ISO-10303-21;
