%TF.GenerationSoftware,KiCad,Pcbnew,10.0.2*%
%TF.CreationDate,2026-06-30T18:15:28-07:00*%
%TF.ProjectId,satWatch_main_LargePrototype,73617457-6174-4636-985f-6d61696e5f4c,v1*%
%TF.SameCoordinates,Original*%
%TF.FileFunction,Soldermask,Top*%
%TF.FilePolarity,Negative*%
%FSLAX46Y46*%
G04 Gerber Fmt 4.6, Leading zero omitted, Abs format (unit mm)*
G04 Created by KiCad (PCBNEW 10.0.2) date 2026-06-30 18:15:28*
%MOMM*%
%LPD*%
G01*
G04 APERTURE LIST*
G04 Aperture macros list*
%AMRoundRect*
0 Rectangle with rounded corners*
0 $1 Rounding radius*
0 $2 $3 $4 $5 $6 $7 $8 $9 X,Y pos of 4 corners*
0 Add a 4 corners polygon primitive as box body*
4,1,4,$2,$3,$4,$5,$6,$7,$8,$9,$2,$3,0*
0 Add four circle primitives for the rounded corners*
1,1,$1+$1,$2,$3*
1,1,$1+$1,$4,$5*
1,1,$1+$1,$6,$7*
1,1,$1+$1,$8,$9*
0 Add four rect primitives between the rounded corners*
20,1,$1+$1,$2,$3,$4,$5,0*
20,1,$1+$1,$4,$5,$6,$7,0*
20,1,$1+$1,$6,$7,$8,$9,0*
20,1,$1+$1,$8,$9,$2,$3,0*%
%AMOutline5P*
0 Free polygon, 5 corners , with rotation*
0 The origin of the aperture is its center*
0 number of corners: always 5*
0 $1 to $10 corner X, Y*
0 $11 Rotation angle, in degrees counterclockwise*
0 create outline with 5 corners*
4,1,5,$1,$2,$3,$4,$5,$6,$7,$8,$9,$10,$1,$2,$11*%
%AMOutline6P*
0 Free polygon, 6 corners , with rotation*
0 The origin of the aperture is its center*
0 number of corners: always 6*
0 $1 to $12 corner X, Y*
0 $13 Rotation angle, in degrees counterclockwise*
0 create outline with 6 corners*
4,1,6,$1,$2,$3,$4,$5,$6,$7,$8,$9,$10,$11,$12,$1,$2,$13*%
%AMOutline7P*
0 Free polygon, 7 corners , with rotation*
0 The origin of the aperture is its center*
0 number of corners: always 7*
0 $1 to $14 corner X, Y*
0 $15 Rotation angle, in degrees counterclockwise*
0 create outline with 7 corners*
4,1,7,$1,$2,$3,$4,$5,$6,$7,$8,$9,$10,$11,$12,$13,$14,$1,$2,$15*%
%AMOutline8P*
0 Free polygon, 8 corners , with rotation*
0 The origin of the aperture is its center*
0 number of corners: always 8*
0 $1 to $16 corner X, Y*
0 $17 Rotation angle, in degrees counterclockwise*
0 create outline with 8 corners*
4,1,8,$1,$2,$3,$4,$5,$6,$7,$8,$9,$10,$11,$12,$13,$14,$15,$16,$1,$2,$17*%
G04 Aperture macros list end*
%ADD10RoundRect,0.150000X-0.825000X-0.150000X0.825000X-0.150000X0.825000X0.150000X-0.825000X0.150000X0*%
%ADD11R,2.410000X3.300000*%
%ADD12RoundRect,0.237500X-0.237500X0.300000X-0.237500X-0.300000X0.237500X-0.300000X0.237500X0.300000X0*%
%ADD13C,2.500000*%
%ADD14RoundRect,0.237500X-0.237500X0.250000X-0.237500X-0.250000X0.237500X-0.250000X0.237500X0.250000X0*%
%ADD15RoundRect,0.237500X-0.250000X-0.237500X0.250000X-0.237500X0.250000X0.237500X-0.250000X0.237500X0*%
%ADD16RoundRect,0.237500X-0.300000X-0.237500X0.300000X-0.237500X0.300000X0.237500X-0.300000X0.237500X0*%
%ADD17RoundRect,0.198500X0.198500X-0.508500X0.198500X0.508500X-0.198500X0.508500X-0.198500X-0.508500X0*%
%ADD18RoundRect,0.025400X-0.300000X-0.575000X0.300000X-0.575000X0.300000X0.575000X-0.300000X0.575000X0*%
%ADD19RoundRect,0.025400X-0.150000X-0.575000X0.150000X-0.575000X0.150000X0.575000X-0.150000X0.575000X0*%
%ADD20O,1.254000X2.454000*%
%ADD21O,1.254000X2.054000*%
%ADD22R,0.900000X1.700000*%
%ADD23RoundRect,0.237500X-0.287500X-0.237500X0.287500X-0.237500X0.287500X0.237500X-0.287500X0.237500X0*%
%ADD24RoundRect,0.150000X0.150000X-0.512500X0.150000X0.512500X-0.150000X0.512500X-0.150000X-0.512500X0*%
%ADD25RoundRect,0.237500X0.237500X-0.287500X0.237500X0.287500X-0.237500X0.287500X-0.237500X-0.287500X0*%
%ADD26RoundRect,0.237500X0.300000X0.237500X-0.300000X0.237500X-0.300000X-0.237500X0.300000X-0.237500X0*%
%ADD27RoundRect,0.237500X0.250000X0.237500X-0.250000X0.237500X-0.250000X-0.237500X0.250000X-0.237500X0*%
%ADD28RoundRect,0.237500X0.237500X-0.250000X0.237500X0.250000X-0.237500X0.250000X-0.237500X-0.250000X0*%
%ADD29R,1.041400X0.381000*%
%ADD30RoundRect,0.102000X0.125000X0.337500X-0.125000X0.337500X-0.125000X-0.337500X0.125000X-0.337500X0*%
%ADD31RoundRect,0.102000X0.287500X0.125000X-0.287500X0.125000X-0.287500X-0.125000X0.287500X-0.125000X0*%
%ADD32RoundRect,0.237500X0.237500X-0.300000X0.237500X0.300000X-0.237500X0.300000X-0.237500X-0.300000X0*%
%ADD33R,1.700000X1.700000*%
%ADD34C,1.700000*%
%ADD35RoundRect,0.102000X-1.980000X-1.980000X1.980000X-1.980000X1.980000X1.980000X-1.980000X1.980000X0*%
%ADD36C,2.979000*%
%ADD37RoundRect,0.150000X-0.150000X0.825000X-0.150000X-0.825000X0.150000X-0.825000X0.150000X0.825000X0*%
%ADD38RoundRect,0.025400X-0.175000X-0.130000X0.175000X-0.130000X0.175000X0.130000X-0.175000X0.130000X0*%
%ADD39RoundRect,0.025400X-0.220000X-0.720000X0.220000X-0.720000X0.220000X0.720000X-0.220000X0.720000X0*%
%ADD40RoundRect,0.150000X0.512500X0.150000X-0.512500X0.150000X-0.512500X-0.150000X0.512500X-0.150000X0*%
%ADD41RoundRect,0.237500X-0.237500X0.287500X-0.237500X-0.287500X0.237500X-0.287500X0.237500X0.287500X0*%
%ADD42RoundRect,0.110000X-0.440000X-0.840000X0.440000X-0.840000X0.440000X0.840000X-0.440000X0.840000X0*%
%ADD43R,0.800000X0.400000*%
%ADD44R,0.400000X0.800000*%
%ADD45Outline5P,-0.600000X0.204000X-0.204000X0.600000X0.600000X0.600000X0.600000X-0.600000X-0.600000X-0.600000X0.000000*%
%ADD46R,1.200000X1.200000*%
%ADD47R,0.800000X0.800000*%
%ADD48RoundRect,0.087500X0.087500X-0.425000X0.087500X0.425000X-0.087500X0.425000X-0.087500X-0.425000X0*%
G04 APERTURE END LIST*
D10*
%TO.C,U8*%
X85350000Y-72100000D03*
X85350000Y-73370000D03*
X85350000Y-74640000D03*
X85350000Y-75910000D03*
X90300000Y-75910000D03*
X90300000Y-74640000D03*
X90300000Y-73370000D03*
X90300000Y-72100000D03*
D11*
X87825000Y-74005000D03*
%TD*%
D12*
%TO.C,C12*%
X193600000Y-97000000D03*
X193600000Y-98725000D03*
%TD*%
%TO.C,C27*%
X212062500Y-98337500D03*
X212062500Y-100062500D03*
%TD*%
D13*
%TO.C,TP9*%
X176975000Y-72550000D03*
%TD*%
D14*
%TO.C,R23*%
X93875000Y-71480000D03*
X93875000Y-73305000D03*
%TD*%
%TO.C,R2*%
X148250000Y-66087500D03*
X148250000Y-67912500D03*
%TD*%
D15*
%TO.C,R32*%
X212087500Y-94500000D03*
X213912500Y-94500000D03*
%TD*%
D13*
%TO.C,TP20*%
X144200000Y-105400000D03*
%TD*%
D16*
%TO.C,C7*%
X108775000Y-102150000D03*
X110500000Y-102150000D03*
%TD*%
D17*
%TO.C,Q1*%
X94300000Y-91510000D03*
X95250000Y-91510000D03*
X96200000Y-91510000D03*
X96200000Y-89000000D03*
X95250000Y-89000000D03*
X94300000Y-89000000D03*
%TD*%
D13*
%TO.C,TP17*%
X174600000Y-100150000D03*
%TD*%
D18*
%TO.C,J2*%
X119225000Y-112070000D03*
X120025000Y-112070000D03*
D19*
X121175000Y-112070000D03*
X122175000Y-112070000D03*
X122675000Y-112070000D03*
X123675000Y-112070000D03*
D18*
X125625000Y-112070000D03*
X124825000Y-112070000D03*
D19*
X124175000Y-112070000D03*
X123175000Y-112070000D03*
X121675000Y-112070000D03*
X120675000Y-112070000D03*
D20*
X116850000Y-117250000D03*
D21*
X116850000Y-113250000D03*
D20*
X128000000Y-117250000D03*
D21*
X128000000Y-113250000D03*
%TD*%
D22*
%TO.C,SW4*%
X163000000Y-105200000D03*
X166400000Y-105200000D03*
%TD*%
D23*
%TO.C,D3*%
X113350000Y-109250000D03*
X115100000Y-109250000D03*
%TD*%
D12*
%TO.C,C24*%
X206962500Y-102862500D03*
X206962500Y-104587500D03*
%TD*%
D24*
%TO.C,Q4*%
X183975000Y-87537500D03*
X185875000Y-87537500D03*
X184925000Y-85262500D03*
%TD*%
D13*
%TO.C,TP10*%
X120250000Y-74000000D03*
%TD*%
D25*
%TO.C,D7*%
X93875000Y-69480000D03*
X93875000Y-67730000D03*
%TD*%
D26*
%TO.C,C26*%
X208387500Y-90562500D03*
X206662500Y-90562500D03*
%TD*%
D27*
%TO.C,R26*%
X213887500Y-90462500D03*
X212062500Y-90462500D03*
%TD*%
D28*
%TO.C,R12*%
X179825000Y-87625000D03*
X179825000Y-85800000D03*
%TD*%
D14*
%TO.C,R18*%
X123000000Y-104837500D03*
X123000000Y-106662500D03*
%TD*%
D29*
%TO.C,U7*%
X168258200Y-73849280D03*
X168258200Y-74499520D03*
X168258200Y-75149760D03*
X168258200Y-75800000D03*
X172500000Y-75800000D03*
X172500000Y-75149760D03*
X172500000Y-74499520D03*
X172500000Y-73849280D03*
%TD*%
D25*
%TO.C,D2*%
X104250000Y-104025000D03*
X104250000Y-102275000D03*
%TD*%
D28*
%TO.C,R25*%
X98800000Y-91075000D03*
X98800000Y-89250000D03*
%TD*%
D26*
%TO.C,C20*%
X90300000Y-78100000D03*
X88575000Y-78100000D03*
%TD*%
D13*
%TO.C,TP5*%
X118500000Y-105000000D03*
%TD*%
D28*
%TO.C,R13*%
X188675000Y-87587500D03*
X188675000Y-85762500D03*
%TD*%
D15*
%TO.C,R3*%
X174850000Y-75850000D03*
X176675000Y-75850000D03*
%TD*%
D14*
%TO.C,R7*%
X97050000Y-71350000D03*
X97050000Y-73175000D03*
%TD*%
D22*
%TO.C,SW5*%
X137212500Y-105487500D03*
X140612500Y-105487500D03*
%TD*%
D30*
%TO.C,U12*%
X209262500Y-96812500D03*
D31*
X209325000Y-96000000D03*
X209325000Y-95500000D03*
X209325000Y-95000000D03*
X209325000Y-94500000D03*
D30*
X209262500Y-93687500D03*
X208762500Y-93687500D03*
X208262500Y-93687500D03*
X207762500Y-93687500D03*
X207262500Y-93687500D03*
X206762500Y-93687500D03*
X206262500Y-93687500D03*
X205762500Y-93687500D03*
X205262500Y-93687500D03*
X204762500Y-93687500D03*
D31*
X204700000Y-94500000D03*
X204700000Y-95000000D03*
X204700000Y-95500000D03*
X204700000Y-96000000D03*
D30*
X204762500Y-96812500D03*
X205262500Y-96812500D03*
X205762500Y-96812500D03*
X206262500Y-96812500D03*
X206762500Y-96812500D03*
X207262500Y-96812500D03*
X207762500Y-96812500D03*
X208262500Y-96812500D03*
X208762500Y-96812500D03*
%TD*%
D27*
%TO.C,R20*%
X185800000Y-90300000D03*
X183975000Y-90300000D03*
%TD*%
D15*
%TO.C,R5*%
X128175000Y-105500000D03*
X130000000Y-105500000D03*
%TD*%
D32*
%TO.C,C6*%
X112500000Y-99250000D03*
X112500000Y-97525000D03*
%TD*%
D16*
%TO.C,C8*%
X155825000Y-73300000D03*
X157550000Y-73300000D03*
%TD*%
D33*
%TO.C,J5*%
X84560000Y-101500000D03*
D34*
X87100000Y-101500000D03*
X84560000Y-104040000D03*
X87100000Y-104040000D03*
X84560000Y-106580000D03*
X87100000Y-106580000D03*
%TD*%
D23*
%TO.C,L1*%
X165025000Y-70800000D03*
X166775000Y-70800000D03*
%TD*%
D33*
%TO.C,J1*%
X119560000Y-94540000D03*
D34*
X119560000Y-92000000D03*
X122100000Y-94540000D03*
X122100000Y-92000000D03*
X124640000Y-94540000D03*
X124640000Y-92000000D03*
X127180000Y-94540000D03*
X127180000Y-92000000D03*
X129720000Y-94540000D03*
X129720000Y-92000000D03*
X132260000Y-94540000D03*
X132260000Y-92000000D03*
X134800000Y-94540000D03*
X134800000Y-92000000D03*
X137340000Y-94540000D03*
X137340000Y-92000000D03*
X139880000Y-94540000D03*
X139880000Y-92000000D03*
X142420000Y-94540000D03*
X142420000Y-92000000D03*
X144960000Y-94540000D03*
X144960000Y-92000000D03*
X147500000Y-94540000D03*
X147500000Y-92000000D03*
X150040000Y-94540000D03*
X150040000Y-92000000D03*
X152580000Y-94540000D03*
X152580000Y-92000000D03*
X155120000Y-94540000D03*
X155120000Y-92000000D03*
X157660000Y-94540000D03*
X157660000Y-92000000D03*
X160200000Y-94540000D03*
X160200000Y-92000000D03*
%TD*%
D13*
%TO.C,TP11*%
X152000000Y-69000000D03*
%TD*%
D15*
%TO.C,R9*%
X103925000Y-73250000D03*
X105750000Y-73250000D03*
%TD*%
D14*
%TO.C,R16*%
X105000000Y-82175000D03*
X105000000Y-84000000D03*
%TD*%
D27*
%TO.C,R19*%
X177400000Y-90300000D03*
X175575000Y-90300000D03*
%TD*%
D15*
%TO.C,R1*%
X122000000Y-68162500D03*
X123825000Y-68162500D03*
%TD*%
D35*
%TO.C,BT3*%
X192300000Y-109800000D03*
D36*
X185700000Y-109800000D03*
X198900000Y-109800000D03*
%TD*%
D14*
%TO.C,R10*%
X106500000Y-100237500D03*
X106500000Y-102062500D03*
%TD*%
D32*
%TO.C,C19*%
X92050000Y-82650000D03*
X92050000Y-80925000D03*
%TD*%
%TO.C,C2*%
X116490000Y-68000000D03*
X116490000Y-66275000D03*
%TD*%
D13*
%TO.C,TP3*%
X83750000Y-83500000D03*
%TD*%
D37*
%TO.C,U5*%
X182500000Y-100250000D03*
X181230000Y-100250000D03*
X179960000Y-100250000D03*
X178690000Y-100250000D03*
X178690000Y-105200000D03*
X179960000Y-105200000D03*
X181230000Y-105200000D03*
X182500000Y-105200000D03*
%TD*%
D26*
%TO.C,C13*%
X152675000Y-108500000D03*
X150950000Y-108500000D03*
%TD*%
D12*
%TO.C,C16*%
X164950000Y-72825000D03*
X164950000Y-74550000D03*
%TD*%
D13*
%TO.C,TP15*%
X127600000Y-102000000D03*
%TD*%
D22*
%TO.C,SW2*%
X158450000Y-70300000D03*
X155050000Y-70300000D03*
%TD*%
D26*
%TO.C,C15*%
X139587500Y-108987500D03*
X137862500Y-108987500D03*
%TD*%
D14*
%TO.C,R22*%
X95250000Y-78175000D03*
X95250000Y-80000000D03*
%TD*%
%TO.C,R14*%
X103500000Y-85925000D03*
X103500000Y-87750000D03*
%TD*%
D25*
%TO.C,D6*%
X97000000Y-69450000D03*
X97000000Y-67700000D03*
%TD*%
D16*
%TO.C,C11*%
X195675000Y-100900000D03*
X197400000Y-100900000D03*
%TD*%
D13*
%TO.C,TP8*%
X189500000Y-93900000D03*
%TD*%
%TO.C,TP7*%
X111750000Y-69000000D03*
%TD*%
%TO.C,TP22*%
X170100000Y-105100000D03*
%TD*%
D12*
%TO.C,C25*%
X209462500Y-102900000D03*
X209462500Y-104625000D03*
%TD*%
D38*
%TO.C,U4*%
X108775000Y-99000000D03*
X108775000Y-99400000D03*
X108775000Y-99800000D03*
X108775000Y-100200000D03*
X109825000Y-100200000D03*
X109825000Y-99800000D03*
X109825000Y-99400000D03*
X109825000Y-99000000D03*
D39*
X109300000Y-99600000D03*
%TD*%
D40*
%TO.C,Q3*%
X103887500Y-69950000D03*
X103887500Y-68050000D03*
X101612500Y-69000000D03*
%TD*%
D28*
%TO.C,R8*%
X101500000Y-75412500D03*
X101500000Y-73587500D03*
%TD*%
D13*
%TO.C,TP19*%
X186700000Y-100350000D03*
%TD*%
D14*
%TO.C,R21*%
X172500000Y-77637500D03*
X172500000Y-79462500D03*
%TD*%
D27*
%TO.C,R33*%
X213887500Y-92262500D03*
X212062500Y-92262500D03*
%TD*%
D15*
%TO.C,R4*%
X128175000Y-107500000D03*
X130000000Y-107500000D03*
%TD*%
D41*
%TO.C,D1*%
X107000000Y-68000000D03*
X107000000Y-69750000D03*
%TD*%
D26*
%TO.C,C14*%
X165475000Y-108450000D03*
X163750000Y-108450000D03*
%TD*%
D27*
%TO.C,R27*%
X195800000Y-88450000D03*
X193975000Y-88450000D03*
%TD*%
D14*
%TO.C,R17*%
X125250000Y-104837500D03*
X125250000Y-106662500D03*
%TD*%
%TO.C,R15*%
X106500000Y-85925000D03*
X106500000Y-87750000D03*
%TD*%
D15*
%TO.C,R11*%
X117275000Y-109250000D03*
X119100000Y-109250000D03*
%TD*%
D13*
%TO.C,TP21*%
X157500000Y-105500000D03*
%TD*%
D24*
%TO.C,Q2*%
X175500000Y-87600000D03*
X177400000Y-87600000D03*
X176450000Y-85325000D03*
%TD*%
D13*
%TO.C,TP18*%
X180000000Y-95550000D03*
%TD*%
%TO.C,TP16*%
X123000000Y-102000000D03*
%TD*%
D27*
%TO.C,R6*%
X213887500Y-96162500D03*
X212062500Y-96162500D03*
%TD*%
D24*
%TO.C,U9*%
X94300000Y-85025000D03*
X95250000Y-85025000D03*
X96200000Y-85025000D03*
X96200000Y-82750000D03*
X95250000Y-82750000D03*
X94300000Y-82750000D03*
%TD*%
D26*
%TO.C,C17*%
X174275000Y-70350000D03*
X172550000Y-70350000D03*
%TD*%
%TO.C,C1*%
X115750000Y-79250000D03*
X114025000Y-79250000D03*
%TD*%
D16*
%TO.C,C4*%
X155837500Y-75300000D03*
X157562500Y-75300000D03*
%TD*%
D26*
%TO.C,C21*%
X195800000Y-93250000D03*
X194075000Y-93250000D03*
%TD*%
D13*
%TO.C,TP4*%
X83750000Y-90500000D03*
%TD*%
D22*
%TO.C,SW1*%
X113250000Y-76250000D03*
X116650000Y-76250000D03*
%TD*%
D32*
%TO.C,C18*%
X90300000Y-69575000D03*
X90300000Y-67850000D03*
%TD*%
D26*
%TO.C,C22*%
X195775000Y-90850000D03*
X194050000Y-90850000D03*
%TD*%
D32*
%TO.C,C3*%
X119000000Y-68000000D03*
X119000000Y-66275000D03*
%TD*%
D42*
%TO.C,Y2*%
X209462500Y-100525000D03*
X206962500Y-100525000D03*
%TD*%
D13*
%TO.C,TP14*%
X109925000Y-82175000D03*
%TD*%
D22*
%TO.C,SW3*%
X150200000Y-105500000D03*
X153600000Y-105500000D03*
%TD*%
D15*
%TO.C,R24*%
X85225000Y-69100000D03*
X87050000Y-69100000D03*
%TD*%
D13*
%TO.C,TP6*%
X106000000Y-97150000D03*
%TD*%
D43*
%TO.C,U1*%
X128615000Y-66375000D03*
X128615000Y-67225000D03*
X128615000Y-68075000D03*
X128615000Y-68925000D03*
X128615000Y-69775000D03*
X128615000Y-70625000D03*
X128615000Y-71475000D03*
X128615000Y-72325000D03*
X128615000Y-73175000D03*
X128615000Y-74025000D03*
X128615000Y-74875000D03*
X128615000Y-75725000D03*
X128615000Y-76575000D03*
X128615000Y-77425000D03*
X128615000Y-78275000D03*
D44*
X129665000Y-79325000D03*
X130515000Y-79325000D03*
X131365000Y-79325000D03*
X132215000Y-79325000D03*
X133065000Y-79325000D03*
X133915000Y-79325000D03*
X134765000Y-79325000D03*
X135615000Y-79325000D03*
X136465000Y-79325000D03*
X137315000Y-79325000D03*
X138165000Y-79325000D03*
X139015000Y-79325000D03*
X139865000Y-79325000D03*
X140715000Y-79325000D03*
X141565000Y-79325000D03*
D43*
X142615000Y-78275000D03*
X142615000Y-77425000D03*
X142615000Y-76575000D03*
X142615000Y-75725000D03*
X142615000Y-74875000D03*
X142615000Y-74025000D03*
X142615000Y-73175000D03*
X142615000Y-72325000D03*
X142615000Y-71475000D03*
X142615000Y-70625000D03*
X142615000Y-69775000D03*
X142615000Y-68925000D03*
X142615000Y-68075000D03*
X142615000Y-67225000D03*
X142615000Y-66375000D03*
D44*
X141565000Y-65325000D03*
X140715000Y-65325000D03*
X139865000Y-65325000D03*
X139015000Y-65325000D03*
X138165000Y-65325000D03*
X137315000Y-65325000D03*
X136465000Y-65325000D03*
X135615000Y-65325000D03*
X134765000Y-65325000D03*
X133915000Y-65325000D03*
X133065000Y-65325000D03*
X132215000Y-65325000D03*
X131365000Y-65325000D03*
X130515000Y-65325000D03*
X129665000Y-65325000D03*
D45*
X133965000Y-70675000D03*
D46*
X133965000Y-72325000D03*
X133965000Y-73975000D03*
X135615000Y-70675000D03*
X135615000Y-72325000D03*
X135615000Y-73975000D03*
X137265000Y-70675000D03*
X137265000Y-72325000D03*
X137265000Y-73975000D03*
D47*
X128615000Y-65325000D03*
X128615000Y-79325000D03*
X142615000Y-79325000D03*
X142615000Y-65325000D03*
%TD*%
D48*
%TO.C,U6*%
X196800000Y-98700000D03*
X197450000Y-98700000D03*
X198100000Y-98700000D03*
X198100000Y-97025000D03*
X196800000Y-97025000D03*
%TD*%
M02*
