%TF.GenerationSoftware,KiCad,Pcbnew,10.0.2*%
%TF.CreationDate,2026-06-27T23:52:47-07:00*%
%TF.ProjectId,satWatch_main_LargePrototype,73617457-6174-4636-985f-6d61696e5f4c,v1*%
%TF.SameCoordinates,Original*%
%TF.FileFunction,Copper,L1,Top*%
%TF.FilePolarity,Positive*%
%FSLAX46Y46*%
G04 Gerber Fmt 4.6, Leading zero omitted, Abs format (unit mm)*
G04 Created by KiCad (PCBNEW 10.0.2) date 2026-06-27 23:52:47*
%MOMM*%
%LPD*%
G01*
G04 APERTURE LIST*
G04 Aperture macros list*
%AMRoundRect*
0 Rectangle with rounded corners*
0 $1 Rounding radius*
0 $2 $3 $4 $5 $6 $7 $8 $9 X,Y pos of 4 corners*
0 Add a 4 corners polygon primitive as box body*
4,1,4,$2,$3,$4,$5,$6,$7,$8,$9,$2,$3,0*
0 Add four circle primitives for the rounded corners*
1,1,$1+$1,$2,$3*
1,1,$1+$1,$4,$5*
1,1,$1+$1,$6,$7*
1,1,$1+$1,$8,$9*
0 Add four rect primitives between the rounded corners*
20,1,$1+$1,$2,$3,$4,$5,0*
20,1,$1+$1,$4,$5,$6,$7,0*
20,1,$1+$1,$6,$7,$8,$9,0*
20,1,$1+$1,$8,$9,$2,$3,0*%
%AMOutline5P*
0 Free polygon, 5 corners , with rotation*
0 The origin of the aperture is its center*
0 number of corners: always 5*
0 $1 to $10 corner X, Y*
0 $11 Rotation angle, in degrees counterclockwise*
0 create outline with 5 corners*
4,1,5,$1,$2,$3,$4,$5,$6,$7,$8,$9,$10,$1,$2,$11*%
%AMOutline6P*
0 Free polygon, 6 corners , with rotation*
0 The origin of the aperture is its center*
0 number of corners: always 6*
0 $1 to $12 corner X, Y*
0 $13 Rotation angle, in degrees counterclockwise*
0 create outline with 6 corners*
4,1,6,$1,$2,$3,$4,$5,$6,$7,$8,$9,$10,$11,$12,$1,$2,$13*%
%AMOutline7P*
0 Free polygon, 7 corners , with rotation*
0 The origin of the aperture is its center*
0 number of corners: always 7*
0 $1 to $14 corner X, Y*
0 $15 Rotation angle, in degrees counterclockwise*
0 create outline with 7 corners*
4,1,7,$1,$2,$3,$4,$5,$6,$7,$8,$9,$10,$11,$12,$13,$14,$1,$2,$15*%
%AMOutline8P*
0 Free polygon, 8 corners , with rotation*
0 The origin of the aperture is its center*
0 number of corners: always 8*
0 $1 to $16 corner X, Y*
0 $17 Rotation angle, in degrees counterclockwise*
0 create outline with 8 corners*
4,1,8,$1,$2,$3,$4,$5,$6,$7,$8,$9,$10,$11,$12,$13,$14,$15,$16,$1,$2,$17*%
%AMFreePoly0*
4,1,6,0.280000,-0.280000,-0.420000,-0.280000,-0.420000,-0.080000,0.080000,0.420000,0.280000,0.420000,0.280000,-0.280000,0.280000,-0.280000,$1*%
G04 Aperture macros list end*
%TA.AperFunction,EtchedComponent*%
%ADD10C,0.000000*%
%TD*%
%TA.AperFunction,SMDPad,CuDef*%
%ADD11RoundRect,0.237500X-0.237500X0.300000X-0.237500X-0.300000X0.237500X-0.300000X0.237500X0.300000X0*%
%TD*%
%TA.AperFunction,SMDPad,CuDef*%
%ADD12C,2.500000*%
%TD*%
%TA.AperFunction,SMDPad,CuDef*%
%ADD13RoundRect,0.237500X-0.237500X0.250000X-0.237500X-0.250000X0.237500X-0.250000X0.237500X0.250000X0*%
%TD*%
%TA.AperFunction,SMDPad,CuDef*%
%ADD14RoundRect,0.237500X-0.250000X-0.237500X0.250000X-0.237500X0.250000X0.237500X-0.250000X0.237500X0*%
%TD*%
%TA.AperFunction,SMDPad,CuDef*%
%ADD15RoundRect,0.237500X-0.300000X-0.237500X0.300000X-0.237500X0.300000X0.237500X-0.300000X0.237500X0*%
%TD*%
%TA.AperFunction,SMDPad,CuDef*%
%ADD16RoundRect,0.147500X0.147500X-0.457500X0.147500X0.457500X-0.147500X0.457500X-0.147500X-0.457500X0*%
%TD*%
%TA.AperFunction,SMDPad,CuDef*%
%ADD17R,0.600000X1.150000*%
%TD*%
%TA.AperFunction,SMDPad,CuDef*%
%ADD18R,0.300000X1.150000*%
%TD*%
%TA.AperFunction,ComponentPad*%
%ADD19O,1.050000X2.250000*%
%TD*%
%TA.AperFunction,ComponentPad*%
%ADD20O,1.050000X1.850000*%
%TD*%
%TA.AperFunction,SMDPad,CuDef*%
%ADD21RoundRect,0.237500X0.250000X0.237500X-0.250000X0.237500X-0.250000X-0.237500X0.250000X-0.237500X0*%
%TD*%
%TA.AperFunction,SMDPad,CuDef*%
%ADD22R,0.900000X1.700000*%
%TD*%
%TA.AperFunction,SMDPad,CuDef*%
%ADD23RoundRect,0.237500X-0.287500X-0.237500X0.287500X-0.237500X0.287500X0.237500X-0.287500X0.237500X0*%
%TD*%
%TA.AperFunction,SMDPad,CuDef*%
%ADD24RoundRect,0.150000X0.150000X-0.512500X0.150000X0.512500X-0.150000X0.512500X-0.150000X-0.512500X0*%
%TD*%
%TA.AperFunction,SMDPad,CuDef*%
%ADD25RoundRect,0.237500X0.237500X-0.287500X0.237500X0.287500X-0.237500X0.287500X-0.237500X-0.287500X0*%
%TD*%
%TA.AperFunction,SMDPad,CuDef*%
%ADD26C,0.200000*%
%TD*%
%TA.AperFunction,SMDPad,CuDef*%
%ADD27RoundRect,0.237500X0.300000X0.237500X-0.300000X0.237500X-0.300000X-0.237500X0.300000X-0.237500X0*%
%TD*%
%TA.AperFunction,SMDPad,CuDef*%
%ADD28RoundRect,0.237500X0.237500X-0.250000X0.237500X0.250000X-0.237500X0.250000X-0.237500X-0.250000X0*%
%TD*%
%TA.AperFunction,SMDPad,CuDef*%
%ADD29R,1.041400X0.381000*%
%TD*%
%TA.AperFunction,SMDPad,CuDef*%
%ADD30FreePoly0,0.000000*%
%TD*%
%TA.AperFunction,SMDPad,CuDef*%
%ADD31R,0.700000X0.200000*%
%TD*%
%TA.AperFunction,SMDPad,CuDef*%
%ADD32FreePoly0,90.000000*%
%TD*%
%TA.AperFunction,SMDPad,CuDef*%
%ADD33R,0.200000X0.700000*%
%TD*%
%TA.AperFunction,SMDPad,CuDef*%
%ADD34FreePoly0,180.000000*%
%TD*%
%TA.AperFunction,SMDPad,CuDef*%
%ADD35FreePoly0,270.000000*%
%TD*%
%TA.AperFunction,SMDPad,CuDef*%
%ADD36R,1.700000X1.700000*%
%TD*%
%TA.AperFunction,SMDPad,CuDef*%
%ADD37R,0.250000X0.675000*%
%TD*%
%TA.AperFunction,SMDPad,CuDef*%
%ADD38R,0.575000X0.250000*%
%TD*%
%TA.AperFunction,SMDPad,CuDef*%
%ADD39RoundRect,0.237500X0.237500X-0.300000X0.237500X0.300000X-0.237500X0.300000X-0.237500X-0.300000X0*%
%TD*%
%TA.AperFunction,SMDPad,CuDef*%
%ADD40RoundRect,0.110000X-0.840000X0.440000X-0.840000X-0.440000X0.840000X-0.440000X0.840000X0.440000X0*%
%TD*%
%TA.AperFunction,ComponentPad*%
%ADD41R,1.700000X1.700000*%
%TD*%
%TA.AperFunction,ComponentPad*%
%ADD42C,1.700000*%
%TD*%
%TA.AperFunction,SMDPad,CuDef*%
%ADD43R,3.960000X3.960000*%
%TD*%
%TA.AperFunction,ComponentPad*%
%ADD44C,2.775000*%
%TD*%
%TA.AperFunction,SMDPad,CuDef*%
%ADD45RoundRect,0.150000X-0.150000X0.825000X-0.150000X-0.825000X0.150000X-0.825000X0.150000X0.825000X0*%
%TD*%
%TA.AperFunction,SMDPad,CuDef*%
%ADD46RoundRect,0.150000X-0.825000X-0.150000X0.825000X-0.150000X0.825000X0.150000X-0.825000X0.150000X0*%
%TD*%
%TA.AperFunction,HeatsinkPad*%
%ADD47C,0.500000*%
%TD*%
%TA.AperFunction,HeatsinkPad*%
%ADD48R,2.410000X3.300000*%
%TD*%
%TA.AperFunction,SMDPad,CuDef*%
%ADD49R,0.350000X0.260000*%
%TD*%
%TA.AperFunction,SMDPad,CuDef*%
%ADD50R,0.440000X1.440000*%
%TD*%
%TA.AperFunction,SMDPad,CuDef*%
%ADD51RoundRect,0.150000X0.512500X0.150000X-0.512500X0.150000X-0.512500X-0.150000X0.512500X-0.150000X0*%
%TD*%
%TA.AperFunction,SMDPad,CuDef*%
%ADD52RoundRect,0.237500X-0.237500X0.287500X-0.237500X-0.287500X0.237500X-0.287500X0.237500X0.287500X0*%
%TD*%
%TA.AperFunction,SMDPad,CuDef*%
%ADD53C,0.250000*%
%TD*%
%TA.AperFunction,SMDPad,CuDef*%
%ADD54RoundRect,0.110000X-0.440000X-0.840000X0.440000X-0.840000X0.440000X0.840000X-0.440000X0.840000X0*%
%TD*%
%TA.AperFunction,SMDPad,CuDef*%
%ADD55R,0.800000X0.400000*%
%TD*%
%TA.AperFunction,SMDPad,CuDef*%
%ADD56R,0.400000X0.800000*%
%TD*%
%TA.AperFunction,HeatsinkPad*%
%ADD57Outline5P,-0.600000X0.204000X-0.204000X0.600000X0.600000X0.600000X0.600000X-0.600000X-0.600000X-0.600000X0.000000*%
%TD*%
%TA.AperFunction,HeatsinkPad*%
%ADD58R,1.200000X1.200000*%
%TD*%
%TA.AperFunction,SMDPad,CuDef*%
%ADD59R,0.800000X0.800000*%
%TD*%
%TA.AperFunction,SMDPad,CuDef*%
%ADD60RoundRect,0.087500X0.087500X-0.425000X0.087500X0.425000X-0.087500X0.425000X-0.087500X-0.425000X0*%
%TD*%
%TA.AperFunction,ViaPad*%
%ADD61C,0.450000*%
%TD*%
%TA.AperFunction,ViaPad*%
%ADD62C,0.250000*%
%TD*%
%TA.AperFunction,Conductor*%
%ADD63C,0.200000*%
%TD*%
%TA.AperFunction,Conductor*%
%ADD64C,0.300000*%
%TD*%
%TA.AperFunction,Conductor*%
%ADD65C,0.400000*%
%TD*%
G04 APERTURE END LIST*
D10*
%TA.AperFunction,EtchedComponent*%
%TO.C,NT1*%
G36*
X202450000Y-76250000D02*
G01*
X202250000Y-76250000D01*
X202250000Y-75850000D01*
X202450000Y-75850000D01*
X202450000Y-76250000D01*
G37*
%TD.AperFunction*%
%TD*%
D11*
%TO.P,C12,1*%
%TO.N,1V8*%
X193600000Y-97000000D03*
%TO.P,C12,2*%
%TO.N,GND*%
X193600000Y-98725000D03*
%TD*%
%TO.P,C27,1*%
%TO.N,VCC_3V3*%
X212062500Y-98337500D03*
%TO.P,C27,2*%
%TO.N,GND*%
X212062500Y-100062500D03*
%TD*%
D12*
%TO.P,TP9,1,1_1*%
%TO.N,5V*%
X176975000Y-72550000D03*
%TD*%
D13*
%TO.P,R23,1*%
%TO.N,Net-(D7-K)*%
X92075000Y-71130000D03*
%TO.P,R23,2*%
%TO.N,Net-(U8-~{CHRG})*%
X92075000Y-72955000D03*
%TD*%
%TO.P,R2,1*%
%TO.N,/ESP_3V3*%
X148250000Y-66087500D03*
%TO.P,R2,2*%
%TO.N,/EN{slash}CHIP_PU*%
X148250000Y-67912500D03*
%TD*%
D14*
%TO.P,R32,1*%
%TO.N,/ACCEL_PS1*%
X212087500Y-94500000D03*
%TO.P,R32,2*%
%TO.N,VCC_3V3*%
X213912500Y-94500000D03*
%TD*%
D12*
%TO.P,TP20,1,1_1*%
%TO.N,/GPIO2{slash}BUTTON1*%
X144200000Y-105400000D03*
%TD*%
D15*
%TO.P,C7,1*%
%TO.N,/VIN_3V3*%
X108775000Y-102150000D03*
%TO.P,C7,2*%
%TO.N,GND*%
X110500000Y-102150000D03*
%TD*%
D16*
%TO.P,Q1,1*%
%TO.N,/BAT-*%
X94300000Y-91510000D03*
%TO.P,Q1,2*%
%TO.N,unconnected-(Q1-Pad2)_1*%
X95250000Y-91510000D03*
%TO.P,Q1,3*%
%TO.N,GND*%
X96200000Y-91510000D03*
%TO.P,Q1,4*%
%TO.N,Net-(U9-OC)*%
X96200000Y-89000000D03*
%TO.P,Q1,5*%
%TO.N,unconnected-(Q1-Pad2)*%
X95250000Y-89000000D03*
%TO.P,Q1,6*%
%TO.N,Net-(U9-OD)*%
X94300000Y-89000000D03*
%TD*%
D12*
%TO.P,TP17,1,1_1*%
%TO.N,/RTC_RST*%
X174600000Y-100150000D03*
%TD*%
D17*
%TO.P,J2,A1/B12,GND_A1/B12*%
%TO.N,GND*%
X119225000Y-112070000D03*
%TO.P,J2,A4/B9,VBUS_A4/B9*%
%TO.N,USB_5V*%
X120025000Y-112070000D03*
D18*
%TO.P,J2,A5,CC1_A5*%
%TO.N,Net-(J2-CC1)*%
X121175000Y-112070000D03*
%TO.P,J2,A6,DP1_A6*%
%TO.N,Net-(J2-DP1)*%
X122175000Y-112070000D03*
%TO.P,J2,A7,DN1_A7*%
%TO.N,Net-(J2-DN1)*%
X122675000Y-112070000D03*
%TO.P,J2,A8,SBU1_A8*%
%TO.N,unconnected-(J2-SBU1-PadA8)*%
X123675000Y-112070000D03*
D17*
%TO.P,J2,B1/A12,GND__1_B1/A12*%
%TO.N,GND*%
X125625000Y-112070000D03*
%TO.P,J2,B4/A9,VBUS__1_B4/A9*%
%TO.N,USB_5V*%
X124825000Y-112070000D03*
D18*
%TO.P,J2,B5,CC2_B5*%
%TO.N,Net-(J2-CC2)*%
X124175000Y-112070000D03*
%TO.P,J2,B6,DP2_B6*%
%TO.N,Net-(J2-DP1)*%
X123175000Y-112070000D03*
%TO.P,J2,B7,DN2_B7*%
%TO.N,Net-(J2-DN1)*%
X121675000Y-112070000D03*
%TO.P,J2,B8,SBU2_B8*%
%TO.N,unconnected-(J2-SBU2-PadB8)*%
X120675000Y-112070000D03*
D19*
%TO.P,J2,SH1,SHIELD_SH1*%
%TO.N,GND*%
X116850000Y-117250000D03*
D20*
%TO.P,J2,SH2,SHIELD__1_SH2*%
X116850000Y-113250000D03*
D19*
%TO.P,J2,SH3,SHIELD__2_SH3*%
X128000000Y-117250000D03*
D20*
%TO.P,J2,SH4,SHIELD__3_SH4*%
X128000000Y-113250000D03*
%TD*%
D14*
%TO.P,R27,1*%
%TO.N,Net-(C23-Pad2)*%
X180375000Y-79000000D03*
%TO.P,R27,2*%
%TO.N,GND*%
X182200000Y-79000000D03*
%TD*%
D21*
%TO.P,R29,1*%
%TO.N,Net-(LED1-IR)*%
X204925000Y-80550000D03*
%TO.P,R29,2*%
%TO.N,/LED2_DRV*%
X203100000Y-80550000D03*
%TD*%
D22*
%TO.P,SW4,1,1_1*%
%TO.N,GND*%
X163000000Y-105200000D03*
%TO.P,SW4,2,2_2*%
%TO.N,/GPIO4{slash}BUTTON3*%
X166400000Y-105200000D03*
%TD*%
D23*
%TO.P,D3,1,K_1*%
%TO.N,GND*%
X114250000Y-109250000D03*
%TO.P,D3,2,A_2*%
%TO.N,Net-(D3-A)*%
X116000000Y-109250000D03*
%TD*%
D11*
%TO.P,C24,1*%
%TO.N,Net-(U12-XOUT32{slash}CLKSEL1)*%
X206962500Y-102862500D03*
%TO.P,C24,2*%
%TO.N,GND*%
X206962500Y-104587500D03*
%TD*%
D24*
%TO.P,Q4,1,D_1*%
%TO.N,/GPIO5{slash}SDA*%
X183975000Y-87537500D03*
%TO.P,Q4,2,G_2*%
%TO.N,/VCC_1V8*%
X185875000Y-87537500D03*
%TO.P,Q4,3,S_3*%
%TO.N,/LV_SDA*%
X184925000Y-85262500D03*
%TD*%
D12*
%TO.P,TP10,1,1_1*%
%TO.N,/GPIO0{slash}BOOT*%
X120250000Y-74000000D03*
%TD*%
%TO.P,TP24,1,1_1*%
%TO.N,/PPG_MOSI*%
X195850000Y-68550000D03*
%TD*%
D25*
%TO.P,D7,1,K_1*%
%TO.N,Net-(D7-K)*%
X92075000Y-68955000D03*
%TO.P,D7,2,A_2*%
%TO.N,/VUSB_5V*%
X92075000Y-67205000D03*
%TD*%
D26*
%TO.P,NT1,1,1_1*%
%TO.N,/PD_GND*%
X202350000Y-75850000D03*
%TO.P,NT1,2,2_2*%
%TO.N,GND*%
X202350000Y-76250000D03*
%TD*%
D27*
%TO.P,C26,1*%
%TO.N,Net-(U12-CAP)*%
X208387500Y-90562500D03*
%TO.P,C26,2*%
%TO.N,GND*%
X206662500Y-90562500D03*
%TD*%
D21*
%TO.P,R26,1*%
%TO.N,GND*%
X213887500Y-90462500D03*
%TO.P,R26,2*%
%TO.N,/ACCEL_PS0*%
X212062500Y-90462500D03*
%TD*%
D28*
%TO.P,R12,1*%
%TO.N,/VCC_1V8*%
X179825000Y-87625000D03*
%TO.P,R12,2*%
%TO.N,/LV_SCL*%
X179825000Y-85800000D03*
%TD*%
D13*
%TO.P,R18,1*%
%TO.N,/D+*%
X123000000Y-104837500D03*
%TO.P,R18,2*%
%TO.N,Net-(J2-DP1)*%
X123000000Y-106662500D03*
%TD*%
D29*
%TO.P,U7,1,LX_1*%
%TO.N,Net-(U7-LX)*%
X168258200Y-73849280D03*
%TO.P,U7,2,EN_2*%
%TO.N,VCC_3V3*%
X168258200Y-74499520D03*
%TO.P,U7,3,VIN_3*%
X168258200Y-75149760D03*
%TO.P,U7,4,AGND_4*%
%TO.N,GND*%
X168258200Y-75800000D03*
%TO.P,U7,5,FB_5*%
%TO.N,Net-(U7-FB)*%
X172500000Y-75800000D03*
%TO.P,U7,6,RSET_6*%
%TO.N,unconnected-(U7-RSET-Pad6)*%
X172500000Y-75149760D03*
%TO.P,U7,7,OUT_7*%
%TO.N,5V*%
X172500000Y-74499520D03*
%TO.P,U7,8,PGND_8*%
%TO.N,GND*%
X172500000Y-73849280D03*
%TD*%
D25*
%TO.P,D2,1,K_1*%
%TO.N,GND*%
X104250000Y-104025000D03*
%TO.P,D2,2,A_2*%
%TO.N,Net-(D2-A)*%
X104250000Y-102275000D03*
%TD*%
D28*
%TO.P,R25,1*%
%TO.N,GND*%
X98800000Y-91075000D03*
%TO.P,R25,2*%
%TO.N,Net-(U9-CS)*%
X98800000Y-89250000D03*
%TD*%
D27*
%TO.P,C20,1*%
%TO.N,/BAT+*%
X88500000Y-77750000D03*
%TO.P,C20,2*%
%TO.N,GND*%
X86775000Y-77750000D03*
%TD*%
D12*
%TO.P,TP5,1,1_1*%
%TO.N,USB_5V*%
X118500000Y-105000000D03*
%TD*%
D28*
%TO.P,R13,1*%
%TO.N,/VCC_1V8*%
X188675000Y-87587500D03*
%TO.P,R13,2*%
%TO.N,/LV_SDA*%
X188675000Y-85762500D03*
%TD*%
D14*
%TO.P,R3,1*%
%TO.N,Net-(U7-FB)*%
X174850000Y-75850000D03*
%TO.P,R3,2*%
%TO.N,5V*%
X176675000Y-75850000D03*
%TD*%
D13*
%TO.P,R7,1*%
%TO.N,Net-(D6-K)*%
X95250000Y-71000000D03*
%TO.P,R7,2*%
%TO.N,Net-(U8-~{STDBY})*%
X95250000Y-72825000D03*
%TD*%
D22*
%TO.P,SW5,1,1_1*%
%TO.N,GND*%
X137212500Y-105487500D03*
%TO.P,SW5,2,2_2*%
%TO.N,/GPIO2{slash}BUTTON1*%
X140612500Y-105487500D03*
%TD*%
D30*
%TO.P,U3,1,MFIO_1*%
%TO.N,/GPIO11*%
X185270000Y-74820001D03*
D31*
%TO.P,U3,2,ACCEL_CS_2*%
%TO.N,unconnected-(U3-ACCEL_CS-Pad2)*%
X185200000Y-75400000D03*
%TO.P,U3,3,NC_3*%
%TO.N,unconnected-(U3-NC-Pad3)*%
X185200000Y-75800002D03*
%TO.P,U3,4,DNC_4*%
%TO.N,unconnected-(U3-DNC-Pad4)*%
X185200000Y-76200001D03*
%TO.P,U3,5,DNC_5*%
%TO.N,unconnected-(U3-DNC-Pad5)*%
X185200000Y-76600000D03*
%TO.P,U3,6,RSTN_6*%
%TO.N,/GPIO10*%
X185200000Y-77000002D03*
D32*
%TO.P,U3,7,VSS_7*%
%TO.N,GND*%
X185270000Y-77580001D03*
D33*
%TO.P,U3,8,32KOUT_8*%
%TO.N,Net-(U3-32KOUT)*%
X185849999Y-77650001D03*
%TO.P,U3,9,32KIN_9*%
%TO.N,Net-(U3-32KIN)*%
X186250001Y-77650001D03*
%TO.P,U3,10,VSS_10*%
%TO.N,GND*%
X186650000Y-77650001D03*
%TO.P,U3,11,VDD_11*%
%TO.N,1V8*%
X187049999Y-77650001D03*
%TO.P,U3,12,VCORE_12*%
%TO.N,Net-(U3-VCORE)*%
X187450001Y-77650001D03*
D34*
%TO.P,U3,13,ACCEL_INT_13*%
%TO.N,unconnected-(U3-ACCEL_INT-Pad13)*%
X188030000Y-77580001D03*
D31*
%TO.P,U3,14,PPG_INT_14*%
%TO.N,/PPG_INT*%
X188100000Y-77000002D03*
%TO.P,U3,15,NC_15*%
%TO.N,unconnected-(U3-NC-Pad15)*%
X188100000Y-76600000D03*
%TO.P,U3,16,DNC_16*%
%TO.N,unconnected-(U3-DNC-Pad16)*%
X188100000Y-76200001D03*
%TO.P,U3,17,DNC_17*%
%TO.N,unconnected-(U3-DNC-Pad17)*%
X188100000Y-75800002D03*
%TO.P,U3,18,PPG_CS_18*%
%TO.N,/PPG_CSB*%
X188100000Y-75400000D03*
D35*
%TO.P,U3,19,SENSOR_SCK_19*%
%TO.N,/PPG_SCK*%
X188030000Y-74820001D03*
D33*
%TO.P,U3,20,SENSOR_MOSI_20*%
%TO.N,/PPG_MOSI*%
X187450001Y-74750001D03*
%TO.P,U3,21,SENSOR_MISO_21*%
%TO.N,/PPG_MISO*%
X187049999Y-74750001D03*
%TO.P,U3,22,VDD_22*%
%TO.N,1V8*%
X186650000Y-74750001D03*
%TO.P,U3,23,SLAVE_SDA_23*%
%TO.N,/LV_SDA*%
X186250001Y-74750001D03*
%TO.P,U3,24,SLAVE_SCL_24*%
%TO.N,/LV_SCL*%
X185849999Y-74750001D03*
D36*
%TO.P,U3,25,EPAD_25*%
%TO.N,GND*%
X186650000Y-76200001D03*
%TD*%
D37*
%TO.P,U12,1,RESV_NC_1*%
%TO.N,unconnected-(U12-RESV_NC-Pad1)*%
X209262500Y-96812500D03*
D38*
%TO.P,U12,2,GND_2*%
%TO.N,GND*%
X209325000Y-96000000D03*
%TO.P,U12,3,VDD_3*%
%TO.N,VCC_3V3*%
X209325000Y-95500000D03*
%TO.P,U12,4,~{BOOT}_4*%
%TO.N,/ACCEL_BOOT*%
X209325000Y-95000000D03*
%TO.P,U12,5,PS1_5*%
%TO.N,/ACCEL_PS1*%
X209325000Y-94500000D03*
D37*
%TO.P,U12,6,PS0/WAKE_6*%
%TO.N,/ACCEL_PS0*%
X209262500Y-93687500D03*
%TO.P,U12,7,RESV_NC_7*%
%TO.N,unconnected-(U12-RESV_NC-Pad7)*%
X208762500Y-93687500D03*
%TO.P,U12,8,RESV_NC_8*%
%TO.N,unconnected-(U12-RESV_NC-Pad8)*%
X208262500Y-93687500D03*
%TO.P,U12,9,CAP_9*%
%TO.N,Net-(U12-CAP)*%
X207762500Y-93687500D03*
%TO.P,U12,10,CLKSEL0_10*%
%TO.N,GND*%
X207262500Y-93687500D03*
%TO.P,U12,11,~{RST}_11*%
%TO.N,/ACCEL_RST*%
X206762500Y-93687500D03*
%TO.P,U12,12,RESV_NC_12*%
%TO.N,unconnected-(U12-RESV_NC-Pad12)*%
X206262500Y-93687500D03*
%TO.P,U12,13,RESV_NC_13*%
%TO.N,unconnected-(U12-RESV_NC-Pad13)*%
X205762500Y-93687500D03*
%TO.P,U12,14,~{H_INT}_14*%
%TO.N,/ACCEL_INT*%
X205262500Y-93687500D03*
%TO.P,U12,15,ENV_SCL_15*%
%TO.N,unconnected-(U12-ENV_SCL-Pad15)*%
X204762500Y-93687500D03*
D38*
%TO.P,U12,16,ENV_SDA_16*%
%TO.N,unconnected-(U12-ENV_SDA-Pad16)*%
X204700000Y-94500000D03*
%TO.P,U12,17,SA0/H_MOSI_17*%
%TO.N,/ACCEL_MOSI*%
X204700000Y-95000000D03*
%TO.P,U12,18,~{H_CS}_18*%
%TO.N,/ACCEL_CS*%
X204700000Y-95500000D03*
%TO.P,U12,19,H_SCL/SCK/RX_19*%
%TO.N,/GPIO6{slash}SCL*%
X204700000Y-96000000D03*
D37*
%TO.P,U12,20,H_SDA/H_MISO/TX_20*%
%TO.N,/GPIO5{slash}SDA*%
X204762500Y-96812500D03*
%TO.P,U12,21,RESV_NC_21*%
%TO.N,unconnected-(U12-RESV_NC-Pad21)*%
X205262500Y-96812500D03*
%TO.P,U12,22,RESV_NC_22*%
%TO.N,unconnected-(U12-RESV_NC-Pad22)*%
X205762500Y-96812500D03*
%TO.P,U12,23,RESV_NC_23*%
%TO.N,unconnected-(U12-RESV_NC-Pad23)*%
X206262500Y-96812500D03*
%TO.P,U12,24,RESV_NC_24*%
%TO.N,unconnected-(U12-RESV_NC-Pad24)*%
X206762500Y-96812500D03*
%TO.P,U12,25,GNDIO_25*%
%TO.N,GND*%
X207262500Y-96812500D03*
%TO.P,U12,26,XOUT32/CLKSEL1_26*%
%TO.N,Net-(U12-XOUT32{slash}CLKSEL1)*%
X207762500Y-96812500D03*
%TO.P,U12,27,XIN32_27*%
%TO.N,Net-(U12-XIN32)*%
X208262500Y-96812500D03*
%TO.P,U12,28,VDDIO_28*%
%TO.N,VCC_3V3*%
X208762500Y-96812500D03*
%TD*%
D21*
%TO.P,R20,1*%
%TO.N,VCC_3V3*%
X185800000Y-90300000D03*
%TO.P,R20,2*%
%TO.N,/GPIO5{slash}SDA*%
X183975000Y-90300000D03*
%TD*%
D11*
%TO.P,C22,1*%
%TO.N,Net-(U3-VCORE)*%
X187600000Y-80837500D03*
%TO.P,C22,2*%
%TO.N,GND*%
X187600000Y-82562500D03*
%TD*%
D14*
%TO.P,R5,1*%
%TO.N,Net-(J2-CC1)*%
X128175000Y-105500000D03*
%TO.P,R5,2*%
%TO.N,GND*%
X130000000Y-105500000D03*
%TD*%
D39*
%TO.P,C6,1*%
%TO.N,USB_5V*%
X112500000Y-99250000D03*
%TO.P,C6,2*%
%TO.N,GND*%
X112500000Y-97525000D03*
%TD*%
D15*
%TO.P,C8,1*%
%TO.N,/EN{slash}CHIP_PU*%
X155825000Y-73300000D03*
%TO.P,C8,2*%
%TO.N,GND*%
X157550000Y-73300000D03*
%TD*%
D40*
%TO.P,Y1,1,1_1*%
%TO.N,Net-(U3-32KIN)*%
X185000000Y-81750000D03*
%TO.P,Y1,2,2_2*%
%TO.N,Net-(U3-32KOUT)*%
X185000000Y-79250000D03*
%TD*%
D41*
%TO.P,J5,1,Pin_1_1*%
%TO.N,/BAT+*%
X84560000Y-101500000D03*
D42*
%TO.P,J5,2,Pin_2_2*%
%TO.N,GND*%
X87100000Y-101500000D03*
%TO.P,J5,3,Pin_3_3*%
%TO.N,/BAT-*%
X84560000Y-104040000D03*
%TO.P,J5,4,Pin_4_4*%
%TO.N,/VCC_1V8*%
X87100000Y-104040000D03*
%TO.P,J5,5,Pin_5_5*%
%TO.N,GND*%
X84560000Y-106580000D03*
%TO.P,J5,6,Pin_6_6*%
%TO.N,VCC_3V3*%
X87100000Y-106580000D03*
%TD*%
D12*
%TO.P,TP27,1,1_1*%
%TO.N,/PPG_INT*%
X192500000Y-79300000D03*
%TD*%
D23*
%TO.P,L1,1*%
%TO.N,VCC_3V3*%
X165025000Y-70800000D03*
%TO.P,L1,2*%
%TO.N,Net-(U7-LX)*%
X166775000Y-70800000D03*
%TD*%
D41*
%TO.P,J1,1,Pin_1_1*%
%TO.N,/GPIO5{slash}SDA*%
X119560000Y-94540000D03*
D42*
%TO.P,J1,2,Pin_2_2*%
%TO.N,/GPIO6{slash}SCL*%
X119560000Y-92000000D03*
%TO.P,J1,3,Pin_3_3*%
%TO.N,/GPIO7{slash}SCK*%
X122100000Y-94540000D03*
%TO.P,J1,4,Pin_4_4*%
%TO.N,/GPIO8{slash}MISO*%
X122100000Y-92000000D03*
%TO.P,J1,5,Pin_5_5*%
%TO.N,/GPIO9{slash}MOSI*%
X124640000Y-94540000D03*
%TO.P,J1,6,Pin_6_6*%
%TO.N,/GPIO10*%
X124640000Y-92000000D03*
%TO.P,J1,7,Pin_7_7*%
%TO.N,/GPIO11*%
X127180000Y-94540000D03*
%TO.P,J1,8,Pin_8_8*%
%TO.N,/GPIO12*%
X127180000Y-92000000D03*
%TO.P,J1,9,Pin_9_9*%
%TO.N,/GPIO13*%
X129720000Y-94540000D03*
%TO.P,J1,10,Pin_10_10*%
%TO.N,/GPIO14*%
X129720000Y-92000000D03*
%TO.P,J1,11,Pin_11_11*%
%TO.N,/GPIO15*%
X132260000Y-94540000D03*
%TO.P,J1,12,Pin_12_12*%
%TO.N,/GPIO16*%
X132260000Y-92000000D03*
%TO.P,J1,13,Pin_13_13*%
%TO.N,/GPIO17*%
X134800000Y-94540000D03*
%TO.P,J1,14,Pin_14_14*%
%TO.N,/GPIO18*%
X134800000Y-92000000D03*
%TO.P,J1,15,Pin_15_15*%
%TO.N,/GPIO21*%
X137340000Y-94540000D03*
%TO.P,J1,16,Pin_16_16*%
%TO.N,/GPIO27*%
X137340000Y-92000000D03*
%TO.P,J1,17,Pin_17_17*%
%TO.N,/GPIO47*%
X139880000Y-94540000D03*
%TO.P,J1,18,Pin_18_18*%
%TO.N,/GPIO33*%
X139880000Y-92000000D03*
%TO.P,J1,19,Pin_19_19*%
%TO.N,/GPIO34*%
X142420000Y-94540000D03*
%TO.P,J1,20,Pin_20_20*%
%TO.N,/GPIO48*%
X142420000Y-92000000D03*
%TO.P,J1,21,Pin_21_21*%
%TO.N,/GPIO35*%
X144960000Y-94540000D03*
%TO.P,J1,22,Pin_22_22*%
%TO.N,/GPIO36*%
X144960000Y-92000000D03*
%TO.P,J1,23,Pin_23_23*%
%TO.N,/GPIO37*%
X147500000Y-94540000D03*
%TO.P,J1,24,Pin_24_24*%
%TO.N,/GPIO38*%
X147500000Y-92000000D03*
%TO.P,J1,25,Pin_25_25*%
%TO.N,/GPIO39*%
X150040000Y-94540000D03*
%TO.P,J1,26,Pin_26_26*%
%TO.N,/GPIO40*%
X150040000Y-92000000D03*
%TO.P,J1,27,Pin_27_27*%
%TO.N,/GPIO41*%
X152580000Y-94540000D03*
%TO.P,J1,28,Pin_28_28*%
%TO.N,/GPIO42*%
X152580000Y-92000000D03*
%TO.P,J1,29,Pin_29_29*%
%TO.N,/U0TXD*%
X155120000Y-94540000D03*
%TO.P,J1,30,Pin_30_30*%
%TO.N,/U0RXD*%
X155120000Y-92000000D03*
%TO.P,J1,31,Pin_31_31*%
%TO.N,/GPIO45*%
X157660000Y-94540000D03*
%TO.P,J1,32,Pin_32_32*%
%TO.N,/GPIO46*%
X157660000Y-92000000D03*
%TO.P,J1,33,Pin_33_33*%
%TO.N,/LV_SDA*%
X160200000Y-94540000D03*
%TO.P,J1,34,Pin_34_34*%
%TO.N,/LV_SCL*%
X160200000Y-92000000D03*
%TD*%
D12*
%TO.P,TP25,1,1_1*%
%TO.N,/PPG_SCK*%
X191450000Y-73750000D03*
%TD*%
%TO.P,TP11,1,1_1*%
%TO.N,/EN{slash}CHIP_PU*%
X152000000Y-69000000D03*
%TD*%
D21*
%TO.P,R30,1*%
%TO.N,Net-(LED1-G)*%
X204900000Y-78750000D03*
%TO.P,R30,2*%
%TO.N,/LED1_DRV*%
X203075000Y-78750000D03*
%TD*%
D14*
%TO.P,R9,1*%
%TO.N,/VIN_3V3*%
X103925000Y-73250000D03*
%TO.P,R9,2*%
%TO.N,GND*%
X105750000Y-73250000D03*
%TD*%
D13*
%TO.P,R16,1*%
%TO.N,/GPIO1{slash}BATTERY_MONITOR*%
X105000000Y-82175000D03*
%TO.P,R16,2*%
%TO.N,Net-(R14-Pad1)*%
X105000000Y-84000000D03*
%TD*%
D21*
%TO.P,R19,1*%
%TO.N,VCC_3V3*%
X177400000Y-90300000D03*
%TO.P,R19,2*%
%TO.N,/GPIO6{slash}SCL*%
X175575000Y-90300000D03*
%TD*%
D11*
%TO.P,C28,1*%
%TO.N,1V8*%
X196950000Y-82987500D03*
%TO.P,C28,2*%
%TO.N,GND*%
X196950000Y-84712500D03*
%TD*%
D14*
%TO.P,R1,1*%
%TO.N,VCC_3V3*%
X122000000Y-68162500D03*
%TO.P,R1,2*%
%TO.N,/ESP_3V3*%
X123825000Y-68162500D03*
%TD*%
D43*
%TO.P,BT3,N*%
%TO.N,GND*%
X192300000Y-109800000D03*
D44*
%TO.P,BT3,P1*%
%TO.N,Net-(U5-VBAT)*%
X185700000Y-109800000D03*
%TO.P,BT3,P2*%
X198900000Y-109800000D03*
%TD*%
D13*
%TO.P,R10,1*%
%TO.N,/VIN_3V3*%
X106500000Y-100237500D03*
%TO.P,R10,2*%
%TO.N,Net-(D2-A)*%
X106500000Y-102062500D03*
%TD*%
D39*
%TO.P,C19,1*%
%TO.N,/BAT-*%
X92050000Y-82650000D03*
%TO.P,C19,2*%
%TO.N,Net-(U9-VCC)*%
X92050000Y-80925000D03*
%TD*%
D21*
%TO.P,R31,1*%
%TO.N,Net-(LED1-R)*%
X204912500Y-82400000D03*
%TO.P,R31,2*%
%TO.N,/LED3_DRV*%
X203087500Y-82400000D03*
%TD*%
D12*
%TO.P,TP23,1,1_1*%
%TO.N,/PPG_MISO*%
X191450000Y-68550000D03*
%TD*%
D39*
%TO.P,C2,1*%
%TO.N,VCC_3V3*%
X116490000Y-68000000D03*
%TO.P,C2,2*%
%TO.N,GND*%
X116490000Y-66275000D03*
%TD*%
D11*
%TO.P,C21,1*%
%TO.N,1V8*%
X189500000Y-80800000D03*
%TO.P,C21,2*%
%TO.N,GND*%
X189500000Y-82525000D03*
%TD*%
D12*
%TO.P,TP3,1,1_1*%
%TO.N,/BAT+*%
X83750000Y-83500000D03*
%TD*%
D45*
%TO.P,U5,1,32KHZ_1*%
%TO.N,/32KHZ*%
X182500000Y-100250000D03*
%TO.P,U5,2,VCC_2*%
%TO.N,VCC_3V3*%
X181230000Y-100250000D03*
%TO.P,U5,3,~{INT}/SQW_3*%
%TO.N,/SQW*%
X179960000Y-100250000D03*
%TO.P,U5,4,~{RST}_4*%
%TO.N,/RTC_RST*%
X178690000Y-100250000D03*
%TO.P,U5,5,GND_5*%
%TO.N,GND*%
X178690000Y-105200000D03*
%TO.P,U5,6,VBAT_6*%
%TO.N,Net-(U5-VBAT)*%
X179960000Y-105200000D03*
%TO.P,U5,7,SDA_7*%
%TO.N,/GPIO5{slash}SDA*%
X181230000Y-105200000D03*
%TO.P,U5,8,SCL_8*%
%TO.N,/GPIO6{slash}SCL*%
X182500000Y-105200000D03*
%TD*%
D27*
%TO.P,C13,1*%
%TO.N,/GPIO3{slash}BUTTON2*%
X152675000Y-108500000D03*
%TO.P,C13,2*%
%TO.N,GND*%
X150950000Y-108500000D03*
%TD*%
D11*
%TO.P,C16,1*%
%TO.N,VCC_3V3*%
X164950000Y-72825000D03*
%TO.P,C16,2*%
%TO.N,GND*%
X164950000Y-74550000D03*
%TD*%
D12*
%TO.P,TP15,1,1_1*%
%TO.N,/D-*%
X127600000Y-102000000D03*
%TD*%
D22*
%TO.P,SW2,1,1_1*%
%TO.N,GND*%
X158450000Y-70300000D03*
%TO.P,SW2,2,2_2*%
%TO.N,/EN{slash}CHIP_PU*%
X155050000Y-70300000D03*
%TD*%
D27*
%TO.P,C15,1*%
%TO.N,/GPIO2{slash}BUTTON1*%
X139587500Y-108987500D03*
%TO.P,C15,2*%
%TO.N,GND*%
X137862500Y-108987500D03*
%TD*%
D13*
%TO.P,R22,1*%
%TO.N,/BAT+*%
X95250000Y-78175000D03*
%TO.P,R22,2*%
%TO.N,Net-(U9-VCC)*%
X95250000Y-80000000D03*
%TD*%
D28*
%TO.P,R28,1*%
%TO.N,1V8*%
X195050000Y-81112500D03*
%TO.P,R28,2*%
%TO.N,/PPG_INT*%
X195050000Y-79287500D03*
%TD*%
D27*
%TO.P,C23,1*%
%TO.N,/GPIO10*%
X182100000Y-77000000D03*
%TO.P,C23,2*%
%TO.N,Net-(C23-Pad2)*%
X180375000Y-77000000D03*
%TD*%
D13*
%TO.P,R14,1*%
%TO.N,Net-(R14-Pad1)*%
X103500000Y-85925000D03*
%TO.P,R14,2*%
%TO.N,/BAT+*%
X103500000Y-87750000D03*
%TD*%
D25*
%TO.P,D6,1,K_1*%
%TO.N,Net-(D6-K)*%
X95250000Y-68875000D03*
%TO.P,D6,2,A_2*%
%TO.N,/VUSB_5V*%
X95250000Y-67125000D03*
%TD*%
D11*
%TO.P,C29,1*%
%TO.N,1V8*%
X195200000Y-82987500D03*
%TO.P,C29,2*%
%TO.N,GND*%
X195200000Y-84712500D03*
%TD*%
D12*
%TO.P,TP26,1,1_1*%
%TO.N,/PPG_CSB*%
X195450000Y-73700000D03*
%TD*%
D15*
%TO.P,C11,1*%
%TO.N,VCC_3V3*%
X195675000Y-100900000D03*
%TO.P,C11,2*%
%TO.N,GND*%
X197400000Y-100900000D03*
%TD*%
D46*
%TO.P,U8,1,TEMP_1*%
%TO.N,GND*%
X83550000Y-71750000D03*
%TO.P,U8,2,PROG_2*%
%TO.N,Net-(U8-PROG)*%
X83550000Y-73020000D03*
%TO.P,U8,3,GND_3*%
%TO.N,GND*%
X83550000Y-74290000D03*
%TO.P,U8,4,V_{CC}_4*%
%TO.N,/VUSB_5V*%
X83550000Y-75560000D03*
%TO.P,U8,5,BAT_5*%
%TO.N,/BAT+*%
X88500000Y-75560000D03*
%TO.P,U8,6,~{STDBY}_6*%
%TO.N,Net-(U8-~{STDBY})*%
X88500000Y-74290000D03*
%TO.P,U8,7,~{CHRG}_7*%
%TO.N,Net-(U8-~{CHRG})*%
X88500000Y-73020000D03*
%TO.P,U8,8,CE_8*%
%TO.N,/VUSB_5V*%
X88500000Y-71750000D03*
D47*
%TO.P,U8,9,EPAD_9*%
%TO.N,GND*%
X85325000Y-72455000D03*
X85325000Y-73655000D03*
X85325000Y-74855000D03*
D48*
X86025000Y-73655000D03*
D47*
X86725000Y-72455000D03*
X86725000Y-73655000D03*
X86725000Y-74855000D03*
%TD*%
D39*
%TO.P,C5,1*%
%TO.N,Net-(U2-VREF)*%
X199800000Y-74125000D03*
%TO.P,C5,2*%
%TO.N,GND*%
X199800000Y-72400000D03*
%TD*%
D12*
%TO.P,TP8,1,1_1*%
%TO.N,1V8*%
X196800000Y-93800000D03*
%TD*%
%TO.P,TP7,1,1_1*%
%TO.N,VCC_3V3*%
X111750000Y-69000000D03*
%TD*%
%TO.P,TP22,1,1_1*%
%TO.N,/GPIO4{slash}BUTTON3*%
X170100000Y-105100000D03*
%TD*%
D11*
%TO.P,C25,1*%
%TO.N,Net-(U12-XIN32)*%
X209462500Y-102900000D03*
%TO.P,C25,2*%
%TO.N,GND*%
X209462500Y-104625000D03*
%TD*%
D49*
%TO.P,U4,1,OUT_1*%
%TO.N,/VIN_3V3*%
X108775000Y-99000000D03*
%TO.P,U4,2,OUT__1_2*%
X108775000Y-99400000D03*
%TO.P,U4,3,N/C_3*%
%TO.N,unconnected-(U4-N{slash}C-Pad3)*%
X108775000Y-99800000D03*
%TO.P,U4,4,FB/ADJ_4*%
%TO.N,/VIN_3V3*%
X108775000Y-100200000D03*
%TO.P,U4,5,GND_5*%
%TO.N,GND*%
X109825000Y-100200000D03*
%TO.P,U4,6,EN_6*%
%TO.N,USB_5V*%
X109825000Y-99800000D03*
%TO.P,U4,7,IN_7*%
X109825000Y-99400000D03*
%TO.P,U4,8,IN__1_8*%
X109825000Y-99000000D03*
D50*
%TO.P,U4,9,EPAD_9*%
%TO.N,GND*%
X109300000Y-99600000D03*
%TD*%
D51*
%TO.P,Q3,1*%
%TO.N,/VIN_3V3*%
X103887500Y-69950000D03*
%TO.P,Q3,2*%
%TO.N,VCC_3V3*%
X103887500Y-68050000D03*
%TO.P,Q3,3*%
%TO.N,Net-(Q3-Pad3)*%
X101612500Y-69000000D03*
%TD*%
D28*
%TO.P,R8,1*%
%TO.N,/BAT+*%
X101500000Y-75412500D03*
%TO.P,R8,2*%
%TO.N,Net-(Q3-Pad3)*%
X101500000Y-73587500D03*
%TD*%
D12*
%TO.P,TP19,1,1_1*%
%TO.N,/32KHZ*%
X186700000Y-100350000D03*
%TD*%
D13*
%TO.P,R21,1*%
%TO.N,Net-(U7-FB)*%
X172500000Y-77637500D03*
%TO.P,R21,2*%
%TO.N,GND*%
X172500000Y-79462500D03*
%TD*%
D11*
%TO.P,C10,1*%
%TO.N,5V*%
X200900000Y-80962500D03*
%TO.P,C10,2*%
%TO.N,GND*%
X200900000Y-82687500D03*
%TD*%
D21*
%TO.P,R33,1*%
%TO.N,VCC_3V3*%
X213887500Y-92262500D03*
%TO.P,R33,2*%
%TO.N,/ACCEL_PS0*%
X212062500Y-92262500D03*
%TD*%
D14*
%TO.P,R4,1*%
%TO.N,Net-(J2-CC2)*%
X128175000Y-107500000D03*
%TO.P,R4,2*%
%TO.N,GND*%
X130000000Y-107500000D03*
%TD*%
D52*
%TO.P,D1,1,K_1*%
%TO.N,VCC_3V3*%
X107000000Y-68000000D03*
%TO.P,D1,2,A_2*%
%TO.N,/VIN_3V3*%
X107000000Y-69750000D03*
%TD*%
D27*
%TO.P,C14,1*%
%TO.N,/GPIO4{slash}BUTTON3*%
X165475000Y-108450000D03*
%TO.P,C14,2*%
%TO.N,GND*%
X163750000Y-108450000D03*
%TD*%
D13*
%TO.P,R17,1*%
%TO.N,/D-*%
X125250000Y-104837500D03*
%TO.P,R17,2*%
%TO.N,Net-(J2-DN1)*%
X125250000Y-106662500D03*
%TD*%
%TO.P,R15,1*%
%TO.N,Net-(R14-Pad1)*%
X106500000Y-85925000D03*
%TO.P,R15,2*%
%TO.N,/BAT-*%
X106500000Y-87750000D03*
%TD*%
D14*
%TO.P,R11,1*%
%TO.N,Net-(D3-A)*%
X118175000Y-109250000D03*
%TO.P,R11,2*%
%TO.N,USB_5V*%
X120000000Y-109250000D03*
%TD*%
D12*
%TO.P,TP21,1,1_1*%
%TO.N,/GPIO3{slash}BUTTON2*%
X157500000Y-105500000D03*
%TD*%
D24*
%TO.P,Q2,1,D_1*%
%TO.N,/GPIO6{slash}SCL*%
X175500000Y-87600000D03*
%TO.P,Q2,2,G_2*%
%TO.N,/VCC_1V8*%
X177400000Y-87600000D03*
%TO.P,Q2,3,S_3*%
%TO.N,/LV_SCL*%
X176450000Y-85325000D03*
%TD*%
D12*
%TO.P,TP18,1,1_1*%
%TO.N,/SQW*%
X180000000Y-95550000D03*
%TD*%
%TO.P,TP16,1,1_1*%
%TO.N,/D+*%
X123000000Y-102000000D03*
%TD*%
D21*
%TO.P,R6,1*%
%TO.N,GND*%
X213887500Y-96162500D03*
%TO.P,R6,2*%
%TO.N,/ACCEL_PS1*%
X212062500Y-96162500D03*
%TD*%
D24*
%TO.P,U9,1,OD_1*%
%TO.N,Net-(U9-OD)*%
X94300000Y-85025000D03*
%TO.P,U9,2,CS_2*%
%TO.N,Net-(U9-CS)*%
X95250000Y-85025000D03*
%TO.P,U9,3,OC_3*%
%TO.N,Net-(U9-OC)*%
X96200000Y-85025000D03*
%TO.P,U9,4,TD_4*%
%TO.N,unconnected-(U9-TD-Pad4)*%
X96200000Y-82750000D03*
%TO.P,U9,5,VCC_5*%
%TO.N,Net-(U9-VCC)*%
X95250000Y-82750000D03*
%TO.P,U9,6,GND_6*%
%TO.N,/BAT-*%
X94300000Y-82750000D03*
%TD*%
D27*
%TO.P,C17,1*%
%TO.N,5V*%
X174275000Y-70350000D03*
%TO.P,C17,2*%
%TO.N,GND*%
X172550000Y-70350000D03*
%TD*%
%TO.P,C1,1*%
%TO.N,/GPIO0{slash}BOOT*%
X115750000Y-79250000D03*
%TO.P,C1,2*%
%TO.N,GND*%
X114025000Y-79250000D03*
%TD*%
D15*
%TO.P,C4,1*%
%TO.N,/EN{slash}CHIP_PU*%
X155837500Y-75300000D03*
%TO.P,C4,2*%
%TO.N,GND*%
X157562500Y-75300000D03*
%TD*%
D53*
%TO.P,U2,A1,VLED_A1*%
%TO.N,5V*%
X199407300Y-78091100D03*
%TO.P,U2,A2,SCLK_A2*%
%TO.N,/PPG_SCK*%
X199407300Y-77691100D03*
%TO.P,U2,A3,SDO_A3*%
%TO.N,/PPG_MISO*%
X199407300Y-77291100D03*
%TO.P,U2,A4,SDI_A4*%
%TO.N,/PPG_MOSI*%
X199407300Y-76891100D03*
%TO.P,U2,A5,CSB_A5*%
%TO.N,/PPG_CSB*%
X199407300Y-76491100D03*
%TO.P,U2,B1,LED3_DRV_B1*%
%TO.N,/LED3_DRV*%
X199807300Y-78091100D03*
%TO.P,U2,B2,\u002AINT_B2*%
%TO.N,/PPG_INT*%
X199807300Y-77691100D03*
%TO.P,U2,B3,GPIO1_B3*%
%TO.N,unconnected-(U2-GPIO1-PadB3)*%
X199807300Y-77291100D03*
%TO.P,U2,B4,GPIO2_B4*%
%TO.N,unconnected-(U2-GPIO2-PadB4)*%
X199807300Y-76891100D03*
%TO.P,U2,B5,VREF_B5*%
%TO.N,Net-(U2-VREF)*%
X199807300Y-76491100D03*
%TO.P,U2,C1,LED2_DRV_C1*%
%TO.N,/LED2_DRV*%
X200207300Y-78091100D03*
%TO.P,U2,C2,VDD_DIG_C2*%
%TO.N,1V8*%
X200207300Y-77691100D03*
%TO.P,U2,C3,GND_DIG_C3*%
%TO.N,GND*%
X200207300Y-77291100D03*
%TO.P,U2,C4,GND_ANA_C4*%
X200207300Y-76891100D03*
%TO.P,U2,C5,PD_GND_C5*%
%TO.N,/PD_GND*%
X200207300Y-76491100D03*
%TO.P,U2,D1,LED1_DRV_D1*%
%TO.N,/LED1_DRV*%
X200607300Y-78091100D03*
%TO.P,U2,D2,VDD_ANA_D2*%
%TO.N,1V8*%
X200607300Y-77691100D03*
%TO.P,U2,D3,PGND_D3*%
%TO.N,GND*%
X200607300Y-77291100D03*
%TO.P,U2,D4,PD2_IN_D4*%
%TO.N,/PD2_IN*%
X200607300Y-76891100D03*
%TO.P,U2,D5,PD1_IN_D5*%
%TO.N,/PD1_IN*%
X200607300Y-76491100D03*
%TD*%
D12*
%TO.P,TP4,1,1_1*%
%TO.N,/BAT-*%
X83750000Y-90500000D03*
%TD*%
D22*
%TO.P,SW1,1,1_1*%
%TO.N,GND*%
X113250000Y-76250000D03*
%TO.P,SW1,2,2_2*%
%TO.N,/GPIO0{slash}BOOT*%
X116650000Y-76250000D03*
%TD*%
D39*
%TO.P,C18,1*%
%TO.N,/VUSB_5V*%
X88500000Y-69225000D03*
%TO.P,C18,2*%
%TO.N,GND*%
X88500000Y-67500000D03*
%TD*%
%TO.P,C3,1*%
%TO.N,VCC_3V3*%
X119000000Y-68000000D03*
%TO.P,C3,2*%
%TO.N,GND*%
X119000000Y-66275000D03*
%TD*%
D54*
%TO.P,Y2,1,1_1*%
%TO.N,Net-(U12-XIN32)*%
X209462500Y-100525000D03*
%TO.P,Y2,2,2_2*%
%TO.N,Net-(U12-XOUT32{slash}CLKSEL1)*%
X206962500Y-100525000D03*
%TD*%
D12*
%TO.P,TP14,1,1_1*%
%TO.N,/GPIO1{slash}BATTERY_MONITOR*%
X109925000Y-82175000D03*
%TD*%
D22*
%TO.P,SW3,1,1_1*%
%TO.N,GND*%
X150200000Y-105500000D03*
%TO.P,SW3,2,2_2*%
%TO.N,/GPIO3{slash}BUTTON2*%
X153600000Y-105500000D03*
%TD*%
D14*
%TO.P,R24,1*%
%TO.N,Net-(U8-PROG)*%
X83425000Y-68750000D03*
%TO.P,R24,2*%
%TO.N,GND*%
X85250000Y-68750000D03*
%TD*%
D12*
%TO.P,TP6,1,1_1*%
%TO.N,/VIN_3V3*%
X106000000Y-97150000D03*
%TD*%
D55*
%TO.P,U1,1,GND_1*%
%TO.N,GND*%
X128615000Y-66375000D03*
%TO.P,U1,2,GND_2*%
X128615000Y-67225000D03*
%TO.P,U1,3,3V3_3*%
%TO.N,/ESP_3V3*%
X128615000Y-68075000D03*
%TO.P,U1,4,IO0_4*%
%TO.N,/GPIO0{slash}BOOT*%
X128615000Y-68925000D03*
%TO.P,U1,5,IO1_5*%
%TO.N,/GPIO1{slash}BATTERY_MONITOR*%
X128615000Y-69775000D03*
%TO.P,U1,6,IO2_6*%
%TO.N,/GPIO2{slash}BUTTON1*%
X128615000Y-70625000D03*
%TO.P,U1,7,IO3_7*%
%TO.N,/GPIO3{slash}BUTTON2*%
X128615000Y-71475000D03*
%TO.P,U1,8,IO4_8*%
%TO.N,/GPIO4{slash}BUTTON3*%
X128615000Y-72325000D03*
%TO.P,U1,9,IO5_9*%
%TO.N,/GPIO5{slash}SDA*%
X128615000Y-73175000D03*
%TO.P,U1,10,IO6_10*%
%TO.N,/GPIO6{slash}SCL*%
X128615000Y-74025000D03*
%TO.P,U1,11,IO7_11*%
%TO.N,/GPIO7{slash}SCK*%
X128615000Y-74875000D03*
%TO.P,U1,12,IO8_12*%
%TO.N,/GPIO8{slash}MISO*%
X128615000Y-75725000D03*
%TO.P,U1,13,IO9_13*%
%TO.N,/GPIO9{slash}MOSI*%
X128615000Y-76575000D03*
%TO.P,U1,14,IO10_14*%
%TO.N,/GPIO10*%
X128615000Y-77425000D03*
%TO.P,U1,15,IO11_15*%
%TO.N,/GPIO11*%
X128615000Y-78275000D03*
D56*
%TO.P,U1,16,IO12_16*%
%TO.N,/GPIO12*%
X129665000Y-79325000D03*
%TO.P,U1,17,IO13_17*%
%TO.N,/GPIO13*%
X130515000Y-79325000D03*
%TO.P,U1,18,IO14_18*%
%TO.N,/GPIO14*%
X131365000Y-79325000D03*
%TO.P,U1,19,IO15_19*%
%TO.N,/GPIO15*%
X132215000Y-79325000D03*
%TO.P,U1,20,IO16_20*%
%TO.N,/GPIO16*%
X133065000Y-79325000D03*
%TO.P,U1,21,IO17_21*%
%TO.N,/GPIO17*%
X133915000Y-79325000D03*
%TO.P,U1,22,IO18_22*%
%TO.N,/GPIO18*%
X134765000Y-79325000D03*
%TO.P,U1,23,USB_D-_23*%
%TO.N,/D-*%
X135615000Y-79325000D03*
%TO.P,U1,24,USB_D+_24*%
%TO.N,/D+*%
X136465000Y-79325000D03*
%TO.P,U1,25,IO21_25*%
%TO.N,/GPIO21*%
X137315000Y-79325000D03*
%TO.P,U1,26,IO26_26*%
%TO.N,/GPIO27*%
X138165000Y-79325000D03*
%TO.P,U1,27,IO47_27*%
%TO.N,/GPIO47*%
X139015000Y-79325000D03*
%TO.P,U1,28,IO33_28*%
%TO.N,/GPIO33*%
X139865000Y-79325000D03*
%TO.P,U1,29,IO34_29*%
%TO.N,/GPIO34*%
X140715000Y-79325000D03*
%TO.P,U1,30,IO48_30*%
%TO.N,/GPIO48*%
X141565000Y-79325000D03*
D55*
%TO.P,U1,31,IO35_31*%
%TO.N,/GPIO35*%
X142615000Y-78275000D03*
%TO.P,U1,32,IO36_32*%
%TO.N,/GPIO36*%
X142615000Y-77425000D03*
%TO.P,U1,33,IO37_33*%
%TO.N,/GPIO37*%
X142615000Y-76575000D03*
%TO.P,U1,34,IO38_34*%
%TO.N,/GPIO38*%
X142615000Y-75725000D03*
%TO.P,U1,35,IO39_35*%
%TO.N,/GPIO39*%
X142615000Y-74875000D03*
%TO.P,U1,36,IO40_36*%
%TO.N,/GPIO40*%
X142615000Y-74025000D03*
%TO.P,U1,37,IO41_37*%
%TO.N,/GPIO41*%
X142615000Y-73175000D03*
%TO.P,U1,38,IO42_38*%
%TO.N,/GPIO42*%
X142615000Y-72325000D03*
%TO.P,U1,39,TXD0_39*%
%TO.N,/U0TXD*%
X142615000Y-71475000D03*
%TO.P,U1,40,RXD0_40*%
%TO.N,/U0RXD*%
X142615000Y-70625000D03*
%TO.P,U1,41,IO45_41*%
%TO.N,/GPIO45*%
X142615000Y-69775000D03*
%TO.P,U1,42,GND_42*%
%TO.N,GND*%
X142615000Y-68925000D03*
%TO.P,U1,43,GND_43*%
X142615000Y-68075000D03*
%TO.P,U1,44,IO46_44*%
%TO.N,/GPIO46*%
X142615000Y-67225000D03*
%TO.P,U1,45,EN_45*%
%TO.N,/EN{slash}CHIP_PU*%
X142615000Y-66375000D03*
D56*
%TO.P,U1,46,GND_46*%
%TO.N,GND*%
X141565000Y-65325000D03*
%TO.P,U1,47,GND_47*%
X140715000Y-65325000D03*
%TO.P,U1,48,GND_48*%
X139865000Y-65325000D03*
%TO.P,U1,49,GND_49*%
X139015000Y-65325000D03*
%TO.P,U1,50,GND_50*%
X138165000Y-65325000D03*
%TO.P,U1,51,GND_51*%
X137315000Y-65325000D03*
%TO.P,U1,52,GND_52*%
X136465000Y-65325000D03*
%TO.P,U1,53,GND_53*%
X135615000Y-65325000D03*
%TO.P,U1,54,GND_54*%
X134765000Y-65325000D03*
%TO.P,U1,55,GND_55*%
X133915000Y-65325000D03*
%TO.P,U1,56,GND_56*%
X133065000Y-65325000D03*
%TO.P,U1,57,GND_57*%
X132215000Y-65325000D03*
%TO.P,U1,58,GND_58*%
X131365000Y-65325000D03*
%TO.P,U1,59,GND_59*%
X130515000Y-65325000D03*
%TO.P,U1,60,GND_60*%
X129665000Y-65325000D03*
D57*
%TO.P,U1,61,GND_61*%
X133965000Y-70675000D03*
D58*
X133965000Y-72325000D03*
X133965000Y-73975000D03*
X135615000Y-70675000D03*
X135615000Y-72325000D03*
X135615000Y-73975000D03*
X137265000Y-70675000D03*
X137265000Y-72325000D03*
X137265000Y-73975000D03*
D59*
%TO.P,U1,62,GND_62*%
X128615000Y-65325000D03*
%TO.P,U1,63,GND_63*%
X128615000Y-79325000D03*
%TO.P,U1,64,GND_64*%
X142615000Y-79325000D03*
%TO.P,U1,65,GND_65*%
X142615000Y-65325000D03*
%TD*%
D60*
%TO.P,U6,1,VIN_1*%
%TO.N,VCC_3V3*%
X196800000Y-98700000D03*
%TO.P,U6,2,GND_2*%
%TO.N,GND*%
X197450000Y-98700000D03*
%TO.P,U6,3,EN_3*%
%TO.N,VCC_3V3*%
X198100000Y-98700000D03*
%TO.P,U6,4,NC_4*%
%TO.N,unconnected-(U6-NC-Pad4)*%
X198100000Y-97025000D03*
%TO.P,U6,5,VOUT_5*%
%TO.N,1V8*%
X196800000Y-97025000D03*
%TD*%
D11*
%TO.P,C9,1*%
%TO.N,5V*%
X198900000Y-80962500D03*
%TO.P,C9,2*%
%TO.N,GND*%
X198900000Y-82687500D03*
%TD*%
D61*
%TO.N,/GPIO10*%
X127400000Y-81250000D03*
%TO.N,/GPIO11*%
X128000000Y-81750000D03*
D62*
%TO.N,1V8*%
X200200000Y-77700000D03*
D61*
X187250000Y-78900000D03*
X189500000Y-79650000D03*
X196950000Y-81550000D03*
X186650001Y-73050000D03*
%TO.N,GND*%
X189650000Y-109800000D03*
X213900000Y-89350000D03*
X143875000Y-65325000D03*
X135550000Y-75600000D03*
X172500000Y-80600000D03*
X196050000Y-85850000D03*
X109375000Y-103275000D03*
X195050000Y-109800000D03*
X137265000Y-73975000D03*
X187600000Y-83650000D03*
X109300000Y-98150000D03*
X137265000Y-72325000D03*
X114250000Y-110600000D03*
X140400000Y-75450000D03*
X131050000Y-75400000D03*
X142650000Y-80700000D03*
X128615000Y-80450000D03*
X163800000Y-74550000D03*
X135615000Y-70675000D03*
X131150000Y-71550000D03*
X198800000Y-100900000D03*
X114000000Y-80300000D03*
X131000000Y-106500000D03*
X137265000Y-70675000D03*
X213900000Y-97300000D03*
X199900000Y-84050000D03*
X193600000Y-99950000D03*
X135550000Y-67300000D03*
X133965000Y-73975000D03*
X157600000Y-76400000D03*
X140500000Y-67300000D03*
X112500000Y-96350000D03*
X86800000Y-78850000D03*
X150950000Y-109650000D03*
X182200000Y-80100000D03*
X199800000Y-71200000D03*
X131300000Y-67250000D03*
X184096597Y-77922975D03*
X125650000Y-110700000D03*
X208200000Y-104600000D03*
X106950000Y-73250000D03*
X117750000Y-66275000D03*
X135615000Y-72325000D03*
X137850000Y-110150000D03*
X133965000Y-72325000D03*
X177450000Y-105550000D03*
X206750000Y-97850000D03*
X172550000Y-69200000D03*
X163750000Y-109650000D03*
X189500000Y-83600000D03*
X135615000Y-73975000D03*
X99925000Y-91075000D03*
X81950000Y-74300000D03*
X201200000Y-77700000D03*
X206050000Y-90050000D03*
X87350000Y-67500000D03*
X140250000Y-71250000D03*
X85250000Y-67650000D03*
X119200000Y-110700000D03*
X133965000Y-70675000D03*
X212062500Y-101250000D03*
%TO.N,VCC_3V3*%
X179850000Y-90300000D03*
X165000000Y-67100000D03*
X209725000Y-98337500D03*
X196800000Y-99650000D03*
X198100000Y-99650000D03*
X165450000Y-85500000D03*
X122000000Y-66850000D03*
X210400000Y-95500000D03*
X104400000Y-66800000D03*
X199750000Y-98700000D03*
X89350000Y-99450000D03*
%TO.N,5V*%
X205464100Y-75700000D03*
X179200000Y-72550000D03*
X206350000Y-75700000D03*
X198200000Y-78550000D03*
X203559998Y-77350000D03*
%TO.N,/ESP_3V3*%
X126500000Y-66000000D03*
X146975000Y-66000000D03*
%TO.N,/VIN_3V3*%
X102750000Y-82750000D03*
X102750000Y-93450000D03*
%TO.N,/BAT-*%
X82500000Y-98150000D03*
%TO.N,USB_5V*%
X124850000Y-110700000D03*
X120000000Y-110700000D03*
%TO.N,Net-(J2-CC1)*%
X124018199Y-108618199D03*
X121700000Y-108600000D03*
%TO.N,Net-(J2-DP1)*%
X122175000Y-110000000D03*
X123200000Y-110000000D03*
%TO.N,Net-(J2-DN1)*%
X122675000Y-109325000D03*
X121725000Y-109350000D03*
%TO.N,Net-(LED1-IR)*%
X204859998Y-77350000D03*
%TO.N,/GPIO5{slash}SDA*%
X173100000Y-90750000D03*
X181230000Y-107900000D03*
X176300000Y-107900000D03*
X122600000Y-86350000D03*
X200150000Y-105450000D03*
X182200000Y-90300000D03*
%TO.N,/VCC_1V8*%
X185900000Y-88800000D03*
X180950000Y-87600000D03*
X171950000Y-91500000D03*
X172000000Y-89300000D03*
X177400000Y-89250000D03*
%TO.N,/LV_SDA*%
X168700000Y-86050000D03*
X184450000Y-73400000D03*
X185800000Y-73400000D03*
X177700000Y-82150000D03*
%TO.N,/PPG_MOSI*%
X198200000Y-74600000D03*
X198200000Y-76150000D03*
%TO.N,/VUSB_5V*%
X90450000Y-71750000D03*
X83500000Y-76500000D03*
%TO.N,/PD_GND*%
X200700000Y-75150000D03*
%TO.N,/D+*%
X136500000Y-88650000D03*
X131750000Y-99750000D03*
%TO.N,Net-(U9-CS)*%
X97050000Y-87000000D03*
X95300000Y-87000000D03*
%TO.N,/GPIO11*%
X184550000Y-74250000D03*
%TO.N,/GPIO10*%
X182100000Y-75850000D03*
D62*
%TO.N,/PPG_INT*%
X199800000Y-77700000D03*
D61*
X197500000Y-80400000D03*
%TO.N,/PPG_SCK*%
X193450000Y-74800000D03*
X198191100Y-77691100D03*
%TO.N,/PPG_MISO*%
X193600000Y-69750000D03*
X198200000Y-76900000D03*
%TO.N,/GPIO6{slash}SCL*%
X182500000Y-106800000D03*
X200150000Y-104150000D03*
X124375000Y-85873400D03*
X177000000Y-106800000D03*
X174000000Y-90300000D03*
%TO.N,Net-(LED1-G)*%
X204209998Y-77350000D03*
%TO.N,Net-(LED1-R)*%
X204200000Y-75250000D03*
%TO.N,/D-*%
X135600000Y-88650000D03*
X129600000Y-100850000D03*
%TO.N,/PD2_IN*%
X201800000Y-76400000D03*
%TO.N,/PD1_IN*%
X201451831Y-75176600D03*
%TD*%
%TO.N,/GPIO11*%
D63*
X125900000Y-93260000D02*
X127180000Y-94540000D01*
X128000000Y-88600000D02*
X125900000Y-90700000D01*
X128000000Y-81750000D02*
X128000000Y-88600000D01*
X127550000Y-78550000D02*
X127825000Y-78275000D01*
X127550000Y-80450000D02*
X127550000Y-78550000D01*
X128000000Y-80900000D02*
X127550000Y-80450000D01*
X128000000Y-81750000D02*
X128000000Y-80900000D01*
X127825000Y-78275000D02*
X128615000Y-78275000D01*
X125900000Y-90700000D02*
X125900000Y-93260000D01*
%TO.N,GND*%
X128615000Y-80450000D02*
X128615000Y-79325000D01*
%TO.N,/GPIO10*%
X127200000Y-78050000D02*
X127825000Y-77425000D01*
X127825000Y-77425000D02*
X128615000Y-77425000D01*
X127200000Y-80750000D02*
X127200000Y-78050000D01*
X127400000Y-81250000D02*
X127400000Y-80950000D01*
X127400000Y-80950000D02*
X127200000Y-80750000D01*
X124640000Y-90610000D02*
X124640000Y-92000000D01*
X127400000Y-87850000D02*
X124640000Y-90610000D01*
X127400000Y-81250000D02*
X127400000Y-87850000D01*
%TO.N,1V8*%
X189500000Y-79650000D02*
X189500000Y-80800000D01*
X196950000Y-83000000D02*
X196950000Y-81550000D01*
X193600000Y-97000000D02*
X196775000Y-97000000D01*
X190750000Y-80800000D02*
X189500000Y-80800000D01*
X193750000Y-90750000D02*
X196800000Y-93800000D01*
X187250000Y-78900000D02*
X187049999Y-78699999D01*
X195200000Y-82987500D02*
X195212500Y-83000000D01*
X194562500Y-82987500D02*
X195200000Y-82987500D01*
X195212500Y-83000000D02*
X196950000Y-83000000D01*
X196512500Y-81112500D02*
X195050000Y-81112500D01*
X187049999Y-78699999D02*
X187049999Y-77650001D01*
X193750000Y-83800000D02*
X194562500Y-82987500D01*
X196800000Y-97025000D02*
X196800000Y-93800000D01*
X196775000Y-97000000D02*
X196800000Y-97025000D01*
X186650000Y-73049999D02*
X186650001Y-73050000D01*
X186650001Y-73050000D02*
X186650000Y-73050001D01*
X193750000Y-83800000D02*
X190750000Y-80800000D01*
X196950000Y-81550000D02*
X196512500Y-81112500D01*
X200200000Y-77700000D02*
X200600000Y-77700000D01*
X186650000Y-73050001D02*
X186650000Y-74750001D01*
X193750000Y-83800000D02*
X193750000Y-90750000D01*
%TO.N,GND*%
D64*
X197400000Y-100900000D02*
X198800000Y-100900000D01*
D63*
X200200000Y-76900000D02*
X200200000Y-77300000D01*
X137862500Y-106137500D02*
X137212500Y-105487500D01*
X157600000Y-76400000D02*
X157600000Y-75337500D01*
D65*
X185270000Y-77580001D02*
X184927025Y-77922975D01*
D63*
X213887500Y-89362500D02*
X213887500Y-90462500D01*
D65*
X112500000Y-96350000D02*
X112500000Y-97525000D01*
D63*
X195200000Y-85000000D02*
X195200000Y-84712500D01*
X172550000Y-69200000D02*
X172550000Y-70350000D01*
D65*
X108625000Y-104025000D02*
X105700000Y-104025000D01*
D63*
X142650000Y-80700000D02*
X142650000Y-79360000D01*
D65*
X96200000Y-91510000D02*
X96210000Y-91500000D01*
D63*
X137862500Y-108987500D02*
X137862500Y-110137500D01*
X157562500Y-75300000D02*
X157562500Y-73312500D01*
X209437500Y-104600000D02*
X209462500Y-104625000D01*
D65*
X86775000Y-78825000D02*
X86775000Y-77750000D01*
X143875000Y-65325000D02*
X142615000Y-65325000D01*
D63*
X197450000Y-100850000D02*
X197400000Y-100900000D01*
D65*
X105700000Y-104025000D02*
X104250000Y-104025000D01*
X125650000Y-112045000D02*
X125625000Y-112070000D01*
D63*
X186650000Y-81850000D02*
X187350000Y-82550000D01*
X163750000Y-108450000D02*
X163750000Y-109650000D01*
D65*
X86025000Y-76300000D02*
X86025000Y-73655000D01*
D63*
X150950000Y-108500000D02*
X150950000Y-107450000D01*
D65*
X119200000Y-110700000D02*
X119200000Y-112050000D01*
D63*
X182200000Y-79000000D02*
X182200000Y-80100000D01*
X109825000Y-100200000D02*
X110500000Y-100875000D01*
X206562500Y-90562500D02*
X206662500Y-90562500D01*
X207262500Y-96812500D02*
X207262500Y-97337500D01*
X208187500Y-104587500D02*
X208200000Y-104600000D01*
X163000000Y-107250000D02*
X163000000Y-107700000D01*
X172500000Y-79462500D02*
X172500000Y-80600000D01*
X202350000Y-76250000D02*
X202350000Y-77150000D01*
X207262500Y-97337500D02*
X206750000Y-97850000D01*
X81960000Y-74290000D02*
X81950000Y-74300000D01*
D65*
X88500000Y-67500000D02*
X87350000Y-67500000D01*
D63*
X187600000Y-82562500D02*
X187600000Y-83650000D01*
X208200000Y-104600000D02*
X209437500Y-104600000D01*
X212062500Y-101250000D02*
X212062500Y-100062500D01*
X202350000Y-77150000D02*
X202250000Y-77250000D01*
D65*
X86775000Y-77475000D02*
X86025000Y-76725000D01*
X119200000Y-112050000D02*
X119225000Y-112050000D01*
D63*
X114025000Y-79250000D02*
X114025000Y-80275000D01*
X198900000Y-83050000D02*
X199900000Y-84050000D01*
D65*
X86025000Y-76725000D02*
X86025000Y-76300000D01*
D63*
X196950000Y-84712500D02*
X196950000Y-84950000D01*
X142650000Y-79360000D02*
X142615000Y-79325000D01*
X113250000Y-78475000D02*
X114025000Y-79250000D01*
D65*
X184096597Y-77922975D02*
X184927025Y-77922975D01*
D63*
X150950000Y-108500000D02*
X150950000Y-109650000D01*
X172550000Y-73799280D02*
X172500000Y-73849280D01*
X137862500Y-108987500D02*
X137862500Y-107650000D01*
X137862500Y-110137500D02*
X137850000Y-110150000D01*
D65*
X109295000Y-98155000D02*
X109295000Y-99600000D01*
D63*
X163000000Y-107700000D02*
X163750000Y-108450000D01*
X199800000Y-71200000D02*
X199800000Y-72400000D01*
X196950000Y-84950000D02*
X196050000Y-85850000D01*
X109300000Y-98150000D02*
X109295000Y-98155000D01*
D65*
X125650000Y-110700000D02*
X125650000Y-112045000D01*
D63*
X131000000Y-106500000D02*
X130000000Y-105500000D01*
X207000000Y-104625000D02*
X206962500Y-104587500D01*
X113250000Y-76250000D02*
X113250000Y-78475000D01*
X157550000Y-71200000D02*
X158450000Y-70300000D01*
X213900000Y-97300000D02*
X213900000Y-96250000D01*
D65*
X96210000Y-91500000D02*
X98375000Y-91500000D01*
X116490000Y-66275000D02*
X119000000Y-66275000D01*
X110500000Y-102150000D02*
X108625000Y-104025000D01*
D63*
X157550000Y-73300000D02*
X157550000Y-71200000D01*
X213112500Y-96937500D02*
X213887500Y-96162500D01*
X150950000Y-107450000D02*
X150950000Y-106250000D01*
D65*
X164950000Y-74550000D02*
X166200000Y-75800000D01*
D63*
X193600000Y-99950000D02*
X193575000Y-99925000D01*
X200900000Y-83050000D02*
X200900000Y-82687500D01*
X209325000Y-96000000D02*
X209487500Y-96000000D01*
X206662500Y-90562500D02*
X207262500Y-91162500D01*
D64*
X197450000Y-98700000D02*
X197450000Y-100850000D01*
D63*
X177450000Y-105550000D02*
X178340000Y-105550000D01*
D65*
X83550000Y-74290000D02*
X81960000Y-74290000D01*
X98800000Y-91075000D02*
X99925000Y-91075000D01*
D63*
X200791100Y-77291100D02*
X201200000Y-77700000D01*
X196050000Y-85850000D02*
X195200000Y-85000000D01*
X200607300Y-77291100D02*
X200207300Y-77291100D01*
X114025000Y-80275000D02*
X114000000Y-80300000D01*
X114250000Y-109250000D02*
X114250000Y-110600000D01*
X201800000Y-77700000D02*
X201200000Y-77700000D01*
X206050000Y-90050000D02*
X206562500Y-90562500D01*
X210425000Y-96937500D02*
X213112500Y-96937500D01*
D65*
X85250000Y-70050000D02*
X83550000Y-71750000D01*
D63*
X150950000Y-106250000D02*
X150200000Y-105500000D01*
D65*
X164950000Y-74550000D02*
X163800000Y-74550000D01*
D63*
X86775000Y-77750000D02*
X86775000Y-77475000D01*
D65*
X85250000Y-68750000D02*
X85250000Y-70050000D01*
X142615000Y-65325000D02*
X141565000Y-65325000D01*
X85250000Y-67650000D02*
X85250000Y-68750000D01*
D63*
X189650000Y-109800000D02*
X192300000Y-109800000D01*
X199900000Y-84050000D02*
X200900000Y-83050000D01*
X200607300Y-77291100D02*
X200791100Y-77291100D01*
X137862500Y-107650000D02*
X137862500Y-106137500D01*
X178340000Y-105550000D02*
X178690000Y-105200000D01*
X207262500Y-91162500D02*
X207262500Y-93687500D01*
X172550000Y-70350000D02*
X172550000Y-73799280D01*
D65*
X166200000Y-75800000D02*
X168258200Y-75800000D01*
X105750000Y-73250000D02*
X106950000Y-73250000D01*
D63*
X189500000Y-82525000D02*
X189500000Y-83600000D01*
X131000000Y-106500000D02*
X130000000Y-107500000D01*
D65*
X98375000Y-91500000D02*
X98800000Y-91075000D01*
D63*
X213900000Y-96250000D02*
X213887500Y-96237500D01*
X185250000Y-77600000D02*
X185250000Y-77550000D01*
X209487500Y-96000000D02*
X210425000Y-96937500D01*
X157562500Y-73312500D02*
X157550000Y-73300000D01*
D65*
X110500000Y-102150000D02*
X110500000Y-100875000D01*
D63*
X206962500Y-104587500D02*
X208187500Y-104587500D01*
X157600000Y-75337500D02*
X157562500Y-75300000D01*
X86800000Y-78850000D02*
X86775000Y-78825000D01*
X202250000Y-77250000D02*
X201800000Y-77700000D01*
X198900000Y-82687500D02*
X198900000Y-83050000D01*
X193575000Y-98750000D02*
X193600000Y-98725000D01*
X213900000Y-89350000D02*
X213887500Y-89362500D01*
X186650000Y-77650001D02*
X186650000Y-81850000D01*
X163000000Y-105200000D02*
X163000000Y-107250000D01*
X186650000Y-77650001D02*
X186650000Y-76200001D01*
X213887500Y-96237500D02*
X213887500Y-96162500D01*
X195050000Y-109800000D02*
X192300000Y-109800000D01*
X193575000Y-99925000D02*
X193575000Y-98750000D01*
%TO.N,VCC_3V3*%
D65*
X168258200Y-75149760D02*
X168258200Y-74499520D01*
X195675000Y-99025000D02*
X196000000Y-98700000D01*
X184750000Y-93000000D02*
X192650000Y-100900000D01*
X185800000Y-90300000D02*
X185800000Y-91950000D01*
X168258200Y-74499520D02*
X166624520Y-74499520D01*
X165025000Y-72750000D02*
X164950000Y-72825000D01*
X199750000Y-98700000D02*
X198100000Y-98700000D01*
X179850000Y-90300000D02*
X177400000Y-90300000D01*
X208762500Y-96812500D02*
X208762500Y-97375000D01*
X192650000Y-100900000D02*
X195675000Y-100900000D01*
X165000000Y-67100000D02*
X165025000Y-67125000D01*
X209325000Y-95500000D02*
X210400000Y-95500000D01*
X212062500Y-98337500D02*
X213862500Y-98337500D01*
X89350000Y-104330000D02*
X87100000Y-106580000D01*
X182600000Y-93050000D02*
X181500000Y-91950000D01*
X195675000Y-100900000D02*
X195675000Y-99025000D01*
X213862500Y-94462500D02*
X213862500Y-92287500D01*
X161500000Y-81550000D02*
X161500000Y-70600000D01*
X181500000Y-91950000D02*
X179850000Y-90300000D01*
X165025000Y-67125000D02*
X165025000Y-70800000D01*
X181230000Y-99120000D02*
X182600000Y-97750000D01*
X214950000Y-97250000D02*
X214950000Y-95100000D01*
X213862500Y-98337500D02*
X214950000Y-97250000D01*
X181230000Y-100250000D02*
X181230000Y-99120000D01*
X214950000Y-95100000D02*
X214312500Y-94462500D01*
X89350000Y-99450000D02*
X89350000Y-104330000D01*
X166624520Y-74499520D02*
X164950000Y-72825000D01*
X182600000Y-97750000D02*
X182600000Y-93050000D01*
X208762500Y-97375000D02*
X209725000Y-98337500D01*
X182550000Y-93000000D02*
X184750000Y-93000000D01*
X165025000Y-70800000D02*
X165025000Y-72750000D01*
X181500000Y-91950000D02*
X182550000Y-93000000D01*
X165450000Y-85500000D02*
X161500000Y-81550000D01*
X214312500Y-94462500D02*
X213862500Y-94462500D01*
X213862500Y-92287500D02*
X213887500Y-92262500D01*
X198100000Y-99650000D02*
X198100000Y-98700000D01*
X196000000Y-98700000D02*
X196800000Y-98700000D01*
X161500000Y-70600000D02*
X165000000Y-67100000D01*
X196800000Y-98700000D02*
X196800000Y-99650000D01*
X212062500Y-98337500D02*
X209725000Y-98337500D01*
X185800000Y-91950000D02*
X184750000Y-93000000D01*
%TO.N,5V*%
D63*
X203559998Y-77350000D02*
X203550000Y-77340002D01*
D65*
X174775000Y-70350000D02*
X176975000Y-72550000D01*
X174275000Y-70350000D02*
X174775000Y-70350000D01*
D63*
X199407300Y-78091100D02*
X199407300Y-79469800D01*
D65*
X173500480Y-74499520D02*
X172500000Y-74499520D01*
D63*
X204200000Y-76300000D02*
X204864100Y-76300000D01*
X206350000Y-75700000D02*
X206350000Y-82077562D01*
D65*
X198200000Y-80262500D02*
X198900000Y-80962500D01*
X176975000Y-72550000D02*
X179200000Y-72550000D01*
X174275000Y-70350000D02*
X174275000Y-73725000D01*
X198200000Y-78550000D02*
X198200000Y-80262500D01*
D63*
X199407300Y-79469800D02*
X200900000Y-80962500D01*
X203550000Y-77340002D02*
X203550000Y-76950000D01*
D65*
X200900000Y-80962500D02*
X198900000Y-80962500D01*
X174275000Y-73725000D02*
X173500480Y-74499520D01*
X176975000Y-75550000D02*
X176675000Y-75850000D01*
D63*
X202626600Y-83076600D02*
X200900000Y-81350000D01*
X206350000Y-82077562D02*
X205350962Y-83076600D01*
X203550000Y-76950000D02*
X204200000Y-76300000D01*
X200900000Y-81350000D02*
X200900000Y-80962500D01*
X204864100Y-76300000D02*
X205464100Y-75700000D01*
D65*
X176975000Y-72550000D02*
X176975000Y-75550000D01*
D63*
X205350962Y-83076600D02*
X202626600Y-83076600D01*
%TO.N,Net-(D7-K)*%
D65*
X92075000Y-71130000D02*
X92075000Y-68955000D01*
%TO.N,Net-(U8-~{CHRG})*%
X88500000Y-73020000D02*
X92010000Y-73020000D01*
D63*
X92010000Y-73020000D02*
X92075000Y-72955000D01*
%TO.N,/ESP_3V3*%
D65*
X147062500Y-66087500D02*
X148250000Y-66087500D01*
X124750000Y-66000000D02*
X126500000Y-66000000D01*
X123825000Y-66925000D02*
X124750000Y-66000000D01*
X123825000Y-68162500D02*
X123912500Y-68075000D01*
X123912500Y-68075000D02*
X128615000Y-68075000D01*
X146975000Y-66000000D02*
X147062500Y-66087500D01*
X123825000Y-68162500D02*
X123825000Y-66925000D01*
%TO.N,/EN{slash}CHIP_PU*%
D63*
X152500000Y-69000000D02*
X153800000Y-70300000D01*
X148250000Y-67912500D02*
X146813971Y-67912500D01*
X155825000Y-73325000D02*
X155837500Y-73337500D01*
X152000000Y-69000000D02*
X152500000Y-69000000D01*
X155825000Y-71075000D02*
X155050000Y-70300000D01*
X155825000Y-73300000D02*
X155825000Y-71075000D01*
X146813971Y-67912500D02*
X145276471Y-66375000D01*
X148662500Y-67912500D02*
X149750000Y-69000000D01*
X153800000Y-70300000D02*
X155050000Y-70300000D01*
X155837500Y-73337500D02*
X155837500Y-75300000D01*
X148250000Y-67912500D02*
X148662500Y-67912500D01*
X142615000Y-66375000D02*
X145276471Y-66375000D01*
X149750000Y-69000000D02*
X152000000Y-69000000D01*
X155825000Y-73300000D02*
X155825000Y-73325000D01*
%TO.N,/ACCEL_PS1*%
X212062500Y-96162500D02*
X212062500Y-94525000D01*
X212087500Y-94500000D02*
X209325000Y-94500000D01*
X212062500Y-94525000D02*
X212087500Y-94500000D01*
%TO.N,/GPIO2{slash}BUTTON1*%
X139587500Y-108987500D02*
X139587500Y-106512500D01*
X139500001Y-97300001D02*
X117618628Y-97300001D01*
X140700000Y-105400000D02*
X140612500Y-105487500D01*
X123950000Y-74525000D02*
X127850000Y-70625000D01*
X139587500Y-106512500D02*
X140612500Y-105487500D01*
X123950000Y-82568628D02*
X123950000Y-74525000D01*
X127850000Y-70625000D02*
X128615000Y-70625000D01*
X140612500Y-98412500D02*
X139500001Y-97300001D01*
X116800000Y-89718630D02*
X123950000Y-82568628D01*
X116800000Y-96481371D02*
X116800000Y-89718630D01*
X117618628Y-97300001D02*
X116800000Y-96481371D01*
X140612500Y-105487500D02*
X140612500Y-98412500D01*
X144200000Y-105400000D02*
X140700000Y-105400000D01*
%TO.N,/VIN_3V3*%
D65*
X103887500Y-73212500D02*
X103925000Y-73250000D01*
X106500000Y-100237500D02*
X106862500Y-100237500D01*
D63*
X108775000Y-99400000D02*
X108500000Y-99400000D01*
D65*
X103887500Y-69950000D02*
X103887500Y-73212500D01*
X106862500Y-100237500D02*
X108775000Y-102150000D01*
X108775000Y-102150000D02*
X108775000Y-101025000D01*
X102750000Y-82750000D02*
X102750000Y-74425000D01*
D63*
X108525000Y-100200000D02*
X108775000Y-100200000D01*
D65*
X106000000Y-97150000D02*
X106000000Y-99737500D01*
X102750000Y-93450000D02*
X106000000Y-96700000D01*
D63*
X108300000Y-99975000D02*
X108525000Y-100200000D01*
D65*
X103887500Y-69950000D02*
X104200000Y-69950000D01*
X104200000Y-69950000D02*
X104400000Y-69750000D01*
X106000000Y-99737500D02*
X106500000Y-100237500D01*
D63*
X108770000Y-99000000D02*
X108770000Y-99400000D01*
X108500000Y-99400000D02*
X108300000Y-99600000D01*
X108300000Y-99600000D02*
X108300000Y-99975000D01*
D65*
X102750000Y-74425000D02*
X103925000Y-73250000D01*
D63*
X108775000Y-101025000D02*
X108775000Y-100200000D01*
D65*
X106000000Y-96700000D02*
X106000000Y-97150000D01*
X104400000Y-69750000D02*
X107000000Y-69750000D01*
%TO.N,/BAT-*%
X83750000Y-90500000D02*
X82500000Y-91750000D01*
X94300000Y-92425000D02*
X94300000Y-91510000D01*
X94300000Y-82750000D02*
X92125000Y-82750000D01*
X94875000Y-93000000D02*
X94300000Y-92425000D01*
X101250000Y-93000000D02*
X94875000Y-93000000D01*
X92050000Y-90510000D02*
X93050000Y-91510000D01*
X91600000Y-82650000D02*
X92050000Y-82650000D01*
X93050000Y-91510000D02*
X94300000Y-91510000D01*
X82500000Y-96700000D02*
X82500000Y-98150000D01*
X82500000Y-91750000D02*
X82500000Y-96700000D01*
X92050000Y-82650000D02*
X92050000Y-90510000D01*
X106500000Y-87750000D02*
X101250000Y-93000000D01*
X83750000Y-90500000D02*
X91600000Y-82650000D01*
%TO.N,Net-(U9-OC)*%
X96200000Y-89000000D02*
X96200000Y-85025000D01*
%TO.N,Net-(U9-OD)*%
X94300000Y-85025000D02*
X94300000Y-89000000D01*
%TO.N,/RTC_RST*%
D63*
X178590000Y-100150000D02*
X178690000Y-100250000D01*
X174600000Y-100150000D02*
X178590000Y-100150000D01*
%TO.N,USB_5V*%
D65*
X112500000Y-99250000D02*
X112350000Y-99400000D01*
X124850000Y-112045000D02*
X124825000Y-112070000D01*
X109825000Y-99075000D02*
X109825000Y-99700000D01*
X120000000Y-109250000D02*
X120000000Y-110700000D01*
X120000000Y-109250000D02*
X120000000Y-106500000D01*
X118500000Y-105000000D02*
X112750000Y-99250000D01*
X112350000Y-99400000D02*
X109825000Y-99400000D01*
X112750000Y-99250000D02*
X112500000Y-99250000D01*
X120000000Y-110700000D02*
X120000000Y-112025000D01*
X124850000Y-110700000D02*
X124850000Y-112045000D01*
X120000000Y-112025000D02*
X120025000Y-112050000D01*
X120000000Y-106500000D02*
X118500000Y-105000000D01*
%TO.N,Net-(J2-CC1)*%
D63*
X128175000Y-105500000D02*
X125056801Y-108618199D01*
X121700000Y-108600000D02*
X121175000Y-109125000D01*
X121175000Y-109125000D02*
X121175000Y-112050000D01*
X125056801Y-108618199D02*
X124018199Y-108618199D01*
%TO.N,Net-(J2-DP1)*%
X123150000Y-112050000D02*
X123175000Y-112050000D01*
X123200000Y-112000000D02*
X123150000Y-112050000D01*
X122175000Y-110000000D02*
X122175000Y-107487500D01*
X123200000Y-110000000D02*
X123200000Y-112000000D01*
X122175000Y-107487500D02*
X123000000Y-106662500D01*
X122175000Y-110000000D02*
X122175000Y-112050000D01*
%TO.N,Net-(J2-DN1)*%
X122675000Y-109325000D02*
X125250000Y-106750000D01*
X125250000Y-106750000D02*
X125250000Y-106662500D01*
X121725000Y-109350000D02*
X121725000Y-112025000D01*
X122675000Y-109325000D02*
X122675000Y-112050000D01*
X121700000Y-112050000D02*
X121675000Y-112050000D01*
X121725000Y-112025000D02*
X121700000Y-112050000D01*
%TO.N,Net-(J2-CC2)*%
X126740686Y-107500000D02*
X125222486Y-109018199D01*
X125181801Y-109018199D02*
X124175000Y-110025000D01*
X128175000Y-107500000D02*
X126740686Y-107500000D01*
X125222486Y-109018199D02*
X125181801Y-109018199D01*
X124175000Y-110025000D02*
X124175000Y-112050000D01*
%TO.N,Net-(C23-Pad2)*%
X180375000Y-79000000D02*
X180375000Y-77000000D01*
%TO.N,Net-(LED1-IR)*%
X204859998Y-77509998D02*
X205589100Y-78239100D01*
X205589100Y-79885900D02*
X204925000Y-80550000D01*
X204859998Y-77350000D02*
X204859998Y-77509998D01*
X205589100Y-78239100D02*
X205589100Y-79885900D01*
%TO.N,/LED2_DRV*%
X202489424Y-80550000D02*
X200207300Y-78267876D01*
X203100000Y-80550000D02*
X202489424Y-80550000D01*
X200207300Y-78267876D02*
X200207300Y-78091100D01*
%TO.N,/GPIO4{slash}BUTTON3*%
X166400000Y-101150000D02*
X161750000Y-96500000D01*
X165475000Y-106125000D02*
X166400000Y-105200000D01*
X124750000Y-82900000D02*
X124750000Y-75350000D01*
X161750000Y-96500000D02*
X117950000Y-96500000D01*
X166400000Y-105200000D02*
X166400000Y-101150000D01*
X170000000Y-105200000D02*
X170100000Y-105100000D01*
X117600000Y-90050000D02*
X124750000Y-82900000D01*
X117600000Y-96150000D02*
X117600000Y-90050000D01*
X166400000Y-105200000D02*
X170000000Y-105200000D01*
X127775000Y-72325000D02*
X128615000Y-72325000D01*
X117950000Y-96500000D02*
X117600000Y-96150000D01*
X165475000Y-108450000D02*
X165475000Y-106125000D01*
X124750000Y-75350000D02*
X127775000Y-72325000D01*
%TO.N,Net-(D3-A)*%
X118175000Y-109250000D02*
X116000000Y-109250000D01*
%TO.N,Net-(U12-XOUT32{slash}CLKSEL1)*%
X206962500Y-98737500D02*
X206962500Y-100525000D01*
X207762500Y-96812500D02*
X207762500Y-97937500D01*
X206962500Y-100525000D02*
X206962500Y-102862500D01*
X207762500Y-97937500D02*
X206962500Y-98737500D01*
%TO.N,/GPIO5{slash}SDA*%
X184175000Y-90300000D02*
X184175000Y-90225000D01*
X173100000Y-91200000D02*
X173100000Y-90750000D01*
X202550000Y-103050000D02*
X202550000Y-100000000D01*
X184000000Y-90050000D02*
X184000000Y-87562500D01*
X181230000Y-108030000D02*
X181230000Y-107900000D01*
X122600000Y-86350000D02*
X118300000Y-90650000D01*
X204762500Y-97787500D02*
X204762500Y-96812500D01*
X118300000Y-93280000D02*
X118300000Y-90650000D01*
X128615000Y-73175000D02*
X128015000Y-73175000D01*
X184000000Y-87562500D02*
X183975000Y-87537500D01*
X184175000Y-90225000D02*
X184000000Y-90050000D01*
X200150000Y-105450000D02*
X202550000Y-103050000D01*
X125150000Y-83800000D02*
X122600000Y-86350000D01*
X119560000Y-94540000D02*
X118300000Y-93280000D01*
X181230000Y-107900000D02*
X181230000Y-105200000D01*
X171800000Y-92500000D02*
X173100000Y-91200000D01*
X125150000Y-76040000D02*
X125150000Y-83800000D01*
X171800000Y-103400000D02*
X171800000Y-92500000D01*
X202550000Y-100000000D02*
X204762500Y-97787500D01*
X182200000Y-90300000D02*
X183975000Y-90300000D01*
X176300000Y-107900000D02*
X171800000Y-103400000D01*
X128015000Y-73175000D02*
X125150000Y-76040000D01*
%TO.N,/VCC_1V8*%
D65*
X185900000Y-87562500D02*
X185875000Y-87537500D01*
X179825000Y-87625000D02*
X180925000Y-87625000D01*
X177400000Y-87600000D02*
X177400000Y-89250000D01*
X172000000Y-91450000D02*
X171950000Y-91500000D01*
X179825000Y-87625000D02*
X177425000Y-87625000D01*
X172000000Y-89300000D02*
X172000000Y-91450000D01*
X177425000Y-87625000D02*
X177400000Y-87600000D01*
X180925000Y-87625000D02*
X180950000Y-87600000D01*
X185900000Y-88800000D02*
X185900000Y-87562500D01*
X185875000Y-87537500D02*
X188625000Y-87537500D01*
X188625000Y-87537500D02*
X188675000Y-87587500D01*
%TO.N,/LV_SDA*%
D63*
X181812500Y-82150000D02*
X184925000Y-85262500D01*
X176850000Y-78315686D02*
X176850000Y-81300000D01*
X186250001Y-73850001D02*
X186250001Y-74750001D01*
X177700000Y-82150000D02*
X181812500Y-82150000D01*
X188675000Y-85762500D02*
X187812500Y-84900000D01*
X176850000Y-81300000D02*
X177700000Y-82150000D01*
X184407843Y-73357843D02*
X181807843Y-73357843D01*
X184450000Y-73400000D02*
X184407843Y-73357843D01*
X160210000Y-94540000D02*
X168700000Y-86050000D01*
X181807843Y-73357843D02*
X176850000Y-78315686D01*
X185287500Y-84900000D02*
X184925000Y-85262500D01*
X185800000Y-73400000D02*
X186250001Y-73850001D01*
X160200000Y-94540000D02*
X160210000Y-94540000D01*
X187812500Y-84900000D02*
X185287500Y-84900000D01*
%TO.N,/GPIO0{slash}BOOT*%
X120250000Y-74000000D02*
X122950000Y-74000000D01*
X116650000Y-76250000D02*
X118000000Y-76250000D01*
X118000000Y-76250000D02*
X120250000Y-74000000D01*
X115750000Y-77150000D02*
X116650000Y-76250000D01*
X128025000Y-68925000D02*
X128615000Y-68925000D01*
X115750000Y-79250000D02*
X115750000Y-77150000D01*
X122950000Y-74000000D02*
X128025000Y-68925000D01*
%TO.N,/PPG_MOSI*%
X193900000Y-70550000D02*
X191175737Y-70550000D01*
X198200000Y-74600000D02*
X198200000Y-70900000D01*
X191175737Y-70550000D02*
X187450000Y-74275737D01*
X195850000Y-68600000D02*
X193900000Y-70550000D01*
X198200000Y-70900000D02*
X195850000Y-68550000D01*
X198941100Y-76891100D02*
X199407300Y-76891100D01*
X187450000Y-74275737D02*
X187450001Y-74750001D01*
X195850000Y-68550000D02*
X195850000Y-68600000D01*
X198200000Y-76150000D02*
X198941100Y-76891100D01*
%TO.N,/VUSB_5V*%
D65*
X92155000Y-67125000D02*
X92075000Y-67205000D01*
X95250000Y-67125000D02*
X92155000Y-67125000D01*
X92075000Y-67205000D02*
X92030000Y-67250000D01*
X90500000Y-67250000D02*
X88500000Y-69250000D01*
X83500000Y-75610000D02*
X83550000Y-75560000D01*
X88500000Y-69250000D02*
X88500000Y-71750000D01*
X83500000Y-76500000D02*
X83500000Y-75610000D01*
X90450000Y-71750000D02*
X88500000Y-71750000D01*
X92030000Y-67250000D02*
X90500000Y-67250000D01*
%TO.N,/PD_GND*%
D63*
X202350000Y-75200000D02*
X202350000Y-75850000D01*
X200700000Y-75150000D02*
X200207300Y-75642700D01*
X200207300Y-75642700D02*
X200207300Y-76491100D01*
X200700000Y-75150000D02*
X201100000Y-74750000D01*
X201100000Y-74750000D02*
X201900000Y-74750000D01*
X201900000Y-74750000D02*
X202350000Y-75200000D01*
%TO.N,Net-(U12-CAP)*%
X207762500Y-91187500D02*
X207762500Y-93687500D01*
X208387500Y-90562500D02*
X207762500Y-91187500D01*
%TO.N,/ACCEL_PS0*%
X212062500Y-92262500D02*
X210687500Y-92262500D01*
X212062500Y-90462500D02*
X212062500Y-92262500D01*
X210687500Y-92262500D02*
X209262500Y-93687500D01*
%TO.N,/LV_SCL*%
X176675000Y-85100000D02*
X176450000Y-85325000D01*
X179825000Y-85800000D02*
X179125000Y-85100000D01*
X179125000Y-85100000D02*
X176675000Y-85100000D01*
X176450000Y-85325000D02*
X176450000Y-78150000D01*
X176450000Y-78150000D02*
X181650000Y-72950000D01*
X166875000Y-85325000D02*
X176450000Y-85325000D01*
X184650000Y-72950000D02*
X185849999Y-74149999D01*
X181650000Y-72950000D02*
X184650000Y-72950000D01*
X160200000Y-92000000D02*
X166875000Y-85325000D01*
X185849999Y-74149999D02*
X185849999Y-74750001D01*
%TO.N,/D+*%
X136480000Y-88650000D02*
X136500000Y-88650000D01*
X125250000Y-99750000D02*
X123000000Y-102000000D01*
X123000000Y-104837500D02*
X123000000Y-102750000D01*
X136465000Y-88665000D02*
X136465000Y-79325000D01*
X131750000Y-99750000D02*
X125250000Y-99750000D01*
X136465000Y-88665000D02*
X136480000Y-88650000D01*
%TO.N,Net-(U7-LX)*%
X166775000Y-72366080D02*
X168258200Y-73849280D01*
X166775000Y-70800000D02*
X166775000Y-72366080D01*
%TO.N,Net-(U7-FB)*%
X172500000Y-75800000D02*
X172500000Y-77587500D01*
X172550000Y-75850000D02*
X172500000Y-75800000D01*
X172500000Y-77587500D02*
X172550000Y-77637500D01*
X174850000Y-75850000D02*
X172550000Y-75850000D01*
%TO.N,Net-(D2-A)*%
D65*
X106500000Y-102062500D02*
X106287500Y-102275000D01*
X106287500Y-102275000D02*
X104250000Y-102275000D01*
%TO.N,Net-(U9-CS)*%
X98800000Y-88750000D02*
X97050000Y-87000000D01*
X95300000Y-87000000D02*
X95300000Y-85075000D01*
D63*
X95300000Y-85075000D02*
X95250000Y-85025000D01*
D65*
X98800000Y-89250000D02*
X98800000Y-88750000D01*
%TO.N,/BAT+*%
X81750000Y-85500000D02*
X83750000Y-83500000D01*
X101500000Y-75412500D02*
X98012500Y-75412500D01*
X88500000Y-78750000D02*
X88500000Y-77750000D01*
X81750000Y-98690000D02*
X81750000Y-85500000D01*
X98012500Y-75412500D02*
X95250000Y-78175000D01*
X84560000Y-101500000D02*
X81750000Y-98690000D01*
X83750000Y-83500000D02*
X88500000Y-78750000D01*
X94825000Y-77750000D02*
X88500000Y-77750000D01*
X101500000Y-85750000D02*
X101500000Y-75412500D01*
X103500000Y-87750000D02*
X101500000Y-85750000D01*
X95250000Y-78175000D02*
X94825000Y-77750000D01*
X88500000Y-77750000D02*
X88500000Y-75560000D01*
%TO.N,Net-(D6-K)*%
X95250000Y-71000000D02*
X95250000Y-68875000D01*
%TO.N,Net-(U8-~{STDBY})*%
X88500000Y-74290000D02*
X93785000Y-74290000D01*
X93785000Y-74290000D02*
X95250000Y-72825000D01*
D63*
X88585000Y-74205000D02*
X88500000Y-74290000D01*
%TO.N,/GPIO11*%
X184699999Y-74250000D02*
X185270000Y-74820001D01*
X184550000Y-74250000D02*
X184550000Y-74275737D01*
X184550000Y-74250000D02*
X184699999Y-74250000D01*
%TO.N,/GPIO10*%
X182100000Y-77000000D02*
X185199998Y-77000000D01*
X185199998Y-77000000D02*
X185200000Y-77000002D01*
X182100000Y-75850000D02*
X182100000Y-77000000D01*
%TO.N,Net-(U3-32KOUT)*%
X185000000Y-79250000D02*
X185849999Y-78400001D01*
X185849999Y-78400001D02*
X185849999Y-77650001D01*
%TO.N,Net-(U3-32KIN)*%
X185000000Y-81750000D02*
X186250001Y-80499999D01*
X186250001Y-80499999D02*
X186250001Y-77650001D01*
%TO.N,Net-(U3-VCORE)*%
X187676600Y-78426600D02*
X187676600Y-80760900D01*
X187676600Y-80760900D02*
X187600000Y-80837500D01*
X187450001Y-78200001D02*
X187676600Y-78426600D01*
X187450001Y-77650001D02*
X187450001Y-78200001D01*
%TO.N,/PPG_INT*%
X196387500Y-79287500D02*
X195050000Y-79287500D01*
X197500000Y-80400000D02*
X196387500Y-79287500D01*
X192500000Y-79300000D02*
X190200002Y-77000002D01*
X194912500Y-79287500D02*
X194900000Y-79300000D01*
X195050000Y-79287500D02*
X194912500Y-79287500D01*
X190200002Y-77000002D02*
X188100000Y-77000002D01*
X194900000Y-79300000D02*
X192500000Y-79300000D01*
%TO.N,/PPG_CSB*%
X196616200Y-73700000D02*
X195450000Y-73700000D01*
X199407300Y-76491100D02*
X196616200Y-73700000D01*
X188100000Y-75400000D02*
X193750000Y-75400000D01*
X193750000Y-75400000D02*
X195450000Y-73700000D01*
%TO.N,/PPG_SCK*%
X188030000Y-74820001D02*
X190379999Y-74820001D01*
X192400000Y-73750000D02*
X191450000Y-73750000D01*
X190379999Y-74820001D02*
X191450000Y-73750000D01*
X198191100Y-77691100D02*
X199407300Y-77691100D01*
X193450000Y-74800000D02*
X192400000Y-73750000D01*
%TO.N,/PPG_MISO*%
X198200000Y-76900000D02*
X198591100Y-77291100D01*
X192400000Y-68550000D02*
X191450000Y-68550000D01*
X191350000Y-68550000D02*
X191450000Y-68650000D01*
X193600000Y-69750000D02*
X192400000Y-68550000D01*
X187049999Y-73700001D02*
X187049999Y-74750001D01*
X198591100Y-77291100D02*
X199407300Y-77291100D01*
X191450000Y-69300000D02*
X187049999Y-73700001D01*
X191450000Y-68550000D02*
X191350000Y-68550000D01*
X191450000Y-68650000D02*
X191450000Y-69300000D01*
%TO.N,/GPIO6{slash}SCL*%
X202000000Y-102300000D02*
X202000000Y-98500000D01*
X182500000Y-106800000D02*
X182500000Y-105200000D01*
X124375000Y-85873400D02*
X124375000Y-85875000D01*
X204500000Y-96000000D02*
X204700000Y-96000000D01*
X174000000Y-90300000D02*
X175575000Y-90300000D01*
X125550000Y-76300000D02*
X127825000Y-74025000D01*
X119560000Y-90690000D02*
X119560000Y-92000000D01*
X125550000Y-84700000D02*
X125550000Y-76300000D01*
X202000000Y-98500000D02*
X204500000Y-96000000D01*
X200150000Y-104150000D02*
X202000000Y-102300000D01*
X172500000Y-102300000D02*
X177000000Y-106800000D01*
X124375000Y-85875000D02*
X119560000Y-90690000D01*
X124375000Y-85873400D02*
X124376600Y-85873400D01*
X127825000Y-74025000D02*
X128615000Y-74025000D01*
X172500000Y-94400000D02*
X172500000Y-102300000D01*
X175575000Y-90300000D02*
X175575000Y-87775000D01*
X175575000Y-91325000D02*
X172500000Y-94400000D01*
X175575000Y-87775000D02*
X175375000Y-87575000D01*
X175575000Y-90300000D02*
X175575000Y-91325000D01*
X124376600Y-85873400D02*
X125550000Y-84700000D01*
%TO.N,Net-(U12-XIN32)*%
X208262500Y-99325000D02*
X208262500Y-96812500D01*
X209462500Y-100525000D02*
X209462500Y-102900000D01*
X209462500Y-100525000D02*
X208262500Y-99325000D01*
%TO.N,/GPIO7{slash}SCK*%
X125950000Y-76750000D02*
X127825000Y-74875000D01*
X125950000Y-85500000D02*
X125950000Y-76750000D01*
X120800000Y-90650000D02*
X125950000Y-85500000D01*
X122100000Y-94540000D02*
X120800000Y-93240000D01*
X120800000Y-93240000D02*
X120800000Y-90650000D01*
X127825000Y-74875000D02*
X128615000Y-74875000D01*
%TO.N,/GPIO8{slash}MISO*%
X126350000Y-77200000D02*
X127825000Y-75725000D01*
X126350000Y-86350000D02*
X126350000Y-77200000D01*
X122100000Y-92000000D02*
X122100000Y-90600000D01*
X122100000Y-90600000D02*
X126350000Y-86350000D01*
X127825000Y-75725000D02*
X128615000Y-75725000D01*
%TO.N,/GPIO9{slash}MOSI*%
X126750000Y-87350000D02*
X126750000Y-77600000D01*
X127775000Y-76575000D02*
X128615000Y-76575000D01*
X123400000Y-90700000D02*
X126750000Y-87350000D01*
X124640000Y-94540000D02*
X123400000Y-93300000D01*
X126750000Y-77600000D02*
X127775000Y-76575000D01*
X123400000Y-93300000D02*
X123400000Y-90700000D01*
%TO.N,/GPIO12*%
X127250000Y-90700000D02*
X129665000Y-88285000D01*
X127250000Y-91930000D02*
X127250000Y-90700000D01*
X129665000Y-88285000D02*
X129665000Y-79325000D01*
X127180000Y-92000000D02*
X127250000Y-91930000D01*
%TO.N,/GPIO13*%
X130515000Y-88685000D02*
X130515000Y-79325000D01*
X128450000Y-93270000D02*
X128450000Y-90750000D01*
X129720000Y-94540000D02*
X128450000Y-93270000D01*
X128450000Y-90750000D02*
X130515000Y-88685000D01*
%TO.N,/GPIO14*%
X129720000Y-92000000D02*
X129720000Y-90680000D01*
X129720000Y-90680000D02*
X131365000Y-89035000D01*
X131365000Y-89035000D02*
X131365000Y-79325000D01*
%TO.N,/GPIO15*%
X131000000Y-93280000D02*
X131000000Y-90650000D01*
X131000000Y-90650000D02*
X132215000Y-89435000D01*
X132215000Y-89435000D02*
X132215000Y-79325000D01*
X132260000Y-94540000D02*
X131000000Y-93280000D01*
%TO.N,/GPIO16*%
X132260000Y-92000000D02*
X132260000Y-90640000D01*
X132260000Y-90640000D02*
X133065000Y-89835000D01*
X133065000Y-89835000D02*
X133065000Y-79325000D01*
%TO.N,/GPIO17*%
X133550000Y-90750000D02*
X133915000Y-90385000D01*
X133550000Y-93290000D02*
X133550000Y-90750000D01*
X133915000Y-90385000D02*
X133915000Y-79325000D01*
X134800000Y-94540000D02*
X133550000Y-93290000D01*
%TO.N,/GPIO18*%
X134800000Y-79360000D02*
X134765000Y-79325000D01*
X134800000Y-92000000D02*
X134800000Y-79360000D01*
%TO.N,/GPIO21*%
X137315000Y-79325000D02*
X137315000Y-89435000D01*
X136100000Y-90650000D02*
X136100000Y-93300000D01*
X137315000Y-89435000D02*
X136100000Y-90650000D01*
X136100000Y-93300000D02*
X137340000Y-94540000D01*
%TO.N,/GPIO27*%
X137340000Y-90660000D02*
X138165000Y-89835000D01*
X137340000Y-92000000D02*
X137340000Y-90660000D01*
X138165000Y-89835000D02*
X138165000Y-79325000D01*
%TO.N,/GPIO47*%
X138650000Y-93310000D02*
X139880000Y-94540000D01*
X139015000Y-90335000D02*
X138650000Y-90700000D01*
X139015000Y-79325000D02*
X139015000Y-90335000D01*
X138650000Y-90700000D02*
X138650000Y-93310000D01*
%TO.N,/GPIO33*%
X139880000Y-79340000D02*
X139865000Y-79325000D01*
X139880000Y-92000000D02*
X139880000Y-79340000D01*
%TO.N,/GPIO34*%
X140715000Y-90165000D02*
X141150000Y-90600000D01*
X141150000Y-93350000D02*
X142340000Y-94540000D01*
X141150000Y-90600000D02*
X141150000Y-93350000D01*
X140715000Y-79325000D02*
X140715000Y-90165000D01*
X142340000Y-94540000D02*
X142420000Y-94540000D01*
%TO.N,/GPIO48*%
X141565000Y-89765000D02*
X141565000Y-79325000D01*
X142420000Y-92000000D02*
X142420000Y-90620000D01*
X142420000Y-90620000D02*
X141565000Y-89765000D01*
%TO.N,/GPIO35*%
X144960000Y-94540000D02*
X143700000Y-93280000D01*
X143700000Y-93280000D02*
X143700000Y-78600000D01*
X143375000Y-78275000D02*
X142615000Y-78275000D01*
X143700000Y-78600000D02*
X143375000Y-78275000D01*
%TO.N,/GPIO36*%
X144960000Y-78910000D02*
X143475000Y-77425000D01*
X144960000Y-92000000D02*
X144960000Y-78910000D01*
X143475000Y-77425000D02*
X142615000Y-77425000D01*
%TO.N,/GPIO37*%
X147500000Y-94540000D02*
X146110000Y-93150000D01*
X146110000Y-93150000D02*
X146110000Y-79210000D01*
X146110000Y-79210000D02*
X143475000Y-76575000D01*
X143475000Y-76575000D02*
X142615000Y-76575000D01*
%TO.N,/GPIO38*%
X143475000Y-75725000D02*
X142615000Y-75725000D01*
X147500000Y-79750000D02*
X143475000Y-75725000D01*
X147500000Y-92000000D02*
X147500000Y-79750000D01*
%TO.N,/GPIO39*%
X148650000Y-80050000D02*
X143475000Y-74875000D01*
X148650000Y-93150000D02*
X148650000Y-80050000D01*
X150040000Y-94540000D02*
X148650000Y-93150000D01*
X143475000Y-74875000D02*
X142615000Y-74875000D01*
%TO.N,/GPIO40*%
X150040000Y-92000000D02*
X150040000Y-80590000D01*
X150040000Y-80590000D02*
X143475000Y-74025000D01*
X143475000Y-74025000D02*
X142615000Y-74025000D01*
%TO.N,/GPIO41*%
X151430000Y-93390000D02*
X152580000Y-94540000D01*
X142615000Y-73175000D02*
X143475000Y-73175000D01*
X143475000Y-73175000D02*
X151430000Y-81130000D01*
X151430000Y-81130000D02*
X151430000Y-93390000D01*
%TO.N,/GPIO42*%
X143475000Y-72325000D02*
X142615000Y-72325000D01*
X152580000Y-92000000D02*
X152580000Y-81430000D01*
X152580000Y-81430000D02*
X143475000Y-72325000D01*
%TO.N,/U0TXD*%
X153970000Y-93390000D02*
X153970000Y-82020000D01*
X143425000Y-71475000D02*
X142615000Y-71475000D01*
X155120000Y-94540000D02*
X153970000Y-93390000D01*
X153970000Y-82020000D02*
X143425000Y-71475000D01*
%TO.N,/U0RXD*%
X155120000Y-92000000D02*
X155120000Y-82320000D01*
X143425000Y-70625000D02*
X142615000Y-70625000D01*
X155120000Y-82320000D02*
X143425000Y-70625000D01*
%TO.N,/GPIO45*%
X142615000Y-69775000D02*
X143475000Y-69775000D01*
X156510000Y-93390000D02*
X157660000Y-94540000D01*
X143475000Y-69775000D02*
X156510000Y-82810000D01*
X156510000Y-82810000D02*
X156510000Y-93390000D01*
%TO.N,/GPIO46*%
X143525000Y-67225000D02*
X142615000Y-67225000D01*
X157660000Y-81360000D02*
X143525000Y-67225000D01*
X157660000Y-92000000D02*
X157660000Y-81360000D01*
%TO.N,Net-(LED1-G)*%
X204200000Y-77359998D02*
X204200000Y-78050000D01*
X204200000Y-78050000D02*
X204900000Y-78750000D01*
X204209998Y-77350000D02*
X204200000Y-77359998D01*
%TO.N,/LED1_DRV*%
X201266200Y-78750000D02*
X203075000Y-78750000D01*
X200607300Y-78091100D02*
X201266200Y-78750000D01*
%TO.N,/GPIO1{slash}BATTERY_MONITOR*%
X115375000Y-82175000D02*
X109925000Y-82175000D01*
X105000000Y-82175000D02*
X109925000Y-82175000D01*
X128615000Y-69775000D02*
X127775000Y-69775000D01*
X127775000Y-69775000D02*
X115375000Y-82175000D01*
%TO.N,Net-(R14-Pad1)*%
X106500000Y-84500000D02*
X106500000Y-85925000D01*
X106000000Y-84000000D02*
X106500000Y-84500000D01*
X103500000Y-84625000D02*
X103500000Y-85925000D01*
X105000000Y-84000000D02*
X106000000Y-84000000D01*
X104125000Y-84000000D02*
X103500000Y-84625000D01*
X105000000Y-84000000D02*
X104125000Y-84000000D01*
%TO.N,Net-(U5-VBAT)*%
X179960000Y-108860000D02*
X179960000Y-105200000D01*
X189100000Y-106400000D02*
X185700000Y-109800000D01*
X198900000Y-109800000D02*
X195500000Y-106400000D01*
X185700000Y-109800000D02*
X180900000Y-109800000D01*
X195500000Y-106400000D02*
X189100000Y-106400000D01*
X180900000Y-109800000D02*
X179960000Y-108860000D01*
%TO.N,Net-(U9-VCC)*%
D65*
X95300000Y-80000000D02*
X95250000Y-80050000D01*
X95250000Y-80050000D02*
X95250000Y-82750000D01*
X92050000Y-80750000D02*
X93050000Y-80750000D01*
X93800000Y-80000000D02*
X95300000Y-80000000D01*
X93050000Y-80750000D02*
X93800000Y-80000000D01*
%TO.N,Net-(LED1-R)*%
D63*
X205700000Y-75250000D02*
X205890700Y-75440700D01*
X204200000Y-75250000D02*
X205700000Y-75250000D01*
X205890700Y-81421800D02*
X204912500Y-82400000D01*
X205890700Y-75440700D02*
X205890700Y-81421800D01*
%TO.N,/LED3_DRV*%
X199807300Y-78294402D02*
X199807300Y-78091100D01*
X202150000Y-81462500D02*
X202150000Y-80637102D01*
X203087500Y-82400000D02*
X202150000Y-81462500D01*
X202150000Y-80637102D02*
X199807300Y-78294402D01*
%TO.N,/32KHZ*%
X186700000Y-100350000D02*
X182600000Y-100350000D01*
X182600000Y-100350000D02*
X182500000Y-100250000D01*
%TO.N,/SQW*%
X180000000Y-95550000D02*
X180000000Y-100210000D01*
X180000000Y-100210000D02*
X179960000Y-100250000D01*
%TO.N,/GPIO3{slash}BUTTON2*%
X128615000Y-71475000D02*
X127775000Y-71475000D01*
X152250000Y-96900000D02*
X153650000Y-98300000D01*
X153650000Y-98300000D02*
X153650000Y-105450000D01*
X152675000Y-106425000D02*
X153600000Y-105500000D01*
X117200000Y-96315686D02*
X117784314Y-96900000D01*
X157500000Y-105500000D02*
X153600000Y-105500000D01*
X117200000Y-89884315D02*
X117200000Y-96315686D01*
X152675000Y-108500000D02*
X152675000Y-106425000D01*
X153650000Y-105450000D02*
X153600000Y-105500000D01*
X117784314Y-96900000D02*
X152250000Y-96900000D01*
X127775000Y-71475000D02*
X124350000Y-74900000D01*
X124350000Y-74900000D02*
X124350000Y-82734314D01*
X124350000Y-82734314D02*
X117200000Y-89884315D01*
%TO.N,/D-*%
X125250000Y-104837500D02*
X125412500Y-104837500D01*
X135600000Y-79340000D02*
X135600000Y-88650000D01*
X128450000Y-102000000D02*
X127600000Y-102000000D01*
X127600000Y-102000000D02*
X125250000Y-104350000D01*
X129600000Y-100850000D02*
X128450000Y-102000000D01*
X135615000Y-79325000D02*
X135600000Y-79340000D01*
X125250000Y-104350000D02*
X125250000Y-104837500D01*
%TO.N,Net-(U8-PROG)*%
D65*
X83425000Y-68750000D02*
X82000000Y-70175000D01*
X82000000Y-72444999D02*
X82575001Y-73020000D01*
D63*
X82575001Y-73020000D02*
X83550000Y-73020000D01*
D65*
X82000000Y-70175000D02*
X82000000Y-72444999D01*
%TO.N,Net-(U2-VREF)*%
D63*
X199807300Y-76491100D02*
X199807300Y-74107300D01*
X199807300Y-74107300D02*
X199800000Y-74100000D01*
%TO.N,Net-(Q3-Pad3)*%
D65*
X101500000Y-69112500D02*
X101500000Y-73587500D01*
X101612500Y-69000000D02*
X101500000Y-69112500D01*
%TO.N,/PD2_IN*%
D63*
X201800000Y-76400000D02*
X201450000Y-76400000D01*
X200958900Y-76891100D02*
X200607300Y-76891100D01*
X201450000Y-76400000D02*
X200958900Y-76891100D01*
%TO.N,/PD1_IN*%
X201451831Y-75198169D02*
X200607300Y-76042700D01*
X201451831Y-75176600D02*
X201451831Y-75198169D01*
X200607300Y-76042700D02*
X200607300Y-76491100D01*
%TD*%
%TA.AperFunction,Conductor*%
%TO.N,GND*%
G36*
X129610677Y-65094685D02*
G01*
X129631319Y-65111319D01*
X129645000Y-65125000D01*
X141585000Y-65125000D01*
X141598681Y-65111319D01*
X141660004Y-65077834D01*
X141686362Y-65075000D01*
X142491000Y-65075000D01*
X142558039Y-65094685D01*
X142603794Y-65147489D01*
X142615000Y-65199000D01*
X142615000Y-65451000D01*
X142595315Y-65518039D01*
X142542511Y-65563794D01*
X142491000Y-65575000D01*
X141765000Y-65575000D01*
X141765000Y-65926930D01*
X141757182Y-65970263D01*
X141720909Y-66067517D01*
X141714500Y-66127127D01*
X141714500Y-66127134D01*
X141714500Y-66127135D01*
X141714500Y-66622870D01*
X141714501Y-66622876D01*
X141720908Y-66682483D01*
X141748577Y-66756667D01*
X141753561Y-66826358D01*
X141748577Y-66843331D01*
X141720910Y-66917511D01*
X141720909Y-66917515D01*
X141720909Y-66917517D01*
X141714500Y-66977127D01*
X141714500Y-66977134D01*
X141714500Y-66977135D01*
X141714500Y-67472870D01*
X141714501Y-67472876D01*
X141720909Y-67532485D01*
X141748843Y-67607382D01*
X141753827Y-67677074D01*
X141748844Y-67694046D01*
X141721402Y-67767623D01*
X141721401Y-67767627D01*
X141715000Y-67827155D01*
X141715000Y-67875000D01*
X141966931Y-67875000D01*
X142010263Y-67882817D01*
X142107517Y-67919091D01*
X142167127Y-67925500D01*
X142491002Y-67925499D01*
X142558039Y-67945183D01*
X142565241Y-67950180D01*
X142765241Y-68099681D01*
X142783677Y-68124273D01*
X142803794Y-68147489D01*
X142804902Y-68152585D01*
X142807152Y-68155586D01*
X142807945Y-68166572D01*
X142815000Y-68199000D01*
X142815000Y-68801000D01*
X142795315Y-68868039D01*
X142742511Y-68913794D01*
X142691000Y-68925000D01*
X142615000Y-68925000D01*
X142615000Y-68950500D01*
X142595315Y-69017539D01*
X142542511Y-69063294D01*
X142491000Y-69074500D01*
X142167130Y-69074500D01*
X142167123Y-69074501D01*
X142107516Y-69080908D01*
X142010264Y-69117182D01*
X141966931Y-69125000D01*
X141715000Y-69125000D01*
X141715000Y-69172844D01*
X141721401Y-69232372D01*
X141721403Y-69232379D01*
X141748844Y-69305952D01*
X141753828Y-69375643D01*
X141748844Y-69392618D01*
X141743747Y-69406286D01*
X141720909Y-69467517D01*
X141714500Y-69527127D01*
X141714500Y-69527134D01*
X141714500Y-69527135D01*
X141714500Y-70022870D01*
X141714501Y-70022876D01*
X141720908Y-70082483D01*
X141748577Y-70156667D01*
X141753561Y-70226358D01*
X141748577Y-70243331D01*
X141720910Y-70317511D01*
X141720909Y-70317515D01*
X141720909Y-70317517D01*
X141714500Y-70377127D01*
X141714500Y-70377134D01*
X141714500Y-70377135D01*
X141714500Y-70872870D01*
X141714501Y-70872876D01*
X141720908Y-70932483D01*
X141748577Y-71006667D01*
X141753561Y-71076358D01*
X141748577Y-71093331D01*
X141720910Y-71167511D01*
X141720909Y-71167515D01*
X141720909Y-71167517D01*
X141714500Y-71227127D01*
X141714500Y-71227134D01*
X141714500Y-71227135D01*
X141714500Y-71722870D01*
X141714501Y-71722876D01*
X141720908Y-71782483D01*
X141748577Y-71856667D01*
X141753561Y-71926358D01*
X141748577Y-71943331D01*
X141720910Y-72017511D01*
X141720909Y-72017515D01*
X141720909Y-72017517D01*
X141714500Y-72077127D01*
X141714500Y-72077134D01*
X141714500Y-72077135D01*
X141714500Y-72572870D01*
X141714501Y-72572876D01*
X141720908Y-72632483D01*
X141748577Y-72706667D01*
X141753561Y-72776358D01*
X141748577Y-72793331D01*
X141720910Y-72867511D01*
X141720909Y-72867515D01*
X141720909Y-72867517D01*
X141714500Y-72927127D01*
X141714500Y-72927134D01*
X141714500Y-72927135D01*
X141714500Y-73422870D01*
X141714501Y-73422876D01*
X141720908Y-73482483D01*
X141748577Y-73556667D01*
X141753561Y-73626358D01*
X141748577Y-73643331D01*
X141720910Y-73717511D01*
X141720909Y-73717515D01*
X141720909Y-73717517D01*
X141714500Y-73777127D01*
X141714500Y-73777134D01*
X141714500Y-73777135D01*
X141714500Y-74272870D01*
X141714501Y-74272876D01*
X141720908Y-74332483D01*
X141748577Y-74406667D01*
X141753561Y-74476358D01*
X141748577Y-74493331D01*
X141720910Y-74567511D01*
X141720909Y-74567515D01*
X141720909Y-74567517D01*
X141714500Y-74627127D01*
X141714500Y-74627134D01*
X141714500Y-74627135D01*
X141714500Y-75122870D01*
X141714501Y-75122876D01*
X141720908Y-75182483D01*
X141748577Y-75256667D01*
X141753561Y-75326358D01*
X141748577Y-75343331D01*
X141720910Y-75417511D01*
X141720909Y-75417515D01*
X141720909Y-75417517D01*
X141714500Y-75477127D01*
X141714500Y-75477134D01*
X141714500Y-75477135D01*
X141714500Y-75972870D01*
X141714501Y-75972876D01*
X141720908Y-76032483D01*
X141748577Y-76106667D01*
X141753561Y-76176358D01*
X141748577Y-76193331D01*
X141720910Y-76267511D01*
X141720909Y-76267515D01*
X141720909Y-76267517D01*
X141714500Y-76327127D01*
X141714500Y-76327134D01*
X141714500Y-76327135D01*
X141714500Y-76822870D01*
X141714501Y-76822876D01*
X141720908Y-76882483D01*
X141748577Y-76956667D01*
X141753561Y-77026358D01*
X141748577Y-77043331D01*
X141720910Y-77117511D01*
X141720909Y-77117515D01*
X141720909Y-77117517D01*
X141714500Y-77177127D01*
X141714500Y-77177134D01*
X141714500Y-77177135D01*
X141714500Y-77672870D01*
X141714501Y-77672876D01*
X141720908Y-77732483D01*
X141748577Y-77806667D01*
X141753561Y-77876358D01*
X141748577Y-77893331D01*
X141720909Y-77967514D01*
X141720908Y-77967516D01*
X141714501Y-78027116D01*
X141714501Y-78027123D01*
X141714500Y-78027135D01*
X141714500Y-78300500D01*
X141694815Y-78367539D01*
X141642011Y-78413294D01*
X141590500Y-78424500D01*
X141317130Y-78424500D01*
X141317123Y-78424501D01*
X141257516Y-78430908D01*
X141183332Y-78458577D01*
X141113640Y-78463561D01*
X141096668Y-78458577D01*
X141022488Y-78430910D01*
X141022484Y-78430909D01*
X141022483Y-78430909D01*
X140962873Y-78424500D01*
X140962863Y-78424500D01*
X140467129Y-78424500D01*
X140467123Y-78424501D01*
X140407516Y-78430908D01*
X140333332Y-78458577D01*
X140263640Y-78463561D01*
X140246668Y-78458577D01*
X140172488Y-78430910D01*
X140172484Y-78430909D01*
X140172483Y-78430909D01*
X140112873Y-78424500D01*
X140112863Y-78424500D01*
X139617129Y-78424500D01*
X139617123Y-78424501D01*
X139557516Y-78430908D01*
X139483332Y-78458577D01*
X139413640Y-78463561D01*
X139396668Y-78458577D01*
X139322488Y-78430910D01*
X139322484Y-78430909D01*
X139322483Y-78430909D01*
X139262873Y-78424500D01*
X139262863Y-78424500D01*
X138767129Y-78424500D01*
X138767123Y-78424501D01*
X138707516Y-78430908D01*
X138633332Y-78458577D01*
X138563640Y-78463561D01*
X138546668Y-78458577D01*
X138472488Y-78430910D01*
X138472484Y-78430909D01*
X138472483Y-78430909D01*
X138412873Y-78424500D01*
X138412863Y-78424500D01*
X137917129Y-78424500D01*
X137917123Y-78424501D01*
X137857516Y-78430908D01*
X137783332Y-78458577D01*
X137713640Y-78463561D01*
X137696668Y-78458577D01*
X137622488Y-78430910D01*
X137622484Y-78430909D01*
X137622483Y-78430909D01*
X137562873Y-78424500D01*
X137562863Y-78424500D01*
X137067129Y-78424500D01*
X137067123Y-78424501D01*
X137007516Y-78430908D01*
X136933332Y-78458577D01*
X136863640Y-78463561D01*
X136846668Y-78458577D01*
X136772488Y-78430910D01*
X136772484Y-78430909D01*
X136772483Y-78430909D01*
X136712873Y-78424500D01*
X136712863Y-78424500D01*
X136217129Y-78424500D01*
X136217123Y-78424501D01*
X136157516Y-78430908D01*
X136083332Y-78458577D01*
X136013640Y-78463561D01*
X135996668Y-78458577D01*
X135922488Y-78430910D01*
X135922484Y-78430909D01*
X135922483Y-78430909D01*
X135862873Y-78424500D01*
X135862863Y-78424500D01*
X135367129Y-78424500D01*
X135367123Y-78424501D01*
X135307516Y-78430908D01*
X135233332Y-78458577D01*
X135163640Y-78463561D01*
X135146668Y-78458577D01*
X135072488Y-78430910D01*
X135072484Y-78430909D01*
X135072483Y-78430909D01*
X135012873Y-78424500D01*
X135012863Y-78424500D01*
X134517129Y-78424500D01*
X134517123Y-78424501D01*
X134457516Y-78430908D01*
X134383332Y-78458577D01*
X134313640Y-78463561D01*
X134296668Y-78458577D01*
X134222488Y-78430910D01*
X134222484Y-78430909D01*
X134222483Y-78430909D01*
X134162873Y-78424500D01*
X134162863Y-78424500D01*
X133667129Y-78424500D01*
X133667123Y-78424501D01*
X133607516Y-78430908D01*
X133533332Y-78458577D01*
X133463640Y-78463561D01*
X133446668Y-78458577D01*
X133372488Y-78430910D01*
X133372484Y-78430909D01*
X133372483Y-78430909D01*
X133312873Y-78424500D01*
X133312863Y-78424500D01*
X132817129Y-78424500D01*
X132817123Y-78424501D01*
X132757516Y-78430908D01*
X132683332Y-78458577D01*
X132613640Y-78463561D01*
X132596668Y-78458577D01*
X132522488Y-78430910D01*
X132522484Y-78430909D01*
X132522483Y-78430909D01*
X132462873Y-78424500D01*
X132462863Y-78424500D01*
X131967129Y-78424500D01*
X131967123Y-78424501D01*
X131907516Y-78430908D01*
X131833332Y-78458577D01*
X131763640Y-78463561D01*
X131746668Y-78458577D01*
X131672488Y-78430910D01*
X131672484Y-78430909D01*
X131672483Y-78430909D01*
X131612873Y-78424500D01*
X131612863Y-78424500D01*
X131117129Y-78424500D01*
X131117123Y-78424501D01*
X131057516Y-78430908D01*
X130983332Y-78458577D01*
X130913640Y-78463561D01*
X130896668Y-78458577D01*
X130822488Y-78430910D01*
X130822484Y-78430909D01*
X130822483Y-78430909D01*
X130762873Y-78424500D01*
X130762863Y-78424500D01*
X130267129Y-78424500D01*
X130267123Y-78424501D01*
X130207516Y-78430908D01*
X130133332Y-78458577D01*
X130063640Y-78463561D01*
X130046668Y-78458577D01*
X129972485Y-78430909D01*
X129972483Y-78430908D01*
X129912883Y-78424501D01*
X129912881Y-78424500D01*
X129912873Y-78424500D01*
X129912865Y-78424500D01*
X129639499Y-78424500D01*
X129572460Y-78404815D01*
X129526705Y-78352011D01*
X129515499Y-78300500D01*
X129515499Y-78027129D01*
X129515498Y-78027123D01*
X129515497Y-78027116D01*
X129509091Y-77967517D01*
X129481421Y-77893332D01*
X129476438Y-77823642D01*
X129481422Y-77806667D01*
X129509091Y-77732483D01*
X129515500Y-77672873D01*
X129515499Y-77177128D01*
X129509091Y-77117517D01*
X129481421Y-77043332D01*
X129476438Y-76973642D01*
X129481422Y-76956667D01*
X129509091Y-76882483D01*
X129515500Y-76822873D01*
X129515499Y-76327128D01*
X129509091Y-76267517D01*
X129481421Y-76193332D01*
X129476438Y-76123642D01*
X129481422Y-76106667D01*
X129509091Y-76032483D01*
X129515500Y-75972873D01*
X129515499Y-75477128D01*
X129509091Y-75417517D01*
X129481421Y-75343332D01*
X129476438Y-75273642D01*
X129481422Y-75256667D01*
X129509091Y-75182483D01*
X129515500Y-75122873D01*
X129515499Y-74627128D01*
X129509091Y-74567517D01*
X129481421Y-74493332D01*
X129476438Y-74423642D01*
X129481422Y-74406667D01*
X129509091Y-74332483D01*
X129515500Y-74272873D01*
X129515499Y-73777128D01*
X129509091Y-73717517D01*
X129481421Y-73643332D01*
X129476438Y-73573642D01*
X129481422Y-73556667D01*
X129509091Y-73482483D01*
X129515500Y-73422873D01*
X129515499Y-72927128D01*
X129509091Y-72867517D01*
X129481421Y-72793332D01*
X129476438Y-72723642D01*
X129481422Y-72706667D01*
X129509091Y-72632483D01*
X129515500Y-72572873D01*
X129515499Y-72077128D01*
X129509091Y-72017517D01*
X129481421Y-71943332D01*
X129476438Y-71873642D01*
X129481422Y-71856667D01*
X129509091Y-71782483D01*
X129515500Y-71722873D01*
X129515499Y-71227128D01*
X129509091Y-71167517D01*
X129481421Y-71093332D01*
X129476438Y-71023642D01*
X129481422Y-71006667D01*
X129509091Y-70932483D01*
X129515500Y-70872873D01*
X129515499Y-70377128D01*
X129509091Y-70317517D01*
X129481421Y-70243332D01*
X129476438Y-70173642D01*
X129481422Y-70156667D01*
X129509091Y-70082483D01*
X129515500Y-70022873D01*
X129515499Y-69527128D01*
X129509091Y-69467517D01*
X129481421Y-69393332D01*
X129476438Y-69323642D01*
X129481420Y-69306672D01*
X129509091Y-69232483D01*
X129515500Y-69172873D01*
X129515499Y-68677128D01*
X129509091Y-68617517D01*
X129481421Y-68543332D01*
X129476438Y-68473642D01*
X129481420Y-68456672D01*
X129509091Y-68382483D01*
X129515500Y-68322873D01*
X129515500Y-68322844D01*
X141715000Y-68322844D01*
X141721401Y-68382372D01*
X141721403Y-68382382D01*
X141749110Y-68456668D01*
X141754094Y-68526359D01*
X141749110Y-68543332D01*
X141721403Y-68617617D01*
X141721401Y-68617627D01*
X141715000Y-68677155D01*
X141715000Y-68725000D01*
X142415000Y-68725000D01*
X142415000Y-68275000D01*
X141715000Y-68275000D01*
X141715000Y-68322844D01*
X129515500Y-68322844D01*
X129515499Y-67827128D01*
X129509091Y-67767517D01*
X129481154Y-67692616D01*
X129476171Y-67622927D01*
X129481156Y-67605950D01*
X129508597Y-67532379D01*
X129508597Y-67532377D01*
X129514999Y-67472844D01*
X129515000Y-67472827D01*
X129515000Y-67425000D01*
X129263069Y-67425000D01*
X129219736Y-67417182D01*
X129122482Y-67380908D01*
X129122483Y-67380908D01*
X129062883Y-67374501D01*
X129062881Y-67374500D01*
X129062873Y-67374500D01*
X128739000Y-67374500D01*
X128671961Y-67354815D01*
X128664759Y-67349819D01*
X128464759Y-67200319D01*
X128446323Y-67175727D01*
X128426206Y-67152511D01*
X128425097Y-67147413D01*
X128422849Y-67144415D01*
X128422055Y-67133433D01*
X128415000Y-67101000D01*
X128415000Y-67025000D01*
X128815000Y-67025000D01*
X129515000Y-67025000D01*
X129515000Y-66977172D01*
X129514999Y-66977155D01*
X129508598Y-66917628D01*
X129480888Y-66843334D01*
X129475904Y-66773642D01*
X129480888Y-66756666D01*
X129508598Y-66682371D01*
X129514999Y-66622844D01*
X129515000Y-66622827D01*
X129515000Y-66575000D01*
X128815000Y-66575000D01*
X128815000Y-67025000D01*
X128415000Y-67025000D01*
X128415000Y-66355000D01*
X128401319Y-66341319D01*
X128367834Y-66279996D01*
X128365000Y-66253638D01*
X128365000Y-66225000D01*
X129865000Y-66225000D01*
X129912828Y-66225000D01*
X129912844Y-66224999D01*
X129972371Y-66218598D01*
X130046666Y-66190888D01*
X130116358Y-66185904D01*
X130133334Y-66190888D01*
X130207628Y-66218598D01*
X130207627Y-66218598D01*
X130267155Y-66224999D01*
X130267172Y-66225000D01*
X130315000Y-66225000D01*
X130715000Y-66225000D01*
X130762828Y-66225000D01*
X130762844Y-66224999D01*
X130822371Y-66218598D01*
X130896666Y-66190888D01*
X130966358Y-66185904D01*
X130983334Y-66190888D01*
X131057628Y-66218598D01*
X131057627Y-66218598D01*
X131117155Y-66224999D01*
X131117172Y-66225000D01*
X131165000Y-66225000D01*
X131565000Y-66225000D01*
X131612828Y-66225000D01*
X131612844Y-66224999D01*
X131672371Y-66218598D01*
X131746666Y-66190888D01*
X131816358Y-66185904D01*
X131833334Y-66190888D01*
X131907628Y-66218598D01*
X131907627Y-66218598D01*
X131967155Y-66224999D01*
X131967172Y-66225000D01*
X132015000Y-66225000D01*
X132415000Y-66225000D01*
X132462828Y-66225000D01*
X132462844Y-66224999D01*
X132522371Y-66218598D01*
X132596666Y-66190888D01*
X132666358Y-66185904D01*
X132683334Y-66190888D01*
X132757628Y-66218598D01*
X132757627Y-66218598D01*
X132817155Y-66224999D01*
X132817172Y-66225000D01*
X132865000Y-66225000D01*
X133265000Y-66225000D01*
X133312828Y-66225000D01*
X133312844Y-66224999D01*
X133372371Y-66218598D01*
X133446666Y-66190888D01*
X133516358Y-66185904D01*
X133533334Y-66190888D01*
X133607628Y-66218598D01*
X133607627Y-66218598D01*
X133667155Y-66224999D01*
X133667172Y-66225000D01*
X133715000Y-66225000D01*
X134115000Y-66225000D01*
X134162828Y-66225000D01*
X134162844Y-66224999D01*
X134222371Y-66218598D01*
X134296666Y-66190888D01*
X134366358Y-66185904D01*
X134383334Y-66190888D01*
X134457628Y-66218598D01*
X134457627Y-66218598D01*
X134517155Y-66224999D01*
X134517172Y-66225000D01*
X134565000Y-66225000D01*
X134965000Y-66225000D01*
X135012828Y-66225000D01*
X135012844Y-66224999D01*
X135072371Y-66218598D01*
X135146666Y-66190888D01*
X135216358Y-66185904D01*
X135233334Y-66190888D01*
X135307628Y-66218598D01*
X135307627Y-66218598D01*
X135367155Y-66224999D01*
X135367172Y-66225000D01*
X135415000Y-66225000D01*
X135815000Y-66225000D01*
X135862828Y-66225000D01*
X135862844Y-66224999D01*
X135922371Y-66218598D01*
X135996666Y-66190888D01*
X136066358Y-66185904D01*
X136083334Y-66190888D01*
X136157628Y-66218598D01*
X136157627Y-66218598D01*
X136217155Y-66224999D01*
X136217172Y-66225000D01*
X136265000Y-66225000D01*
X136665000Y-66225000D01*
X136712828Y-66225000D01*
X136712844Y-66224999D01*
X136772371Y-66218598D01*
X136846666Y-66190888D01*
X136916358Y-66185904D01*
X136933334Y-66190888D01*
X137007628Y-66218598D01*
X137007627Y-66218598D01*
X137067155Y-66224999D01*
X137067172Y-66225000D01*
X137115000Y-66225000D01*
X137515000Y-66225000D01*
X137562828Y-66225000D01*
X137562844Y-66224999D01*
X137622371Y-66218598D01*
X137696666Y-66190888D01*
X137766358Y-66185904D01*
X137783334Y-66190888D01*
X137857628Y-66218598D01*
X137857627Y-66218598D01*
X137917155Y-66224999D01*
X137917172Y-66225000D01*
X137965000Y-66225000D01*
X138365000Y-66225000D01*
X138412828Y-66225000D01*
X138412844Y-66224999D01*
X138472371Y-66218598D01*
X138546666Y-66190888D01*
X138616358Y-66185904D01*
X138633334Y-66190888D01*
X138707628Y-66218598D01*
X138707627Y-66218598D01*
X138767155Y-66224999D01*
X138767172Y-66225000D01*
X138815000Y-66225000D01*
X139215000Y-66225000D01*
X139262828Y-66225000D01*
X139262844Y-66224999D01*
X139322371Y-66218598D01*
X139396666Y-66190888D01*
X139466358Y-66185904D01*
X139483334Y-66190888D01*
X139557628Y-66218598D01*
X139557627Y-66218598D01*
X139617155Y-66224999D01*
X139617172Y-66225000D01*
X139665000Y-66225000D01*
X140065000Y-66225000D01*
X140112828Y-66225000D01*
X140112844Y-66224999D01*
X140172371Y-66218598D01*
X140246666Y-66190888D01*
X140316358Y-66185904D01*
X140333334Y-66190888D01*
X140407628Y-66218598D01*
X140407627Y-66218598D01*
X140467155Y-66224999D01*
X140467172Y-66225000D01*
X140515000Y-66225000D01*
X140915000Y-66225000D01*
X140962828Y-66225000D01*
X140962844Y-66224999D01*
X141022371Y-66218598D01*
X141096666Y-66190888D01*
X141166358Y-66185904D01*
X141183334Y-66190888D01*
X141257628Y-66218598D01*
X141257627Y-66218598D01*
X141317155Y-66224999D01*
X141317172Y-66225000D01*
X141365000Y-66225000D01*
X141365000Y-65525000D01*
X140915000Y-65525000D01*
X140915000Y-66225000D01*
X140515000Y-66225000D01*
X140515000Y-65525000D01*
X140065000Y-65525000D01*
X140065000Y-66225000D01*
X139665000Y-66225000D01*
X139665000Y-65525000D01*
X139215000Y-65525000D01*
X139215000Y-66225000D01*
X138815000Y-66225000D01*
X138815000Y-65525000D01*
X138365000Y-65525000D01*
X138365000Y-66225000D01*
X137965000Y-66225000D01*
X137965000Y-65525000D01*
X137515000Y-65525000D01*
X137515000Y-66225000D01*
X137115000Y-66225000D01*
X137115000Y-65525000D01*
X136665000Y-65525000D01*
X136665000Y-66225000D01*
X136265000Y-66225000D01*
X136265000Y-65525000D01*
X135815000Y-65525000D01*
X135815000Y-66225000D01*
X135415000Y-66225000D01*
X135415000Y-65525000D01*
X134965000Y-65525000D01*
X134965000Y-66225000D01*
X134565000Y-66225000D01*
X134565000Y-65525000D01*
X134115000Y-65525000D01*
X134115000Y-66225000D01*
X133715000Y-66225000D01*
X133715000Y-65525000D01*
X133265000Y-65525000D01*
X133265000Y-66225000D01*
X132865000Y-66225000D01*
X132865000Y-65525000D01*
X132415000Y-65525000D01*
X132415000Y-66225000D01*
X132015000Y-66225000D01*
X132015000Y-65525000D01*
X131565000Y-65525000D01*
X131565000Y-66225000D01*
X131165000Y-66225000D01*
X131165000Y-65525000D01*
X130715000Y-65525000D01*
X130715000Y-66225000D01*
X130315000Y-66225000D01*
X130315000Y-65525000D01*
X129865000Y-65525000D01*
X129865000Y-66225000D01*
X128365000Y-66225000D01*
X128365000Y-66175000D01*
X128865000Y-66175000D01*
X129465000Y-66175000D01*
X129465000Y-65575000D01*
X128865000Y-65575000D01*
X128865000Y-66175000D01*
X128365000Y-66175000D01*
X128365000Y-65449000D01*
X128384685Y-65381961D01*
X128437489Y-65336206D01*
X128489000Y-65325000D01*
X128615000Y-65325000D01*
X128615000Y-65199000D01*
X128634685Y-65131961D01*
X128687489Y-65086206D01*
X128739000Y-65075000D01*
X129543638Y-65075000D01*
X129610677Y-65094685D01*
G37*
%TD.AperFunction*%
%TD*%
%TA.AperFunction,Conductor*%
%TO.N,VCC_3V3*%
G36*
X115390968Y-66211898D02*
G01*
X115457929Y-66231832D01*
X115503486Y-66284807D01*
X115514500Y-66335896D01*
X115514500Y-66624168D01*
X115514501Y-66624187D01*
X115524825Y-66725252D01*
X115534605Y-66754764D01*
X115579092Y-66889016D01*
X115669659Y-67035849D01*
X115669661Y-67035851D01*
X115683982Y-67050172D01*
X115717467Y-67111495D01*
X115712483Y-67181187D01*
X115683985Y-67225532D01*
X115670052Y-67239465D01*
X115579551Y-67386188D01*
X115579546Y-67386199D01*
X115525319Y-67549847D01*
X115515000Y-67650845D01*
X115515000Y-67750000D01*
X117464999Y-67750000D01*
X117464999Y-67650860D01*
X117464998Y-67650845D01*
X117454680Y-67549847D01*
X117400453Y-67386199D01*
X117400448Y-67386188D01*
X117309947Y-67239465D01*
X117309944Y-67239461D01*
X117296017Y-67225534D01*
X117293900Y-67221658D01*
X117290179Y-67219279D01*
X117277305Y-67191265D01*
X117262532Y-67164211D01*
X117262847Y-67159805D01*
X117261003Y-67155793D01*
X117265316Y-67125272D01*
X117267516Y-67094519D01*
X117270337Y-67089751D01*
X117270781Y-67086611D01*
X117280492Y-67072588D01*
X117289791Y-67056874D01*
X117292766Y-67053423D01*
X117310340Y-67035850D01*
X117316417Y-67025996D01*
X117322864Y-67018521D01*
X117344251Y-67004704D01*
X117363180Y-66987679D01*
X117374634Y-66985075D01*
X117381552Y-66980607D01*
X117394434Y-66980576D01*
X117416771Y-66975500D01*
X117540652Y-66975500D01*
X117564844Y-66977883D01*
X117678542Y-67000500D01*
X117678545Y-67000500D01*
X117821457Y-67000500D01*
X117935156Y-66977883D01*
X117959348Y-66975500D01*
X118073229Y-66975500D01*
X118140268Y-66995185D01*
X118174867Y-67030429D01*
X118175179Y-67030183D01*
X118177471Y-67033082D01*
X118178766Y-67034401D01*
X118179660Y-67035850D01*
X118179661Y-67035851D01*
X118193982Y-67050172D01*
X118227467Y-67111495D01*
X118222483Y-67181187D01*
X118193985Y-67225532D01*
X118180052Y-67239465D01*
X118089551Y-67386188D01*
X118089546Y-67386199D01*
X118035319Y-67549847D01*
X118025000Y-67650845D01*
X118025000Y-67750000D01*
X119974999Y-67750000D01*
X119974999Y-67650860D01*
X119974998Y-67650845D01*
X119964680Y-67549847D01*
X119910453Y-67386199D01*
X119910448Y-67386188D01*
X119819947Y-67239465D01*
X119819944Y-67239461D01*
X119806017Y-67225534D01*
X119772532Y-67164211D01*
X119777516Y-67094519D01*
X119806017Y-67050172D01*
X119820340Y-67035850D01*
X119910908Y-66889016D01*
X119965174Y-66725253D01*
X119975500Y-66624177D01*
X119975499Y-66353513D01*
X119995183Y-66286477D01*
X120047987Y-66240722D01*
X120099958Y-66229517D01*
X121250000Y-66233821D01*
X122453552Y-66237132D01*
X122520535Y-66257001D01*
X122566145Y-66309931D01*
X122577209Y-66361473D01*
X122575220Y-67084451D01*
X122555351Y-67151436D01*
X122502421Y-67197046D01*
X122433235Y-67206799D01*
X122412220Y-67201817D01*
X122400154Y-67197819D01*
X122299154Y-67187500D01*
X122250000Y-67187500D01*
X122250000Y-69137499D01*
X122265323Y-69152822D01*
X122280178Y-69157184D01*
X122325933Y-69209988D01*
X122335877Y-69279146D01*
X122306852Y-69342702D01*
X122300820Y-69349180D01*
X121088672Y-70561327D01*
X121027349Y-70594812D01*
X121008323Y-70597429D01*
X110823205Y-71200703D01*
X110755119Y-71185017D01*
X110733578Y-71169675D01*
X110226812Y-70720057D01*
X109867897Y-70401617D01*
X110701934Y-70401617D01*
X110701934Y-70401618D01*
X110775666Y-70458194D01*
X110974330Y-70572893D01*
X110974340Y-70572897D01*
X111186269Y-70660681D01*
X111407862Y-70720057D01*
X111635289Y-70749998D01*
X111635306Y-70750000D01*
X111864694Y-70750000D01*
X111864710Y-70749998D01*
X112092137Y-70720057D01*
X112313730Y-70660681D01*
X112525659Y-70572897D01*
X112525668Y-70572893D01*
X112724327Y-70458197D01*
X112724334Y-70458192D01*
X112798064Y-70401617D01*
X111750000Y-69353553D01*
X110701934Y-70401617D01*
X109867897Y-70401617D01*
X108158858Y-68885305D01*
X110000000Y-68885305D01*
X110000000Y-69114694D01*
X110000001Y-69114710D01*
X110029942Y-69342137D01*
X110089318Y-69563730D01*
X110177102Y-69775659D01*
X110177106Y-69775669D01*
X110291799Y-69974324D01*
X110291805Y-69974331D01*
X110348381Y-70048064D01*
X111396446Y-69000000D01*
X111396446Y-68999999D01*
X112103553Y-68999999D01*
X112103553Y-69000000D01*
X113151617Y-70048064D01*
X113208192Y-69974334D01*
X113208197Y-69974327D01*
X113322893Y-69775668D01*
X113322897Y-69775659D01*
X113410681Y-69563730D01*
X113470057Y-69342137D01*
X113499998Y-69114710D01*
X113500000Y-69114694D01*
X113500000Y-68885305D01*
X113499998Y-68885289D01*
X113470057Y-68657862D01*
X113410681Y-68436269D01*
X113374597Y-68349154D01*
X115515001Y-68349154D01*
X115525319Y-68450152D01*
X115579546Y-68613800D01*
X115579551Y-68613811D01*
X115670052Y-68760534D01*
X115670055Y-68760538D01*
X115791961Y-68882444D01*
X115791965Y-68882447D01*
X115938688Y-68972948D01*
X115938699Y-68972953D01*
X116102347Y-69027180D01*
X116203352Y-69037499D01*
X116240000Y-69037499D01*
X116740000Y-69037499D01*
X116776640Y-69037499D01*
X116776654Y-69037498D01*
X116877652Y-69027180D01*
X117041300Y-68972953D01*
X117041311Y-68972948D01*
X117188034Y-68882447D01*
X117188038Y-68882444D01*
X117309944Y-68760538D01*
X117309947Y-68760534D01*
X117400448Y-68613811D01*
X117400453Y-68613800D01*
X117454680Y-68450152D01*
X117464999Y-68349154D01*
X118025001Y-68349154D01*
X118035319Y-68450152D01*
X118089546Y-68613800D01*
X118089551Y-68613811D01*
X118180052Y-68760534D01*
X118180055Y-68760538D01*
X118301961Y-68882444D01*
X118301965Y-68882447D01*
X118448688Y-68972948D01*
X118448699Y-68972953D01*
X118612347Y-69027180D01*
X118713352Y-69037499D01*
X118750000Y-69037499D01*
X119250000Y-69037499D01*
X119286640Y-69037499D01*
X119286654Y-69037498D01*
X119387652Y-69027180D01*
X119551300Y-68972953D01*
X119551311Y-68972948D01*
X119698034Y-68882447D01*
X119698038Y-68882444D01*
X119819944Y-68760538D01*
X119819947Y-68760534D01*
X119910448Y-68613811D01*
X119910453Y-68613800D01*
X119964681Y-68450151D01*
X119964783Y-68449154D01*
X121012501Y-68449154D01*
X121022819Y-68550152D01*
X121077046Y-68713800D01*
X121077051Y-68713811D01*
X121167552Y-68860534D01*
X121167555Y-68860538D01*
X121289461Y-68982444D01*
X121289465Y-68982447D01*
X121436188Y-69072948D01*
X121436199Y-69072953D01*
X121599847Y-69127180D01*
X121700851Y-69137499D01*
X121749999Y-69137498D01*
X121750000Y-69137498D01*
X121750000Y-68412500D01*
X121012501Y-68412500D01*
X121012501Y-68449154D01*
X119964783Y-68449154D01*
X119974998Y-68349161D01*
X119975000Y-68349141D01*
X119975000Y-68250000D01*
X119250000Y-68250000D01*
X119250000Y-69037499D01*
X118750000Y-69037499D01*
X118750000Y-68250000D01*
X118025001Y-68250000D01*
X118025001Y-68349154D01*
X117464999Y-68349154D01*
X117465000Y-68349141D01*
X117465000Y-68250000D01*
X116740000Y-68250000D01*
X116740000Y-69037499D01*
X116240000Y-69037499D01*
X116240000Y-68250000D01*
X115515001Y-68250000D01*
X115515001Y-68349154D01*
X113374597Y-68349154D01*
X113331907Y-68246091D01*
X113331906Y-68246089D01*
X113322896Y-68224337D01*
X113322893Y-68224330D01*
X113208194Y-68025666D01*
X113151618Y-67951934D01*
X113151617Y-67951934D01*
X112103553Y-68999999D01*
X111396446Y-68999999D01*
X110348380Y-67951934D01*
X110291810Y-68025659D01*
X110291801Y-68025673D01*
X110177106Y-68224330D01*
X110177102Y-68224340D01*
X110089318Y-68436269D01*
X110029942Y-68657862D01*
X110000001Y-68885289D01*
X110000000Y-68885305D01*
X108158858Y-68885305D01*
X107955267Y-68704673D01*
X107918186Y-68645459D01*
X107919004Y-68575595D01*
X107919858Y-68572917D01*
X107964680Y-68437651D01*
X107974999Y-68336654D01*
X107975000Y-68336641D01*
X107975000Y-68250000D01*
X107442803Y-68250000D01*
X107273738Y-68100000D01*
X105895000Y-68100000D01*
X105180000Y-68100000D01*
X103887500Y-68100000D01*
X103887500Y-68050000D01*
X103835295Y-68050000D01*
X103688236Y-67800000D01*
X104137500Y-67800000D01*
X105047295Y-67800000D01*
X105047295Y-67799998D01*
X105047100Y-67797511D01*
X105047099Y-67797505D01*
X105017260Y-67694798D01*
X105017257Y-67694790D01*
X105008121Y-67663345D01*
X106025000Y-67663345D01*
X106025000Y-67750000D01*
X106750000Y-67750000D01*
X107250000Y-67750000D01*
X107974999Y-67750000D01*
X107974999Y-67663360D01*
X107974997Y-67663337D01*
X107974548Y-67658933D01*
X107968361Y-67598380D01*
X110701934Y-67598380D01*
X111749999Y-68646446D01*
X112520600Y-67875845D01*
X121012500Y-67875845D01*
X121012500Y-67912500D01*
X121750000Y-67912500D01*
X121750000Y-67187500D01*
X121749999Y-67187499D01*
X121700861Y-67187500D01*
X121700843Y-67187501D01*
X121599847Y-67197819D01*
X121436199Y-67252046D01*
X121436188Y-67252051D01*
X121289465Y-67342552D01*
X121289461Y-67342555D01*
X121167555Y-67464461D01*
X121167552Y-67464465D01*
X121077051Y-67611188D01*
X121077046Y-67611199D01*
X121022819Y-67774847D01*
X121012500Y-67875845D01*
X112520600Y-67875845D01*
X112798064Y-67598381D01*
X112798064Y-67598380D01*
X112724331Y-67541805D01*
X112724324Y-67541799D01*
X112525669Y-67427106D01*
X112525659Y-67427102D01*
X112313730Y-67339318D01*
X112092137Y-67279942D01*
X111864710Y-67250001D01*
X111864694Y-67250000D01*
X111635306Y-67250000D01*
X111635289Y-67250001D01*
X111407862Y-67279942D01*
X111186269Y-67339318D01*
X110974340Y-67427102D01*
X110974330Y-67427106D01*
X110775673Y-67541801D01*
X110775659Y-67541810D01*
X110701934Y-67598380D01*
X107968361Y-67598380D01*
X107964680Y-67562347D01*
X107910453Y-67398699D01*
X107910448Y-67398688D01*
X107819947Y-67251965D01*
X107819944Y-67251961D01*
X107698038Y-67130055D01*
X107698034Y-67130052D01*
X107551311Y-67039551D01*
X107551300Y-67039546D01*
X107387652Y-66985319D01*
X107286654Y-66975000D01*
X107250000Y-66975000D01*
X107250000Y-67750000D01*
X106750000Y-67750000D01*
X106750000Y-66975000D01*
X106713361Y-66975000D01*
X106713343Y-66975001D01*
X106612347Y-66985319D01*
X106448699Y-67039546D01*
X106448688Y-67039551D01*
X106301965Y-67130052D01*
X106301961Y-67130055D01*
X106180055Y-67251961D01*
X106180052Y-67251965D01*
X106089551Y-67398688D01*
X106089546Y-67398699D01*
X106035319Y-67562347D01*
X106025000Y-67663345D01*
X105008121Y-67663345D01*
X105001281Y-67639802D01*
X104917685Y-67498447D01*
X104917678Y-67498438D01*
X104801561Y-67382321D01*
X104801552Y-67382314D01*
X104660196Y-67298717D01*
X104660193Y-67298716D01*
X104502495Y-67252900D01*
X104502489Y-67252899D01*
X104465649Y-67250000D01*
X104137500Y-67250000D01*
X104137500Y-67800000D01*
X103688236Y-67800000D01*
X103637500Y-67713748D01*
X103637500Y-67250000D01*
X103435628Y-67250000D01*
X103368589Y-67230315D01*
X103328748Y-67188871D01*
X103294150Y-67130055D01*
X103122402Y-66838084D01*
X103105380Y-66770322D01*
X103106981Y-66754764D01*
X103188052Y-66270232D01*
X103218530Y-66207362D01*
X103278161Y-66170948D01*
X103310813Y-66166698D01*
X115390968Y-66211898D01*
G37*
%TD.AperFunction*%
%TD*%
M02*
