%TF.GenerationSoftware,KiCad,Pcbnew,10.0.2*%
%TF.CreationDate,2026-06-27T23:52:47-07:00*%
%TF.ProjectId,satWatch_main_LargePrototype,73617457-6174-4636-985f-6d61696e5f4c,v1*%
%TF.SameCoordinates,Original*%
%TF.FileFunction,Legend,Bot*%
%TF.FilePolarity,Positive*%
%FSLAX46Y46*%
G04 Gerber Fmt 4.6, Leading zero omitted, Abs format (unit mm)*
G04 Created by KiCad (PCBNEW 10.0.2) date 2026-06-27 23:52:47*
%MOMM*%
%LPD*%
G01*
G04 APERTURE LIST*
%ADD10C,0.200000*%
%ADD11C,0.100000*%
%ADD12C,0.050000*%
%ADD13C,0.152400*%
G04 APERTURE END LIST*
D10*
X205840950Y-75827780D02*
X205364760Y-75827780D01*
X205364760Y-75827780D02*
X205364760Y-76827780D01*
X206174284Y-76351590D02*
X206507617Y-76351590D01*
X206650474Y-75827780D02*
X206174284Y-75827780D01*
X206174284Y-75827780D02*
X206174284Y-76827780D01*
X206174284Y-76827780D02*
X206650474Y-76827780D01*
X207079046Y-75827780D02*
X207079046Y-76827780D01*
X207079046Y-76827780D02*
X207317141Y-76827780D01*
X207317141Y-76827780D02*
X207459998Y-76780161D01*
X207459998Y-76780161D02*
X207555236Y-76684923D01*
X207555236Y-76684923D02*
X207602855Y-76589685D01*
X207602855Y-76589685D02*
X207650474Y-76399209D01*
X207650474Y-76399209D02*
X207650474Y-76256352D01*
X207650474Y-76256352D02*
X207602855Y-76065876D01*
X207602855Y-76065876D02*
X207555236Y-75970638D01*
X207555236Y-75970638D02*
X207459998Y-75875400D01*
X207459998Y-75875400D02*
X207317141Y-75827780D01*
X207317141Y-75827780D02*
X207079046Y-75827780D01*
X208602855Y-75827780D02*
X208031427Y-75827780D01*
X208317141Y-75827780D02*
X208317141Y-76827780D01*
X208317141Y-76827780D02*
X208221903Y-76684923D01*
X208221903Y-76684923D02*
X208126665Y-76589685D01*
X208126665Y-76589685D02*
X208031427Y-76542066D01*
X200552219Y-79111905D02*
X201361742Y-79111905D01*
X201361742Y-79111905D02*
X201456980Y-79159524D01*
X201456980Y-79159524D02*
X201504600Y-79207143D01*
X201504600Y-79207143D02*
X201552219Y-79302381D01*
X201552219Y-79302381D02*
X201552219Y-79492857D01*
X201552219Y-79492857D02*
X201504600Y-79588095D01*
X201504600Y-79588095D02*
X201456980Y-79635714D01*
X201456980Y-79635714D02*
X201361742Y-79683333D01*
X201361742Y-79683333D02*
X200552219Y-79683333D01*
X201552219Y-80683333D02*
X201552219Y-80111905D01*
X201552219Y-80397619D02*
X200552219Y-80397619D01*
X200552219Y-80397619D02*
X200695076Y-80302381D01*
X200695076Y-80302381D02*
X200790314Y-80207143D01*
X200790314Y-80207143D02*
X200837933Y-80111905D01*
X201552219Y-81635714D02*
X201552219Y-81064286D01*
X201552219Y-81350000D02*
X200552219Y-81350000D01*
X200552219Y-81350000D02*
X200695076Y-81254762D01*
X200695076Y-81254762D02*
X200790314Y-81159524D01*
X200790314Y-81159524D02*
X200837933Y-81064286D01*
X200552219Y-71261905D02*
X201361742Y-71261905D01*
X201361742Y-71261905D02*
X201456980Y-71309524D01*
X201456980Y-71309524D02*
X201504600Y-71357143D01*
X201504600Y-71357143D02*
X201552219Y-71452381D01*
X201552219Y-71452381D02*
X201552219Y-71642857D01*
X201552219Y-71642857D02*
X201504600Y-71738095D01*
X201504600Y-71738095D02*
X201456980Y-71785714D01*
X201456980Y-71785714D02*
X201361742Y-71833333D01*
X201361742Y-71833333D02*
X200552219Y-71833333D01*
X201552219Y-72833333D02*
X201552219Y-72261905D01*
X201552219Y-72547619D02*
X200552219Y-72547619D01*
X200552219Y-72547619D02*
X200695076Y-72452381D01*
X200695076Y-72452381D02*
X200790314Y-72357143D01*
X200790314Y-72357143D02*
X200837933Y-72261905D01*
X200552219Y-73452381D02*
X200552219Y-73547619D01*
X200552219Y-73547619D02*
X200599838Y-73642857D01*
X200599838Y-73642857D02*
X200647457Y-73690476D01*
X200647457Y-73690476D02*
X200742695Y-73738095D01*
X200742695Y-73738095D02*
X200933171Y-73785714D01*
X200933171Y-73785714D02*
X201171266Y-73785714D01*
X201171266Y-73785714D02*
X201361742Y-73738095D01*
X201361742Y-73738095D02*
X201456980Y-73690476D01*
X201456980Y-73690476D02*
X201504600Y-73642857D01*
X201504600Y-73642857D02*
X201552219Y-73547619D01*
X201552219Y-73547619D02*
X201552219Y-73452381D01*
X201552219Y-73452381D02*
X201504600Y-73357143D01*
X201504600Y-73357143D02*
X201456980Y-73309524D01*
X201456980Y-73309524D02*
X201361742Y-73261905D01*
X201361742Y-73261905D02*
X201171266Y-73214286D01*
X201171266Y-73214286D02*
X200933171Y-73214286D01*
X200933171Y-73214286D02*
X200742695Y-73261905D01*
X200742695Y-73261905D02*
X200647457Y-73309524D01*
X200647457Y-73309524D02*
X200599838Y-73357143D01*
X200599838Y-73357143D02*
X200552219Y-73452381D01*
%TO.C,LED1*%
D11*
X203634998Y-76405000D02*
X203634998Y-76255000D01*
X204784998Y-76255000D02*
X203634998Y-76255000D01*
D12*
X203284998Y-75480000D02*
X205134998Y-75480000D01*
X205134998Y-77130000D01*
X203284998Y-77130000D01*
X203284998Y-75480000D01*
%TO.C,U11*%
D13*
X201822699Y-80519410D02*
X201822699Y-79260588D01*
X206877299Y-79260590D02*
X206877299Y-80519412D01*
X202406999Y-77349600D02*
G75*
G02*
X202152999Y-77349600I-127000J0D01*
G01*
X202152999Y-77349600D02*
G75*
G02*
X202406999Y-77349600I127000J0D01*
G01*
%TO.C,U10*%
X201832699Y-73319410D02*
X201832699Y-72060588D01*
X206887299Y-72060590D02*
X206887299Y-73319412D01*
X202416999Y-70149600D02*
G75*
G02*
X202162999Y-70149600I-127000J0D01*
G01*
X202162999Y-70149600D02*
G75*
G02*
X202416999Y-70149600I127000J0D01*
G01*
%TD*%
M02*
