%TF.GenerationSoftware,KiCad,Pcbnew,10.0.2*%
%TF.CreationDate,2026-06-27T23:52:47-07:00*%
%TF.ProjectId,satWatch_main_LargePrototype,73617457-6174-4636-985f-6d61696e5f4c,v1*%
%TF.SameCoordinates,Original*%
%TF.FileFunction,Soldermask,Bot*%
%TF.FilePolarity,Negative*%
%FSLAX46Y46*%
G04 Gerber Fmt 4.6, Leading zero omitted, Abs format (unit mm)*
G04 Created by KiCad (PCBNEW 10.0.2) date 2026-06-27 23:52:47*
%MOMM*%
%LPD*%
G01*
G04 APERTURE LIST*
G04 Aperture macros list*
%AMRoundRect*
0 Rectangle with rounded corners*
0 $1 Rounding radius*
0 $2 $3 $4 $5 $6 $7 $8 $9 X,Y pos of 4 corners*
0 Add a 4 corners polygon primitive as box body*
4,1,4,$2,$3,$4,$5,$6,$7,$8,$9,$2,$3,0*
0 Add four circle primitives for the rounded corners*
1,1,$1+$1,$2,$3*
1,1,$1+$1,$4,$5*
1,1,$1+$1,$6,$7*
1,1,$1+$1,$8,$9*
0 Add four rect primitives between the rounded corners*
20,1,$1+$1,$2,$3,$4,$5,0*
20,1,$1+$1,$4,$5,$6,$7,0*
20,1,$1+$1,$6,$7,$8,$9,0*
20,1,$1+$1,$8,$9,$2,$3,0*%
G04 Aperture macros list end*
%ADD10O,1.254000X2.454000*%
%ADD11O,1.254000X2.054000*%
%ADD12R,1.700000X1.700000*%
%ADD13C,1.700000*%
%ADD14C,2.979000*%
%ADD15RoundRect,0.050000X-0.150000X-0.150000X0.150000X-0.150000X0.150000X0.150000X-0.150000X0.150000X0*%
%ADD16R,0.558800X0.558800*%
G04 APERTURE END LIST*
D10*
%TO.C,J2*%
X116850000Y-117250000D03*
D11*
X116850000Y-113250000D03*
D10*
X128000000Y-117250000D03*
D11*
X128000000Y-113250000D03*
%TD*%
D12*
%TO.C,J5*%
X84560000Y-101500000D03*
D13*
X87100000Y-101500000D03*
X84560000Y-104040000D03*
X87100000Y-104040000D03*
X84560000Y-106580000D03*
X87100000Y-106580000D03*
%TD*%
D12*
%TO.C,J1*%
X119560000Y-94540000D03*
D13*
X119560000Y-92000000D03*
X122100000Y-94540000D03*
X122100000Y-92000000D03*
X124640000Y-94540000D03*
X124640000Y-92000000D03*
X127180000Y-94540000D03*
X127180000Y-92000000D03*
X129720000Y-94540000D03*
X129720000Y-92000000D03*
X132260000Y-94540000D03*
X132260000Y-92000000D03*
X134800000Y-94540000D03*
X134800000Y-92000000D03*
X137340000Y-94540000D03*
X137340000Y-92000000D03*
X139880000Y-94540000D03*
X139880000Y-92000000D03*
X142420000Y-94540000D03*
X142420000Y-92000000D03*
X144960000Y-94540000D03*
X144960000Y-92000000D03*
X147500000Y-94540000D03*
X147500000Y-92000000D03*
X150040000Y-94540000D03*
X150040000Y-92000000D03*
X152580000Y-94540000D03*
X152580000Y-92000000D03*
X155120000Y-94540000D03*
X155120000Y-92000000D03*
X157660000Y-94540000D03*
X157660000Y-92000000D03*
X160200000Y-94540000D03*
X160200000Y-92000000D03*
%TD*%
D14*
%TO.C,BT3*%
X185700000Y-109800000D03*
X198900000Y-109800000D03*
%TD*%
D15*
%TO.C,LED1*%
X204859998Y-76880000D03*
X204859998Y-75730000D03*
X204209998Y-76880000D03*
X204209998Y-75730000D03*
X203559998Y-76880000D03*
X203559998Y-75730000D03*
%TD*%
D16*
%TO.C,U11*%
X202350001Y-78700000D03*
X203660000Y-78700000D03*
X205040000Y-78700000D03*
X206350000Y-78700000D03*
X206349997Y-81080000D03*
X205039998Y-81080000D03*
X203659998Y-81080000D03*
X202349998Y-81080000D03*
%TD*%
%TO.C,U10*%
X202360001Y-71500000D03*
X203670000Y-71500000D03*
X205050000Y-71500000D03*
X206360000Y-71500000D03*
X206359997Y-73880000D03*
X205049998Y-73880000D03*
X203669998Y-73880000D03*
X202359998Y-73880000D03*
%TD*%
M02*
