M48
; DRILL file KiCad 10.0.2 date 2026-06-30T18:15:26
; FORMAT={-:-/ absolute / metric / decimal}
; #@! TF.CreationDate,2026-06-30T18:15:26-07:00
; #@! TF.GenerationSoftware,Kicad,Pcbnew,10.0.2
; #@! TF.FileFunction,Plated,1,2,PTH
FMAT,2
METRIC
; #@! TA.AperFunction,Plated,PTH,ViaDrill
T1C0.300
; #@! TA.AperFunction,Plated,PTH,ComponentDrill
T2C0.300
; #@! TA.AperFunction,Plated,PTH,ComponentDrill
T3C0.600
; #@! TA.AperFunction,Plated,PTH,ComponentDrill
T4C1.000
; #@! TA.AperFunction,Plated,PTH,ComponentDrill
T5C1.850
%
G90
G05
T1
X82.5Y-98.15
X83.75Y-74.65
X85.3Y-76.85
X87.05Y-68.0
X88.575Y-79.175
X89.15Y-67.85
X89.35Y-99.45
X92.25Y-72.1
X95.3Y-87.0
X97.05Y-87.0
X98.4Y-74.5
X99.925Y-91.075
X102.75Y-82.75
X102.75Y-93.45
X104.4Y-66.8
X106.95Y-73.25
X109.3Y-98.15
X109.375Y-103.275
X111.0Y-99.4
X112.5Y-96.35
X113.35Y-110.6
X114.0Y-80.3
X117.75Y-66.275
X119.2Y-110.7
X120.0Y-110.7
X120.35Y-108.95
X121.3Y-109.25
X122.0Y-66.85
X122.175Y-109.827
X122.6Y-86.35
X123.15Y-109.25
X123.6Y-110.123
X124.25Y-108.85
X124.5Y-85.75
X124.85Y-110.7
X125.65Y-110.7
X126.5Y-66.0
X128.615Y-80.45
X129.6Y-100.85
X131.0Y-106.5
X131.05Y-75.4
X131.15Y-71.55
X131.3Y-67.25
X131.75Y-99.75
X133.965Y-70.675
X133.965Y-72.325
X133.965Y-73.975
X135.55Y-67.3
X135.55Y-75.6
X135.6Y-88.65
X135.615Y-70.675
X135.615Y-72.325
X135.615Y-73.975
X136.5Y-88.65
X137.265Y-70.675
X137.265Y-72.325
X137.265Y-73.975
X137.85Y-110.15
X140.25Y-71.25
X140.4Y-75.45
X140.5Y-67.3
X142.65Y-80.7
X143.875Y-65.325
X146.975Y-66.0
X150.95Y-109.65
X157.6Y-76.4
X163.75Y-109.65
X163.8Y-74.55
X165.0Y-67.1
X165.45Y-85.5
X168.7Y-86.05
X170.9Y-83.85
X171.95Y-91.5
X172.5Y-80.6
X172.55Y-69.2
X173.1Y-91.2
X173.65Y-89.25
X174.0Y-90.3
X176.3Y-107.9
X177.0Y-106.8
X177.4Y-89.25
X177.45Y-105.55
X179.85Y-90.3
X180.95Y-84.65
X180.95Y-87.6
X181.23Y-107.9
X182.2Y-90.3
X182.5Y-106.8
X185.9Y-88.8
X187.15Y-90.6
X189.65Y-109.8
X190.35Y-89.35
X191.8Y-85.75
X192.95Y-90.85
X192.95Y-93.25
X193.6Y-99.95
X195.05Y-109.8
X195.8Y-94.4
X196.8Y-99.65
X197.6Y-91.95
X197.6Y-92.75
X197.65Y-90.35
X198.1Y-99.65
X198.8Y-100.9
X199.75Y-98.7
X200.15Y-104.15
X200.15Y-105.45
X202.5Y-91.15
X206.05Y-90.05
X206.75Y-97.85
X208.2Y-104.6
X209.725Y-98.337
X210.4Y-95.5
X212.062Y-101.25
X213.9Y-89.35
X213.9Y-97.3
T2
X87.125Y-72.805
X87.125Y-74.005
X87.125Y-75.205
X88.525Y-72.805
X88.525Y-74.005
X88.525Y-75.205
T4
X84.56Y-101.5
X84.56Y-104.04
X84.56Y-106.58
X87.1Y-101.5
X87.1Y-104.04
X87.1Y-106.58
X119.56Y-92.0
X119.56Y-94.54
X122.1Y-92.0
X122.1Y-94.54
X124.64Y-92.0
X124.64Y-94.54
X127.18Y-92.0
X127.18Y-94.54
X129.72Y-92.0
X129.72Y-94.54
X132.26Y-92.0
X132.26Y-94.54
X134.8Y-92.0
X134.8Y-94.54
X137.34Y-92.0
X137.34Y-94.54
X139.88Y-92.0
X139.88Y-94.54
X142.42Y-92.0
X142.42Y-94.54
X144.96Y-92.0
X144.96Y-94.54
X147.5Y-92.0
X147.5Y-94.54
X150.04Y-92.0
X150.04Y-94.54
X152.58Y-92.0
X152.58Y-94.54
X155.12Y-92.0
X155.12Y-94.54
X157.66Y-92.0
X157.66Y-94.54
X160.2Y-92.0
X160.2Y-94.54
T5
X185.7Y-109.8
X198.9Y-109.8
T3
G00X116.85Y-112.85
M15
G01X116.85Y-113.65
M16
G05
G00X116.85Y-116.65
M15
G01X116.85Y-117.85
M16
G05
G00X128.0Y-112.85
M15
G01X128.0Y-113.65
M16
G05
G00X128.0Y-116.65
M15
G01X128.0Y-117.85
M16
G05
M30
