M48
; DRILL file KiCad 10.0.2 date 2026-06-27T23:52:46
; FORMAT={-:-/ absolute / metric / decimal}
; #@! TF.CreationDate,2026-06-27T23:52:46-07:00
; #@! TF.GenerationSoftware,Kicad,Pcbnew,10.0.2
; #@! TF.FileFunction,Plated,1,2,PTH
FMAT,2
METRIC
; #@! TA.AperFunction,Plated,PTH,ViaDrill
T1C0.150
; #@! TA.AperFunction,Plated,PTH,ViaDrill
T2C0.200
; #@! TA.AperFunction,Plated,PTH,ComponentDrill
T3C0.200
; #@! TA.AperFunction,Plated,PTH,ComponentDrill
T4C0.600
; #@! TA.AperFunction,Plated,PTH,ComponentDrill
T5C1.000
; #@! TA.AperFunction,Plated,PTH,ComponentDrill
T6C1.850
%
G90
G05
T1
X127.4Y-81.25
X128.0Y-81.75
X199.8Y-77.7
X200.2Y-77.7
T2
X81.95Y-74.3
X82.5Y-98.15
X83.5Y-76.5
X85.25Y-67.65
X86.8Y-78.85
X87.35Y-67.5
X89.35Y-99.45
X90.45Y-71.75
X95.3Y-87.0
X97.05Y-87.0
X99.925Y-91.075
X102.75Y-82.75
X102.75Y-93.45
X104.4Y-66.8
X106.95Y-73.25
X109.3Y-98.15
X109.375Y-103.275
X112.5Y-96.35
X114.0Y-80.3
X114.25Y-110.6
X117.75Y-66.275
X119.2Y-110.7
X120.0Y-110.7
X121.7Y-108.6
X121.725Y-109.35
X122.0Y-66.85
X122.175Y-110.0
X122.6Y-86.35
X122.675Y-109.325
X123.2Y-110.0
X124.018Y-108.618
X124.375Y-85.873
X124.85Y-110.7
X125.65Y-110.7
X126.5Y-66.0
X128.615Y-80.45
X129.6Y-100.85
X131.0Y-106.5
X131.05Y-75.4
X131.15Y-71.55
X131.3Y-67.25
X131.75Y-99.75
X133.965Y-70.675
X133.965Y-72.325
X133.965Y-73.975
X135.55Y-67.3
X135.55Y-75.6
X135.6Y-88.65
X135.615Y-70.675
X135.615Y-72.325
X135.615Y-73.975
X136.5Y-88.65
X137.265Y-70.675
X137.265Y-72.325
X137.265Y-73.975
X137.85Y-110.15
X140.25Y-71.25
X140.4Y-75.45
X140.5Y-67.3
X142.65Y-80.7
X143.875Y-65.325
X146.975Y-66.0
X150.95Y-109.65
X157.6Y-76.4
X163.75Y-109.65
X163.8Y-74.55
X165.0Y-67.1
X165.45Y-85.5
X168.7Y-86.05
X171.95Y-91.5
X172.0Y-89.3
X172.5Y-80.6
X172.55Y-69.2
X173.1Y-90.75
X174.0Y-90.3
X176.3Y-107.9
X177.0Y-106.8
X177.4Y-89.25
X177.45Y-105.55
X177.7Y-82.15
X179.2Y-72.55
X179.85Y-90.3
X180.95Y-87.6
X181.23Y-107.9
X182.1Y-75.85
X182.2Y-80.1
X182.2Y-90.3
X182.5Y-106.8
X184.097Y-77.923
X184.45Y-73.4
X184.55Y-74.25
X185.8Y-73.4
X185.9Y-88.8
X186.65Y-73.05
X187.25Y-78.9
X187.6Y-83.65
X189.5Y-79.65
X189.5Y-83.6
X189.65Y-109.8
X193.45Y-74.8
X193.6Y-69.75
X193.6Y-99.95
X195.05Y-109.8
X196.05Y-85.85
X196.8Y-99.65
X196.95Y-81.55
X197.5Y-80.4
X198.1Y-99.65
X198.191Y-77.691
X198.2Y-74.6
X198.2Y-76.15
X198.2Y-76.9
X198.2Y-78.55
X198.8Y-100.9
X199.75Y-98.7
X199.8Y-71.2
X199.9Y-84.05
X200.15Y-104.15
X200.15Y-105.45
X200.7Y-75.15
X201.2Y-77.7
X201.452Y-75.177
X201.8Y-76.4
X203.56Y-77.35
X204.2Y-75.25
X204.21Y-77.35
X204.86Y-77.35
X205.464Y-75.7
X206.05Y-90.05
X206.35Y-75.7
X206.75Y-97.85
X208.2Y-104.6
X209.725Y-98.337
X210.4Y-95.5
X212.062Y-101.25
X213.9Y-89.35
X213.9Y-97.3
T3
X85.325Y-72.455
X85.325Y-73.655
X85.325Y-74.855
X86.725Y-72.455
X86.725Y-73.655
X86.725Y-74.855
T5
X84.56Y-101.5
X84.56Y-104.04
X84.56Y-106.58
X87.1Y-101.5
X87.1Y-104.04
X87.1Y-106.58
X119.56Y-92.0
X119.56Y-94.54
X122.1Y-92.0
X122.1Y-94.54
X124.64Y-92.0
X124.64Y-94.54
X127.18Y-92.0
X127.18Y-94.54
X129.72Y-92.0
X129.72Y-94.54
X132.26Y-92.0
X132.26Y-94.54
X134.8Y-92.0
X134.8Y-94.54
X137.34Y-92.0
X137.34Y-94.54
X139.88Y-92.0
X139.88Y-94.54
X142.42Y-92.0
X142.42Y-94.54
X144.96Y-92.0
X144.96Y-94.54
X147.5Y-92.0
X147.5Y-94.54
X150.04Y-92.0
X150.04Y-94.54
X152.58Y-92.0
X152.58Y-94.54
X155.12Y-92.0
X155.12Y-94.54
X157.66Y-92.0
X157.66Y-94.54
X160.2Y-92.0
X160.2Y-94.54
T6
X185.7Y-109.8
X198.9Y-109.8
T4
G00X116.85Y-112.85
M15
G01X116.85Y-113.65
M16
G05
G00X116.85Y-116.65
M15
G01X116.85Y-117.85
M16
G05
G00X128.0Y-112.85
M15
G01X128.0Y-113.65
M16
G05
G00X128.0Y-116.65
M15
G01X128.0Y-117.85
M16
G05
M30
