%TF.GenerationSoftware,KiCad,Pcbnew,10.0.2*%
%TF.CreationDate,2026-06-30T18:15:28-07:00*%
%TF.ProjectId,satWatch_main_LargePrototype,73617457-6174-4636-985f-6d61696e5f4c,v1*%
%TF.SameCoordinates,Original*%
%TF.FileFunction,Copper,L2,Bot*%
%TF.FilePolarity,Positive*%
%FSLAX46Y46*%
G04 Gerber Fmt 4.6, Leading zero omitted, Abs format (unit mm)*
G04 Created by KiCad (PCBNEW 10.0.2) date 2026-06-30 18:15:28*
%MOMM*%
%LPD*%
G01*
G04 APERTURE LIST*
G04 Aperture macros list*
%AMRoundRect*
0 Rectangle with rounded corners*
0 $1 Rounding radius*
0 $2 $3 $4 $5 $6 $7 $8 $9 X,Y pos of 4 corners*
0 Add a 4 corners polygon primitive as box body*
4,1,4,$2,$3,$4,$5,$6,$7,$8,$9,$2,$3,0*
0 Add four circle primitives for the rounded corners*
1,1,$1+$1,$2,$3*
1,1,$1+$1,$4,$5*
1,1,$1+$1,$6,$7*
1,1,$1+$1,$8,$9*
0 Add four rect primitives between the rounded corners*
20,1,$1+$1,$2,$3,$4,$5,0*
20,1,$1+$1,$4,$5,$6,$7,0*
20,1,$1+$1,$6,$7,$8,$9,0*
20,1,$1+$1,$8,$9,$2,$3,0*%
G04 Aperture macros list end*
%TA.AperFunction,HeatsinkPad*%
%ADD10C,0.500000*%
%TD*%
%TA.AperFunction,HeatsinkPad*%
%ADD11R,1.900000X2.900000*%
%TD*%
%TA.AperFunction,ComponentPad*%
%ADD12O,1.050000X2.250000*%
%TD*%
%TA.AperFunction,ComponentPad*%
%ADD13O,1.050000X1.850000*%
%TD*%
%TA.AperFunction,ComponentPad*%
%ADD14R,1.700000X1.700000*%
%TD*%
%TA.AperFunction,ComponentPad*%
%ADD15C,1.700000*%
%TD*%
%TA.AperFunction,ComponentPad*%
%ADD16C,2.775000*%
%TD*%
%TA.AperFunction,SMDPad,CuDef*%
%ADD17RoundRect,0.100000X0.320000X0.100000X-0.320000X0.100000X-0.320000X-0.100000X0.320000X-0.100000X0*%
%TD*%
%TA.AperFunction,ViaPad*%
%ADD18C,0.550000*%
%TD*%
%TA.AperFunction,Conductor*%
%ADD19C,0.200000*%
%TD*%
%TA.AperFunction,Conductor*%
%ADD20C,0.400000*%
%TD*%
G04 APERTURE END LIST*
D10*
%TO.P,U8,9,EPAD_9*%
%TO.N,GND*%
X87125000Y-72805000D03*
X87125000Y-74005000D03*
X87125000Y-75205000D03*
D11*
X87825000Y-74005000D03*
D10*
X88525000Y-72805000D03*
X88525000Y-74005000D03*
X88525000Y-75205000D03*
%TD*%
D12*
%TO.P,J2,SH1,SHIELD_SH1*%
%TO.N,GND*%
X116850000Y-117250000D03*
D13*
%TO.P,J2,SH2,SHIELD__1_SH2*%
X116850000Y-113250000D03*
D12*
%TO.P,J2,SH3,SHIELD__2_SH3*%
X128000000Y-117250000D03*
D13*
%TO.P,J2,SH4,SHIELD__3_SH4*%
X128000000Y-113250000D03*
%TD*%
D14*
%TO.P,J5,1,Pin_1_1*%
%TO.N,/BAT+*%
X84560000Y-101500000D03*
D15*
%TO.P,J5,2,Pin_2_2*%
%TO.N,GND*%
X87100000Y-101500000D03*
%TO.P,J5,3,Pin_3_3*%
%TO.N,/BAT-*%
X84560000Y-104040000D03*
%TO.P,J5,4,Pin_4_4*%
%TO.N,1V8*%
X87100000Y-104040000D03*
%TO.P,J5,5,Pin_5_5*%
%TO.N,GND*%
X84560000Y-106580000D03*
%TO.P,J5,6,Pin_6_6*%
%TO.N,VCC_3V3*%
X87100000Y-106580000D03*
%TD*%
D14*
%TO.P,J1,1,Pin_1_1*%
%TO.N,/GPIO5{slash}SDA*%
X119560000Y-94540000D03*
D15*
%TO.P,J1,2,Pin_2_2*%
%TO.N,/GPIO6{slash}SCL*%
X119560000Y-92000000D03*
%TO.P,J1,3,Pin_3_3*%
%TO.N,/GPIO7{slash}SCK*%
X122100000Y-94540000D03*
%TO.P,J1,4,Pin_4_4*%
%TO.N,/GPIO8{slash}MISO*%
X122100000Y-92000000D03*
%TO.P,J1,5,Pin_5_5*%
%TO.N,/GPIO9{slash}MOSI*%
X124640000Y-94540000D03*
%TO.P,J1,6,Pin_6_6*%
%TO.N,/GPIO10*%
X124640000Y-92000000D03*
%TO.P,J1,7,Pin_7_7*%
%TO.N,/GPIO11*%
X127180000Y-94540000D03*
%TO.P,J1,8,Pin_8_8*%
%TO.N,/GPIO12*%
X127180000Y-92000000D03*
%TO.P,J1,9,Pin_9_9*%
%TO.N,/GPIO13*%
X129720000Y-94540000D03*
%TO.P,J1,10,Pin_10_10*%
%TO.N,/GPIO14*%
X129720000Y-92000000D03*
%TO.P,J1,11,Pin_11_11*%
%TO.N,/GPIO15*%
X132260000Y-94540000D03*
%TO.P,J1,12,Pin_12_12*%
%TO.N,/GPIO16*%
X132260000Y-92000000D03*
%TO.P,J1,13,Pin_13_13*%
%TO.N,/GPIO17*%
X134800000Y-94540000D03*
%TO.P,J1,14,Pin_14_14*%
%TO.N,/GPIO18*%
X134800000Y-92000000D03*
%TO.P,J1,15,Pin_15_15*%
%TO.N,/GPIO21*%
X137340000Y-94540000D03*
%TO.P,J1,16,Pin_16_16*%
%TO.N,/GPIO27*%
X137340000Y-92000000D03*
%TO.P,J1,17,Pin_17_17*%
%TO.N,/GPIO47*%
X139880000Y-94540000D03*
%TO.P,J1,18,Pin_18_18*%
%TO.N,/GPIO33*%
X139880000Y-92000000D03*
%TO.P,J1,19,Pin_19_19*%
%TO.N,/GPIO34*%
X142420000Y-94540000D03*
%TO.P,J1,20,Pin_20_20*%
%TO.N,/GPIO48*%
X142420000Y-92000000D03*
%TO.P,J1,21,Pin_21_21*%
%TO.N,/GPIO35*%
X144960000Y-94540000D03*
%TO.P,J1,22,Pin_22_22*%
%TO.N,/GPIO36*%
X144960000Y-92000000D03*
%TO.P,J1,23,Pin_23_23*%
%TO.N,/GPIO37*%
X147500000Y-94540000D03*
%TO.P,J1,24,Pin_24_24*%
%TO.N,/GPIO38*%
X147500000Y-92000000D03*
%TO.P,J1,25,Pin_25_25*%
%TO.N,/GPIO39*%
X150040000Y-94540000D03*
%TO.P,J1,26,Pin_26_26*%
%TO.N,/GPIO40*%
X150040000Y-92000000D03*
%TO.P,J1,27,Pin_27_27*%
%TO.N,/GPIO41*%
X152580000Y-94540000D03*
%TO.P,J1,28,Pin_28_28*%
%TO.N,/GPIO42*%
X152580000Y-92000000D03*
%TO.P,J1,29,Pin_29_29*%
%TO.N,/U0TXD*%
X155120000Y-94540000D03*
%TO.P,J1,30,Pin_30_30*%
%TO.N,/U0RXD*%
X155120000Y-92000000D03*
%TO.P,J1,31,Pin_31_31*%
%TO.N,/GPIO45*%
X157660000Y-94540000D03*
%TO.P,J1,32,Pin_32_32*%
%TO.N,/GPIO46*%
X157660000Y-92000000D03*
%TO.P,J1,33,Pin_33_33*%
%TO.N,/LV_SDA*%
X160200000Y-94540000D03*
%TO.P,J1,34,Pin_34_34*%
%TO.N,/LV_SCL*%
X160200000Y-92000000D03*
%TD*%
D16*
%TO.P,BT3,P1*%
%TO.N,Net-(U5-VBAT)*%
X185700000Y-109800000D03*
%TO.P,BT3,P2*%
X198900000Y-109800000D03*
%TD*%
D17*
%TO.P,U2,1*%
%TO.N,N/C*%
X201195000Y-89550000D03*
%TO.P,U2,2,SCL_2*%
%TO.N,/LV_SCL*%
X201195000Y-90350000D03*
%TO.P,U2,3,SDA_3*%
%TO.N,/LV_SDA*%
X201195000Y-91150000D03*
%TO.P,U2,4,PGND_4*%
%TO.N,GND*%
X201195000Y-91950000D03*
%TO.P,U2,5*%
%TO.N,N/C*%
X201195000Y-92750000D03*
%TO.P,U2,6*%
X201195000Y-93550000D03*
%TO.P,U2,7*%
X201195000Y-94350000D03*
%TO.P,U2,8*%
X198805000Y-94350000D03*
%TO.P,U2,9,VLED+_9*%
%TO.N,5V*%
X198805000Y-93550000D03*
%TO.P,U2,10,VLED+__1_10*%
X198805000Y-92750000D03*
%TO.P,U2,11,VDD_11*%
%TO.N,1V8*%
X198805000Y-91950000D03*
%TO.P,U2,12,GND_12*%
%TO.N,GND*%
X198805000Y-91150000D03*
%TO.P,U2,13,~{INT}_13*%
%TO.N,Net-(U2-~{INT})*%
X198805000Y-90350000D03*
%TO.P,U2,14*%
%TO.N,N/C*%
X198805000Y-89550000D03*
%TD*%
D18*
%TO.N,1V8*%
X185900000Y-88800000D03*
X180950000Y-87600000D03*
X171950000Y-91500000D03*
X173650000Y-89250000D03*
X177400000Y-89250000D03*
X197600000Y-91950000D03*
%TO.N,GND*%
X189650000Y-109800000D03*
X213900000Y-89350000D03*
X143875000Y-65325000D03*
X135550000Y-75600000D03*
X172500000Y-80600000D03*
X109375000Y-103275000D03*
X195050000Y-109800000D03*
X137265000Y-73975000D03*
X109300000Y-98150000D03*
X137265000Y-72325000D03*
X113350000Y-110600000D03*
X140400000Y-75450000D03*
X131050000Y-75400000D03*
X142650000Y-80700000D03*
X128615000Y-80450000D03*
X163800000Y-74550000D03*
X135615000Y-70675000D03*
X131150000Y-71550000D03*
X198800000Y-100900000D03*
X114000000Y-80300000D03*
X131000000Y-106500000D03*
X192950000Y-93250000D03*
X137265000Y-70675000D03*
X213900000Y-97300000D03*
X193600000Y-99950000D03*
X135550000Y-67300000D03*
X133965000Y-73975000D03*
X157600000Y-76400000D03*
X140500000Y-67300000D03*
X112500000Y-96350000D03*
X88575000Y-79175000D03*
X150950000Y-109650000D03*
X131300000Y-67250000D03*
X125650000Y-110700000D03*
X208200000Y-104600000D03*
X106950000Y-73250000D03*
X117750000Y-66275000D03*
X135615000Y-72325000D03*
X137850000Y-110150000D03*
X133965000Y-72325000D03*
X177450000Y-105550000D03*
X206750000Y-97850000D03*
X172550000Y-69200000D03*
X163750000Y-109650000D03*
X135615000Y-73975000D03*
X99925000Y-91075000D03*
X83750000Y-74650000D03*
X206050000Y-90050000D03*
X89150000Y-67850000D03*
X192950000Y-90850000D03*
X140250000Y-71250000D03*
X87050000Y-68000000D03*
X119200000Y-110700000D03*
X133965000Y-70675000D03*
X212062500Y-101250000D03*
%TO.N,VCC_3V3*%
X190350000Y-89350000D03*
X179850000Y-90300000D03*
X165000000Y-67100000D03*
X209725000Y-98337500D03*
X196800000Y-99650000D03*
X198100000Y-99650000D03*
X165450000Y-85500000D03*
X122000000Y-66850000D03*
X210400000Y-95500000D03*
X104400000Y-66800000D03*
X199750000Y-98700000D03*
X187150000Y-90600000D03*
X89350000Y-99450000D03*
%TO.N,5V*%
X195800000Y-94400000D03*
X191800000Y-85750000D03*
X197600000Y-92750000D03*
%TO.N,/BAT-*%
X82500000Y-98150000D03*
%TO.N,USB_5V*%
X111000000Y-99400000D03*
X92250000Y-72100000D03*
X85300000Y-76850000D03*
X124850000Y-110700000D03*
X98400000Y-74500000D03*
X120000000Y-110700000D03*
%TO.N,Net-(J2-CC1)*%
X124250000Y-108850000D03*
X120350000Y-108950000D03*
%TO.N,Net-(J2-DP1)*%
X122175000Y-109826600D03*
X123600000Y-110123400D03*
%TO.N,Net-(J2-DN1)*%
X123150000Y-109250000D03*
X121300000Y-109250000D03*
%TO.N,/GPIO5{slash}SDA*%
X173100000Y-91200000D03*
X181230000Y-107900000D03*
X176300000Y-107900000D03*
X122600000Y-86350000D03*
X200150000Y-105450000D03*
X182200000Y-90300000D03*
%TO.N,/LV_SDA*%
X202500000Y-91150000D03*
X168700000Y-86050000D03*
X170900000Y-83850000D03*
%TO.N,/LV_SCL*%
X180950000Y-84650000D03*
%TO.N,/D+*%
X136500000Y-88650000D03*
X131750000Y-99750000D03*
%TO.N,Net-(U9-CS)*%
X97050000Y-87000000D03*
X95300000Y-87000000D03*
%TO.N,/GPIO6{slash}SCL*%
X182500000Y-106800000D03*
X200150000Y-104150000D03*
X124500000Y-85750000D03*
X177000000Y-106800000D03*
X174000000Y-90300000D03*
%TO.N,/D-*%
X135600000Y-88650000D03*
X129600000Y-100850000D03*
%TO.N,VIN_3V3*%
X102750000Y-82750000D03*
X102750000Y-93450000D03*
%TO.N,ESP_3V3*%
X126500000Y-66000000D03*
X146975000Y-66000000D03*
%TO.N,Net-(U2-~{INT})*%
X197650000Y-90350000D03*
%TD*%
%TO.N,Net-(J2-DP1)*%
D19*
X122726600Y-109826600D02*
X122175000Y-109826600D01*
X123023400Y-110123400D02*
X122726600Y-109826600D01*
X123600000Y-110123400D02*
X123023400Y-110123400D01*
%TO.N,Net-(J2-CC1)*%
X124050000Y-108650000D02*
X120650000Y-108650000D01*
X120650000Y-108650000D02*
X120350000Y-108950000D01*
X124250000Y-108850000D02*
X124050000Y-108650000D01*
%TO.N,Net-(J2-DN1)*%
X121300000Y-109250000D02*
X123150000Y-109250000D01*
%TO.N,1V8*%
X198805000Y-91950000D02*
X197600000Y-91950000D01*
D20*
X173650000Y-89250000D02*
X177400000Y-89250000D01*
X87601600Y-104541600D02*
X87601600Y-104040000D01*
X182800000Y-88800000D02*
X185900000Y-88800000D01*
X171950000Y-91500000D02*
X171950000Y-104150000D01*
X181600000Y-87600000D02*
X182800000Y-88800000D01*
X171950000Y-104150000D02*
X168700000Y-107400000D01*
X168700000Y-107400000D02*
X90460000Y-107400000D01*
X90460000Y-107400000D02*
X87601600Y-104541600D01*
X180950000Y-87600000D02*
X181600000Y-87600000D01*
%TO.N,VCC_3V3*%
X87200000Y-96500000D02*
X87200000Y-84000000D01*
X89350000Y-99450000D02*
X89350000Y-98650000D01*
X187200000Y-90600000D02*
X188450000Y-89350000D01*
X122250000Y-66600000D02*
X164500000Y-66600000D01*
X164500000Y-66600000D02*
X165000000Y-67100000D01*
X196800000Y-99650000D02*
X198100000Y-99650000D01*
D19*
X187150000Y-90600000D02*
X187200000Y-90600000D01*
D20*
X209362500Y-98700000D02*
X209725000Y-98337500D01*
X199750000Y-98700000D02*
X209362500Y-98700000D01*
X87200000Y-84000000D02*
X104400000Y-66800000D01*
X179850000Y-90300000D02*
X179850000Y-90250000D01*
X178200000Y-88600000D02*
X168450000Y-88600000D01*
X210400000Y-95500000D02*
X210400000Y-97662500D01*
X165450000Y-85600000D02*
X165450000Y-85500000D01*
X122000000Y-66850000D02*
X122250000Y-66600000D01*
X179850000Y-90250000D02*
X178200000Y-88600000D01*
X210400000Y-97662500D02*
X209725000Y-98337500D01*
X89350000Y-98650000D02*
X87200000Y-96500000D01*
X168450000Y-88600000D02*
X165450000Y-85600000D01*
X188450000Y-89350000D02*
X190350000Y-89350000D01*
%TO.N,5V*%
X192950000Y-94400000D02*
X191800000Y-93250000D01*
X191800000Y-93250000D02*
X191800000Y-85750000D01*
X198805000Y-93550000D02*
X197950000Y-93550000D01*
X195800000Y-94400000D02*
X192950000Y-94400000D01*
X197950000Y-93550000D02*
X197600000Y-93200000D01*
X197600000Y-92750000D02*
X198805000Y-92750000D01*
X197600000Y-93200000D02*
X197600000Y-92750000D01*
%TO.N,/BAT-*%
X82500000Y-101980000D02*
X84560000Y-104040000D01*
X82500000Y-98150000D02*
X82500000Y-101980000D01*
%TO.N,USB_5V*%
X100550000Y-93000000D02*
X106950000Y-99400000D01*
X92250000Y-73500000D02*
X92250000Y-72100000D01*
X98400000Y-74500000D02*
X100550000Y-76650000D01*
X124850000Y-110700000D02*
X120000000Y-110700000D01*
X85300000Y-76850000D02*
X88900000Y-76850000D01*
X100550000Y-76650000D02*
X100550000Y-93000000D01*
X88900000Y-76850000D02*
X92250000Y-73500000D01*
X106950000Y-99400000D02*
X111000000Y-99400000D01*
%TO.N,/GPIO5{slash}SDA*%
D19*
X183050000Y-107900000D02*
X185350000Y-105600000D01*
X181230000Y-107900000D02*
X183050000Y-107900000D01*
X173100000Y-91200000D02*
X172650000Y-90750000D01*
X164025000Y-86300000D02*
X122650000Y-86300000D01*
X173300000Y-91400000D02*
X181100000Y-91400000D01*
X176300000Y-107900000D02*
X181230000Y-107900000D01*
X181100000Y-91400000D02*
X182200000Y-90300000D01*
X173100000Y-91200000D02*
X173300000Y-91400000D01*
X200000000Y-105600000D02*
X200150000Y-105450000D01*
X122650000Y-86300000D02*
X122600000Y-86350000D01*
X185350000Y-105600000D02*
X200000000Y-105600000D01*
X172650000Y-90750000D02*
X168475000Y-90750000D01*
X168475000Y-90750000D02*
X164025000Y-86300000D01*
%TO.N,/LV_SDA*%
X170900000Y-83850000D02*
X168700000Y-86050000D01*
X202500000Y-91150000D02*
X201195000Y-91150000D01*
%TO.N,/LV_SCL*%
X202500000Y-90000000D02*
X202500000Y-88650000D01*
X202150000Y-90350000D02*
X202500000Y-90000000D01*
X202500000Y-88650000D02*
X198500000Y-84650000D01*
X198500000Y-84650000D02*
X180950000Y-84650000D01*
X201195000Y-90350000D02*
X202150000Y-90350000D01*
%TO.N,/D+*%
X132350000Y-99750000D02*
X131750000Y-99750000D01*
X136250000Y-90500000D02*
X136250000Y-95850000D01*
X136250000Y-95850000D02*
X132350000Y-99750000D01*
X136500000Y-90250000D02*
X136250000Y-90500000D01*
X136500000Y-88650000D02*
X136500000Y-90250000D01*
%TO.N,Net-(U9-CS)*%
D20*
X97050000Y-87000000D02*
X95300000Y-87000000D01*
%TO.N,/GPIO6{slash}SCL*%
D19*
X185050000Y-105100000D02*
X199200000Y-105100000D01*
X177000000Y-106800000D02*
X182500000Y-106800000D01*
X168600000Y-90300000D02*
X174000000Y-90300000D01*
X183350000Y-106800000D02*
X185050000Y-105100000D01*
X164050000Y-85750000D02*
X168600000Y-90300000D01*
X182500000Y-106800000D02*
X183350000Y-106800000D01*
X199200000Y-105100000D02*
X200150000Y-104150000D01*
X124500000Y-85750000D02*
X164050000Y-85750000D01*
%TO.N,/D-*%
X135600000Y-88650000D02*
X135900000Y-88950000D01*
X135900000Y-95773474D02*
X132423474Y-99250000D01*
X131200000Y-99250000D02*
X129600000Y-100850000D01*
X132423474Y-99250000D02*
X131200000Y-99250000D01*
X135900000Y-88950000D02*
X135900000Y-95773474D01*
%TO.N,VIN_3V3*%
D20*
X102750000Y-93450000D02*
X102750000Y-82750000D01*
%TO.N,ESP_3V3*%
X146975000Y-66000000D02*
X126500000Y-66000000D01*
%TO.N,Net-(U2-~{INT})*%
D19*
X197650000Y-90350000D02*
X198805000Y-90350000D01*
%TD*%
%TA.AperFunction,Conductor*%
%TO.N,GND*%
G36*
X217927804Y-64668538D02*
G01*
X217973598Y-64721308D01*
X217984842Y-64772694D01*
X218075460Y-118437960D01*
X218055888Y-118505032D01*
X218003162Y-118550876D01*
X217951669Y-118562169D01*
X128886578Y-118712563D01*
X128819506Y-118692991D01*
X128773662Y-118640265D01*
X128763602Y-118571123D01*
X128792519Y-118507519D01*
X128794831Y-118505031D01*
X128796170Y-118503399D01*
X128908340Y-118335526D01*
X128908347Y-118335513D01*
X128985609Y-118148983D01*
X128985612Y-118148974D01*
X129024999Y-117950958D01*
X129025000Y-117950955D01*
X129025000Y-117500000D01*
X128300000Y-117500000D01*
X128300000Y-117000000D01*
X129025000Y-117000000D01*
X129025000Y-116549045D01*
X129024999Y-116549041D01*
X128989226Y-116369194D01*
X128985611Y-116351024D01*
X128985609Y-116351016D01*
X128985188Y-116349999D01*
X214297479Y-116349999D01*
X214299098Y-116370056D01*
X214299500Y-116380033D01*
X214299500Y-116472027D01*
X214299499Y-116472027D01*
X214314724Y-116568150D01*
X214315468Y-116572853D01*
X214317583Y-116599042D01*
X214323271Y-116622119D01*
X214324093Y-116627309D01*
X214324095Y-116627317D01*
X214337679Y-116713077D01*
X214369473Y-116810929D01*
X214369473Y-116810930D01*
X214370865Y-116815215D01*
X214377377Y-116841634D01*
X214386104Y-116862118D01*
X214387805Y-116867352D01*
X214413095Y-116945185D01*
X214462441Y-117042030D01*
X214462442Y-117042032D01*
X214464371Y-117045818D01*
X214475310Y-117071493D01*
X214486335Y-117088928D01*
X214488946Y-117094052D01*
X214523892Y-117162636D01*
X214523894Y-117162639D01*
X214593210Y-117258044D01*
X214593735Y-117258767D01*
X214608848Y-117282665D01*
X214621354Y-117296782D01*
X214667345Y-117360083D01*
X214667347Y-117360085D01*
X214755791Y-117448529D01*
X214774531Y-117469682D01*
X214787679Y-117480417D01*
X214839920Y-117532658D01*
X214865527Y-117551262D01*
X214946510Y-117610099D01*
X214968067Y-117627700D01*
X214981055Y-117635199D01*
X214986316Y-117639021D01*
X214986317Y-117639022D01*
X215034383Y-117673943D01*
X215037361Y-117676106D01*
X215161197Y-117739203D01*
X215184446Y-117752626D01*
X215196547Y-117757215D01*
X215221888Y-117770127D01*
X215254810Y-117786902D01*
X215254812Y-117786902D01*
X215254815Y-117786904D01*
X215394526Y-117832299D01*
X215418061Y-117841225D01*
X215428643Y-117843384D01*
X215486924Y-117862321D01*
X215640703Y-117886677D01*
X215662864Y-117891202D01*
X215671448Y-117891547D01*
X215727973Y-117900500D01*
X215727976Y-117900500D01*
X215893604Y-117900500D01*
X215912514Y-117901262D01*
X215918790Y-117900500D01*
X215972025Y-117900500D01*
X215972027Y-117900500D01*
X216146900Y-117872802D01*
X216160544Y-117871146D01*
X216164385Y-117870033D01*
X216213076Y-117862321D01*
X216394298Y-117803438D01*
X216400532Y-117801633D01*
X216402003Y-117800934D01*
X216445185Y-117786904D01*
X216662639Y-117676106D01*
X216860083Y-117532655D01*
X217032655Y-117360083D01*
X217176106Y-117162639D01*
X217286904Y-116945185D01*
X217362321Y-116713076D01*
X217400500Y-116472027D01*
X217400500Y-116227973D01*
X217362321Y-115986924D01*
X217286904Y-115754815D01*
X217176106Y-115537361D01*
X217140157Y-115487881D01*
X217032660Y-115339923D01*
X217032656Y-115339918D01*
X216860081Y-115167343D01*
X216860076Y-115167339D01*
X216662640Y-115023894D01*
X216538751Y-114960770D01*
X216445185Y-114913096D01*
X216407433Y-114900829D01*
X216407430Y-114900828D01*
X216401999Y-114899063D01*
X216400532Y-114898367D01*
X216394319Y-114896567D01*
X216392373Y-114895935D01*
X216213075Y-114837678D01*
X216172035Y-114831178D01*
X216164382Y-114829965D01*
X216160544Y-114828854D01*
X216146919Y-114827199D01*
X216144674Y-114826844D01*
X216144672Y-114826843D01*
X215972032Y-114799500D01*
X215972027Y-114799500D01*
X215918790Y-114799500D01*
X215912514Y-114798738D01*
X215893604Y-114799500D01*
X215727971Y-114799500D01*
X215678602Y-114807318D01*
X215671440Y-114808452D01*
X215662864Y-114808798D01*
X215640716Y-114813319D01*
X215637986Y-114813752D01*
X215637984Y-114813751D01*
X215637984Y-114813752D01*
X215486929Y-114837678D01*
X215486913Y-114837681D01*
X215435300Y-114854450D01*
X215428630Y-114856617D01*
X215418061Y-114858775D01*
X215394557Y-114867688D01*
X215391670Y-114868627D01*
X215254822Y-114913093D01*
X215254806Y-114913100D01*
X215202556Y-114939720D01*
X215202557Y-114939721D01*
X215196534Y-114942789D01*
X215184446Y-114947374D01*
X215161243Y-114960770D01*
X215158315Y-114962262D01*
X215158315Y-114962263D01*
X215037361Y-115023893D01*
X214986316Y-115060979D01*
X214981052Y-115064802D01*
X214968067Y-115072300D01*
X214946546Y-115089871D01*
X214943689Y-115091947D01*
X214943685Y-115091951D01*
X214839914Y-115167347D01*
X214839910Y-115167350D01*
X214787668Y-115219591D01*
X214774531Y-115230318D01*
X214755806Y-115251453D01*
X214753146Y-115254114D01*
X214667348Y-115339913D01*
X214667342Y-115339920D01*
X214624871Y-115398374D01*
X214621337Y-115403237D01*
X214608848Y-115417335D01*
X214593767Y-115441182D01*
X214591403Y-115444437D01*
X214591396Y-115444449D01*
X214523893Y-115537362D01*
X214523890Y-115537367D01*
X214488946Y-115605947D01*
X214486332Y-115611076D01*
X214475310Y-115628507D01*
X214464378Y-115654164D01*
X214462441Y-115657967D01*
X214413097Y-115754810D01*
X214413096Y-115754812D01*
X214387806Y-115832641D01*
X214387807Y-115832642D01*
X214386104Y-115837881D01*
X214377377Y-115858366D01*
X214370867Y-115884776D01*
X214369471Y-115889074D01*
X214337679Y-115986919D01*
X214324096Y-116072676D01*
X214323272Y-116077874D01*
X214317583Y-116100958D01*
X214315469Y-116127142D01*
X214314724Y-116131848D01*
X214299500Y-116227972D01*
X214299500Y-116319966D01*
X214299098Y-116329943D01*
X214297479Y-116349999D01*
X128985188Y-116349999D01*
X128908347Y-116164486D01*
X128908340Y-116164473D01*
X128796170Y-115996600D01*
X128796167Y-115996596D01*
X128653403Y-115853832D01*
X128653399Y-115853829D01*
X128485526Y-115741659D01*
X128485513Y-115741652D01*
X128298984Y-115664390D01*
X128298977Y-115664388D01*
X128250000Y-115654645D01*
X128250000Y-116483011D01*
X128240060Y-116465795D01*
X128184205Y-116409940D01*
X128115796Y-116370444D01*
X128039496Y-116350000D01*
X127960504Y-116350000D01*
X127884204Y-116370444D01*
X127815795Y-116409940D01*
X127759940Y-116465795D01*
X127750000Y-116483011D01*
X127750000Y-113816988D01*
X127759940Y-113834205D01*
X127815795Y-113890060D01*
X127884204Y-113929556D01*
X127960504Y-113950000D01*
X128039496Y-113950000D01*
X128115796Y-113929556D01*
X128184205Y-113890060D01*
X128240060Y-113834205D01*
X128250000Y-113816988D01*
X128250000Y-114645352D01*
X128298974Y-114635612D01*
X128298983Y-114635609D01*
X128485513Y-114558347D01*
X128485526Y-114558340D01*
X128653399Y-114446170D01*
X128653403Y-114446167D01*
X128796167Y-114303403D01*
X128796170Y-114303399D01*
X128908340Y-114135526D01*
X128908347Y-114135513D01*
X128985609Y-113948983D01*
X128985612Y-113948974D01*
X129024999Y-113750958D01*
X129025000Y-113750955D01*
X129025000Y-113500000D01*
X128300000Y-113500000D01*
X128300000Y-113000000D01*
X129025000Y-113000000D01*
X129025000Y-112749045D01*
X129024999Y-112749041D01*
X128985612Y-112551025D01*
X128985609Y-112551016D01*
X128908347Y-112364486D01*
X128908340Y-112364473D01*
X128796170Y-112196600D01*
X128796167Y-112196596D01*
X128653403Y-112053832D01*
X128653399Y-112053829D01*
X128485526Y-111941659D01*
X128485513Y-111941652D01*
X128298984Y-111864390D01*
X128298977Y-111864388D01*
X128250000Y-111854645D01*
X128250000Y-112683011D01*
X128240060Y-112665795D01*
X128184205Y-112609940D01*
X128115796Y-112570444D01*
X128039496Y-112550000D01*
X127960504Y-112550000D01*
X127884204Y-112570444D01*
X127815795Y-112609940D01*
X127759940Y-112665795D01*
X127750000Y-112683011D01*
X127750000Y-111854646D01*
X127749999Y-111854645D01*
X127701022Y-111864388D01*
X127701015Y-111864390D01*
X127514486Y-111941652D01*
X127514473Y-111941659D01*
X127364426Y-112041918D01*
X127297748Y-112062796D01*
X127295226Y-112062816D01*
X117517701Y-112038459D01*
X117450711Y-112018607D01*
X117449119Y-112017561D01*
X117335525Y-111941659D01*
X117335513Y-111941652D01*
X117148984Y-111864390D01*
X117148977Y-111864388D01*
X117100000Y-111854645D01*
X117100000Y-112683011D01*
X117090060Y-112665795D01*
X117034205Y-112609940D01*
X116965796Y-112570444D01*
X116889496Y-112550000D01*
X116810504Y-112550000D01*
X116734204Y-112570444D01*
X116665795Y-112609940D01*
X116609940Y-112665795D01*
X116600000Y-112683011D01*
X116600000Y-111854646D01*
X116599999Y-111854645D01*
X116551022Y-111864388D01*
X116551015Y-111864390D01*
X116364486Y-111941652D01*
X116364473Y-111941659D01*
X116196600Y-112053829D01*
X116196596Y-112053832D01*
X116053832Y-112196596D01*
X116053829Y-112196600D01*
X115941659Y-112364473D01*
X115941652Y-112364486D01*
X115864390Y-112551016D01*
X115864387Y-112551025D01*
X115825000Y-112749041D01*
X115825000Y-113000000D01*
X116550000Y-113000000D01*
X116550000Y-113500000D01*
X115825000Y-113500000D01*
X115825000Y-113750958D01*
X115864387Y-113948974D01*
X115864390Y-113948983D01*
X115941652Y-114135513D01*
X115941659Y-114135526D01*
X116053829Y-114303399D01*
X116053832Y-114303403D01*
X116196596Y-114446167D01*
X116196600Y-114446170D01*
X116364473Y-114558340D01*
X116364486Y-114558347D01*
X116551016Y-114635609D01*
X116551025Y-114635612D01*
X116600000Y-114645353D01*
X116600000Y-113816988D01*
X116609940Y-113834205D01*
X116665795Y-113890060D01*
X116734204Y-113929556D01*
X116810504Y-113950000D01*
X116889496Y-113950000D01*
X116965796Y-113929556D01*
X117034205Y-113890060D01*
X117090060Y-113834205D01*
X117100000Y-113816988D01*
X117100000Y-114645352D01*
X117103634Y-114644630D01*
X117173226Y-114650857D01*
X117228403Y-114693720D01*
X117251648Y-114759609D01*
X117251826Y-114766556D01*
X117250000Y-115500013D01*
X117250150Y-115532852D01*
X117230771Y-115599980D01*
X117178177Y-115645976D01*
X117109065Y-115656235D01*
X117101958Y-115655035D01*
X117100000Y-115654645D01*
X117100000Y-116483011D01*
X117090060Y-116465795D01*
X117034205Y-116409940D01*
X116965796Y-116370444D01*
X116889496Y-116350000D01*
X116810504Y-116350000D01*
X116734204Y-116370444D01*
X116665795Y-116409940D01*
X116609940Y-116465795D01*
X116600000Y-116483011D01*
X116600000Y-115654646D01*
X116599999Y-115654645D01*
X116551022Y-115664388D01*
X116551015Y-115664390D01*
X116364486Y-115741652D01*
X116364473Y-115741659D01*
X116196600Y-115853829D01*
X116196596Y-115853832D01*
X116053832Y-115996596D01*
X116053829Y-115996600D01*
X115941659Y-116164473D01*
X115941652Y-116164486D01*
X115864390Y-116351016D01*
X115864387Y-116351025D01*
X115825000Y-116549041D01*
X115825000Y-117000000D01*
X116550000Y-117000000D01*
X116550000Y-117500000D01*
X115825000Y-117500000D01*
X115825000Y-117948355D01*
X115805315Y-118015394D01*
X115752511Y-118061149D01*
X115701567Y-118072354D01*
X80039540Y-118235326D01*
X79972411Y-118215948D01*
X79926415Y-118163353D01*
X79914974Y-118111787D01*
X79914192Y-117901262D01*
X79907132Y-115999999D01*
X80447479Y-115999999D01*
X80449098Y-116020056D01*
X80449500Y-116030033D01*
X80449500Y-116122027D01*
X80449499Y-116122027D01*
X80464724Y-116218150D01*
X80465468Y-116222853D01*
X80467583Y-116249042D01*
X80473271Y-116272119D01*
X80474093Y-116277309D01*
X80474095Y-116277317D01*
X80487679Y-116363077D01*
X80519473Y-116460929D01*
X80519473Y-116460930D01*
X80520865Y-116465215D01*
X80527377Y-116491634D01*
X80536104Y-116512118D01*
X80537805Y-116517352D01*
X80563095Y-116595185D01*
X80612441Y-116692030D01*
X80612442Y-116692032D01*
X80614371Y-116695818D01*
X80625310Y-116721493D01*
X80636335Y-116738928D01*
X80638946Y-116744052D01*
X80673023Y-116810930D01*
X80673894Y-116812639D01*
X80743735Y-116908767D01*
X80758848Y-116932665D01*
X80771354Y-116946782D01*
X80817345Y-117010083D01*
X80817347Y-117010085D01*
X80905791Y-117098529D01*
X80924531Y-117119682D01*
X80937679Y-117130417D01*
X80989920Y-117182658D01*
X81004209Y-117193039D01*
X81096510Y-117260099D01*
X81118067Y-117277700D01*
X81131055Y-117285199D01*
X81136316Y-117289021D01*
X81136317Y-117289022D01*
X81184383Y-117323943D01*
X81187361Y-117326106D01*
X81311197Y-117389203D01*
X81334446Y-117402626D01*
X81346547Y-117407215D01*
X81371888Y-117420127D01*
X81404810Y-117436902D01*
X81404812Y-117436902D01*
X81404815Y-117436904D01*
X81544526Y-117482299D01*
X81568061Y-117491225D01*
X81578643Y-117493384D01*
X81636924Y-117512321D01*
X81790703Y-117536677D01*
X81812864Y-117541202D01*
X81821448Y-117541547D01*
X81877973Y-117550500D01*
X81877976Y-117550500D01*
X82043604Y-117550500D01*
X82062514Y-117551262D01*
X82068790Y-117550500D01*
X82122025Y-117550500D01*
X82122027Y-117550500D01*
X82296900Y-117522802D01*
X82310544Y-117521146D01*
X82314385Y-117520033D01*
X82363076Y-117512321D01*
X82544298Y-117453438D01*
X82550532Y-117451633D01*
X82552003Y-117450934D01*
X82595185Y-117436904D01*
X82812639Y-117326106D01*
X83010083Y-117182655D01*
X83182655Y-117010083D01*
X83326106Y-116812639D01*
X83436904Y-116595185D01*
X83512321Y-116363076D01*
X83550500Y-116122027D01*
X83550500Y-115877973D01*
X83512321Y-115636924D01*
X83436904Y-115404815D01*
X83326106Y-115187361D01*
X83242510Y-115072300D01*
X83182660Y-114989923D01*
X83182656Y-114989918D01*
X83010081Y-114817343D01*
X83010076Y-114817339D01*
X82812640Y-114673894D01*
X82688751Y-114610770D01*
X82595185Y-114563096D01*
X82557433Y-114550829D01*
X82557430Y-114550828D01*
X82551999Y-114549063D01*
X82550532Y-114548367D01*
X82544319Y-114546567D01*
X82542373Y-114545935D01*
X82363075Y-114487678D01*
X82322035Y-114481178D01*
X82314382Y-114479965D01*
X82310544Y-114478854D01*
X82296919Y-114477199D01*
X82294674Y-114476844D01*
X82294672Y-114476843D01*
X82122032Y-114449500D01*
X82122027Y-114449500D01*
X82068790Y-114449500D01*
X82062514Y-114448738D01*
X82043604Y-114449500D01*
X81877971Y-114449500D01*
X81828602Y-114457318D01*
X81821440Y-114458452D01*
X81812864Y-114458798D01*
X81790716Y-114463319D01*
X81787986Y-114463752D01*
X81787984Y-114463751D01*
X81787984Y-114463752D01*
X81636929Y-114487678D01*
X81636913Y-114487681D01*
X81585300Y-114504450D01*
X81578630Y-114506617D01*
X81568061Y-114508775D01*
X81544557Y-114517688D01*
X81541670Y-114518627D01*
X81404822Y-114563093D01*
X81404806Y-114563100D01*
X81352556Y-114589720D01*
X81352557Y-114589721D01*
X81346534Y-114592789D01*
X81334446Y-114597374D01*
X81311243Y-114610770D01*
X81308315Y-114612262D01*
X81308315Y-114612263D01*
X81187361Y-114673893D01*
X81136316Y-114710979D01*
X81131052Y-114714802D01*
X81118067Y-114722300D01*
X81096546Y-114739871D01*
X81093689Y-114741947D01*
X81093685Y-114741951D01*
X80989914Y-114817347D01*
X80989910Y-114817350D01*
X80937668Y-114869591D01*
X80924531Y-114880318D01*
X80905806Y-114901453D01*
X80903146Y-114904114D01*
X80817348Y-114989913D01*
X80817342Y-114989920D01*
X80774871Y-115048374D01*
X80771337Y-115053237D01*
X80758848Y-115067335D01*
X80743767Y-115091182D01*
X80741403Y-115094437D01*
X80741396Y-115094449D01*
X80673893Y-115187362D01*
X80673890Y-115187367D01*
X80638946Y-115255947D01*
X80636332Y-115261076D01*
X80625310Y-115278507D01*
X80614378Y-115304164D01*
X80612441Y-115307967D01*
X80563097Y-115404810D01*
X80563096Y-115404812D01*
X80537806Y-115482641D01*
X80537807Y-115482642D01*
X80536104Y-115487881D01*
X80527377Y-115508366D01*
X80520867Y-115534776D01*
X80519471Y-115539074D01*
X80487679Y-115636919D01*
X80474096Y-115722676D01*
X80473272Y-115727874D01*
X80467583Y-115750958D01*
X80465469Y-115777142D01*
X80464724Y-115781848D01*
X80449500Y-115877972D01*
X80449500Y-115969966D01*
X80449098Y-115979943D01*
X80447479Y-115999999D01*
X79907132Y-115999999D01*
X79887194Y-110630817D01*
X119474500Y-110630817D01*
X119474500Y-110769182D01*
X119510312Y-110902835D01*
X119510313Y-110902838D01*
X119579492Y-111022661D01*
X119579494Y-111022664D01*
X119579495Y-111022665D01*
X119677335Y-111120505D01*
X119797164Y-111189688D01*
X119930817Y-111225500D01*
X119930819Y-111225500D01*
X120069181Y-111225500D01*
X120069183Y-111225500D01*
X120202836Y-111189688D01*
X120241937Y-111167112D01*
X120303937Y-111150500D01*
X124546063Y-111150500D01*
X124608062Y-111167112D01*
X124647164Y-111189688D01*
X124780817Y-111225500D01*
X124780819Y-111225500D01*
X124919181Y-111225500D01*
X124919183Y-111225500D01*
X125052836Y-111189688D01*
X125172665Y-111120505D01*
X125270505Y-111022665D01*
X125339688Y-110902836D01*
X125375500Y-110769183D01*
X125375500Y-110630817D01*
X125339688Y-110497164D01*
X125305096Y-110437249D01*
X125270507Y-110377338D01*
X125270503Y-110377333D01*
X125172666Y-110279496D01*
X125172661Y-110279492D01*
X125052838Y-110210313D01*
X125052837Y-110210312D01*
X125052836Y-110210312D01*
X124919183Y-110174500D01*
X124780817Y-110174500D01*
X124647164Y-110210312D01*
X124647161Y-110210313D01*
X124608063Y-110232887D01*
X124546063Y-110249500D01*
X124249500Y-110249500D01*
X124182461Y-110229815D01*
X124136706Y-110177011D01*
X124125500Y-110125500D01*
X124125500Y-110054219D01*
X124125500Y-110054217D01*
X124089688Y-109920564D01*
X124020505Y-109800735D01*
X123922665Y-109702895D01*
X123922664Y-109702894D01*
X123922661Y-109702892D01*
X123867562Y-109671081D01*
X184062000Y-109671081D01*
X184062000Y-109928918D01*
X184102332Y-110183566D01*
X184182007Y-110428778D01*
X184284952Y-110630817D01*
X184299057Y-110658499D01*
X184450604Y-110867085D01*
X184632915Y-111049396D01*
X184841501Y-111200943D01*
X184889695Y-111225499D01*
X185071221Y-111317992D01*
X185071223Y-111317992D01*
X185071226Y-111317994D01*
X185202664Y-111360701D01*
X185316433Y-111397667D01*
X185571082Y-111438000D01*
X185571087Y-111438000D01*
X185828918Y-111438000D01*
X186083566Y-111397667D01*
X186328774Y-111317994D01*
X186558499Y-111200943D01*
X186767085Y-111049396D01*
X186949396Y-110867085D01*
X187100943Y-110658499D01*
X187217994Y-110428774D01*
X187297667Y-110183566D01*
X187318154Y-110054217D01*
X187338000Y-109928918D01*
X187338000Y-109671081D01*
X197262000Y-109671081D01*
X197262000Y-109928918D01*
X197302332Y-110183566D01*
X197382007Y-110428778D01*
X197484952Y-110630817D01*
X197499057Y-110658499D01*
X197650604Y-110867085D01*
X197832915Y-111049396D01*
X198041501Y-111200943D01*
X198089695Y-111225499D01*
X198271221Y-111317992D01*
X198271223Y-111317992D01*
X198271226Y-111317994D01*
X198402664Y-111360701D01*
X198516433Y-111397667D01*
X198771082Y-111438000D01*
X198771087Y-111438000D01*
X199028918Y-111438000D01*
X199283566Y-111397667D01*
X199528774Y-111317994D01*
X199758499Y-111200943D01*
X199967085Y-111049396D01*
X200149396Y-110867085D01*
X200300943Y-110658499D01*
X200417994Y-110428774D01*
X200497667Y-110183566D01*
X200518154Y-110054217D01*
X200538000Y-109928918D01*
X200538000Y-109671081D01*
X200497667Y-109416433D01*
X200450954Y-109272666D01*
X200417994Y-109171226D01*
X200417992Y-109171223D01*
X200417992Y-109171221D01*
X200340524Y-109019183D01*
X200300943Y-108941501D01*
X200149396Y-108732915D01*
X199967085Y-108550604D01*
X199758499Y-108399057D01*
X199528778Y-108282007D01*
X199283566Y-108202332D01*
X199028918Y-108162000D01*
X199028913Y-108162000D01*
X198771087Y-108162000D01*
X198771082Y-108162000D01*
X198516433Y-108202332D01*
X198271221Y-108282007D01*
X198041500Y-108399057D01*
X197922494Y-108485520D01*
X197832915Y-108550604D01*
X197832913Y-108550606D01*
X197832912Y-108550606D01*
X197650606Y-108732912D01*
X197650606Y-108732913D01*
X197650604Y-108732915D01*
X197615801Y-108780817D01*
X197499057Y-108941500D01*
X197382007Y-109171221D01*
X197302332Y-109416433D01*
X197262000Y-109671081D01*
X187338000Y-109671081D01*
X187297667Y-109416433D01*
X187250954Y-109272666D01*
X187217994Y-109171226D01*
X187217992Y-109171223D01*
X187217992Y-109171221D01*
X187140524Y-109019183D01*
X187100943Y-108941501D01*
X186949396Y-108732915D01*
X186767085Y-108550604D01*
X186558499Y-108399057D01*
X186328778Y-108282007D01*
X186083566Y-108202332D01*
X185828918Y-108162000D01*
X185828913Y-108162000D01*
X185571087Y-108162000D01*
X185571082Y-108162000D01*
X185316433Y-108202332D01*
X185071221Y-108282007D01*
X184841500Y-108399057D01*
X184722494Y-108485520D01*
X184632915Y-108550604D01*
X184632913Y-108550606D01*
X184632912Y-108550606D01*
X184450606Y-108732912D01*
X184450606Y-108732913D01*
X184450604Y-108732915D01*
X184415801Y-108780817D01*
X184299057Y-108941500D01*
X184182007Y-109171221D01*
X184102332Y-109416433D01*
X184062000Y-109671081D01*
X123867562Y-109671081D01*
X123802838Y-109633713D01*
X123802837Y-109633712D01*
X123759055Y-109621981D01*
X123725125Y-109612889D01*
X123665466Y-109576525D01*
X123634937Y-109513678D01*
X123636685Y-109464007D01*
X123639163Y-109453745D01*
X123639688Y-109452836D01*
X123675500Y-109319183D01*
X123675500Y-109303272D01*
X123678965Y-109288924D01*
X123689333Y-109270922D01*
X123695185Y-109250993D01*
X123706416Y-109241260D01*
X123713836Y-109228379D01*
X123732291Y-109218840D01*
X123747989Y-109205238D01*
X123762701Y-109203122D01*
X123775905Y-109196298D01*
X123796584Y-109198250D01*
X123817147Y-109195294D01*
X123830668Y-109201468D01*
X123845465Y-109202866D01*
X123861806Y-109215689D01*
X123880703Y-109224319D01*
X123887181Y-109230351D01*
X123927335Y-109270505D01*
X124047164Y-109339688D01*
X124180817Y-109375500D01*
X124180819Y-109375500D01*
X124319181Y-109375500D01*
X124319183Y-109375500D01*
X124452836Y-109339688D01*
X124572665Y-109270505D01*
X124670505Y-109172665D01*
X124739688Y-109052836D01*
X124775500Y-108919183D01*
X124775500Y-108780817D01*
X124739688Y-108647164D01*
X124705096Y-108587249D01*
X124670507Y-108527338D01*
X124670503Y-108527333D01*
X124572666Y-108429496D01*
X124572661Y-108429492D01*
X124452838Y-108360313D01*
X124452837Y-108360312D01*
X124452836Y-108360312D01*
X124319183Y-108324500D01*
X124319182Y-108324500D01*
X124205770Y-108324500D01*
X124173678Y-108320275D01*
X124096144Y-108299500D01*
X120603856Y-108299500D01*
X120514712Y-108323386D01*
X120514709Y-108323387D01*
X120434791Y-108369527D01*
X120434786Y-108369531D01*
X120416137Y-108388181D01*
X120354814Y-108421666D01*
X120328456Y-108424500D01*
X120280817Y-108424500D01*
X120147164Y-108460312D01*
X120147161Y-108460313D01*
X120027338Y-108529492D01*
X120027333Y-108529496D01*
X119929496Y-108627333D01*
X119929492Y-108627338D01*
X119860313Y-108747161D01*
X119860312Y-108747164D01*
X119824500Y-108880817D01*
X119824500Y-109019183D01*
X119833518Y-109052836D01*
X119860312Y-109152835D01*
X119860313Y-109152838D01*
X119929492Y-109272661D01*
X119929494Y-109272664D01*
X119929495Y-109272665D01*
X120027335Y-109370505D01*
X120027336Y-109370506D01*
X120027338Y-109370507D01*
X120066225Y-109392958D01*
X120147164Y-109439688D01*
X120280817Y-109475500D01*
X120280819Y-109475500D01*
X120419181Y-109475500D01*
X120419183Y-109475500D01*
X120552836Y-109439688D01*
X120633775Y-109392957D01*
X120701674Y-109376485D01*
X120767701Y-109399337D01*
X120805179Y-109446414D01*
X120806248Y-109445797D01*
X120879492Y-109572661D01*
X120879494Y-109572664D01*
X120879495Y-109572665D01*
X120977335Y-109670505D01*
X120977336Y-109670506D01*
X120977338Y-109670507D01*
X120978343Y-109671087D01*
X121097164Y-109739688D01*
X121230817Y-109775500D01*
X121230819Y-109775500D01*
X121369181Y-109775500D01*
X121369183Y-109775500D01*
X121493408Y-109742214D01*
X121563256Y-109743877D01*
X121621119Y-109783040D01*
X121648623Y-109847268D01*
X121649500Y-109861989D01*
X121649500Y-109895783D01*
X121685312Y-110029436D01*
X121699620Y-110054219D01*
X121704979Y-110063500D01*
X121721452Y-110131400D01*
X121698600Y-110197427D01*
X121643679Y-110240617D01*
X121597592Y-110249500D01*
X120303937Y-110249500D01*
X120241937Y-110232887D01*
X120202838Y-110210313D01*
X120202837Y-110210312D01*
X120202836Y-110210312D01*
X120069183Y-110174500D01*
X119930817Y-110174500D01*
X119797164Y-110210312D01*
X119797161Y-110210313D01*
X119677338Y-110279492D01*
X119677333Y-110279496D01*
X119579496Y-110377333D01*
X119579492Y-110377338D01*
X119510313Y-110497161D01*
X119510312Y-110497164D01*
X119474500Y-110630817D01*
X79887194Y-110630817D01*
X79840592Y-98080817D01*
X81974500Y-98080817D01*
X81974500Y-98219183D01*
X82010312Y-98352836D01*
X82024458Y-98377338D01*
X82032887Y-98391936D01*
X82049500Y-98453937D01*
X82049500Y-102039310D01*
X82061193Y-102082951D01*
X82061194Y-102082951D01*
X82080201Y-102153887D01*
X82139511Y-102256614D01*
X82139513Y-102256616D01*
X83476665Y-103593768D01*
X83510150Y-103655091D01*
X83506915Y-103719767D01*
X83486598Y-103782294D01*
X83486598Y-103782297D01*
X83459500Y-103953389D01*
X83459500Y-104126610D01*
X83486597Y-104297697D01*
X83486597Y-104297699D01*
X83486598Y-104297701D01*
X83540127Y-104462445D01*
X83618768Y-104616788D01*
X83720586Y-104756928D01*
X83843072Y-104879414D01*
X83983212Y-104981232D01*
X84137555Y-105059873D01*
X84140708Y-105060897D01*
X84141752Y-105061611D01*
X84142048Y-105061734D01*
X84142022Y-105061795D01*
X84198383Y-105100330D01*
X84225585Y-105164688D01*
X84213674Y-105233535D01*
X84166433Y-105285013D01*
X84140712Y-105296760D01*
X84041783Y-105328904D01*
X83852439Y-105425380D01*
X83798282Y-105464727D01*
X83798282Y-105464728D01*
X84430591Y-106097037D01*
X84367007Y-106114075D01*
X84252993Y-106179901D01*
X84159901Y-106272993D01*
X84094075Y-106387007D01*
X84077037Y-106450591D01*
X83444728Y-105818282D01*
X83444727Y-105818282D01*
X83405380Y-105872439D01*
X83308904Y-106061782D01*
X83243242Y-106263869D01*
X83243242Y-106263872D01*
X83210000Y-106473753D01*
X83210000Y-106686246D01*
X83243242Y-106896127D01*
X83243242Y-106896130D01*
X83308904Y-107098217D01*
X83405375Y-107287550D01*
X83444728Y-107341716D01*
X84077037Y-106709408D01*
X84094075Y-106772993D01*
X84159901Y-106887007D01*
X84252993Y-106980099D01*
X84367007Y-107045925D01*
X84430590Y-107062962D01*
X83798282Y-107695269D01*
X83798282Y-107695270D01*
X83852449Y-107734624D01*
X84041782Y-107831095D01*
X84243870Y-107896757D01*
X84453754Y-107930000D01*
X84666246Y-107930000D01*
X84876127Y-107896757D01*
X84876130Y-107896757D01*
X85078217Y-107831095D01*
X85267554Y-107734622D01*
X85321716Y-107695270D01*
X85321717Y-107695270D01*
X84689408Y-107062962D01*
X84752993Y-107045925D01*
X84867007Y-106980099D01*
X84960099Y-106887007D01*
X85025925Y-106772993D01*
X85042962Y-106709408D01*
X85675270Y-107341717D01*
X85675270Y-107341716D01*
X85714622Y-107287554D01*
X85811096Y-107098215D01*
X85843239Y-106999288D01*
X85882676Y-106941612D01*
X85947034Y-106914413D01*
X86015880Y-106926327D01*
X86067357Y-106973571D01*
X86079100Y-106999284D01*
X86080127Y-107002446D01*
X86141382Y-107122665D01*
X86158768Y-107156788D01*
X86260586Y-107296928D01*
X86383072Y-107419414D01*
X86523212Y-107521232D01*
X86677555Y-107599873D01*
X86842299Y-107653402D01*
X87013389Y-107680500D01*
X87013390Y-107680500D01*
X87186610Y-107680500D01*
X87186611Y-107680500D01*
X87357701Y-107653402D01*
X87522445Y-107599873D01*
X87676788Y-107521232D01*
X87816928Y-107419414D01*
X87939414Y-107296928D01*
X88041232Y-107156788D01*
X88119873Y-107002445D01*
X88173402Y-106837701D01*
X88200500Y-106666611D01*
X88200500Y-106493389D01*
X88173402Y-106322299D01*
X88119873Y-106157555D01*
X88041232Y-106003212D01*
X87939414Y-105863072D01*
X87816928Y-105740586D01*
X87676788Y-105638768D01*
X87522445Y-105560127D01*
X87357701Y-105506598D01*
X87357699Y-105506597D01*
X87357698Y-105506597D01*
X87226271Y-105485781D01*
X87186611Y-105479500D01*
X87013389Y-105479500D01*
X86973728Y-105485781D01*
X86842302Y-105506597D01*
X86677552Y-105560128D01*
X86523211Y-105638768D01*
X86503846Y-105652838D01*
X86383072Y-105740586D01*
X86383070Y-105740588D01*
X86383069Y-105740588D01*
X86260588Y-105863069D01*
X86260588Y-105863070D01*
X86260586Y-105863072D01*
X86249512Y-105878314D01*
X86158768Y-106003211D01*
X86080128Y-106157550D01*
X86079099Y-106160720D01*
X86078381Y-106161769D01*
X86078266Y-106162048D01*
X86078207Y-106162023D01*
X86039657Y-106218393D01*
X85975297Y-106245587D01*
X85906451Y-106233668D01*
X85854979Y-106186420D01*
X85843239Y-106160711D01*
X85811096Y-106061784D01*
X85714624Y-105872449D01*
X85675270Y-105818282D01*
X85675269Y-105818282D01*
X85042962Y-106450590D01*
X85025925Y-106387007D01*
X84960099Y-106272993D01*
X84867007Y-106179901D01*
X84752993Y-106114075D01*
X84689409Y-106097037D01*
X85321716Y-105464728D01*
X85267550Y-105425375D01*
X85078217Y-105328904D01*
X84979287Y-105296760D01*
X84921611Y-105257323D01*
X84894413Y-105192964D01*
X84906328Y-105124118D01*
X84953572Y-105072642D01*
X84979290Y-105060897D01*
X84982445Y-105059873D01*
X85136788Y-104981232D01*
X85276928Y-104879414D01*
X85399414Y-104756928D01*
X85501232Y-104616788D01*
X85579873Y-104462445D01*
X85633402Y-104297701D01*
X85660500Y-104126611D01*
X85660500Y-103953389D01*
X85633402Y-103782299D01*
X85579873Y-103617555D01*
X85501232Y-103463212D01*
X85399414Y-103323072D01*
X85276928Y-103200586D01*
X85136788Y-103098768D01*
X84982445Y-103020127D01*
X84817701Y-102966598D01*
X84817699Y-102966597D01*
X84817698Y-102966597D01*
X84686271Y-102945781D01*
X84646611Y-102939500D01*
X84473389Y-102939500D01*
X84416359Y-102948532D01*
X84302297Y-102966598D01*
X84302294Y-102966598D01*
X84239767Y-102986915D01*
X84169926Y-102988910D01*
X84113768Y-102956665D01*
X83969284Y-102812181D01*
X83935799Y-102750858D01*
X83940783Y-102681166D01*
X83982655Y-102625233D01*
X84048119Y-102600816D01*
X84056965Y-102600500D01*
X85434676Y-102600500D01*
X85434677Y-102600499D01*
X85507740Y-102585966D01*
X85590601Y-102530601D01*
X85645966Y-102447740D01*
X85660500Y-102374674D01*
X85660500Y-102164949D01*
X85680185Y-102097910D01*
X85732989Y-102052155D01*
X85802147Y-102042211D01*
X85865703Y-102071236D01*
X85894985Y-102108654D01*
X85945375Y-102207550D01*
X85984728Y-102261716D01*
X86617037Y-101629408D01*
X86634075Y-101692993D01*
X86699901Y-101807007D01*
X86792993Y-101900099D01*
X86907007Y-101965925D01*
X86970590Y-101982962D01*
X86338282Y-102615269D01*
X86338282Y-102615270D01*
X86392449Y-102654624D01*
X86581784Y-102751096D01*
X86680711Y-102783239D01*
X86738387Y-102822676D01*
X86765586Y-102887034D01*
X86753672Y-102955881D01*
X86706428Y-103007357D01*
X86680722Y-103019097D01*
X86679522Y-103019487D01*
X86677550Y-103020128D01*
X86523211Y-103098768D01*
X86443256Y-103156859D01*
X86383072Y-103200586D01*
X86383070Y-103200588D01*
X86383069Y-103200588D01*
X86260588Y-103323069D01*
X86260588Y-103323070D01*
X86260586Y-103323072D01*
X86216859Y-103383256D01*
X86158768Y-103463211D01*
X86080128Y-103617552D01*
X86026597Y-103782302D01*
X85999500Y-103953389D01*
X85999500Y-104126610D01*
X86026597Y-104297697D01*
X86026597Y-104297699D01*
X86026598Y-104297701D01*
X86080127Y-104462445D01*
X86158768Y-104616788D01*
X86260586Y-104756928D01*
X86383072Y-104879414D01*
X86523212Y-104981232D01*
X86677555Y-105059873D01*
X86842299Y-105113402D01*
X87013389Y-105140500D01*
X87013390Y-105140500D01*
X87186610Y-105140500D01*
X87186611Y-105140500D01*
X87357701Y-105113402D01*
X87420231Y-105093083D01*
X87490070Y-105091087D01*
X87546230Y-105123333D01*
X90183386Y-107760489D01*
X90286113Y-107819799D01*
X90310321Y-107826284D01*
X90310324Y-107826286D01*
X90310325Y-107826286D01*
X90340447Y-107834357D01*
X90400691Y-107850500D01*
X90400693Y-107850500D01*
X168759308Y-107850500D01*
X168759309Y-107850500D01*
X168832764Y-107830817D01*
X175774500Y-107830817D01*
X175774500Y-107969182D01*
X175810312Y-108102835D01*
X175810313Y-108102838D01*
X175879492Y-108222661D01*
X175879494Y-108222664D01*
X175879495Y-108222665D01*
X175977335Y-108320505D01*
X175977336Y-108320506D01*
X175977338Y-108320507D01*
X176037249Y-108355096D01*
X176097164Y-108389688D01*
X176230817Y-108425500D01*
X176230819Y-108425500D01*
X176369181Y-108425500D01*
X176369183Y-108425500D01*
X176502836Y-108389688D01*
X176622665Y-108320505D01*
X176656351Y-108286819D01*
X176717674Y-108253334D01*
X176744032Y-108250500D01*
X180785968Y-108250500D01*
X180853007Y-108270185D01*
X180873649Y-108286819D01*
X180907335Y-108320505D01*
X180907336Y-108320506D01*
X180907338Y-108320507D01*
X180967249Y-108355096D01*
X181027164Y-108389688D01*
X181160817Y-108425500D01*
X181160819Y-108425500D01*
X181299181Y-108425500D01*
X181299183Y-108425500D01*
X181432836Y-108389688D01*
X181552665Y-108320505D01*
X181586351Y-108286819D01*
X181647674Y-108253334D01*
X181674032Y-108250500D01*
X183096142Y-108250500D01*
X183096144Y-108250500D01*
X183185288Y-108226614D01*
X183195912Y-108220480D01*
X183265212Y-108180470D01*
X185458863Y-105986819D01*
X185520186Y-105953334D01*
X185546544Y-105950500D01*
X199971190Y-105950500D01*
X200003283Y-105954725D01*
X200080817Y-105975500D01*
X200080819Y-105975500D01*
X200219181Y-105975500D01*
X200219183Y-105975500D01*
X200352836Y-105939688D01*
X200472665Y-105870505D01*
X200570505Y-105772665D01*
X200639688Y-105652836D01*
X200675500Y-105519183D01*
X200675500Y-105380817D01*
X200639688Y-105247164D01*
X200570505Y-105127335D01*
X200472665Y-105029495D01*
X200472664Y-105029494D01*
X200472661Y-105029492D01*
X200352838Y-104960313D01*
X200352837Y-104960312D01*
X200352836Y-104960312D01*
X200219183Y-104924500D01*
X200170544Y-104924500D01*
X200149298Y-104918261D01*
X200127210Y-104916682D01*
X200116426Y-104908609D01*
X200103505Y-104904815D01*
X200089005Y-104888081D01*
X200071277Y-104874810D01*
X200066569Y-104862189D01*
X200057750Y-104852011D01*
X200054598Y-104830093D01*
X200046860Y-104809346D01*
X200049722Y-104796185D01*
X200047806Y-104782853D01*
X200057005Y-104762709D01*
X200061712Y-104741073D01*
X200074980Y-104723347D01*
X200076831Y-104719297D01*
X200082863Y-104712819D01*
X200083863Y-104711819D01*
X200145186Y-104678334D01*
X200171544Y-104675500D01*
X200219181Y-104675500D01*
X200219183Y-104675500D01*
X200352836Y-104639688D01*
X200472665Y-104570505D01*
X200570505Y-104472665D01*
X200639688Y-104352836D01*
X200675500Y-104219183D01*
X200675500Y-104080817D01*
X200639688Y-103947164D01*
X200570505Y-103827335D01*
X200472665Y-103729495D01*
X200472664Y-103729494D01*
X200472661Y-103729492D01*
X200352838Y-103660313D01*
X200352837Y-103660312D01*
X200352836Y-103660312D01*
X200219183Y-103624500D01*
X200080817Y-103624500D01*
X199947164Y-103660312D01*
X199947161Y-103660313D01*
X199827338Y-103729492D01*
X199827333Y-103729496D01*
X199729496Y-103827333D01*
X199729492Y-103827338D01*
X199660313Y-103947161D01*
X199660312Y-103947164D01*
X199624500Y-104080817D01*
X199624500Y-104128456D01*
X199604815Y-104195495D01*
X199588181Y-104216137D01*
X199091137Y-104713181D01*
X199029814Y-104746666D01*
X199003456Y-104749500D01*
X185003856Y-104749500D01*
X184914712Y-104773386D01*
X184914709Y-104773387D01*
X184834791Y-104819527D01*
X184834786Y-104819531D01*
X183241137Y-106413181D01*
X183214209Y-106427884D01*
X183188391Y-106444477D01*
X183182190Y-106445368D01*
X183179814Y-106446666D01*
X183153456Y-106449500D01*
X182944032Y-106449500D01*
X182876993Y-106429815D01*
X182856351Y-106413181D01*
X182822666Y-106379496D01*
X182822661Y-106379492D01*
X182702838Y-106310313D01*
X182702837Y-106310312D01*
X182702836Y-106310312D01*
X182569183Y-106274500D01*
X182430817Y-106274500D01*
X182297164Y-106310312D01*
X182297161Y-106310313D01*
X182177338Y-106379492D01*
X182177333Y-106379496D01*
X182143649Y-106413181D01*
X182082326Y-106446666D01*
X182055968Y-106449500D01*
X177444032Y-106449500D01*
X177376993Y-106429815D01*
X177356351Y-106413181D01*
X177322666Y-106379496D01*
X177322661Y-106379492D01*
X177202838Y-106310313D01*
X177202837Y-106310312D01*
X177202836Y-106310312D01*
X177069183Y-106274500D01*
X176930817Y-106274500D01*
X176797164Y-106310312D01*
X176797161Y-106310313D01*
X176677338Y-106379492D01*
X176677333Y-106379496D01*
X176579496Y-106477333D01*
X176579492Y-106477338D01*
X176510313Y-106597161D01*
X176510312Y-106597164D01*
X176474500Y-106730817D01*
X176474500Y-106869183D01*
X176510208Y-107002445D01*
X176510312Y-107002835D01*
X176510313Y-107002838D01*
X176579492Y-107122661D01*
X176579494Y-107122664D01*
X176579495Y-107122665D01*
X176677335Y-107220505D01*
X176797164Y-107289688D01*
X176857018Y-107305725D01*
X176916678Y-107342090D01*
X176947207Y-107404937D01*
X176938912Y-107474312D01*
X176894427Y-107528190D01*
X176827875Y-107549465D01*
X176824924Y-107549500D01*
X176744032Y-107549500D01*
X176676993Y-107529815D01*
X176656351Y-107513181D01*
X176622666Y-107479496D01*
X176622661Y-107479492D01*
X176502838Y-107410313D01*
X176502837Y-107410312D01*
X176502836Y-107410312D01*
X176369183Y-107374500D01*
X176230817Y-107374500D01*
X176097164Y-107410312D01*
X176097161Y-107410313D01*
X175977338Y-107479492D01*
X175977333Y-107479496D01*
X175879496Y-107577333D01*
X175879492Y-107577338D01*
X175810313Y-107697161D01*
X175810312Y-107697164D01*
X175774500Y-107830817D01*
X168832764Y-107830817D01*
X168849673Y-107826286D01*
X168873887Y-107819799D01*
X168976614Y-107760489D01*
X172310489Y-104426614D01*
X172369799Y-104323887D01*
X172385581Y-104264986D01*
X172400500Y-104209309D01*
X172400500Y-99580817D01*
X196274500Y-99580817D01*
X196274500Y-99719183D01*
X196303198Y-99826284D01*
X196310312Y-99852835D01*
X196310313Y-99852838D01*
X196379492Y-99972661D01*
X196379494Y-99972664D01*
X196379495Y-99972665D01*
X196477335Y-100070505D01*
X196477336Y-100070506D01*
X196477338Y-100070507D01*
X196487914Y-100076613D01*
X196597164Y-100139688D01*
X196730817Y-100175500D01*
X196730819Y-100175500D01*
X196869181Y-100175500D01*
X196869183Y-100175500D01*
X197002836Y-100139688D01*
X197041937Y-100117112D01*
X197103937Y-100100500D01*
X197796063Y-100100500D01*
X197858062Y-100117112D01*
X197897164Y-100139688D01*
X198030817Y-100175500D01*
X198030819Y-100175500D01*
X198169181Y-100175500D01*
X198169183Y-100175500D01*
X198302836Y-100139688D01*
X198422665Y-100070505D01*
X198520505Y-99972665D01*
X198589688Y-99852836D01*
X198625500Y-99719183D01*
X198625500Y-99580817D01*
X198589688Y-99447164D01*
X198551383Y-99380817D01*
X198520507Y-99327338D01*
X198520503Y-99327333D01*
X198422666Y-99229496D01*
X198422661Y-99229492D01*
X198302838Y-99160313D01*
X198302837Y-99160312D01*
X198302836Y-99160312D01*
X198169183Y-99124500D01*
X198030817Y-99124500D01*
X197897164Y-99160312D01*
X197897161Y-99160313D01*
X197858063Y-99182887D01*
X197796063Y-99199500D01*
X197103937Y-99199500D01*
X197041937Y-99182887D01*
X197035703Y-99179288D01*
X197002836Y-99160312D01*
X196869183Y-99124500D01*
X196730817Y-99124500D01*
X196597164Y-99160312D01*
X196597161Y-99160313D01*
X196477338Y-99229492D01*
X196477333Y-99229496D01*
X196379496Y-99327333D01*
X196379492Y-99327338D01*
X196310313Y-99447161D01*
X196310312Y-99447164D01*
X196274500Y-99580817D01*
X172400500Y-99580817D01*
X172400500Y-98630817D01*
X199224500Y-98630817D01*
X199224500Y-98769183D01*
X199256328Y-98887965D01*
X199260312Y-98902835D01*
X199260313Y-98902838D01*
X199329492Y-99022661D01*
X199329494Y-99022664D01*
X199329495Y-99022665D01*
X199427335Y-99120505D01*
X199427336Y-99120506D01*
X199427338Y-99120507D01*
X199471601Y-99146062D01*
X199547164Y-99189688D01*
X199680817Y-99225500D01*
X199680819Y-99225500D01*
X199819181Y-99225500D01*
X199819183Y-99225500D01*
X199952836Y-99189688D01*
X199991937Y-99167112D01*
X200053937Y-99150500D01*
X209421807Y-99150500D01*
X209421809Y-99150500D01*
X209518842Y-99124500D01*
X209536387Y-99119799D01*
X209639114Y-99060489D01*
X209828635Y-98870966D01*
X209884223Y-98838874D01*
X209927833Y-98827189D01*
X209927833Y-98827188D01*
X209927836Y-98827188D01*
X210047665Y-98758005D01*
X210145505Y-98660165D01*
X210214688Y-98540336D01*
X210226256Y-98497164D01*
X210226374Y-98496723D01*
X210258466Y-98441135D01*
X210760489Y-97939114D01*
X210819799Y-97836387D01*
X210835767Y-97776793D01*
X210850500Y-97721809D01*
X210850500Y-95803937D01*
X210867113Y-95741936D01*
X210889688Y-95702836D01*
X210925500Y-95569183D01*
X210925500Y-95430817D01*
X210889688Y-95297164D01*
X210820505Y-95177335D01*
X210722665Y-95079495D01*
X210722664Y-95079494D01*
X210722661Y-95079492D01*
X210602838Y-95010313D01*
X210602837Y-95010312D01*
X210602836Y-95010312D01*
X210469183Y-94974500D01*
X210330817Y-94974500D01*
X210197164Y-95010312D01*
X210197161Y-95010313D01*
X210077338Y-95079492D01*
X210077333Y-95079496D01*
X209979496Y-95177333D01*
X209979492Y-95177338D01*
X209910313Y-95297161D01*
X209910312Y-95297164D01*
X209874500Y-95430817D01*
X209874500Y-95569183D01*
X209889715Y-95625966D01*
X209910312Y-95702836D01*
X209932887Y-95741936D01*
X209949500Y-95803937D01*
X209949500Y-97424534D01*
X209929815Y-97491573D01*
X209913181Y-97512215D01*
X209621364Y-97804031D01*
X209565779Y-97836124D01*
X209522165Y-97847811D01*
X209522160Y-97847813D01*
X209402338Y-97916992D01*
X209402333Y-97916996D01*
X209304496Y-98014833D01*
X209304492Y-98014838D01*
X209235313Y-98134660D01*
X209235312Y-98134661D01*
X209229168Y-98157594D01*
X209192802Y-98217255D01*
X209129955Y-98247783D01*
X209109393Y-98249500D01*
X200053937Y-98249500D01*
X199991937Y-98232887D01*
X199952838Y-98210313D01*
X199952837Y-98210312D01*
X199952836Y-98210312D01*
X199819183Y-98174500D01*
X199680817Y-98174500D01*
X199547164Y-98210312D01*
X199547161Y-98210313D01*
X199427338Y-98279492D01*
X199427333Y-98279496D01*
X199329496Y-98377333D01*
X199329492Y-98377338D01*
X199260313Y-98497161D01*
X199260312Y-98497164D01*
X199224500Y-98630817D01*
X172400500Y-98630817D01*
X172400500Y-91803937D01*
X172407586Y-91762621D01*
X172411396Y-91751837D01*
X172439688Y-91702836D01*
X172474104Y-91574389D01*
X172475712Y-91569842D01*
X172493442Y-91545282D01*
X172509215Y-91519405D01*
X172513694Y-91517228D01*
X172516609Y-91513192D01*
X172544804Y-91502116D01*
X172572062Y-91488875D01*
X172577007Y-91489466D01*
X172581641Y-91487646D01*
X172611345Y-91493571D01*
X172641438Y-91497169D01*
X172646476Y-91500579D01*
X172650160Y-91501314D01*
X172656241Y-91507188D01*
X172680307Y-91523477D01*
X172777335Y-91620505D01*
X172777336Y-91620506D01*
X172777338Y-91620507D01*
X172817193Y-91643517D01*
X172897164Y-91689688D01*
X173030817Y-91725500D01*
X173144230Y-91725500D01*
X173176321Y-91729724D01*
X173253856Y-91750500D01*
X173253857Y-91750500D01*
X173253858Y-91750500D01*
X181146142Y-91750500D01*
X181146144Y-91750500D01*
X181235288Y-91726614D01*
X181315212Y-91680470D01*
X182133863Y-90861819D01*
X182195186Y-90828334D01*
X182221544Y-90825500D01*
X182269181Y-90825500D01*
X182269183Y-90825500D01*
X182402836Y-90789688D01*
X182522665Y-90720505D01*
X182620505Y-90622665D01*
X182673533Y-90530817D01*
X186624500Y-90530817D01*
X186624500Y-90669183D01*
X186656789Y-90789686D01*
X186660312Y-90802835D01*
X186660313Y-90802838D01*
X186729492Y-90922661D01*
X186729494Y-90922663D01*
X186729495Y-90922665D01*
X186827335Y-91020505D01*
X186827336Y-91020506D01*
X186827338Y-91020507D01*
X186872647Y-91046666D01*
X186947164Y-91089688D01*
X187080817Y-91125500D01*
X187080819Y-91125500D01*
X187219181Y-91125500D01*
X187219183Y-91125500D01*
X187352836Y-91089688D01*
X187472665Y-91020505D01*
X187570505Y-90922665D01*
X187638935Y-90804139D01*
X187658635Y-90778466D01*
X188600284Y-89836819D01*
X188661607Y-89803334D01*
X188687965Y-89800500D01*
X190046063Y-89800500D01*
X190108062Y-89817112D01*
X190147164Y-89839688D01*
X190280817Y-89875500D01*
X190280819Y-89875500D01*
X190419181Y-89875500D01*
X190419183Y-89875500D01*
X190552836Y-89839688D01*
X190672665Y-89770505D01*
X190770505Y-89672665D01*
X190839688Y-89552836D01*
X190875500Y-89419183D01*
X190875500Y-89280817D01*
X190839688Y-89147164D01*
X190770505Y-89027335D01*
X190672665Y-88929495D01*
X190672664Y-88929494D01*
X190672661Y-88929492D01*
X190552838Y-88860313D01*
X190552837Y-88860312D01*
X190552836Y-88860312D01*
X190419183Y-88824500D01*
X190280817Y-88824500D01*
X190147164Y-88860312D01*
X190147161Y-88860313D01*
X190108063Y-88882887D01*
X190046063Y-88899500D01*
X188390691Y-88899500D01*
X188300325Y-88923713D01*
X188300324Y-88923712D01*
X188276116Y-88930199D01*
X188276113Y-88930200D01*
X188173386Y-88989511D01*
X188173383Y-88989513D01*
X187114665Y-90048231D01*
X187059078Y-90080325D01*
X186947162Y-90110312D01*
X186947161Y-90110313D01*
X186827338Y-90179492D01*
X186827333Y-90179496D01*
X186729496Y-90277333D01*
X186729492Y-90277338D01*
X186660313Y-90397161D01*
X186660312Y-90397164D01*
X186624500Y-90530817D01*
X182673533Y-90530817D01*
X182689688Y-90502836D01*
X182725500Y-90369183D01*
X182725500Y-90230817D01*
X182689688Y-90097164D01*
X182620505Y-89977335D01*
X182522665Y-89879495D01*
X182522664Y-89879494D01*
X182522661Y-89879492D01*
X182402838Y-89810313D01*
X182402837Y-89810312D01*
X182402836Y-89810312D01*
X182269183Y-89774500D01*
X182130817Y-89774500D01*
X181997164Y-89810312D01*
X181997161Y-89810313D01*
X181877338Y-89879492D01*
X181877333Y-89879496D01*
X181779496Y-89977333D01*
X181779492Y-89977338D01*
X181710313Y-90097161D01*
X181710312Y-90097164D01*
X181674500Y-90230817D01*
X181674500Y-90278456D01*
X181654815Y-90345495D01*
X181638181Y-90366137D01*
X180991137Y-91013181D01*
X180929814Y-91046666D01*
X180903456Y-91049500D01*
X180025076Y-91049500D01*
X179958037Y-91029815D01*
X179912282Y-90977011D01*
X179902338Y-90907853D01*
X179931363Y-90844297D01*
X179990141Y-90806523D01*
X179992946Y-90805735D01*
X180052836Y-90789688D01*
X180172665Y-90720505D01*
X180270505Y-90622665D01*
X180339688Y-90502836D01*
X180375500Y-90369183D01*
X180375500Y-90230817D01*
X180339688Y-90097164D01*
X180270505Y-89977335D01*
X180172665Y-89879495D01*
X180172664Y-89879494D01*
X180172661Y-89879492D01*
X180054146Y-89811068D01*
X180028465Y-89791362D01*
X178476616Y-88239513D01*
X178476614Y-88239511D01*
X178425250Y-88209856D01*
X178373888Y-88180201D01*
X178361780Y-88176957D01*
X178349673Y-88173713D01*
X178349670Y-88173712D01*
X178311478Y-88163478D01*
X178259309Y-88149500D01*
X178259308Y-88149500D01*
X168687966Y-88149500D01*
X168620927Y-88129815D01*
X168600285Y-88113181D01*
X168017921Y-87530817D01*
X180424500Y-87530817D01*
X180424500Y-87669182D01*
X180460312Y-87802835D01*
X180460313Y-87802838D01*
X180529492Y-87922661D01*
X180529494Y-87922664D01*
X180529495Y-87922665D01*
X180627335Y-88020505D01*
X180747164Y-88089688D01*
X180880817Y-88125500D01*
X180880819Y-88125500D01*
X181019181Y-88125500D01*
X181019183Y-88125500D01*
X181152836Y-88089688D01*
X181191937Y-88067112D01*
X181207425Y-88062962D01*
X181219002Y-88055523D01*
X181253937Y-88050500D01*
X181362035Y-88050500D01*
X181429074Y-88070185D01*
X181449716Y-88086819D01*
X182523386Y-89160489D01*
X182575698Y-89190691D01*
X182575700Y-89190693D01*
X182626108Y-89219796D01*
X182626109Y-89219797D01*
X182626111Y-89219797D01*
X182626114Y-89219799D01*
X182740691Y-89250500D01*
X185596063Y-89250500D01*
X185658062Y-89267112D01*
X185697164Y-89289688D01*
X185830817Y-89325500D01*
X185830819Y-89325500D01*
X185969181Y-89325500D01*
X185969183Y-89325500D01*
X186102836Y-89289688D01*
X186222665Y-89220505D01*
X186320505Y-89122665D01*
X186389688Y-89002836D01*
X186425500Y-88869183D01*
X186425500Y-88730817D01*
X186389688Y-88597164D01*
X186320505Y-88477335D01*
X186222665Y-88379495D01*
X186222664Y-88379494D01*
X186222661Y-88379492D01*
X186102838Y-88310313D01*
X186102837Y-88310312D01*
X186102836Y-88310312D01*
X185969183Y-88274500D01*
X185830817Y-88274500D01*
X185697164Y-88310312D01*
X185697161Y-88310313D01*
X185658063Y-88332887D01*
X185596063Y-88349500D01*
X183037965Y-88349500D01*
X182970926Y-88329815D01*
X182950284Y-88313181D01*
X181876616Y-87239513D01*
X181876614Y-87239511D01*
X181813090Y-87202835D01*
X181773888Y-87180201D01*
X181761780Y-87176957D01*
X181749673Y-87173713D01*
X181749670Y-87173712D01*
X181711478Y-87163478D01*
X181659309Y-87149500D01*
X181659308Y-87149500D01*
X181253937Y-87149500D01*
X181191937Y-87132887D01*
X181152838Y-87110313D01*
X181152837Y-87110312D01*
X181152836Y-87110312D01*
X181019183Y-87074500D01*
X180880817Y-87074500D01*
X180747164Y-87110312D01*
X180747161Y-87110313D01*
X180627338Y-87179492D01*
X180627333Y-87179496D01*
X180529496Y-87277333D01*
X180529492Y-87277338D01*
X180460313Y-87397161D01*
X180460312Y-87397164D01*
X180424500Y-87530817D01*
X168017921Y-87530817D01*
X166467921Y-85980817D01*
X168174500Y-85980817D01*
X168174500Y-86119183D01*
X168181998Y-86147164D01*
X168210312Y-86252835D01*
X168210313Y-86252838D01*
X168279492Y-86372661D01*
X168279494Y-86372664D01*
X168279495Y-86372665D01*
X168377335Y-86470505D01*
X168377336Y-86470506D01*
X168377338Y-86470507D01*
X168437249Y-86505096D01*
X168497164Y-86539688D01*
X168630817Y-86575500D01*
X168630819Y-86575500D01*
X168769181Y-86575500D01*
X168769183Y-86575500D01*
X168902836Y-86539688D01*
X169022665Y-86470505D01*
X169120505Y-86372665D01*
X169189688Y-86252836D01*
X169225500Y-86119183D01*
X169225500Y-86071544D01*
X169245185Y-86004505D01*
X169261819Y-85983863D01*
X170664865Y-84580817D01*
X180424500Y-84580817D01*
X180424500Y-84719182D01*
X180460312Y-84852835D01*
X180460313Y-84852838D01*
X180529492Y-84972661D01*
X180529494Y-84972664D01*
X180529495Y-84972665D01*
X180627335Y-85070505D01*
X180747164Y-85139688D01*
X180880817Y-85175500D01*
X180880819Y-85175500D01*
X181019181Y-85175500D01*
X181019183Y-85175500D01*
X181152836Y-85139688D01*
X181272665Y-85070505D01*
X181306351Y-85036819D01*
X181367674Y-85003334D01*
X181394032Y-85000500D01*
X191624924Y-85000500D01*
X191691963Y-85020185D01*
X191737718Y-85072989D01*
X191747662Y-85142147D01*
X191718637Y-85205703D01*
X191659859Y-85243477D01*
X191657053Y-85244264D01*
X191597164Y-85260312D01*
X191597161Y-85260313D01*
X191477338Y-85329492D01*
X191477333Y-85329496D01*
X191379496Y-85427333D01*
X191379492Y-85427338D01*
X191310313Y-85547161D01*
X191310312Y-85547164D01*
X191274500Y-85680817D01*
X191274500Y-85819183D01*
X191304057Y-85929492D01*
X191310312Y-85952836D01*
X191332887Y-85991936D01*
X191349500Y-86053937D01*
X191349500Y-93309305D01*
X191349499Y-93309306D01*
X191368661Y-93380817D01*
X191368660Y-93380817D01*
X191368661Y-93380819D01*
X191380199Y-93423883D01*
X191380200Y-93423885D01*
X191380201Y-93423887D01*
X191439511Y-93526614D01*
X192673386Y-94760490D01*
X192742687Y-94800500D01*
X192776114Y-94819799D01*
X192890691Y-94850500D01*
X195496063Y-94850500D01*
X195558062Y-94867112D01*
X195597164Y-94889688D01*
X195730817Y-94925500D01*
X195730819Y-94925500D01*
X195869181Y-94925500D01*
X195869183Y-94925500D01*
X196002836Y-94889688D01*
X196122665Y-94820505D01*
X196220505Y-94722665D01*
X196289688Y-94602836D01*
X196325500Y-94469183D01*
X196325500Y-94330817D01*
X196289688Y-94197164D01*
X196220505Y-94077335D01*
X196122665Y-93979495D01*
X196122664Y-93979494D01*
X196122661Y-93979492D01*
X196002838Y-93910313D01*
X196002837Y-93910312D01*
X196002836Y-93910312D01*
X195869183Y-93874500D01*
X195730817Y-93874500D01*
X195597164Y-93910312D01*
X195597161Y-93910313D01*
X195558063Y-93932887D01*
X195496063Y-93949500D01*
X193187966Y-93949500D01*
X193120927Y-93929815D01*
X193100285Y-93913181D01*
X192286819Y-93099715D01*
X192253334Y-93038392D01*
X192250500Y-93012034D01*
X192250500Y-91880817D01*
X197074500Y-91880817D01*
X197074500Y-92019183D01*
X197109926Y-92151393D01*
X197110312Y-92152835D01*
X197110313Y-92152838D01*
X197179493Y-92272662D01*
X197180916Y-92274517D01*
X197181629Y-92276362D01*
X197183558Y-92279703D01*
X197183036Y-92280003D01*
X197206107Y-92339688D01*
X197192066Y-92408132D01*
X197180916Y-92425483D01*
X197179493Y-92427337D01*
X197110313Y-92547161D01*
X197110312Y-92547164D01*
X197074500Y-92680817D01*
X197074500Y-92819182D01*
X197110312Y-92952836D01*
X197132887Y-92991936D01*
X197149500Y-93053937D01*
X197149500Y-93259311D01*
X197162897Y-93309305D01*
X197162898Y-93309309D01*
X197180199Y-93373885D01*
X197209069Y-93423887D01*
X197239511Y-93476614D01*
X197673386Y-93910490D01*
X197673388Y-93910491D01*
X197673392Y-93910494D01*
X197764702Y-93963211D01*
X197776113Y-93969799D01*
X197797386Y-93975499D01*
X197797388Y-93975500D01*
X197797389Y-93975500D01*
X197812288Y-93979492D01*
X197890691Y-94000500D01*
X198022630Y-94000500D01*
X198089669Y-94020185D01*
X198135424Y-94072989D01*
X198145368Y-94142147D01*
X198145335Y-94142377D01*
X198144427Y-94148606D01*
X198144427Y-94148607D01*
X198134500Y-94216740D01*
X198134500Y-94216745D01*
X198134500Y-94483260D01*
X198144426Y-94551391D01*
X198195803Y-94656485D01*
X198278514Y-94739196D01*
X198278515Y-94739196D01*
X198278517Y-94739198D01*
X198383607Y-94790573D01*
X198417673Y-94795536D01*
X198451739Y-94800500D01*
X198451740Y-94800500D01*
X199158261Y-94800500D01*
X199180971Y-94797191D01*
X199226393Y-94790573D01*
X199331483Y-94739198D01*
X199414198Y-94656483D01*
X199465573Y-94551393D01*
X199475500Y-94483260D01*
X199475500Y-94216740D01*
X199465573Y-94148607D01*
X199414198Y-94043517D01*
X199408363Y-94037682D01*
X199374878Y-93976363D01*
X199379860Y-93906671D01*
X199408363Y-93862317D01*
X199414198Y-93856483D01*
X199465573Y-93751393D01*
X199475500Y-93683260D01*
X199475500Y-93416740D01*
X199465573Y-93348607D01*
X199414198Y-93243517D01*
X199408363Y-93237682D01*
X199374878Y-93176363D01*
X199379860Y-93106671D01*
X199408363Y-93062317D01*
X199414198Y-93056483D01*
X199465573Y-92951393D01*
X199475500Y-92883260D01*
X199475500Y-92616740D01*
X199465573Y-92548607D01*
X199414198Y-92443517D01*
X199408363Y-92437682D01*
X199374878Y-92376363D01*
X199379860Y-92306671D01*
X199408363Y-92262317D01*
X199414198Y-92256483D01*
X199465573Y-92151393D01*
X199465776Y-92150001D01*
X200282988Y-92150001D01*
X200290442Y-92206627D01*
X200290444Y-92206633D01*
X200350899Y-92352585D01*
X200447077Y-92477927D01*
X200477201Y-92501042D01*
X200518404Y-92557470D01*
X200523913Y-92612202D01*
X200524824Y-92612269D01*
X200524500Y-92616737D01*
X200524500Y-92883260D01*
X200534426Y-92951391D01*
X200585803Y-93056485D01*
X200591637Y-93062319D01*
X200625122Y-93123642D01*
X200620138Y-93193334D01*
X200591637Y-93237681D01*
X200585803Y-93243514D01*
X200534426Y-93348608D01*
X200524500Y-93416739D01*
X200524500Y-93683260D01*
X200534426Y-93751391D01*
X200534427Y-93751393D01*
X200569467Y-93823070D01*
X200585803Y-93856485D01*
X200591637Y-93862319D01*
X200625122Y-93923642D01*
X200620138Y-93993334D01*
X200591637Y-94037681D01*
X200585803Y-94043514D01*
X200534426Y-94148608D01*
X200524500Y-94216739D01*
X200524500Y-94483260D01*
X200534426Y-94551391D01*
X200585803Y-94656485D01*
X200668514Y-94739196D01*
X200668515Y-94739196D01*
X200668517Y-94739198D01*
X200773607Y-94790573D01*
X200807673Y-94795536D01*
X200841739Y-94800500D01*
X200841740Y-94800500D01*
X201548261Y-94800500D01*
X201570971Y-94797191D01*
X201616393Y-94790573D01*
X201721483Y-94739198D01*
X201804198Y-94656483D01*
X201855573Y-94551393D01*
X201865500Y-94483260D01*
X201865500Y-94216740D01*
X201855573Y-94148607D01*
X201804198Y-94043517D01*
X201798363Y-94037682D01*
X201764878Y-93976363D01*
X201769860Y-93906671D01*
X201798363Y-93862317D01*
X201804198Y-93856483D01*
X201855573Y-93751393D01*
X201865500Y-93683260D01*
X201865500Y-93416740D01*
X201855573Y-93348607D01*
X201804198Y-93243517D01*
X201798363Y-93237682D01*
X201764878Y-93176363D01*
X201769860Y-93106671D01*
X201798363Y-93062317D01*
X201804198Y-93056483D01*
X201855573Y-92951393D01*
X201865500Y-92883260D01*
X201865500Y-92616740D01*
X201865500Y-92616737D01*
X201865176Y-92612269D01*
X201866304Y-92612187D01*
X201875394Y-92548117D01*
X201912801Y-92501040D01*
X201942924Y-92477926D01*
X202039098Y-92352589D01*
X202039099Y-92352587D01*
X202099555Y-92206631D01*
X202107012Y-92150000D01*
X200282990Y-92150000D01*
X200282988Y-92150001D01*
X199465776Y-92150001D01*
X199475500Y-92083260D01*
X199475500Y-91816740D01*
X199475500Y-91816737D01*
X199475176Y-91812269D01*
X199476304Y-91812187D01*
X199485394Y-91748117D01*
X199522801Y-91701040D01*
X199552924Y-91677926D01*
X199649098Y-91552589D01*
X199649099Y-91552587D01*
X199709555Y-91406631D01*
X199717012Y-91350000D01*
X197892990Y-91350000D01*
X197877386Y-91367792D01*
X197876351Y-91374430D01*
X197829971Y-91426685D01*
X197762702Y-91445570D01*
X197732086Y-91441354D01*
X197669184Y-91424500D01*
X197669183Y-91424500D01*
X197530817Y-91424500D01*
X197397164Y-91460312D01*
X197397161Y-91460313D01*
X197277338Y-91529492D01*
X197277333Y-91529496D01*
X197179496Y-91627333D01*
X197179492Y-91627338D01*
X197110313Y-91747161D01*
X197110312Y-91747164D01*
X197074500Y-91880817D01*
X192250500Y-91880817D01*
X192250500Y-90280817D01*
X197124500Y-90280817D01*
X197124500Y-90419183D01*
X197159926Y-90551393D01*
X197160312Y-90552835D01*
X197160313Y-90552838D01*
X197229492Y-90672661D01*
X197229494Y-90672664D01*
X197229495Y-90672665D01*
X197327335Y-90770505D01*
X197327336Y-90770506D01*
X197327338Y-90770507D01*
X197377556Y-90799500D01*
X197447164Y-90839688D01*
X197580817Y-90875500D01*
X197580819Y-90875500D01*
X197719179Y-90875500D01*
X197719183Y-90875500D01*
X197732536Y-90871922D01*
X197802382Y-90873585D01*
X197857856Y-90909939D01*
X197892988Y-90950000D01*
X199717010Y-90950000D01*
X199717011Y-90949998D01*
X199709557Y-90893372D01*
X199709555Y-90893366D01*
X199649100Y-90747414D01*
X199552923Y-90622074D01*
X199522797Y-90598957D01*
X199481595Y-90542528D01*
X199476093Y-90487797D01*
X199475176Y-90487731D01*
X199475500Y-90483262D01*
X199475500Y-90216739D01*
X199465573Y-90148608D01*
X199464867Y-90147164D01*
X199414198Y-90043517D01*
X199408363Y-90037682D01*
X199374878Y-89976363D01*
X199379860Y-89906671D01*
X199408363Y-89862317D01*
X199414198Y-89856483D01*
X199465573Y-89751393D01*
X199475500Y-89683260D01*
X199475500Y-89416740D01*
X199465573Y-89348607D01*
X199414198Y-89243517D01*
X199414196Y-89243515D01*
X199414196Y-89243514D01*
X199331485Y-89160803D01*
X199226391Y-89109426D01*
X199158261Y-89099500D01*
X199158260Y-89099500D01*
X198451740Y-89099500D01*
X198451739Y-89099500D01*
X198383608Y-89109426D01*
X198278514Y-89160803D01*
X198195803Y-89243514D01*
X198144426Y-89348608D01*
X198134500Y-89416739D01*
X198134500Y-89683260D01*
X198144426Y-89751392D01*
X198155113Y-89773252D01*
X198166873Y-89842125D01*
X198139530Y-89906423D01*
X198081765Y-89945730D01*
X198011920Y-89947568D01*
X197980523Y-89932136D01*
X197979703Y-89933558D01*
X197852838Y-89860313D01*
X197852837Y-89860312D01*
X197852836Y-89860312D01*
X197719183Y-89824500D01*
X197580817Y-89824500D01*
X197447164Y-89860312D01*
X197447161Y-89860313D01*
X197327338Y-89929492D01*
X197327333Y-89929496D01*
X197229496Y-90027333D01*
X197229492Y-90027338D01*
X197160313Y-90147161D01*
X197160312Y-90147164D01*
X197124500Y-90280817D01*
X192250500Y-90280817D01*
X192250500Y-86053937D01*
X192267113Y-85991936D01*
X192271774Y-85983863D01*
X192289688Y-85952836D01*
X192325500Y-85819183D01*
X192325500Y-85680817D01*
X192289688Y-85547164D01*
X192244866Y-85469530D01*
X192220507Y-85427338D01*
X192220503Y-85427333D01*
X192122666Y-85329496D01*
X192122661Y-85329492D01*
X192002838Y-85260313D01*
X192002837Y-85260312D01*
X192002836Y-85260312D01*
X191942981Y-85244274D01*
X191883322Y-85207910D01*
X191852793Y-85145063D01*
X191861088Y-85075688D01*
X191905573Y-85021810D01*
X191972125Y-85000535D01*
X191975076Y-85000500D01*
X198303456Y-85000500D01*
X198370495Y-85020185D01*
X198391137Y-85036819D01*
X202113181Y-88758862D01*
X202146666Y-88820185D01*
X202149500Y-88846543D01*
X202149500Y-89803456D01*
X202129815Y-89870495D01*
X202113181Y-89891137D01*
X202041137Y-89963181D01*
X202014209Y-89977884D01*
X201988391Y-89994477D01*
X201982190Y-89995368D01*
X201979814Y-89996666D01*
X201953456Y-89999500D01*
X201932926Y-89999500D01*
X201865887Y-89979815D01*
X201820132Y-89927011D01*
X201810188Y-89857853D01*
X201821525Y-89821040D01*
X201836033Y-89791362D01*
X201855573Y-89751393D01*
X201865500Y-89683260D01*
X201865500Y-89416740D01*
X201855573Y-89348607D01*
X201804198Y-89243517D01*
X201804196Y-89243515D01*
X201804196Y-89243514D01*
X201721485Y-89160803D01*
X201616391Y-89109426D01*
X201548261Y-89099500D01*
X201548260Y-89099500D01*
X200841740Y-89099500D01*
X200841739Y-89099500D01*
X200773608Y-89109426D01*
X200668514Y-89160803D01*
X200585803Y-89243514D01*
X200534426Y-89348608D01*
X200524500Y-89416739D01*
X200524500Y-89683260D01*
X200534426Y-89751391D01*
X200585803Y-89856485D01*
X200591637Y-89862319D01*
X200625122Y-89923642D01*
X200620138Y-89993334D01*
X200591637Y-90037681D01*
X200585803Y-90043514D01*
X200534426Y-90148608D01*
X200524500Y-90216739D01*
X200524500Y-90483260D01*
X200534426Y-90551391D01*
X200585803Y-90656485D01*
X200591637Y-90662319D01*
X200625122Y-90723642D01*
X200620138Y-90793334D01*
X200591637Y-90837681D01*
X200585803Y-90843514D01*
X200534426Y-90948608D01*
X200524500Y-91016739D01*
X200524500Y-91283262D01*
X200524824Y-91287731D01*
X200523700Y-91287812D01*
X200514593Y-91351907D01*
X200477202Y-91398957D01*
X200447077Y-91422072D01*
X200350899Y-91547413D01*
X200290444Y-91693368D01*
X200282987Y-91750000D01*
X202107010Y-91750000D01*
X202110891Y-91745574D01*
X202119237Y-91692058D01*
X202165617Y-91639802D01*
X202232886Y-91620917D01*
X202293407Y-91637519D01*
X202297164Y-91639688D01*
X202430817Y-91675500D01*
X202430819Y-91675500D01*
X202569181Y-91675500D01*
X202569183Y-91675500D01*
X202702836Y-91639688D01*
X202822665Y-91570505D01*
X202920505Y-91472665D01*
X202989688Y-91352836D01*
X203025500Y-91219183D01*
X203025500Y-91080817D01*
X202989688Y-90947164D01*
X202927637Y-90839688D01*
X202920507Y-90827338D01*
X202920503Y-90827333D01*
X202822666Y-90729496D01*
X202822661Y-90729492D01*
X202702838Y-90660313D01*
X202702837Y-90660312D01*
X202666217Y-90650500D01*
X202620477Y-90638244D01*
X202560819Y-90601880D01*
X202530290Y-90539033D01*
X202538585Y-90469657D01*
X202564889Y-90430792D01*
X202780470Y-90215212D01*
X202826614Y-90135288D01*
X202840145Y-90084788D01*
X202850500Y-90046144D01*
X202850500Y-88603856D01*
X202826614Y-88514712D01*
X202805033Y-88477333D01*
X202780473Y-88434794D01*
X202780470Y-88434791D01*
X202780469Y-88434788D01*
X202715212Y-88369531D01*
X198715212Y-84369530D01*
X198715211Y-84369529D01*
X198715208Y-84369527D01*
X198635290Y-84323387D01*
X198635289Y-84323386D01*
X198635288Y-84323386D01*
X198546144Y-84299500D01*
X198546143Y-84299500D01*
X181394032Y-84299500D01*
X181326993Y-84279815D01*
X181306351Y-84263181D01*
X181272666Y-84229496D01*
X181272661Y-84229492D01*
X181152838Y-84160313D01*
X181152837Y-84160312D01*
X181152836Y-84160312D01*
X181019183Y-84124500D01*
X180880817Y-84124500D01*
X180747164Y-84160312D01*
X180747161Y-84160313D01*
X180627338Y-84229492D01*
X180627333Y-84229496D01*
X180529496Y-84327333D01*
X180529492Y-84327338D01*
X180460313Y-84447161D01*
X180460312Y-84447164D01*
X180424500Y-84580817D01*
X170664865Y-84580817D01*
X170833863Y-84411819D01*
X170895186Y-84378334D01*
X170921544Y-84375500D01*
X170969181Y-84375500D01*
X170969183Y-84375500D01*
X171102836Y-84339688D01*
X171222665Y-84270505D01*
X171320505Y-84172665D01*
X171389688Y-84052836D01*
X171425500Y-83919183D01*
X171425500Y-83780817D01*
X171389688Y-83647164D01*
X171320505Y-83527335D01*
X171222665Y-83429495D01*
X171222664Y-83429494D01*
X171222661Y-83429492D01*
X171102838Y-83360313D01*
X171102837Y-83360312D01*
X171102836Y-83360312D01*
X170969183Y-83324500D01*
X170830817Y-83324500D01*
X170697164Y-83360312D01*
X170697161Y-83360313D01*
X170577338Y-83429492D01*
X170577333Y-83429496D01*
X170479496Y-83527333D01*
X170479492Y-83527338D01*
X170410313Y-83647161D01*
X170410312Y-83647164D01*
X170374500Y-83780817D01*
X170374500Y-83828456D01*
X170354815Y-83895495D01*
X170338181Y-83916137D01*
X168766137Y-85488181D01*
X168704814Y-85521666D01*
X168678456Y-85524500D01*
X168630817Y-85524500D01*
X168497164Y-85560312D01*
X168497161Y-85560313D01*
X168377338Y-85629492D01*
X168377333Y-85629496D01*
X168279496Y-85727333D01*
X168279492Y-85727338D01*
X168210313Y-85847161D01*
X168210312Y-85847164D01*
X168174500Y-85980817D01*
X166467921Y-85980817D01*
X166011819Y-85524715D01*
X165978334Y-85463392D01*
X165975500Y-85437034D01*
X165975500Y-85430819D01*
X165975500Y-85430817D01*
X165939688Y-85297164D01*
X165897736Y-85224500D01*
X165870507Y-85177338D01*
X165870503Y-85177333D01*
X165772666Y-85079496D01*
X165772661Y-85079492D01*
X165652838Y-85010313D01*
X165652837Y-85010312D01*
X165652836Y-85010312D01*
X165519183Y-84974500D01*
X165380817Y-84974500D01*
X165247164Y-85010312D01*
X165247161Y-85010313D01*
X165127338Y-85079492D01*
X165127333Y-85079496D01*
X165029496Y-85177333D01*
X165029492Y-85177338D01*
X164960313Y-85297161D01*
X164960312Y-85297164D01*
X164924500Y-85430817D01*
X164924500Y-85569183D01*
X164940661Y-85629495D01*
X164960312Y-85702835D01*
X164960313Y-85702838D01*
X165029492Y-85822661D01*
X165029493Y-85822662D01*
X165029495Y-85822665D01*
X165127335Y-85920505D01*
X165127554Y-85920631D01*
X165153232Y-85940335D01*
X168173386Y-88960490D01*
X168276113Y-89019799D01*
X168300321Y-89026284D01*
X168300324Y-89026286D01*
X168300325Y-89026286D01*
X168330447Y-89034357D01*
X168390691Y-89050500D01*
X173000500Y-89050500D01*
X173067539Y-89070185D01*
X173113294Y-89122989D01*
X173124500Y-89174500D01*
X173124500Y-89180817D01*
X173124500Y-89319183D01*
X173151295Y-89419182D01*
X173160312Y-89452835D01*
X173160313Y-89452838D01*
X173229492Y-89572661D01*
X173229494Y-89572664D01*
X173229495Y-89572665D01*
X173327335Y-89670505D01*
X173409795Y-89718113D01*
X173458010Y-89768679D01*
X173471234Y-89837286D01*
X173445266Y-89902151D01*
X173388352Y-89942680D01*
X173347795Y-89949500D01*
X168796544Y-89949500D01*
X168729505Y-89929815D01*
X168708863Y-89913181D01*
X164265213Y-85469531D01*
X164265208Y-85469527D01*
X164185290Y-85423387D01*
X164185289Y-85423386D01*
X164185288Y-85423386D01*
X164096144Y-85399500D01*
X164096143Y-85399500D01*
X124944032Y-85399500D01*
X124876993Y-85379815D01*
X124856351Y-85363181D01*
X124822666Y-85329496D01*
X124822661Y-85329492D01*
X124702838Y-85260313D01*
X124702837Y-85260312D01*
X124702836Y-85260312D01*
X124569183Y-85224500D01*
X124430817Y-85224500D01*
X124297164Y-85260312D01*
X124297161Y-85260313D01*
X124177338Y-85329492D01*
X124177333Y-85329496D01*
X124079496Y-85427333D01*
X124079492Y-85427338D01*
X124010313Y-85547161D01*
X124010312Y-85547164D01*
X123974500Y-85680817D01*
X123974500Y-85825500D01*
X123954815Y-85892539D01*
X123902011Y-85938294D01*
X123850500Y-85949500D01*
X122990541Y-85949500D01*
X122928541Y-85932887D01*
X122802838Y-85860313D01*
X122802837Y-85860312D01*
X122802836Y-85860312D01*
X122669183Y-85824500D01*
X122530817Y-85824500D01*
X122397164Y-85860312D01*
X122397161Y-85860313D01*
X122277338Y-85929492D01*
X122277333Y-85929496D01*
X122179496Y-86027333D01*
X122179492Y-86027338D01*
X122110313Y-86147161D01*
X122110312Y-86147164D01*
X122074500Y-86280817D01*
X122074500Y-86419183D01*
X122106789Y-86539686D01*
X122110312Y-86552835D01*
X122110313Y-86552838D01*
X122179492Y-86672661D01*
X122179494Y-86672664D01*
X122179495Y-86672665D01*
X122277335Y-86770505D01*
X122397164Y-86839688D01*
X122530817Y-86875500D01*
X122530819Y-86875500D01*
X122669181Y-86875500D01*
X122669183Y-86875500D01*
X122802836Y-86839688D01*
X122922665Y-86770505D01*
X123006351Y-86686819D01*
X123067674Y-86653334D01*
X123094032Y-86650500D01*
X163828456Y-86650500D01*
X163895495Y-86670185D01*
X163916137Y-86686819D01*
X166075862Y-88846543D01*
X168194531Y-90965212D01*
X168259788Y-91030469D01*
X168259791Y-91030470D01*
X168259794Y-91030473D01*
X168339706Y-91076611D01*
X168339707Y-91076611D01*
X168339712Y-91076614D01*
X168428856Y-91100500D01*
X171359082Y-91100500D01*
X171426121Y-91120185D01*
X171471876Y-91172989D01*
X171481820Y-91242147D01*
X171466470Y-91286497D01*
X171460312Y-91297164D01*
X171424500Y-91430817D01*
X171424500Y-91569183D01*
X171460312Y-91702836D01*
X171474040Y-91726614D01*
X171482887Y-91741936D01*
X171499500Y-91803937D01*
X171499500Y-103912035D01*
X171479815Y-103979074D01*
X171463181Y-103999716D01*
X168549716Y-106913181D01*
X168488393Y-106946666D01*
X168462035Y-106949500D01*
X90697965Y-106949500D01*
X90630926Y-106929815D01*
X90610284Y-106913181D01*
X88183333Y-104486230D01*
X88149848Y-104424907D01*
X88153083Y-104360231D01*
X88173402Y-104297701D01*
X88200500Y-104126611D01*
X88200500Y-103953389D01*
X88173402Y-103782299D01*
X88119873Y-103617555D01*
X88041232Y-103463212D01*
X87939414Y-103323072D01*
X87816928Y-103200586D01*
X87676788Y-103098768D01*
X87522446Y-103020127D01*
X87519284Y-103019100D01*
X87518236Y-103018383D01*
X87517952Y-103018266D01*
X87517976Y-103018206D01*
X87461609Y-102979661D01*
X87434413Y-102915302D01*
X87446329Y-102846456D01*
X87493574Y-102794981D01*
X87519288Y-102783239D01*
X87618215Y-102751096D01*
X87807554Y-102654622D01*
X87861716Y-102615270D01*
X87861717Y-102615270D01*
X87229408Y-101982962D01*
X87292993Y-101965925D01*
X87407007Y-101900099D01*
X87500099Y-101807007D01*
X87565925Y-101692993D01*
X87582962Y-101629408D01*
X88215270Y-102261717D01*
X88215270Y-102261716D01*
X88254622Y-102207554D01*
X88351095Y-102018217D01*
X88416757Y-101816130D01*
X88416757Y-101816127D01*
X88450000Y-101606246D01*
X88450000Y-101393753D01*
X88416757Y-101183872D01*
X88416757Y-101183869D01*
X88351095Y-100981782D01*
X88273241Y-100828985D01*
X88273240Y-100828983D01*
X88254626Y-100792452D01*
X88246173Y-100780817D01*
X129074500Y-100780817D01*
X129074500Y-100919183D01*
X129091274Y-100981782D01*
X129110312Y-101052835D01*
X129110313Y-101052838D01*
X129179492Y-101172661D01*
X129179494Y-101172664D01*
X129179495Y-101172665D01*
X129277335Y-101270505D01*
X129397164Y-101339688D01*
X129530817Y-101375500D01*
X129530819Y-101375500D01*
X129669181Y-101375500D01*
X129669183Y-101375500D01*
X129802836Y-101339688D01*
X129922665Y-101270505D01*
X130020505Y-101172665D01*
X130089688Y-101052836D01*
X130125500Y-100919183D01*
X130125500Y-100871544D01*
X130145185Y-100804505D01*
X130161819Y-100783863D01*
X130600307Y-100345375D01*
X131051923Y-99893758D01*
X131113244Y-99860275D01*
X131182935Y-99865259D01*
X131238869Y-99907131D01*
X131259375Y-99949340D01*
X131260311Y-99952833D01*
X131260313Y-99952838D01*
X131329492Y-100072661D01*
X131329494Y-100072664D01*
X131329495Y-100072665D01*
X131427335Y-100170505D01*
X131427336Y-100170506D01*
X131427338Y-100170507D01*
X131449396Y-100183242D01*
X131547164Y-100239688D01*
X131680817Y-100275500D01*
X131680819Y-100275500D01*
X131819181Y-100275500D01*
X131819183Y-100275500D01*
X131952836Y-100239688D01*
X132072665Y-100170505D01*
X132106351Y-100136819D01*
X132167674Y-100103334D01*
X132194032Y-100100500D01*
X132396142Y-100100500D01*
X132396144Y-100100500D01*
X132485288Y-100076614D01*
X132497092Y-100069799D01*
X132497093Y-100069799D01*
X132565205Y-100030474D01*
X132565204Y-100030474D01*
X132565212Y-100030470D01*
X136530470Y-96065212D01*
X136576614Y-95985288D01*
X136600500Y-95896144D01*
X136600500Y-95600675D01*
X136620185Y-95533636D01*
X136672989Y-95487881D01*
X136742147Y-95477937D01*
X136780790Y-95490188D01*
X136917555Y-95559873D01*
X137082299Y-95613402D01*
X137253389Y-95640500D01*
X137253390Y-95640500D01*
X137426610Y-95640500D01*
X137426611Y-95640500D01*
X137597701Y-95613402D01*
X137762445Y-95559873D01*
X137916788Y-95481232D01*
X138056928Y-95379414D01*
X138179414Y-95256928D01*
X138281232Y-95116788D01*
X138359873Y-94962445D01*
X138413402Y-94797701D01*
X138440500Y-94626611D01*
X138440500Y-94453389D01*
X138779500Y-94453389D01*
X138779500Y-94626610D01*
X138794713Y-94722666D01*
X138806598Y-94797701D01*
X138860127Y-94962445D01*
X138938768Y-95116788D01*
X139040586Y-95256928D01*
X139163072Y-95379414D01*
X139303212Y-95481232D01*
X139457555Y-95559873D01*
X139622299Y-95613402D01*
X139793389Y-95640500D01*
X139793390Y-95640500D01*
X139966610Y-95640500D01*
X139966611Y-95640500D01*
X140137701Y-95613402D01*
X140302445Y-95559873D01*
X140456788Y-95481232D01*
X140596928Y-95379414D01*
X140719414Y-95256928D01*
X140821232Y-95116788D01*
X140899873Y-94962445D01*
X140953402Y-94797701D01*
X140980500Y-94626611D01*
X140980500Y-94453389D01*
X141319500Y-94453389D01*
X141319500Y-94626610D01*
X141334713Y-94722666D01*
X141346598Y-94797701D01*
X141400127Y-94962445D01*
X141478768Y-95116788D01*
X141580586Y-95256928D01*
X141703072Y-95379414D01*
X141843212Y-95481232D01*
X141997555Y-95559873D01*
X142162299Y-95613402D01*
X142333389Y-95640500D01*
X142333390Y-95640500D01*
X142506610Y-95640500D01*
X142506611Y-95640500D01*
X142677701Y-95613402D01*
X142842445Y-95559873D01*
X142996788Y-95481232D01*
X143136928Y-95379414D01*
X143259414Y-95256928D01*
X143361232Y-95116788D01*
X143439873Y-94962445D01*
X143493402Y-94797701D01*
X143520500Y-94626611D01*
X143520500Y-94453389D01*
X143859500Y-94453389D01*
X143859500Y-94626610D01*
X143874713Y-94722666D01*
X143886598Y-94797701D01*
X143940127Y-94962445D01*
X144018768Y-95116788D01*
X144120586Y-95256928D01*
X144243072Y-95379414D01*
X144383212Y-95481232D01*
X144537555Y-95559873D01*
X144702299Y-95613402D01*
X144873389Y-95640500D01*
X144873390Y-95640500D01*
X145046610Y-95640500D01*
X145046611Y-95640500D01*
X145217701Y-95613402D01*
X145382445Y-95559873D01*
X145536788Y-95481232D01*
X145676928Y-95379414D01*
X145799414Y-95256928D01*
X145901232Y-95116788D01*
X145979873Y-94962445D01*
X146033402Y-94797701D01*
X146060500Y-94626611D01*
X146060500Y-94453389D01*
X146399500Y-94453389D01*
X146399500Y-94626610D01*
X146414713Y-94722666D01*
X146426598Y-94797701D01*
X146480127Y-94962445D01*
X146558768Y-95116788D01*
X146660586Y-95256928D01*
X146783072Y-95379414D01*
X146923212Y-95481232D01*
X147077555Y-95559873D01*
X147242299Y-95613402D01*
X147413389Y-95640500D01*
X147413390Y-95640500D01*
X147586610Y-95640500D01*
X147586611Y-95640500D01*
X147757701Y-95613402D01*
X147922445Y-95559873D01*
X148076788Y-95481232D01*
X148216928Y-95379414D01*
X148339414Y-95256928D01*
X148441232Y-95116788D01*
X148519873Y-94962445D01*
X148573402Y-94797701D01*
X148600500Y-94626611D01*
X148600500Y-94453389D01*
X148939500Y-94453389D01*
X148939500Y-94626610D01*
X148954713Y-94722666D01*
X148966598Y-94797701D01*
X149020127Y-94962445D01*
X149098768Y-95116788D01*
X149200586Y-95256928D01*
X149323072Y-95379414D01*
X149463212Y-95481232D01*
X149617555Y-95559873D01*
X149782299Y-95613402D01*
X149953389Y-95640500D01*
X149953390Y-95640500D01*
X150126610Y-95640500D01*
X150126611Y-95640500D01*
X150297701Y-95613402D01*
X150462445Y-95559873D01*
X150616788Y-95481232D01*
X150756928Y-95379414D01*
X150879414Y-95256928D01*
X150981232Y-95116788D01*
X151059873Y-94962445D01*
X151113402Y-94797701D01*
X151140500Y-94626611D01*
X151140500Y-94453389D01*
X151479500Y-94453389D01*
X151479500Y-94626610D01*
X151494713Y-94722666D01*
X151506598Y-94797701D01*
X151560127Y-94962445D01*
X151638768Y-95116788D01*
X151740586Y-95256928D01*
X151863072Y-95379414D01*
X152003212Y-95481232D01*
X152157555Y-95559873D01*
X152322299Y-95613402D01*
X152493389Y-95640500D01*
X152493390Y-95640500D01*
X152666610Y-95640500D01*
X152666611Y-95640500D01*
X152837701Y-95613402D01*
X153002445Y-95559873D01*
X153156788Y-95481232D01*
X153296928Y-95379414D01*
X153419414Y-95256928D01*
X153521232Y-95116788D01*
X153599873Y-94962445D01*
X153653402Y-94797701D01*
X153680500Y-94626611D01*
X153680500Y-94453389D01*
X154019500Y-94453389D01*
X154019500Y-94626610D01*
X154034713Y-94722666D01*
X154046598Y-94797701D01*
X154100127Y-94962445D01*
X154178768Y-95116788D01*
X154280586Y-95256928D01*
X154403072Y-95379414D01*
X154543212Y-95481232D01*
X154697555Y-95559873D01*
X154862299Y-95613402D01*
X155033389Y-95640500D01*
X155033390Y-95640500D01*
X155206610Y-95640500D01*
X155206611Y-95640500D01*
X155377701Y-95613402D01*
X155542445Y-95559873D01*
X155696788Y-95481232D01*
X155836928Y-95379414D01*
X155959414Y-95256928D01*
X156061232Y-95116788D01*
X156139873Y-94962445D01*
X156193402Y-94797701D01*
X156220500Y-94626611D01*
X156220500Y-94453389D01*
X156559500Y-94453389D01*
X156559500Y-94626610D01*
X156574713Y-94722666D01*
X156586598Y-94797701D01*
X156640127Y-94962445D01*
X156718768Y-95116788D01*
X156820586Y-95256928D01*
X156943072Y-95379414D01*
X157083212Y-95481232D01*
X157237555Y-95559873D01*
X157402299Y-95613402D01*
X157573389Y-95640500D01*
X157573390Y-95640500D01*
X157746610Y-95640500D01*
X157746611Y-95640500D01*
X157917701Y-95613402D01*
X158082445Y-95559873D01*
X158236788Y-95481232D01*
X158376928Y-95379414D01*
X158499414Y-95256928D01*
X158601232Y-95116788D01*
X158679873Y-94962445D01*
X158733402Y-94797701D01*
X158760500Y-94626611D01*
X158760500Y-94453389D01*
X159099500Y-94453389D01*
X159099500Y-94626610D01*
X159114713Y-94722666D01*
X159126598Y-94797701D01*
X159180127Y-94962445D01*
X159258768Y-95116788D01*
X159360586Y-95256928D01*
X159483072Y-95379414D01*
X159623212Y-95481232D01*
X159777555Y-95559873D01*
X159942299Y-95613402D01*
X160113389Y-95640500D01*
X160113390Y-95640500D01*
X160286610Y-95640500D01*
X160286611Y-95640500D01*
X160457701Y-95613402D01*
X160622445Y-95559873D01*
X160776788Y-95481232D01*
X160916928Y-95379414D01*
X161039414Y-95256928D01*
X161141232Y-95116788D01*
X161219873Y-94962445D01*
X161273402Y-94797701D01*
X161300500Y-94626611D01*
X161300500Y-94453389D01*
X161273402Y-94282299D01*
X161219873Y-94117555D01*
X161141232Y-93963212D01*
X161039414Y-93823072D01*
X160916928Y-93700586D01*
X160776788Y-93598768D01*
X160683936Y-93551458D01*
X160622447Y-93520128D01*
X160622446Y-93520127D01*
X160622445Y-93520127D01*
X160457701Y-93466598D01*
X160457699Y-93466597D01*
X160457698Y-93466597D01*
X160326271Y-93445781D01*
X160286611Y-93439500D01*
X160113389Y-93439500D01*
X160073728Y-93445781D01*
X159942302Y-93466597D01*
X159942299Y-93466598D01*
X159780467Y-93519181D01*
X159777552Y-93520128D01*
X159623211Y-93598768D01*
X159548801Y-93652831D01*
X159483072Y-93700586D01*
X159483070Y-93700588D01*
X159483069Y-93700588D01*
X159360588Y-93823069D01*
X159360588Y-93823070D01*
X159360586Y-93823072D01*
X159336310Y-93856485D01*
X159258768Y-93963211D01*
X159180128Y-94117552D01*
X159126597Y-94282302D01*
X159099500Y-94453389D01*
X158760500Y-94453389D01*
X158733402Y-94282299D01*
X158679873Y-94117555D01*
X158601232Y-93963212D01*
X158499414Y-93823072D01*
X158376928Y-93700586D01*
X158236788Y-93598768D01*
X158143936Y-93551458D01*
X158082447Y-93520128D01*
X158082446Y-93520127D01*
X158082445Y-93520127D01*
X157917701Y-93466598D01*
X157917699Y-93466597D01*
X157917698Y-93466597D01*
X157786271Y-93445781D01*
X157746611Y-93439500D01*
X157573389Y-93439500D01*
X157533728Y-93445781D01*
X157402302Y-93466597D01*
X157402299Y-93466598D01*
X157240467Y-93519181D01*
X157237552Y-93520128D01*
X157083211Y-93598768D01*
X157008801Y-93652831D01*
X156943072Y-93700586D01*
X156943070Y-93700588D01*
X156943069Y-93700588D01*
X156820588Y-93823069D01*
X156820588Y-93823070D01*
X156820586Y-93823072D01*
X156796310Y-93856485D01*
X156718768Y-93963211D01*
X156640128Y-94117552D01*
X156586597Y-94282302D01*
X156559500Y-94453389D01*
X156220500Y-94453389D01*
X156193402Y-94282299D01*
X156139873Y-94117555D01*
X156061232Y-93963212D01*
X155959414Y-93823072D01*
X155836928Y-93700586D01*
X155696788Y-93598768D01*
X155603936Y-93551458D01*
X155542447Y-93520128D01*
X155542446Y-93520127D01*
X155542445Y-93520127D01*
X155377701Y-93466598D01*
X155377699Y-93466597D01*
X155377698Y-93466597D01*
X155246271Y-93445781D01*
X155206611Y-93439500D01*
X155033389Y-93439500D01*
X154993728Y-93445781D01*
X154862302Y-93466597D01*
X154862299Y-93466598D01*
X154700467Y-93519181D01*
X154697552Y-93520128D01*
X154543211Y-93598768D01*
X154468801Y-93652831D01*
X154403072Y-93700586D01*
X154403070Y-93700588D01*
X154403069Y-93700588D01*
X154280588Y-93823069D01*
X154280588Y-93823070D01*
X154280586Y-93823072D01*
X154256310Y-93856485D01*
X154178768Y-93963211D01*
X154100128Y-94117552D01*
X154046597Y-94282302D01*
X154019500Y-94453389D01*
X153680500Y-94453389D01*
X153653402Y-94282299D01*
X153599873Y-94117555D01*
X153521232Y-93963212D01*
X153419414Y-93823072D01*
X153296928Y-93700586D01*
X153156788Y-93598768D01*
X153063936Y-93551458D01*
X153002447Y-93520128D01*
X153002446Y-93520127D01*
X153002445Y-93520127D01*
X152837701Y-93466598D01*
X152837699Y-93466597D01*
X152837698Y-93466597D01*
X152706271Y-93445781D01*
X152666611Y-93439500D01*
X152493389Y-93439500D01*
X152453728Y-93445781D01*
X152322302Y-93466597D01*
X152322299Y-93466598D01*
X152160467Y-93519181D01*
X152157552Y-93520128D01*
X152003211Y-93598768D01*
X151928801Y-93652831D01*
X151863072Y-93700586D01*
X151863070Y-93700588D01*
X151863069Y-93700588D01*
X151740588Y-93823069D01*
X151740588Y-93823070D01*
X151740586Y-93823072D01*
X151716310Y-93856485D01*
X151638768Y-93963211D01*
X151560128Y-94117552D01*
X151506597Y-94282302D01*
X151479500Y-94453389D01*
X151140500Y-94453389D01*
X151113402Y-94282299D01*
X151059873Y-94117555D01*
X150981232Y-93963212D01*
X150879414Y-93823072D01*
X150756928Y-93700586D01*
X150616788Y-93598768D01*
X150523936Y-93551458D01*
X150462447Y-93520128D01*
X150462446Y-93520127D01*
X150462445Y-93520127D01*
X150297701Y-93466598D01*
X150297699Y-93466597D01*
X150297698Y-93466597D01*
X150166271Y-93445781D01*
X150126611Y-93439500D01*
X149953389Y-93439500D01*
X149913728Y-93445781D01*
X149782302Y-93466597D01*
X149782299Y-93466598D01*
X149620467Y-93519181D01*
X149617552Y-93520128D01*
X149463211Y-93598768D01*
X149388801Y-93652831D01*
X149323072Y-93700586D01*
X149323070Y-93700588D01*
X149323069Y-93700588D01*
X149200588Y-93823069D01*
X149200588Y-93823070D01*
X149200586Y-93823072D01*
X149176310Y-93856485D01*
X149098768Y-93963211D01*
X149020128Y-94117552D01*
X148966597Y-94282302D01*
X148939500Y-94453389D01*
X148600500Y-94453389D01*
X148573402Y-94282299D01*
X148519873Y-94117555D01*
X148441232Y-93963212D01*
X148339414Y-93823072D01*
X148216928Y-93700586D01*
X148076788Y-93598768D01*
X147983936Y-93551458D01*
X147922447Y-93520128D01*
X147922446Y-93520127D01*
X147922445Y-93520127D01*
X147757701Y-93466598D01*
X147757699Y-93466597D01*
X147757698Y-93466597D01*
X147626271Y-93445781D01*
X147586611Y-93439500D01*
X147413389Y-93439500D01*
X147373728Y-93445781D01*
X147242302Y-93466597D01*
X147242299Y-93466598D01*
X147080467Y-93519181D01*
X147077552Y-93520128D01*
X146923211Y-93598768D01*
X146848801Y-93652831D01*
X146783072Y-93700586D01*
X146783070Y-93700588D01*
X146783069Y-93700588D01*
X146660588Y-93823069D01*
X146660588Y-93823070D01*
X146660586Y-93823072D01*
X146636310Y-93856485D01*
X146558768Y-93963211D01*
X146480128Y-94117552D01*
X146426597Y-94282302D01*
X146399500Y-94453389D01*
X146060500Y-94453389D01*
X146033402Y-94282299D01*
X145979873Y-94117555D01*
X145901232Y-93963212D01*
X145799414Y-93823072D01*
X145676928Y-93700586D01*
X145536788Y-93598768D01*
X145443936Y-93551458D01*
X145382447Y-93520128D01*
X145382446Y-93520127D01*
X145382445Y-93520127D01*
X145217701Y-93466598D01*
X145217699Y-93466597D01*
X145217698Y-93466597D01*
X145086271Y-93445781D01*
X145046611Y-93439500D01*
X144873389Y-93439500D01*
X144833728Y-93445781D01*
X144702302Y-93466597D01*
X144702299Y-93466598D01*
X144540467Y-93519181D01*
X144537552Y-93520128D01*
X144383211Y-93598768D01*
X144308801Y-93652831D01*
X144243072Y-93700586D01*
X144243070Y-93700588D01*
X144243069Y-93700588D01*
X144120588Y-93823069D01*
X144120588Y-93823070D01*
X144120586Y-93823072D01*
X144096310Y-93856485D01*
X144018768Y-93963211D01*
X143940128Y-94117552D01*
X143886597Y-94282302D01*
X143859500Y-94453389D01*
X143520500Y-94453389D01*
X143493402Y-94282299D01*
X143439873Y-94117555D01*
X143361232Y-93963212D01*
X143259414Y-93823072D01*
X143136928Y-93700586D01*
X142996788Y-93598768D01*
X142903936Y-93551458D01*
X142842447Y-93520128D01*
X142842446Y-93520127D01*
X142842445Y-93520127D01*
X142677701Y-93466598D01*
X142677699Y-93466597D01*
X142677698Y-93466597D01*
X142546271Y-93445781D01*
X142506611Y-93439500D01*
X142333389Y-93439500D01*
X142293728Y-93445781D01*
X142162302Y-93466597D01*
X142162299Y-93466598D01*
X142000467Y-93519181D01*
X141997552Y-93520128D01*
X141843211Y-93598768D01*
X141768801Y-93652831D01*
X141703072Y-93700586D01*
X141703070Y-93700588D01*
X141703069Y-93700588D01*
X141580588Y-93823069D01*
X141580588Y-93823070D01*
X141580586Y-93823072D01*
X141556310Y-93856485D01*
X141478768Y-93963211D01*
X141400128Y-94117552D01*
X141346597Y-94282302D01*
X141319500Y-94453389D01*
X140980500Y-94453389D01*
X140953402Y-94282299D01*
X140899873Y-94117555D01*
X140821232Y-93963212D01*
X140719414Y-93823072D01*
X140596928Y-93700586D01*
X140456788Y-93598768D01*
X140363936Y-93551458D01*
X140302447Y-93520128D01*
X140302446Y-93520127D01*
X140302445Y-93520127D01*
X140137701Y-93466598D01*
X140137699Y-93466597D01*
X140137698Y-93466597D01*
X140006271Y-93445781D01*
X139966611Y-93439500D01*
X139793389Y-93439500D01*
X139753728Y-93445781D01*
X139622302Y-93466597D01*
X139622299Y-93466598D01*
X139460467Y-93519181D01*
X139457552Y-93520128D01*
X139303211Y-93598768D01*
X139228801Y-93652831D01*
X139163072Y-93700586D01*
X139163070Y-93700588D01*
X139163069Y-93700588D01*
X139040588Y-93823069D01*
X139040588Y-93823070D01*
X139040586Y-93823072D01*
X139016310Y-93856485D01*
X138938768Y-93963211D01*
X138860128Y-94117552D01*
X138806597Y-94282302D01*
X138779500Y-94453389D01*
X138440500Y-94453389D01*
X138413402Y-94282299D01*
X138359873Y-94117555D01*
X138281232Y-93963212D01*
X138179414Y-93823072D01*
X138056928Y-93700586D01*
X137916788Y-93598768D01*
X137823936Y-93551458D01*
X137762447Y-93520128D01*
X137762446Y-93520127D01*
X137762445Y-93520127D01*
X137597701Y-93466598D01*
X137597699Y-93466597D01*
X137597698Y-93466597D01*
X137466271Y-93445781D01*
X137426611Y-93439500D01*
X137253389Y-93439500D01*
X137213728Y-93445781D01*
X137082302Y-93466597D01*
X137082299Y-93466598D01*
X136920464Y-93519182D01*
X136917549Y-93520129D01*
X136780794Y-93589809D01*
X136712125Y-93602705D01*
X136647385Y-93576428D01*
X136607128Y-93519322D01*
X136600500Y-93479324D01*
X136600500Y-93060675D01*
X136620185Y-92993636D01*
X136672989Y-92947881D01*
X136742147Y-92937937D01*
X136780790Y-92950188D01*
X136917555Y-93019873D01*
X137082299Y-93073402D01*
X137253389Y-93100500D01*
X137253390Y-93100500D01*
X137426610Y-93100500D01*
X137426611Y-93100500D01*
X137597701Y-93073402D01*
X137762445Y-93019873D01*
X137916788Y-92941232D01*
X138056928Y-92839414D01*
X138179414Y-92716928D01*
X138281232Y-92576788D01*
X138359873Y-92422445D01*
X138413402Y-92257701D01*
X138440500Y-92086611D01*
X138440500Y-91913389D01*
X138779500Y-91913389D01*
X138779500Y-92086610D01*
X138798509Y-92206633D01*
X138806598Y-92257701D01*
X138860127Y-92422445D01*
X138938768Y-92576788D01*
X139040586Y-92716928D01*
X139163072Y-92839414D01*
X139303212Y-92941232D01*
X139457555Y-93019873D01*
X139622299Y-93073402D01*
X139793389Y-93100500D01*
X139793390Y-93100500D01*
X139966610Y-93100500D01*
X139966611Y-93100500D01*
X140137701Y-93073402D01*
X140302445Y-93019873D01*
X140456788Y-92941232D01*
X140596928Y-92839414D01*
X140719414Y-92716928D01*
X140821232Y-92576788D01*
X140899873Y-92422445D01*
X140953402Y-92257701D01*
X140980500Y-92086611D01*
X140980500Y-91913389D01*
X141319500Y-91913389D01*
X141319500Y-92086610D01*
X141338509Y-92206633D01*
X141346598Y-92257701D01*
X141400127Y-92422445D01*
X141478768Y-92576788D01*
X141580586Y-92716928D01*
X141703072Y-92839414D01*
X141843212Y-92941232D01*
X141997555Y-93019873D01*
X142162299Y-93073402D01*
X142333389Y-93100500D01*
X142333390Y-93100500D01*
X142506610Y-93100500D01*
X142506611Y-93100500D01*
X142677701Y-93073402D01*
X142842445Y-93019873D01*
X142996788Y-92941232D01*
X143136928Y-92839414D01*
X143259414Y-92716928D01*
X143361232Y-92576788D01*
X143439873Y-92422445D01*
X143493402Y-92257701D01*
X143520500Y-92086611D01*
X143520500Y-91913389D01*
X143859500Y-91913389D01*
X143859500Y-92086610D01*
X143878509Y-92206633D01*
X143886598Y-92257701D01*
X143940127Y-92422445D01*
X144018768Y-92576788D01*
X144120586Y-92716928D01*
X144243072Y-92839414D01*
X144383212Y-92941232D01*
X144537555Y-93019873D01*
X144702299Y-93073402D01*
X144873389Y-93100500D01*
X144873390Y-93100500D01*
X145046610Y-93100500D01*
X145046611Y-93100500D01*
X145217701Y-93073402D01*
X145382445Y-93019873D01*
X145536788Y-92941232D01*
X145676928Y-92839414D01*
X145799414Y-92716928D01*
X145901232Y-92576788D01*
X145979873Y-92422445D01*
X146033402Y-92257701D01*
X146060500Y-92086611D01*
X146060500Y-91913389D01*
X146399500Y-91913389D01*
X146399500Y-92086610D01*
X146418509Y-92206633D01*
X146426598Y-92257701D01*
X146480127Y-92422445D01*
X146558768Y-92576788D01*
X146660586Y-92716928D01*
X146783072Y-92839414D01*
X146923212Y-92941232D01*
X147077555Y-93019873D01*
X147242299Y-93073402D01*
X147413389Y-93100500D01*
X147413390Y-93100500D01*
X147586610Y-93100500D01*
X147586611Y-93100500D01*
X147757701Y-93073402D01*
X147922445Y-93019873D01*
X148076788Y-92941232D01*
X148216928Y-92839414D01*
X148339414Y-92716928D01*
X148441232Y-92576788D01*
X148519873Y-92422445D01*
X148573402Y-92257701D01*
X148600500Y-92086611D01*
X148600500Y-91913389D01*
X148939500Y-91913389D01*
X148939500Y-92086610D01*
X148958509Y-92206633D01*
X148966598Y-92257701D01*
X149020127Y-92422445D01*
X149098768Y-92576788D01*
X149200586Y-92716928D01*
X149323072Y-92839414D01*
X149463212Y-92941232D01*
X149617555Y-93019873D01*
X149782299Y-93073402D01*
X149953389Y-93100500D01*
X149953390Y-93100500D01*
X150126610Y-93100500D01*
X150126611Y-93100500D01*
X150297701Y-93073402D01*
X150462445Y-93019873D01*
X150616788Y-92941232D01*
X150756928Y-92839414D01*
X150879414Y-92716928D01*
X150981232Y-92576788D01*
X151059873Y-92422445D01*
X151113402Y-92257701D01*
X151140500Y-92086611D01*
X151140500Y-91913389D01*
X151479500Y-91913389D01*
X151479500Y-92086610D01*
X151498509Y-92206633D01*
X151506598Y-92257701D01*
X151560127Y-92422445D01*
X151638768Y-92576788D01*
X151740586Y-92716928D01*
X151863072Y-92839414D01*
X152003212Y-92941232D01*
X152157555Y-93019873D01*
X152322299Y-93073402D01*
X152493389Y-93100500D01*
X152493390Y-93100500D01*
X152666610Y-93100500D01*
X152666611Y-93100500D01*
X152837701Y-93073402D01*
X153002445Y-93019873D01*
X153156788Y-92941232D01*
X153296928Y-92839414D01*
X153419414Y-92716928D01*
X153521232Y-92576788D01*
X153599873Y-92422445D01*
X153653402Y-92257701D01*
X153680500Y-92086611D01*
X153680500Y-91913389D01*
X154019500Y-91913389D01*
X154019500Y-92086610D01*
X154038509Y-92206633D01*
X154046598Y-92257701D01*
X154100127Y-92422445D01*
X154178768Y-92576788D01*
X154280586Y-92716928D01*
X154403072Y-92839414D01*
X154543212Y-92941232D01*
X154697555Y-93019873D01*
X154862299Y-93073402D01*
X155033389Y-93100500D01*
X155033390Y-93100500D01*
X155206610Y-93100500D01*
X155206611Y-93100500D01*
X155377701Y-93073402D01*
X155542445Y-93019873D01*
X155696788Y-92941232D01*
X155836928Y-92839414D01*
X155959414Y-92716928D01*
X156061232Y-92576788D01*
X156139873Y-92422445D01*
X156193402Y-92257701D01*
X156220500Y-92086611D01*
X156220500Y-91913389D01*
X156559500Y-91913389D01*
X156559500Y-92086610D01*
X156578509Y-92206633D01*
X156586598Y-92257701D01*
X156640127Y-92422445D01*
X156718768Y-92576788D01*
X156820586Y-92716928D01*
X156943072Y-92839414D01*
X157083212Y-92941232D01*
X157237555Y-93019873D01*
X157402299Y-93073402D01*
X157573389Y-93100500D01*
X157573390Y-93100500D01*
X157746610Y-93100500D01*
X157746611Y-93100500D01*
X157917701Y-93073402D01*
X158082445Y-93019873D01*
X158236788Y-92941232D01*
X158376928Y-92839414D01*
X158499414Y-92716928D01*
X158601232Y-92576788D01*
X158679873Y-92422445D01*
X158733402Y-92257701D01*
X158760500Y-92086611D01*
X158760500Y-91913389D01*
X159099500Y-91913389D01*
X159099500Y-92086610D01*
X159118509Y-92206633D01*
X159126598Y-92257701D01*
X159180127Y-92422445D01*
X159258768Y-92576788D01*
X159360586Y-92716928D01*
X159483072Y-92839414D01*
X159623212Y-92941232D01*
X159777555Y-93019873D01*
X159942299Y-93073402D01*
X160113389Y-93100500D01*
X160113390Y-93100500D01*
X160286610Y-93100500D01*
X160286611Y-93100500D01*
X160457701Y-93073402D01*
X160622445Y-93019873D01*
X160776788Y-92941232D01*
X160916928Y-92839414D01*
X161039414Y-92716928D01*
X161141232Y-92576788D01*
X161219873Y-92422445D01*
X161273402Y-92257701D01*
X161300500Y-92086611D01*
X161300500Y-91913389D01*
X161273402Y-91742299D01*
X161219873Y-91577555D01*
X161141232Y-91423212D01*
X161039414Y-91283072D01*
X160916928Y-91160586D01*
X160776788Y-91058768D01*
X160622445Y-90980127D01*
X160457701Y-90926598D01*
X160457699Y-90926597D01*
X160457698Y-90926597D01*
X160320939Y-90904937D01*
X160286611Y-90899500D01*
X160113389Y-90899500D01*
X160079061Y-90904937D01*
X159942302Y-90926597D01*
X159777552Y-90980128D01*
X159623211Y-91058768D01*
X159580654Y-91089688D01*
X159483072Y-91160586D01*
X159483070Y-91160588D01*
X159483069Y-91160588D01*
X159360588Y-91283069D01*
X159360588Y-91283070D01*
X159360586Y-91283072D01*
X159350348Y-91297164D01*
X159258768Y-91423211D01*
X159180128Y-91577552D01*
X159126597Y-91742302D01*
X159099500Y-91913389D01*
X158760500Y-91913389D01*
X158733402Y-91742299D01*
X158679873Y-91577555D01*
X158601232Y-91423212D01*
X158499414Y-91283072D01*
X158376928Y-91160586D01*
X158236788Y-91058768D01*
X158082445Y-90980127D01*
X157917701Y-90926598D01*
X157917699Y-90926597D01*
X157917698Y-90926597D01*
X157780939Y-90904937D01*
X157746611Y-90899500D01*
X157573389Y-90899500D01*
X157539061Y-90904937D01*
X157402302Y-90926597D01*
X157237552Y-90980128D01*
X157083211Y-91058768D01*
X157040654Y-91089688D01*
X156943072Y-91160586D01*
X156943070Y-91160588D01*
X156943069Y-91160588D01*
X156820588Y-91283069D01*
X156820588Y-91283070D01*
X156820586Y-91283072D01*
X156810348Y-91297164D01*
X156718768Y-91423211D01*
X156640128Y-91577552D01*
X156586597Y-91742302D01*
X156559500Y-91913389D01*
X156220500Y-91913389D01*
X156193402Y-91742299D01*
X156139873Y-91577555D01*
X156061232Y-91423212D01*
X155959414Y-91283072D01*
X155836928Y-91160586D01*
X155696788Y-91058768D01*
X155542445Y-90980127D01*
X155377701Y-90926598D01*
X155377699Y-90926597D01*
X155377698Y-90926597D01*
X155240939Y-90904937D01*
X155206611Y-90899500D01*
X155033389Y-90899500D01*
X154999061Y-90904937D01*
X154862302Y-90926597D01*
X154697552Y-90980128D01*
X154543211Y-91058768D01*
X154500654Y-91089688D01*
X154403072Y-91160586D01*
X154403070Y-91160588D01*
X154403069Y-91160588D01*
X154280588Y-91283069D01*
X154280588Y-91283070D01*
X154280586Y-91283072D01*
X154270348Y-91297164D01*
X154178768Y-91423211D01*
X154100128Y-91577552D01*
X154046597Y-91742302D01*
X154019500Y-91913389D01*
X153680500Y-91913389D01*
X153653402Y-91742299D01*
X153599873Y-91577555D01*
X153521232Y-91423212D01*
X153419414Y-91283072D01*
X153296928Y-91160586D01*
X153156788Y-91058768D01*
X153002445Y-90980127D01*
X152837701Y-90926598D01*
X152837699Y-90926597D01*
X152837698Y-90926597D01*
X152700939Y-90904937D01*
X152666611Y-90899500D01*
X152493389Y-90899500D01*
X152459061Y-90904937D01*
X152322302Y-90926597D01*
X152157552Y-90980128D01*
X152003211Y-91058768D01*
X151960654Y-91089688D01*
X151863072Y-91160586D01*
X151863070Y-91160588D01*
X151863069Y-91160588D01*
X151740588Y-91283069D01*
X151740588Y-91283070D01*
X151740586Y-91283072D01*
X151730348Y-91297164D01*
X151638768Y-91423211D01*
X151560128Y-91577552D01*
X151506597Y-91742302D01*
X151479500Y-91913389D01*
X151140500Y-91913389D01*
X151113402Y-91742299D01*
X151059873Y-91577555D01*
X150981232Y-91423212D01*
X150879414Y-91283072D01*
X150756928Y-91160586D01*
X150616788Y-91058768D01*
X150462445Y-90980127D01*
X150297701Y-90926598D01*
X150297699Y-90926597D01*
X150297698Y-90926597D01*
X150160939Y-90904937D01*
X150126611Y-90899500D01*
X149953389Y-90899500D01*
X149919061Y-90904937D01*
X149782302Y-90926597D01*
X149617552Y-90980128D01*
X149463211Y-91058768D01*
X149420654Y-91089688D01*
X149323072Y-91160586D01*
X149323070Y-91160588D01*
X149323069Y-91160588D01*
X149200588Y-91283069D01*
X149200588Y-91283070D01*
X149200586Y-91283072D01*
X149190348Y-91297164D01*
X149098768Y-91423211D01*
X149020128Y-91577552D01*
X148966597Y-91742302D01*
X148939500Y-91913389D01*
X148600500Y-91913389D01*
X148573402Y-91742299D01*
X148519873Y-91577555D01*
X148441232Y-91423212D01*
X148339414Y-91283072D01*
X148216928Y-91160586D01*
X148076788Y-91058768D01*
X147922445Y-90980127D01*
X147757701Y-90926598D01*
X147757699Y-90926597D01*
X147757698Y-90926597D01*
X147620939Y-90904937D01*
X147586611Y-90899500D01*
X147413389Y-90899500D01*
X147379061Y-90904937D01*
X147242302Y-90926597D01*
X147077552Y-90980128D01*
X146923211Y-91058768D01*
X146880654Y-91089688D01*
X146783072Y-91160586D01*
X146783070Y-91160588D01*
X146783069Y-91160588D01*
X146660588Y-91283069D01*
X146660588Y-91283070D01*
X146660586Y-91283072D01*
X146650348Y-91297164D01*
X146558768Y-91423211D01*
X146480128Y-91577552D01*
X146426597Y-91742302D01*
X146399500Y-91913389D01*
X146060500Y-91913389D01*
X146033402Y-91742299D01*
X145979873Y-91577555D01*
X145901232Y-91423212D01*
X145799414Y-91283072D01*
X145676928Y-91160586D01*
X145536788Y-91058768D01*
X145382445Y-90980127D01*
X145217701Y-90926598D01*
X145217699Y-90926597D01*
X145217698Y-90926597D01*
X145080939Y-90904937D01*
X145046611Y-90899500D01*
X144873389Y-90899500D01*
X144839061Y-90904937D01*
X144702302Y-90926597D01*
X144537552Y-90980128D01*
X144383211Y-91058768D01*
X144340654Y-91089688D01*
X144243072Y-91160586D01*
X144243070Y-91160588D01*
X144243069Y-91160588D01*
X144120588Y-91283069D01*
X144120588Y-91283070D01*
X144120586Y-91283072D01*
X144110348Y-91297164D01*
X144018768Y-91423211D01*
X143940128Y-91577552D01*
X143886597Y-91742302D01*
X143859500Y-91913389D01*
X143520500Y-91913389D01*
X143493402Y-91742299D01*
X143439873Y-91577555D01*
X143361232Y-91423212D01*
X143259414Y-91283072D01*
X143136928Y-91160586D01*
X142996788Y-91058768D01*
X142842445Y-90980127D01*
X142677701Y-90926598D01*
X142677699Y-90926597D01*
X142677698Y-90926597D01*
X142540939Y-90904937D01*
X142506611Y-90899500D01*
X142333389Y-90899500D01*
X142299061Y-90904937D01*
X142162302Y-90926597D01*
X141997552Y-90980128D01*
X141843211Y-91058768D01*
X141800654Y-91089688D01*
X141703072Y-91160586D01*
X141703070Y-91160588D01*
X141703069Y-91160588D01*
X141580588Y-91283069D01*
X141580588Y-91283070D01*
X141580586Y-91283072D01*
X141570348Y-91297164D01*
X141478768Y-91423211D01*
X141400128Y-91577552D01*
X141346597Y-91742302D01*
X141319500Y-91913389D01*
X140980500Y-91913389D01*
X140953402Y-91742299D01*
X140899873Y-91577555D01*
X140821232Y-91423212D01*
X140719414Y-91283072D01*
X140596928Y-91160586D01*
X140456788Y-91058768D01*
X140302445Y-90980127D01*
X140137701Y-90926598D01*
X140137699Y-90926597D01*
X140137698Y-90926597D01*
X140000939Y-90904937D01*
X139966611Y-90899500D01*
X139793389Y-90899500D01*
X139759061Y-90904937D01*
X139622302Y-90926597D01*
X139457552Y-90980128D01*
X139303211Y-91058768D01*
X139260654Y-91089688D01*
X139163072Y-91160586D01*
X139163070Y-91160588D01*
X139163069Y-91160588D01*
X139040588Y-91283069D01*
X139040588Y-91283070D01*
X139040586Y-91283072D01*
X139030348Y-91297164D01*
X138938768Y-91423211D01*
X138860128Y-91577552D01*
X138806597Y-91742302D01*
X138779500Y-91913389D01*
X138440500Y-91913389D01*
X138413402Y-91742299D01*
X138359873Y-91577555D01*
X138281232Y-91423212D01*
X138179414Y-91283072D01*
X138056928Y-91160586D01*
X137916788Y-91058768D01*
X137762445Y-90980127D01*
X137597701Y-90926598D01*
X137597699Y-90926597D01*
X137597698Y-90926597D01*
X137460939Y-90904937D01*
X137426611Y-90899500D01*
X137253389Y-90899500D01*
X137219061Y-90904937D01*
X137082302Y-90926597D01*
X136917549Y-90980129D01*
X136780794Y-91049809D01*
X136778089Y-91050316D01*
X136776011Y-91052118D01*
X136743957Y-91056726D01*
X136712125Y-91062705D01*
X136709576Y-91061670D01*
X136706853Y-91062062D01*
X136677387Y-91048605D01*
X136647385Y-91036428D01*
X136645800Y-91034180D01*
X136643297Y-91033037D01*
X136625785Y-91005788D01*
X136607128Y-90979322D01*
X136606555Y-90975865D01*
X136605523Y-90974259D01*
X136600500Y-90939324D01*
X136600500Y-90696543D01*
X136620185Y-90629504D01*
X136636819Y-90608862D01*
X136706648Y-90539033D01*
X136780469Y-90465212D01*
X136826614Y-90385288D01*
X136834974Y-90354087D01*
X136850500Y-90296144D01*
X136850500Y-89094032D01*
X136870185Y-89026993D01*
X136886819Y-89006351D01*
X136903659Y-88989511D01*
X136920505Y-88972665D01*
X136989688Y-88852836D01*
X137025500Y-88719183D01*
X137025500Y-88580817D01*
X136989688Y-88447164D01*
X136933302Y-88349500D01*
X136920507Y-88327338D01*
X136920503Y-88327333D01*
X136822666Y-88229496D01*
X136822661Y-88229492D01*
X136702838Y-88160313D01*
X136702837Y-88160312D01*
X136702836Y-88160312D01*
X136569183Y-88124500D01*
X136430817Y-88124500D01*
X136297164Y-88160312D01*
X136297161Y-88160313D01*
X136177338Y-88229492D01*
X136177333Y-88229496D01*
X136137681Y-88269149D01*
X136076358Y-88302634D01*
X136006666Y-88297650D01*
X135962319Y-88269149D01*
X135922666Y-88229496D01*
X135922661Y-88229492D01*
X135802838Y-88160313D01*
X135802837Y-88160312D01*
X135802836Y-88160312D01*
X135669183Y-88124500D01*
X135530817Y-88124500D01*
X135397164Y-88160312D01*
X135397161Y-88160313D01*
X135277338Y-88229492D01*
X135277333Y-88229496D01*
X135179496Y-88327333D01*
X135179492Y-88327338D01*
X135110313Y-88447161D01*
X135110312Y-88447164D01*
X135074500Y-88580817D01*
X135074500Y-88719183D01*
X135102720Y-88824500D01*
X135110312Y-88852835D01*
X135110313Y-88852838D01*
X135179492Y-88972661D01*
X135179494Y-88972664D01*
X135179495Y-88972665D01*
X135277335Y-89070505D01*
X135397164Y-89139688D01*
X135457595Y-89155880D01*
X135517253Y-89192243D01*
X135547783Y-89255090D01*
X135549500Y-89275654D01*
X135549500Y-90944419D01*
X135529815Y-91011458D01*
X135477011Y-91057213D01*
X135407853Y-91067157D01*
X135369206Y-91054904D01*
X135222450Y-90980129D01*
X135222447Y-90980128D01*
X135222445Y-90980127D01*
X135057701Y-90926598D01*
X135057699Y-90926597D01*
X135057698Y-90926597D01*
X134920939Y-90904937D01*
X134886611Y-90899500D01*
X134713389Y-90899500D01*
X134679061Y-90904937D01*
X134542302Y-90926597D01*
X134377552Y-90980128D01*
X134223211Y-91058768D01*
X134180654Y-91089688D01*
X134083072Y-91160586D01*
X134083070Y-91160588D01*
X134083069Y-91160588D01*
X133960588Y-91283069D01*
X133960588Y-91283070D01*
X133960586Y-91283072D01*
X133950348Y-91297164D01*
X133858768Y-91423211D01*
X133780128Y-91577552D01*
X133726597Y-91742302D01*
X133699500Y-91913389D01*
X133699500Y-92086610D01*
X133718509Y-92206633D01*
X133726598Y-92257701D01*
X133780127Y-92422445D01*
X133858768Y-92576788D01*
X133960586Y-92716928D01*
X134083072Y-92839414D01*
X134223212Y-92941232D01*
X134377555Y-93019873D01*
X134542299Y-93073402D01*
X134713389Y-93100500D01*
X134713390Y-93100500D01*
X134886610Y-93100500D01*
X134886611Y-93100500D01*
X135057701Y-93073402D01*
X135222445Y-93019873D01*
X135369207Y-92945094D01*
X135437874Y-92932199D01*
X135502615Y-92958475D01*
X135542872Y-93015582D01*
X135549500Y-93055580D01*
X135549500Y-93484419D01*
X135529815Y-93551458D01*
X135477011Y-93597213D01*
X135407853Y-93607157D01*
X135369206Y-93594904D01*
X135222450Y-93520129D01*
X135222447Y-93520128D01*
X135222445Y-93520127D01*
X135057701Y-93466598D01*
X135057699Y-93466597D01*
X135057698Y-93466597D01*
X134926271Y-93445781D01*
X134886611Y-93439500D01*
X134713389Y-93439500D01*
X134673728Y-93445781D01*
X134542302Y-93466597D01*
X134542299Y-93466598D01*
X134380467Y-93519181D01*
X134377552Y-93520128D01*
X134223211Y-93598768D01*
X134148801Y-93652831D01*
X134083072Y-93700586D01*
X134083070Y-93700588D01*
X134083069Y-93700588D01*
X133960588Y-93823069D01*
X133960588Y-93823070D01*
X133960586Y-93823072D01*
X133936310Y-93856485D01*
X133858768Y-93963211D01*
X133780128Y-94117552D01*
X133726597Y-94282302D01*
X133699500Y-94453389D01*
X133699500Y-94626610D01*
X133714713Y-94722666D01*
X133726598Y-94797701D01*
X133780127Y-94962445D01*
X133858768Y-95116788D01*
X133960586Y-95256928D01*
X134083072Y-95379414D01*
X134223212Y-95481232D01*
X134377555Y-95559873D01*
X134542299Y-95613402D01*
X134713389Y-95640500D01*
X134713390Y-95640500D01*
X134886610Y-95640500D01*
X134886611Y-95640500D01*
X135057701Y-95613402D01*
X135222445Y-95559873D01*
X135331181Y-95504469D01*
X135399848Y-95491574D01*
X135464589Y-95517850D01*
X135504846Y-95574956D01*
X135507838Y-95644762D01*
X135475155Y-95702636D01*
X132314611Y-98863181D01*
X132253288Y-98896666D01*
X132226930Y-98899500D01*
X131153856Y-98899500D01*
X131064712Y-98923386D01*
X131064709Y-98923387D01*
X130984791Y-98969527D01*
X130984786Y-98969531D01*
X129666137Y-100288181D01*
X129604814Y-100321666D01*
X129578456Y-100324500D01*
X129530817Y-100324500D01*
X129397164Y-100360312D01*
X129397161Y-100360313D01*
X129277338Y-100429492D01*
X129277333Y-100429496D01*
X129179496Y-100527333D01*
X129179492Y-100527338D01*
X129110313Y-100647161D01*
X129110312Y-100647164D01*
X129074500Y-100780817D01*
X88246173Y-100780817D01*
X88215270Y-100738282D01*
X88215269Y-100738282D01*
X87582962Y-101370590D01*
X87565925Y-101307007D01*
X87500099Y-101192993D01*
X87407007Y-101099901D01*
X87292993Y-101034075D01*
X87229409Y-101017037D01*
X87861716Y-100384728D01*
X87807550Y-100345375D01*
X87618217Y-100248904D01*
X87416129Y-100183242D01*
X87206246Y-100150000D01*
X86993754Y-100150000D01*
X86783872Y-100183242D01*
X86783869Y-100183242D01*
X86581782Y-100248904D01*
X86392439Y-100345380D01*
X86338282Y-100384727D01*
X86338282Y-100384728D01*
X86970591Y-101017037D01*
X86907007Y-101034075D01*
X86792993Y-101099901D01*
X86699901Y-101192993D01*
X86634075Y-101307007D01*
X86617037Y-101370591D01*
X85984728Y-100738282D01*
X85984727Y-100738282D01*
X85945380Y-100792440D01*
X85945378Y-100792443D01*
X85894984Y-100891346D01*
X85847010Y-100942141D01*
X85779188Y-100958936D01*
X85713054Y-100936398D01*
X85669603Y-100881683D01*
X85660500Y-100835050D01*
X85660500Y-100625323D01*
X85660499Y-100625321D01*
X85645967Y-100552264D01*
X85645966Y-100552260D01*
X85629312Y-100527335D01*
X85590601Y-100469399D01*
X85507740Y-100414034D01*
X85507739Y-100414033D01*
X85507735Y-100414032D01*
X85434677Y-100399500D01*
X85434674Y-100399500D01*
X83685326Y-100399500D01*
X83685323Y-100399500D01*
X83612264Y-100414032D01*
X83612260Y-100414033D01*
X83529399Y-100469399D01*
X83474033Y-100552260D01*
X83474032Y-100552264D01*
X83459500Y-100625321D01*
X83459500Y-102003035D01*
X83439815Y-102070074D01*
X83387011Y-102115829D01*
X83317853Y-102125773D01*
X83254297Y-102096748D01*
X83247819Y-102090716D01*
X82986819Y-101829716D01*
X82953334Y-101768393D01*
X82950500Y-101742035D01*
X82950500Y-98453937D01*
X82967113Y-98391936D01*
X82989688Y-98352836D01*
X83025500Y-98219183D01*
X83025500Y-98080817D01*
X82989688Y-97947164D01*
X82932328Y-97847813D01*
X82920507Y-97827338D01*
X82920503Y-97827333D01*
X82822666Y-97729496D01*
X82822661Y-97729492D01*
X82702838Y-97660313D01*
X82702837Y-97660312D01*
X82702836Y-97660312D01*
X82569183Y-97624500D01*
X82430817Y-97624500D01*
X82297164Y-97660312D01*
X82297161Y-97660313D01*
X82177338Y-97729492D01*
X82177333Y-97729496D01*
X82079496Y-97827333D01*
X82079492Y-97827338D01*
X82010313Y-97947161D01*
X82010312Y-97947164D01*
X81974500Y-98080817D01*
X79840592Y-98080817D01*
X79788086Y-83940691D01*
X86749500Y-83940691D01*
X86749500Y-96559308D01*
X86773712Y-96649672D01*
X86780200Y-96673885D01*
X86780200Y-96673886D01*
X86780201Y-96673887D01*
X86839511Y-96776614D01*
X86839513Y-96776616D01*
X88863181Y-98800284D01*
X88896666Y-98861607D01*
X88899500Y-98887965D01*
X88899500Y-99146062D01*
X88882888Y-99208061D01*
X88860312Y-99247163D01*
X88860312Y-99247164D01*
X88824500Y-99380817D01*
X88824500Y-99519183D01*
X88846915Y-99602835D01*
X88860312Y-99652835D01*
X88860313Y-99652838D01*
X88929492Y-99772661D01*
X88929494Y-99772664D01*
X88929495Y-99772665D01*
X89027335Y-99870505D01*
X89027336Y-99870506D01*
X89027338Y-99870507D01*
X89060559Y-99889687D01*
X89147164Y-99939688D01*
X89280817Y-99975500D01*
X89280819Y-99975500D01*
X89419181Y-99975500D01*
X89419183Y-99975500D01*
X89552836Y-99939688D01*
X89672665Y-99870505D01*
X89770505Y-99772665D01*
X89839688Y-99652836D01*
X89875500Y-99519183D01*
X89875500Y-99380817D01*
X89839688Y-99247164D01*
X89817111Y-99208060D01*
X89800500Y-99146062D01*
X89800500Y-98590693D01*
X89800500Y-98590691D01*
X89769799Y-98476114D01*
X89769799Y-98476113D01*
X89710489Y-98373386D01*
X87686819Y-96349716D01*
X87653334Y-96288393D01*
X87650500Y-96262035D01*
X87650500Y-86930817D01*
X94774500Y-86930817D01*
X94774500Y-87069183D01*
X94802509Y-87173712D01*
X94810312Y-87202835D01*
X94810313Y-87202838D01*
X94879492Y-87322661D01*
X94879494Y-87322664D01*
X94879495Y-87322665D01*
X94977335Y-87420505D01*
X95097164Y-87489688D01*
X95230817Y-87525500D01*
X95230819Y-87525500D01*
X95369181Y-87525500D01*
X95369183Y-87525500D01*
X95502836Y-87489688D01*
X95541937Y-87467112D01*
X95603937Y-87450500D01*
X96746063Y-87450500D01*
X96808062Y-87467112D01*
X96847164Y-87489688D01*
X96980817Y-87525500D01*
X96980819Y-87525500D01*
X97119181Y-87525500D01*
X97119183Y-87525500D01*
X97252836Y-87489688D01*
X97372665Y-87420505D01*
X97470505Y-87322665D01*
X97539688Y-87202836D01*
X97575500Y-87069183D01*
X97575500Y-86930817D01*
X97539688Y-86797164D01*
X97470505Y-86677335D01*
X97372665Y-86579495D01*
X97372664Y-86579494D01*
X97372661Y-86579492D01*
X97252838Y-86510313D01*
X97252837Y-86510312D01*
X97252836Y-86510312D01*
X97119183Y-86474500D01*
X96980817Y-86474500D01*
X96847164Y-86510312D01*
X96847161Y-86510313D01*
X96808063Y-86532887D01*
X96746063Y-86549500D01*
X95603937Y-86549500D01*
X95541937Y-86532887D01*
X95502838Y-86510313D01*
X95502837Y-86510312D01*
X95502836Y-86510312D01*
X95369183Y-86474500D01*
X95230817Y-86474500D01*
X95097164Y-86510312D01*
X95097161Y-86510313D01*
X94977338Y-86579492D01*
X94977333Y-86579496D01*
X94879496Y-86677333D01*
X94879492Y-86677338D01*
X94810313Y-86797161D01*
X94810312Y-86797164D01*
X94774500Y-86930817D01*
X87650500Y-86930817D01*
X87650500Y-84237964D01*
X87670185Y-84170925D01*
X87686814Y-84150288D01*
X97750249Y-74086853D01*
X97811569Y-74053370D01*
X97881261Y-74058354D01*
X97937194Y-74100226D01*
X97961611Y-74165690D01*
X97946759Y-74233963D01*
X97945315Y-74236534D01*
X97910314Y-74297159D01*
X97910312Y-74297164D01*
X97874500Y-74430817D01*
X97874500Y-74569182D01*
X97910312Y-74702835D01*
X97910313Y-74702838D01*
X97979492Y-74822661D01*
X97979494Y-74822664D01*
X97979495Y-74822665D01*
X98077335Y-74920505D01*
X98197164Y-74989688D01*
X98240777Y-75001374D01*
X98296364Y-75033467D01*
X100063181Y-76800284D01*
X100096666Y-76861607D01*
X100099500Y-76887965D01*
X100099500Y-93059309D01*
X100113214Y-93110489D01*
X100130201Y-93173887D01*
X100189511Y-93276614D01*
X106673386Y-99760490D01*
X106776113Y-99819799D01*
X106800321Y-99826284D01*
X106800324Y-99826286D01*
X106800325Y-99826286D01*
X106830447Y-99834357D01*
X106890691Y-99850500D01*
X110696063Y-99850500D01*
X110758062Y-99867112D01*
X110797164Y-99889688D01*
X110930817Y-99925500D01*
X110930819Y-99925500D01*
X111069181Y-99925500D01*
X111069183Y-99925500D01*
X111202836Y-99889688D01*
X111322665Y-99820505D01*
X111420505Y-99722665D01*
X111489688Y-99602836D01*
X111525500Y-99469183D01*
X111525500Y-99330817D01*
X111489688Y-99197164D01*
X111445428Y-99120503D01*
X111420507Y-99077338D01*
X111420503Y-99077333D01*
X111322666Y-98979496D01*
X111322661Y-98979492D01*
X111202838Y-98910313D01*
X111202837Y-98910312D01*
X111202836Y-98910312D01*
X111069183Y-98874500D01*
X110930817Y-98874500D01*
X110797164Y-98910312D01*
X110797161Y-98910313D01*
X110758063Y-98932887D01*
X110696063Y-98949500D01*
X107187966Y-98949500D01*
X107120927Y-98929815D01*
X107100285Y-98913181D01*
X101036819Y-92849715D01*
X101003334Y-92788392D01*
X101000500Y-92762034D01*
X101000500Y-82680817D01*
X102224500Y-82680817D01*
X102224500Y-82819182D01*
X102260312Y-82952836D01*
X102282887Y-82991936D01*
X102299500Y-83053937D01*
X102299500Y-93146062D01*
X102282888Y-93208061D01*
X102260312Y-93247163D01*
X102260312Y-93247164D01*
X102224500Y-93380817D01*
X102224500Y-93519183D01*
X102248073Y-93607157D01*
X102260312Y-93652835D01*
X102260313Y-93652838D01*
X102329492Y-93772661D01*
X102329494Y-93772664D01*
X102329495Y-93772665D01*
X102427335Y-93870505D01*
X102427336Y-93870506D01*
X102427338Y-93870507D01*
X102487249Y-93905096D01*
X102547164Y-93939688D01*
X102680817Y-93975500D01*
X102680819Y-93975500D01*
X102819181Y-93975500D01*
X102819183Y-93975500D01*
X102952836Y-93939688D01*
X103072665Y-93870505D01*
X103170505Y-93772665D01*
X103232480Y-93665321D01*
X118459500Y-93665321D01*
X118459500Y-95414678D01*
X118474032Y-95487735D01*
X118474033Y-95487739D01*
X118485212Y-95504470D01*
X118529399Y-95570601D01*
X118612260Y-95625966D01*
X118612264Y-95625967D01*
X118685321Y-95640499D01*
X118685324Y-95640500D01*
X118685326Y-95640500D01*
X120434676Y-95640500D01*
X120434677Y-95640499D01*
X120507740Y-95625966D01*
X120590601Y-95570601D01*
X120645966Y-95487740D01*
X120660500Y-95414674D01*
X120660500Y-94453389D01*
X120999500Y-94453389D01*
X120999500Y-94626610D01*
X121014713Y-94722666D01*
X121026598Y-94797701D01*
X121080127Y-94962445D01*
X121158768Y-95116788D01*
X121260586Y-95256928D01*
X121383072Y-95379414D01*
X121523212Y-95481232D01*
X121677555Y-95559873D01*
X121842299Y-95613402D01*
X122013389Y-95640500D01*
X122013390Y-95640500D01*
X122186610Y-95640500D01*
X122186611Y-95640500D01*
X122357701Y-95613402D01*
X122522445Y-95559873D01*
X122676788Y-95481232D01*
X122816928Y-95379414D01*
X122939414Y-95256928D01*
X123041232Y-95116788D01*
X123119873Y-94962445D01*
X123173402Y-94797701D01*
X123200500Y-94626611D01*
X123200500Y-94453389D01*
X123539500Y-94453389D01*
X123539500Y-94626610D01*
X123554713Y-94722666D01*
X123566598Y-94797701D01*
X123620127Y-94962445D01*
X123698768Y-95116788D01*
X123800586Y-95256928D01*
X123923072Y-95379414D01*
X124063212Y-95481232D01*
X124217555Y-95559873D01*
X124382299Y-95613402D01*
X124553389Y-95640500D01*
X124553390Y-95640500D01*
X124726610Y-95640500D01*
X124726611Y-95640500D01*
X124897701Y-95613402D01*
X125062445Y-95559873D01*
X125216788Y-95481232D01*
X125356928Y-95379414D01*
X125479414Y-95256928D01*
X125581232Y-95116788D01*
X125659873Y-94962445D01*
X125713402Y-94797701D01*
X125740500Y-94626611D01*
X125740500Y-94453389D01*
X126079500Y-94453389D01*
X126079500Y-94626610D01*
X126094713Y-94722666D01*
X126106598Y-94797701D01*
X126160127Y-94962445D01*
X126238768Y-95116788D01*
X126340586Y-95256928D01*
X126463072Y-95379414D01*
X126603212Y-95481232D01*
X126757555Y-95559873D01*
X126922299Y-95613402D01*
X127093389Y-95640500D01*
X127093390Y-95640500D01*
X127266610Y-95640500D01*
X127266611Y-95640500D01*
X127437701Y-95613402D01*
X127602445Y-95559873D01*
X127756788Y-95481232D01*
X127896928Y-95379414D01*
X128019414Y-95256928D01*
X128121232Y-95116788D01*
X128199873Y-94962445D01*
X128253402Y-94797701D01*
X128280500Y-94626611D01*
X128280500Y-94453389D01*
X128619500Y-94453389D01*
X128619500Y-94626610D01*
X128634713Y-94722666D01*
X128646598Y-94797701D01*
X128700127Y-94962445D01*
X128778768Y-95116788D01*
X128880586Y-95256928D01*
X129003072Y-95379414D01*
X129143212Y-95481232D01*
X129297555Y-95559873D01*
X129462299Y-95613402D01*
X129633389Y-95640500D01*
X129633390Y-95640500D01*
X129806610Y-95640500D01*
X129806611Y-95640500D01*
X129977701Y-95613402D01*
X130142445Y-95559873D01*
X130296788Y-95481232D01*
X130436928Y-95379414D01*
X130559414Y-95256928D01*
X130661232Y-95116788D01*
X130739873Y-94962445D01*
X130793402Y-94797701D01*
X130820500Y-94626611D01*
X130820500Y-94453389D01*
X131159500Y-94453389D01*
X131159500Y-94626610D01*
X131174713Y-94722666D01*
X131186598Y-94797701D01*
X131240127Y-94962445D01*
X131318768Y-95116788D01*
X131420586Y-95256928D01*
X131543072Y-95379414D01*
X131683212Y-95481232D01*
X131837555Y-95559873D01*
X132002299Y-95613402D01*
X132173389Y-95640500D01*
X132173390Y-95640500D01*
X132346610Y-95640500D01*
X132346611Y-95640500D01*
X132517701Y-95613402D01*
X132682445Y-95559873D01*
X132836788Y-95481232D01*
X132976928Y-95379414D01*
X133099414Y-95256928D01*
X133201232Y-95116788D01*
X133279873Y-94962445D01*
X133333402Y-94797701D01*
X133360500Y-94626611D01*
X133360500Y-94453389D01*
X133333402Y-94282299D01*
X133279873Y-94117555D01*
X133201232Y-93963212D01*
X133099414Y-93823072D01*
X132976928Y-93700586D01*
X132836788Y-93598768D01*
X132743936Y-93551458D01*
X132682447Y-93520128D01*
X132682446Y-93520127D01*
X132682445Y-93520127D01*
X132517701Y-93466598D01*
X132517699Y-93466597D01*
X132517698Y-93466597D01*
X132386271Y-93445781D01*
X132346611Y-93439500D01*
X132173389Y-93439500D01*
X132133728Y-93445781D01*
X132002302Y-93466597D01*
X132002299Y-93466598D01*
X131840467Y-93519181D01*
X131837552Y-93520128D01*
X131683211Y-93598768D01*
X131608801Y-93652831D01*
X131543072Y-93700586D01*
X131543070Y-93700588D01*
X131543069Y-93700588D01*
X131420588Y-93823069D01*
X131420588Y-93823070D01*
X131420586Y-93823072D01*
X131396310Y-93856485D01*
X131318768Y-93963211D01*
X131240128Y-94117552D01*
X131186597Y-94282302D01*
X131159500Y-94453389D01*
X130820500Y-94453389D01*
X130793402Y-94282299D01*
X130739873Y-94117555D01*
X130661232Y-93963212D01*
X130559414Y-93823072D01*
X130436928Y-93700586D01*
X130296788Y-93598768D01*
X130203936Y-93551458D01*
X130142447Y-93520128D01*
X130142446Y-93520127D01*
X130142445Y-93520127D01*
X129977701Y-93466598D01*
X129977699Y-93466597D01*
X129977698Y-93466597D01*
X129846271Y-93445781D01*
X129806611Y-93439500D01*
X129633389Y-93439500D01*
X129593728Y-93445781D01*
X129462302Y-93466597D01*
X129462299Y-93466598D01*
X129300467Y-93519181D01*
X129297552Y-93520128D01*
X129143211Y-93598768D01*
X129068801Y-93652831D01*
X129003072Y-93700586D01*
X129003070Y-93700588D01*
X129003069Y-93700588D01*
X128880588Y-93823069D01*
X128880588Y-93823070D01*
X128880586Y-93823072D01*
X128856310Y-93856485D01*
X128778768Y-93963211D01*
X128700128Y-94117552D01*
X128646597Y-94282302D01*
X128619500Y-94453389D01*
X128280500Y-94453389D01*
X128253402Y-94282299D01*
X128199873Y-94117555D01*
X128121232Y-93963212D01*
X128019414Y-93823072D01*
X127896928Y-93700586D01*
X127756788Y-93598768D01*
X127663936Y-93551458D01*
X127602447Y-93520128D01*
X127602446Y-93520127D01*
X127602445Y-93520127D01*
X127437701Y-93466598D01*
X127437699Y-93466597D01*
X127437698Y-93466597D01*
X127306271Y-93445781D01*
X127266611Y-93439500D01*
X127093389Y-93439500D01*
X127053728Y-93445781D01*
X126922302Y-93466597D01*
X126922299Y-93466598D01*
X126760467Y-93519181D01*
X126757552Y-93520128D01*
X126603211Y-93598768D01*
X126528801Y-93652831D01*
X126463072Y-93700586D01*
X126463070Y-93700588D01*
X126463069Y-93700588D01*
X126340588Y-93823069D01*
X126340588Y-93823070D01*
X126340586Y-93823072D01*
X126316310Y-93856485D01*
X126238768Y-93963211D01*
X126160128Y-94117552D01*
X126106597Y-94282302D01*
X126079500Y-94453389D01*
X125740500Y-94453389D01*
X125713402Y-94282299D01*
X125659873Y-94117555D01*
X125581232Y-93963212D01*
X125479414Y-93823072D01*
X125356928Y-93700586D01*
X125216788Y-93598768D01*
X125123936Y-93551458D01*
X125062447Y-93520128D01*
X125062446Y-93520127D01*
X125062445Y-93520127D01*
X124897701Y-93466598D01*
X124897699Y-93466597D01*
X124897698Y-93466597D01*
X124766271Y-93445781D01*
X124726611Y-93439500D01*
X124553389Y-93439500D01*
X124513728Y-93445781D01*
X124382302Y-93466597D01*
X124382299Y-93466598D01*
X124220467Y-93519181D01*
X124217552Y-93520128D01*
X124063211Y-93598768D01*
X123988801Y-93652831D01*
X123923072Y-93700586D01*
X123923070Y-93700588D01*
X123923069Y-93700588D01*
X123800588Y-93823069D01*
X123800588Y-93823070D01*
X123800586Y-93823072D01*
X123776310Y-93856485D01*
X123698768Y-93963211D01*
X123620128Y-94117552D01*
X123566597Y-94282302D01*
X123539500Y-94453389D01*
X123200500Y-94453389D01*
X123173402Y-94282299D01*
X123119873Y-94117555D01*
X123041232Y-93963212D01*
X122939414Y-93823072D01*
X122816928Y-93700586D01*
X122676788Y-93598768D01*
X122583936Y-93551458D01*
X122522447Y-93520128D01*
X122522446Y-93520127D01*
X122522445Y-93520127D01*
X122357701Y-93466598D01*
X122357699Y-93466597D01*
X122357698Y-93466597D01*
X122226271Y-93445781D01*
X122186611Y-93439500D01*
X122013389Y-93439500D01*
X121973728Y-93445781D01*
X121842302Y-93466597D01*
X121842299Y-93466598D01*
X121680467Y-93519181D01*
X121677552Y-93520128D01*
X121523211Y-93598768D01*
X121448801Y-93652831D01*
X121383072Y-93700586D01*
X121383070Y-93700588D01*
X121383069Y-93700588D01*
X121260588Y-93823069D01*
X121260588Y-93823070D01*
X121260586Y-93823072D01*
X121236310Y-93856485D01*
X121158768Y-93963211D01*
X121080128Y-94117552D01*
X121026597Y-94282302D01*
X120999500Y-94453389D01*
X120660500Y-94453389D01*
X120660500Y-93665326D01*
X120660500Y-93665323D01*
X120660499Y-93665321D01*
X120645967Y-93592264D01*
X120645966Y-93592260D01*
X120644328Y-93589809D01*
X120590601Y-93509399D01*
X120507740Y-93454034D01*
X120507739Y-93454033D01*
X120507735Y-93454032D01*
X120434677Y-93439500D01*
X120434674Y-93439500D01*
X118685326Y-93439500D01*
X118685323Y-93439500D01*
X118612264Y-93454032D01*
X118612260Y-93454033D01*
X118529399Y-93509399D01*
X118474033Y-93592260D01*
X118474032Y-93592264D01*
X118459500Y-93665321D01*
X103232480Y-93665321D01*
X103239688Y-93652836D01*
X103242316Y-93643027D01*
X103246574Y-93627139D01*
X103260161Y-93576428D01*
X103275500Y-93519183D01*
X103275500Y-93380817D01*
X103239688Y-93247164D01*
X103217111Y-93208060D01*
X103200500Y-93146062D01*
X103200500Y-91913389D01*
X118459500Y-91913389D01*
X118459500Y-92086610D01*
X118478509Y-92206633D01*
X118486598Y-92257701D01*
X118540127Y-92422445D01*
X118618768Y-92576788D01*
X118720586Y-92716928D01*
X118843072Y-92839414D01*
X118983212Y-92941232D01*
X119137555Y-93019873D01*
X119302299Y-93073402D01*
X119473389Y-93100500D01*
X119473390Y-93100500D01*
X119646610Y-93100500D01*
X119646611Y-93100500D01*
X119817701Y-93073402D01*
X119982445Y-93019873D01*
X120136788Y-92941232D01*
X120276928Y-92839414D01*
X120399414Y-92716928D01*
X120501232Y-92576788D01*
X120579873Y-92422445D01*
X120633402Y-92257701D01*
X120660500Y-92086611D01*
X120660500Y-91913389D01*
X120999500Y-91913389D01*
X120999500Y-92086610D01*
X121018509Y-92206633D01*
X121026598Y-92257701D01*
X121080127Y-92422445D01*
X121158768Y-92576788D01*
X121260586Y-92716928D01*
X121383072Y-92839414D01*
X121523212Y-92941232D01*
X121677555Y-93019873D01*
X121842299Y-93073402D01*
X122013389Y-93100500D01*
X122013390Y-93100500D01*
X122186610Y-93100500D01*
X122186611Y-93100500D01*
X122357701Y-93073402D01*
X122522445Y-93019873D01*
X122676788Y-92941232D01*
X122816928Y-92839414D01*
X122939414Y-92716928D01*
X123041232Y-92576788D01*
X123119873Y-92422445D01*
X123173402Y-92257701D01*
X123200500Y-92086611D01*
X123200500Y-91913389D01*
X123539500Y-91913389D01*
X123539500Y-92086610D01*
X123558509Y-92206633D01*
X123566598Y-92257701D01*
X123620127Y-92422445D01*
X123698768Y-92576788D01*
X123800586Y-92716928D01*
X123923072Y-92839414D01*
X124063212Y-92941232D01*
X124217555Y-93019873D01*
X124382299Y-93073402D01*
X124553389Y-93100500D01*
X124553390Y-93100500D01*
X124726610Y-93100500D01*
X124726611Y-93100500D01*
X124897701Y-93073402D01*
X125062445Y-93019873D01*
X125216788Y-92941232D01*
X125356928Y-92839414D01*
X125479414Y-92716928D01*
X125581232Y-92576788D01*
X125659873Y-92422445D01*
X125713402Y-92257701D01*
X125740500Y-92086611D01*
X125740500Y-91913389D01*
X126079500Y-91913389D01*
X126079500Y-92086610D01*
X126098509Y-92206633D01*
X126106598Y-92257701D01*
X126160127Y-92422445D01*
X126238768Y-92576788D01*
X126340586Y-92716928D01*
X126463072Y-92839414D01*
X126603212Y-92941232D01*
X126757555Y-93019873D01*
X126922299Y-93073402D01*
X127093389Y-93100500D01*
X127093390Y-93100500D01*
X127266610Y-93100500D01*
X127266611Y-93100500D01*
X127437701Y-93073402D01*
X127602445Y-93019873D01*
X127756788Y-92941232D01*
X127896928Y-92839414D01*
X128019414Y-92716928D01*
X128121232Y-92576788D01*
X128199873Y-92422445D01*
X128253402Y-92257701D01*
X128280500Y-92086611D01*
X128280500Y-91913389D01*
X128619500Y-91913389D01*
X128619500Y-92086610D01*
X128638509Y-92206633D01*
X128646598Y-92257701D01*
X128700127Y-92422445D01*
X128778768Y-92576788D01*
X128880586Y-92716928D01*
X129003072Y-92839414D01*
X129143212Y-92941232D01*
X129297555Y-93019873D01*
X129462299Y-93073402D01*
X129633389Y-93100500D01*
X129633390Y-93100500D01*
X129806610Y-93100500D01*
X129806611Y-93100500D01*
X129977701Y-93073402D01*
X130142445Y-93019873D01*
X130296788Y-92941232D01*
X130436928Y-92839414D01*
X130559414Y-92716928D01*
X130661232Y-92576788D01*
X130739873Y-92422445D01*
X130793402Y-92257701D01*
X130820500Y-92086611D01*
X130820500Y-91913389D01*
X131159500Y-91913389D01*
X131159500Y-92086610D01*
X131178509Y-92206633D01*
X131186598Y-92257701D01*
X131240127Y-92422445D01*
X131318768Y-92576788D01*
X131420586Y-92716928D01*
X131543072Y-92839414D01*
X131683212Y-92941232D01*
X131837555Y-93019873D01*
X132002299Y-93073402D01*
X132173389Y-93100500D01*
X132173390Y-93100500D01*
X132346610Y-93100500D01*
X132346611Y-93100500D01*
X132517701Y-93073402D01*
X132682445Y-93019873D01*
X132836788Y-92941232D01*
X132976928Y-92839414D01*
X133099414Y-92716928D01*
X133201232Y-92576788D01*
X133279873Y-92422445D01*
X133333402Y-92257701D01*
X133360500Y-92086611D01*
X133360500Y-91913389D01*
X133333402Y-91742299D01*
X133279873Y-91577555D01*
X133201232Y-91423212D01*
X133099414Y-91283072D01*
X132976928Y-91160586D01*
X132836788Y-91058768D01*
X132682445Y-90980127D01*
X132517701Y-90926598D01*
X132517699Y-90926597D01*
X132517698Y-90926597D01*
X132380939Y-90904937D01*
X132346611Y-90899500D01*
X132173389Y-90899500D01*
X132139061Y-90904937D01*
X132002302Y-90926597D01*
X131837552Y-90980128D01*
X131683211Y-91058768D01*
X131640654Y-91089688D01*
X131543072Y-91160586D01*
X131543070Y-91160588D01*
X131543069Y-91160588D01*
X131420588Y-91283069D01*
X131420588Y-91283070D01*
X131420586Y-91283072D01*
X131410348Y-91297164D01*
X131318768Y-91423211D01*
X131240128Y-91577552D01*
X131186597Y-91742302D01*
X131159500Y-91913389D01*
X130820500Y-91913389D01*
X130793402Y-91742299D01*
X130739873Y-91577555D01*
X130661232Y-91423212D01*
X130559414Y-91283072D01*
X130436928Y-91160586D01*
X130296788Y-91058768D01*
X130142445Y-90980127D01*
X129977701Y-90926598D01*
X129977699Y-90926597D01*
X129977698Y-90926597D01*
X129840939Y-90904937D01*
X129806611Y-90899500D01*
X129633389Y-90899500D01*
X129599061Y-90904937D01*
X129462302Y-90926597D01*
X129297552Y-90980128D01*
X129143211Y-91058768D01*
X129100654Y-91089688D01*
X129003072Y-91160586D01*
X129003070Y-91160588D01*
X129003069Y-91160588D01*
X128880588Y-91283069D01*
X128880588Y-91283070D01*
X128880586Y-91283072D01*
X128870348Y-91297164D01*
X128778768Y-91423211D01*
X128700128Y-91577552D01*
X128646597Y-91742302D01*
X128619500Y-91913389D01*
X128280500Y-91913389D01*
X128253402Y-91742299D01*
X128199873Y-91577555D01*
X128121232Y-91423212D01*
X128019414Y-91283072D01*
X127896928Y-91160586D01*
X127756788Y-91058768D01*
X127602445Y-90980127D01*
X127437701Y-90926598D01*
X127437699Y-90926597D01*
X127437698Y-90926597D01*
X127300939Y-90904937D01*
X127266611Y-90899500D01*
X127093389Y-90899500D01*
X127059061Y-90904937D01*
X126922302Y-90926597D01*
X126757552Y-90980128D01*
X126603211Y-91058768D01*
X126560654Y-91089688D01*
X126463072Y-91160586D01*
X126463070Y-91160588D01*
X126463069Y-91160588D01*
X126340588Y-91283069D01*
X126340588Y-91283070D01*
X126340586Y-91283072D01*
X126330348Y-91297164D01*
X126238768Y-91423211D01*
X126160128Y-91577552D01*
X126106597Y-91742302D01*
X126079500Y-91913389D01*
X125740500Y-91913389D01*
X125713402Y-91742299D01*
X125659873Y-91577555D01*
X125581232Y-91423212D01*
X125479414Y-91283072D01*
X125356928Y-91160586D01*
X125216788Y-91058768D01*
X125062445Y-90980127D01*
X124897701Y-90926598D01*
X124897699Y-90926597D01*
X124897698Y-90926597D01*
X124760939Y-90904937D01*
X124726611Y-90899500D01*
X124553389Y-90899500D01*
X124519061Y-90904937D01*
X124382302Y-90926597D01*
X124217552Y-90980128D01*
X124063211Y-91058768D01*
X124020654Y-91089688D01*
X123923072Y-91160586D01*
X123923070Y-91160588D01*
X123923069Y-91160588D01*
X123800588Y-91283069D01*
X123800588Y-91283070D01*
X123800586Y-91283072D01*
X123790348Y-91297164D01*
X123698768Y-91423211D01*
X123620128Y-91577552D01*
X123566597Y-91742302D01*
X123539500Y-91913389D01*
X123200500Y-91913389D01*
X123173402Y-91742299D01*
X123119873Y-91577555D01*
X123041232Y-91423212D01*
X122939414Y-91283072D01*
X122816928Y-91160586D01*
X122676788Y-91058768D01*
X122522445Y-90980127D01*
X122357701Y-90926598D01*
X122357699Y-90926597D01*
X122357698Y-90926597D01*
X122220939Y-90904937D01*
X122186611Y-90899500D01*
X122013389Y-90899500D01*
X121979061Y-90904937D01*
X121842302Y-90926597D01*
X121677552Y-90980128D01*
X121523211Y-91058768D01*
X121480654Y-91089688D01*
X121383072Y-91160586D01*
X121383070Y-91160588D01*
X121383069Y-91160588D01*
X121260588Y-91283069D01*
X121260588Y-91283070D01*
X121260586Y-91283072D01*
X121250348Y-91297164D01*
X121158768Y-91423211D01*
X121080128Y-91577552D01*
X121026597Y-91742302D01*
X120999500Y-91913389D01*
X120660500Y-91913389D01*
X120633402Y-91742299D01*
X120579873Y-91577555D01*
X120501232Y-91423212D01*
X120399414Y-91283072D01*
X120276928Y-91160586D01*
X120136788Y-91058768D01*
X119982445Y-90980127D01*
X119817701Y-90926598D01*
X119817699Y-90926597D01*
X119817698Y-90926597D01*
X119680939Y-90904937D01*
X119646611Y-90899500D01*
X119473389Y-90899500D01*
X119439061Y-90904937D01*
X119302302Y-90926597D01*
X119137552Y-90980128D01*
X118983211Y-91058768D01*
X118940654Y-91089688D01*
X118843072Y-91160586D01*
X118843070Y-91160588D01*
X118843069Y-91160588D01*
X118720588Y-91283069D01*
X118720588Y-91283070D01*
X118720586Y-91283072D01*
X118710348Y-91297164D01*
X118618768Y-91423211D01*
X118540128Y-91577552D01*
X118486597Y-91742302D01*
X118459500Y-91913389D01*
X103200500Y-91913389D01*
X103200500Y-83053937D01*
X103217113Y-82991936D01*
X103239688Y-82952836D01*
X103275500Y-82819183D01*
X103275500Y-82680817D01*
X103239688Y-82547164D01*
X103170505Y-82427335D01*
X103072665Y-82329495D01*
X103072664Y-82329494D01*
X103072661Y-82329492D01*
X102952838Y-82260313D01*
X102952837Y-82260312D01*
X102952836Y-82260312D01*
X102819183Y-82224500D01*
X102680817Y-82224500D01*
X102547164Y-82260312D01*
X102547161Y-82260313D01*
X102427338Y-82329492D01*
X102427333Y-82329496D01*
X102329496Y-82427333D01*
X102329492Y-82427338D01*
X102260313Y-82547161D01*
X102260312Y-82547164D01*
X102224500Y-82680817D01*
X101000500Y-82680817D01*
X101000500Y-76590693D01*
X101000500Y-76590691D01*
X100969799Y-76476114D01*
X100969799Y-76476113D01*
X100910489Y-76373386D01*
X98933467Y-74396364D01*
X98901374Y-74340777D01*
X98889688Y-74297164D01*
X98820505Y-74177335D01*
X98722665Y-74079495D01*
X98722664Y-74079494D01*
X98722661Y-74079492D01*
X98602838Y-74010313D01*
X98602837Y-74010312D01*
X98602836Y-74010312D01*
X98469183Y-73974500D01*
X98330817Y-73974500D01*
X98197164Y-74010312D01*
X98197163Y-74010312D01*
X98136535Y-74045316D01*
X98068635Y-74061788D01*
X98002608Y-74038935D01*
X97959418Y-73984013D01*
X97952777Y-73914460D01*
X97984794Y-73852358D01*
X97986855Y-73850247D01*
X100262602Y-71574500D01*
X104503635Y-67333466D01*
X104559223Y-67301374D01*
X104602832Y-67289689D01*
X104602831Y-67289689D01*
X104602836Y-67289688D01*
X104722665Y-67220505D01*
X104820505Y-67122665D01*
X104889688Y-67002836D01*
X104925500Y-66869183D01*
X104925500Y-66780817D01*
X121474500Y-66780817D01*
X121474500Y-66919183D01*
X121496915Y-67002835D01*
X121510312Y-67052835D01*
X121510313Y-67052838D01*
X121579492Y-67172661D01*
X121579494Y-67172663D01*
X121579495Y-67172665D01*
X121677335Y-67270505D01*
X121677336Y-67270506D01*
X121677338Y-67270507D01*
X121710561Y-67289688D01*
X121797164Y-67339688D01*
X121930817Y-67375500D01*
X121930819Y-67375500D01*
X122069181Y-67375500D01*
X122069183Y-67375500D01*
X122202836Y-67339688D01*
X122322665Y-67270505D01*
X122420505Y-67172665D01*
X122455241Y-67112499D01*
X122505807Y-67064285D01*
X122562628Y-67050500D01*
X164262035Y-67050500D01*
X164291475Y-67059144D01*
X164321462Y-67065668D01*
X164326477Y-67069422D01*
X164329074Y-67070185D01*
X164349710Y-67086813D01*
X164466533Y-67203637D01*
X164498624Y-67259220D01*
X164510311Y-67302834D01*
X164510313Y-67302839D01*
X164579492Y-67422661D01*
X164579494Y-67422664D01*
X164579495Y-67422665D01*
X164677335Y-67520505D01*
X164797164Y-67589688D01*
X164930817Y-67625500D01*
X164930819Y-67625500D01*
X165069181Y-67625500D01*
X165069183Y-67625500D01*
X165202836Y-67589688D01*
X165271580Y-67549999D01*
X214297479Y-67549999D01*
X214299098Y-67570056D01*
X214299500Y-67580033D01*
X214299500Y-67672027D01*
X214299499Y-67672027D01*
X214314724Y-67768150D01*
X214315468Y-67772853D01*
X214317583Y-67799042D01*
X214323271Y-67822119D01*
X214324093Y-67827309D01*
X214324095Y-67827317D01*
X214337679Y-67913077D01*
X214369473Y-68010929D01*
X214369473Y-68010930D01*
X214370865Y-68015215D01*
X214377377Y-68041634D01*
X214386104Y-68062118D01*
X214387805Y-68067352D01*
X214413095Y-68145185D01*
X214462441Y-68242030D01*
X214462442Y-68242032D01*
X214464371Y-68245818D01*
X214475310Y-68271493D01*
X214486335Y-68288928D01*
X214488946Y-68294052D01*
X214523892Y-68362636D01*
X214523894Y-68362639D01*
X214593735Y-68458767D01*
X214608848Y-68482665D01*
X214621354Y-68496782D01*
X214667345Y-68560083D01*
X214667347Y-68560085D01*
X214755791Y-68648529D01*
X214774531Y-68669682D01*
X214787679Y-68680417D01*
X214839920Y-68732658D01*
X214902676Y-68778252D01*
X214946510Y-68810099D01*
X214968067Y-68827700D01*
X214981055Y-68835199D01*
X214986316Y-68839021D01*
X214986317Y-68839022D01*
X215034383Y-68873943D01*
X215037361Y-68876106D01*
X215161197Y-68939203D01*
X215184446Y-68952626D01*
X215196547Y-68957215D01*
X215221888Y-68970127D01*
X215254810Y-68986902D01*
X215254812Y-68986902D01*
X215254815Y-68986904D01*
X215394526Y-69032299D01*
X215418061Y-69041225D01*
X215428643Y-69043384D01*
X215486924Y-69062321D01*
X215640703Y-69086677D01*
X215662864Y-69091202D01*
X215671448Y-69091547D01*
X215727973Y-69100500D01*
X215727976Y-69100500D01*
X215893604Y-69100500D01*
X215912514Y-69101262D01*
X215918790Y-69100500D01*
X215972025Y-69100500D01*
X215972027Y-69100500D01*
X216146900Y-69072802D01*
X216160544Y-69071146D01*
X216164385Y-69070033D01*
X216213076Y-69062321D01*
X216394298Y-69003438D01*
X216400532Y-69001633D01*
X216402003Y-69000934D01*
X216445185Y-68986904D01*
X216662639Y-68876106D01*
X216860083Y-68732655D01*
X217032655Y-68560083D01*
X217176106Y-68362639D01*
X217286904Y-68145185D01*
X217362321Y-67913076D01*
X217400500Y-67672027D01*
X217400500Y-67427973D01*
X217362321Y-67186924D01*
X217286904Y-66954815D01*
X217176106Y-66737361D01*
X217106228Y-66641182D01*
X217032660Y-66539923D01*
X217032656Y-66539918D01*
X216860081Y-66367343D01*
X216860076Y-66367339D01*
X216662640Y-66223894D01*
X216516632Y-66149500D01*
X216445185Y-66113096D01*
X216407433Y-66100829D01*
X216407430Y-66100828D01*
X216401999Y-66099063D01*
X216400532Y-66098367D01*
X216394319Y-66096567D01*
X216392373Y-66095935D01*
X216213075Y-66037678D01*
X216172035Y-66031178D01*
X216164382Y-66029965D01*
X216160544Y-66028854D01*
X216146919Y-66027199D01*
X216144674Y-66026844D01*
X216144672Y-66026843D01*
X215972032Y-65999500D01*
X215972027Y-65999500D01*
X215918790Y-65999500D01*
X215912514Y-65998738D01*
X215893604Y-65999500D01*
X215727971Y-65999500D01*
X215678602Y-66007318D01*
X215671440Y-66008452D01*
X215662864Y-66008798D01*
X215640716Y-66013319D01*
X215637986Y-66013752D01*
X215637984Y-66013751D01*
X215637984Y-66013752D01*
X215486929Y-66037678D01*
X215486913Y-66037681D01*
X215435300Y-66054450D01*
X215428630Y-66056617D01*
X215418061Y-66058775D01*
X215394557Y-66067688D01*
X215391670Y-66068627D01*
X215254822Y-66113093D01*
X215254806Y-66113100D01*
X215202556Y-66139720D01*
X215202557Y-66139721D01*
X215196534Y-66142789D01*
X215184446Y-66147374D01*
X215161243Y-66160770D01*
X215158315Y-66162262D01*
X215158315Y-66162263D01*
X215037361Y-66223893D01*
X214986316Y-66260979D01*
X214981052Y-66264802D01*
X214968067Y-66272300D01*
X214946546Y-66289871D01*
X214943689Y-66291947D01*
X214943685Y-66291951D01*
X214839914Y-66367347D01*
X214839910Y-66367350D01*
X214787668Y-66419591D01*
X214774531Y-66430318D01*
X214755806Y-66451453D01*
X214753146Y-66454114D01*
X214667348Y-66539913D01*
X214667342Y-66539920D01*
X214624871Y-66598374D01*
X214621337Y-66603237D01*
X214608848Y-66617335D01*
X214593767Y-66641182D01*
X214591403Y-66644437D01*
X214591396Y-66644449D01*
X214523893Y-66737362D01*
X214523890Y-66737367D01*
X214488946Y-66805947D01*
X214486332Y-66811076D01*
X214475310Y-66828507D01*
X214464378Y-66854164D01*
X214462441Y-66857967D01*
X214413097Y-66954810D01*
X214413096Y-66954812D01*
X214387806Y-67032641D01*
X214387807Y-67032642D01*
X214386104Y-67037881D01*
X214377377Y-67058366D01*
X214370867Y-67084776D01*
X214369471Y-67089074D01*
X214337679Y-67186919D01*
X214324096Y-67272676D01*
X214323272Y-67277874D01*
X214317583Y-67300958D01*
X214315469Y-67327142D01*
X214314724Y-67331848D01*
X214299500Y-67427972D01*
X214299500Y-67519966D01*
X214299098Y-67529943D01*
X214297479Y-67549999D01*
X165271580Y-67549999D01*
X165322665Y-67520505D01*
X165420505Y-67422665D01*
X165489688Y-67302836D01*
X165525500Y-67169183D01*
X165525500Y-67030817D01*
X165489688Y-66897164D01*
X165437024Y-66805947D01*
X165420507Y-66777338D01*
X165420503Y-66777333D01*
X165322666Y-66679496D01*
X165322661Y-66679492D01*
X165202839Y-66610313D01*
X165202834Y-66610311D01*
X165159220Y-66598624D01*
X165103635Y-66566531D01*
X164776616Y-66239513D01*
X164776614Y-66239511D01*
X164704875Y-66198092D01*
X164673888Y-66180201D01*
X164661780Y-66176957D01*
X164649673Y-66173713D01*
X164649670Y-66173712D01*
X164601369Y-66160770D01*
X164559309Y-66149500D01*
X164559308Y-66149500D01*
X147624500Y-66149500D01*
X147557461Y-66129815D01*
X147511706Y-66077011D01*
X147500500Y-66025500D01*
X147500500Y-65930819D01*
X147500500Y-65930817D01*
X147464688Y-65797164D01*
X147395505Y-65677335D01*
X147297665Y-65579495D01*
X147297664Y-65579494D01*
X147297661Y-65579492D01*
X147177838Y-65510313D01*
X147177837Y-65510312D01*
X147177836Y-65510312D01*
X147044183Y-65474500D01*
X146905817Y-65474500D01*
X146772164Y-65510312D01*
X146772161Y-65510313D01*
X146733063Y-65532887D01*
X146671063Y-65549500D01*
X126803937Y-65549500D01*
X126741937Y-65532887D01*
X126702838Y-65510313D01*
X126702837Y-65510312D01*
X126702836Y-65510312D01*
X126569183Y-65474500D01*
X126430817Y-65474500D01*
X126297164Y-65510312D01*
X126297161Y-65510313D01*
X126177338Y-65579492D01*
X126177333Y-65579496D01*
X126079496Y-65677333D01*
X126079492Y-65677338D01*
X126010313Y-65797161D01*
X126010312Y-65797164D01*
X125974500Y-65930817D01*
X125974500Y-66025500D01*
X125954815Y-66092539D01*
X125902011Y-66138294D01*
X125850500Y-66149500D01*
X122190691Y-66149500D01*
X122121944Y-66167920D01*
X122076112Y-66180201D01*
X122076111Y-66180202D01*
X122045125Y-66198092D01*
X122045122Y-66198093D01*
X122036909Y-66202836D01*
X121973386Y-66239511D01*
X121891580Y-66321315D01*
X121886293Y-66325559D01*
X121866882Y-66333552D01*
X121840779Y-66348624D01*
X121797164Y-66360311D01*
X121797160Y-66360313D01*
X121677338Y-66429492D01*
X121677333Y-66429496D01*
X121579496Y-66527333D01*
X121579492Y-66527338D01*
X121510313Y-66647161D01*
X121510312Y-66647164D01*
X121474500Y-66780817D01*
X104925500Y-66780817D01*
X104925500Y-66730817D01*
X104889688Y-66597164D01*
X104820505Y-66477335D01*
X104722665Y-66379495D01*
X104722664Y-66379494D01*
X104722661Y-66379492D01*
X104602838Y-66310313D01*
X104602837Y-66310312D01*
X104602836Y-66310312D01*
X104469183Y-66274500D01*
X104330817Y-66274500D01*
X104197164Y-66310312D01*
X104197161Y-66310313D01*
X104077338Y-66379492D01*
X104077333Y-66379496D01*
X103979496Y-66477333D01*
X103979492Y-66477338D01*
X103910313Y-66597160D01*
X103910311Y-66597165D01*
X103898624Y-66640779D01*
X103866531Y-66696364D01*
X86839513Y-83723383D01*
X86839509Y-83723389D01*
X86780201Y-83826112D01*
X86780200Y-83826117D01*
X86749500Y-83940691D01*
X79788086Y-83940691D01*
X79761499Y-76780817D01*
X84774500Y-76780817D01*
X84774500Y-76919182D01*
X84810312Y-77052835D01*
X84810313Y-77052838D01*
X84879492Y-77172661D01*
X84879494Y-77172664D01*
X84879495Y-77172665D01*
X84977335Y-77270505D01*
X85097164Y-77339688D01*
X85230817Y-77375500D01*
X85230819Y-77375500D01*
X85369181Y-77375500D01*
X85369183Y-77375500D01*
X85502836Y-77339688D01*
X85541937Y-77317112D01*
X85603937Y-77300500D01*
X88959308Y-77300500D01*
X88959309Y-77300500D01*
X89049673Y-77276286D01*
X89073887Y-77269799D01*
X89176614Y-77210489D01*
X92610489Y-73776614D01*
X92669798Y-73673887D01*
X92669799Y-73673886D01*
X92700500Y-73559309D01*
X92700500Y-72403937D01*
X92717113Y-72341936D01*
X92739688Y-72302836D01*
X92775500Y-72169183D01*
X92775500Y-72030817D01*
X92739688Y-71897164D01*
X92670505Y-71777335D01*
X92572665Y-71679495D01*
X92572664Y-71679494D01*
X92572661Y-71679492D01*
X92452838Y-71610313D01*
X92452837Y-71610312D01*
X92452836Y-71610312D01*
X92319183Y-71574500D01*
X92180817Y-71574500D01*
X92047164Y-71610312D01*
X92047161Y-71610313D01*
X91927338Y-71679492D01*
X91927333Y-71679496D01*
X91829496Y-71777333D01*
X91829492Y-71777338D01*
X91760313Y-71897161D01*
X91760312Y-71897164D01*
X91724500Y-72030817D01*
X91724500Y-72169182D01*
X91760312Y-72302836D01*
X91782887Y-72341936D01*
X91799500Y-72403937D01*
X91799500Y-73262035D01*
X91779815Y-73329074D01*
X91763181Y-73349716D01*
X89348926Y-75763970D01*
X89287603Y-75797455D01*
X89217911Y-75792471D01*
X89161978Y-75750599D01*
X89137561Y-75685135D01*
X89152413Y-75616862D01*
X89158143Y-75607397D01*
X89189640Y-75560258D01*
X89189642Y-75560254D01*
X89246177Y-75423767D01*
X89246179Y-75423759D01*
X89274999Y-75278873D01*
X89275000Y-75278871D01*
X89275000Y-75131128D01*
X89274999Y-75131126D01*
X89246179Y-74986240D01*
X89246178Y-74986236D01*
X89202577Y-74880975D01*
X88701777Y-75381777D01*
X88200975Y-75882577D01*
X88306236Y-75926178D01*
X88306240Y-75926179D01*
X88451126Y-75954999D01*
X88451129Y-75955000D01*
X88598871Y-75955000D01*
X88598873Y-75954999D01*
X88743759Y-75926179D01*
X88743767Y-75926177D01*
X88880254Y-75869642D01*
X88880258Y-75869640D01*
X88927397Y-75838143D01*
X88994075Y-75817265D01*
X89061455Y-75835749D01*
X89108145Y-75887727D01*
X89119322Y-75956697D01*
X89091437Y-76020761D01*
X89083970Y-76028926D01*
X88749716Y-76363181D01*
X88688393Y-76396666D01*
X88662035Y-76399500D01*
X85603937Y-76399500D01*
X85541937Y-76382887D01*
X85502838Y-76360313D01*
X85502837Y-76360312D01*
X85502836Y-76360312D01*
X85369183Y-76324500D01*
X85230817Y-76324500D01*
X85097164Y-76360312D01*
X85097161Y-76360313D01*
X84977338Y-76429492D01*
X84977333Y-76429496D01*
X84879496Y-76527333D01*
X84879492Y-76527338D01*
X84810313Y-76647161D01*
X84810312Y-76647164D01*
X84774500Y-76780817D01*
X79761499Y-76780817D01*
X79758163Y-75882577D01*
X86800975Y-75882577D01*
X86906236Y-75926178D01*
X86906240Y-75926179D01*
X87051126Y-75954999D01*
X87051129Y-75955000D01*
X87198871Y-75955000D01*
X87198873Y-75954999D01*
X87343760Y-75926179D01*
X87343775Y-75926175D01*
X87449024Y-75882578D01*
X87449024Y-75882577D01*
X87125001Y-75558554D01*
X87125000Y-75558554D01*
X86800975Y-75882577D01*
X79758163Y-75882577D01*
X79755373Y-75131126D01*
X86375000Y-75131126D01*
X86375000Y-75278873D01*
X86403820Y-75423759D01*
X86403822Y-75423767D01*
X86447421Y-75529024D01*
X86771446Y-75205000D01*
X86771446Y-75204999D01*
X86741610Y-75175163D01*
X86975000Y-75175163D01*
X86975000Y-75234837D01*
X86997836Y-75289968D01*
X87040032Y-75332164D01*
X87095163Y-75355000D01*
X87154837Y-75355000D01*
X87209968Y-75332164D01*
X87252164Y-75289968D01*
X87275000Y-75234837D01*
X87275000Y-75204999D01*
X87478554Y-75204999D01*
X87478554Y-75205001D01*
X87802929Y-75529376D01*
X87847069Y-75529376D01*
X88171446Y-75205000D01*
X88141609Y-75175163D01*
X88375000Y-75175163D01*
X88375000Y-75234837D01*
X88397836Y-75289968D01*
X88440032Y-75332164D01*
X88495163Y-75355000D01*
X88554837Y-75355000D01*
X88609968Y-75332164D01*
X88652164Y-75289968D01*
X88675000Y-75234837D01*
X88675000Y-75175163D01*
X88652164Y-75120032D01*
X88609968Y-75077836D01*
X88554837Y-75055000D01*
X88495163Y-75055000D01*
X88440032Y-75077836D01*
X88397836Y-75120032D01*
X88375000Y-75175163D01*
X88141609Y-75175163D01*
X87847068Y-74880622D01*
X87802930Y-74880622D01*
X87478554Y-75204999D01*
X87275000Y-75204999D01*
X87275000Y-75175163D01*
X87252164Y-75120032D01*
X87209968Y-75077836D01*
X87154837Y-75055000D01*
X87095163Y-75055000D01*
X87040032Y-75077836D01*
X86997836Y-75120032D01*
X86975000Y-75175163D01*
X86741610Y-75175163D01*
X86447421Y-74880974D01*
X86447420Y-74880974D01*
X86403823Y-74986228D01*
X86403820Y-74986240D01*
X86375000Y-75131126D01*
X79755373Y-75131126D01*
X79753419Y-74605000D01*
X86878554Y-74605000D01*
X87125000Y-74851446D01*
X87371446Y-74605000D01*
X88278554Y-74605000D01*
X88525000Y-74851446D01*
X88771446Y-74605000D01*
X88525000Y-74358554D01*
X88278554Y-74605000D01*
X87371446Y-74605000D01*
X87125000Y-74358554D01*
X86878554Y-74605000D01*
X79753419Y-74605000D01*
X79750917Y-73931126D01*
X86375000Y-73931126D01*
X86375000Y-74078873D01*
X86403820Y-74223759D01*
X86403822Y-74223767D01*
X86447421Y-74329024D01*
X86771446Y-74005000D01*
X86771446Y-74004999D01*
X86741610Y-73975163D01*
X86975000Y-73975163D01*
X86975000Y-74034837D01*
X86997836Y-74089968D01*
X87040032Y-74132164D01*
X87095163Y-74155000D01*
X87154837Y-74155000D01*
X87209968Y-74132164D01*
X87252164Y-74089968D01*
X87275000Y-74034837D01*
X87275000Y-74004999D01*
X87478554Y-74004999D01*
X87478554Y-74005001D01*
X87802929Y-74329376D01*
X87847069Y-74329376D01*
X88171446Y-74005000D01*
X88141609Y-73975163D01*
X88375000Y-73975163D01*
X88375000Y-74034837D01*
X88397836Y-74089968D01*
X88440032Y-74132164D01*
X88495163Y-74155000D01*
X88554837Y-74155000D01*
X88609968Y-74132164D01*
X88652164Y-74089968D01*
X88675000Y-74034837D01*
X88675000Y-74004999D01*
X88878554Y-74004999D01*
X88878554Y-74005001D01*
X89202577Y-74329024D01*
X89202578Y-74329024D01*
X89246175Y-74223775D01*
X89246179Y-74223760D01*
X89274999Y-74078873D01*
X89275000Y-74078871D01*
X89275000Y-73931128D01*
X89274999Y-73931126D01*
X89246179Y-73786240D01*
X89246178Y-73786236D01*
X89202577Y-73680975D01*
X88878554Y-74004999D01*
X88675000Y-74004999D01*
X88675000Y-73975163D01*
X88652164Y-73920032D01*
X88609968Y-73877836D01*
X88554837Y-73855000D01*
X88495163Y-73855000D01*
X88440032Y-73877836D01*
X88397836Y-73920032D01*
X88375000Y-73975163D01*
X88141609Y-73975163D01*
X87847068Y-73680622D01*
X87802930Y-73680622D01*
X87478554Y-74004999D01*
X87275000Y-74004999D01*
X87275000Y-73975163D01*
X87252164Y-73920032D01*
X87209968Y-73877836D01*
X87154837Y-73855000D01*
X87095163Y-73855000D01*
X87040032Y-73877836D01*
X86997836Y-73920032D01*
X86975000Y-73975163D01*
X86741610Y-73975163D01*
X86447421Y-73680974D01*
X86447420Y-73680974D01*
X86403823Y-73786228D01*
X86403820Y-73786240D01*
X86375000Y-73931126D01*
X79750917Y-73931126D01*
X79748963Y-73405000D01*
X86878554Y-73405000D01*
X87125000Y-73651446D01*
X87371446Y-73405000D01*
X88278554Y-73405000D01*
X88525000Y-73651446D01*
X88771446Y-73405000D01*
X88525000Y-73158554D01*
X88278554Y-73405000D01*
X87371446Y-73405000D01*
X87125000Y-73158554D01*
X86878554Y-73405000D01*
X79748963Y-73405000D01*
X79746461Y-72731126D01*
X86375000Y-72731126D01*
X86375000Y-72878873D01*
X86403820Y-73023759D01*
X86403822Y-73023767D01*
X86447421Y-73129024D01*
X86771446Y-72805000D01*
X86771446Y-72804999D01*
X86741610Y-72775163D01*
X86975000Y-72775163D01*
X86975000Y-72834837D01*
X86997836Y-72889968D01*
X87040032Y-72932164D01*
X87095163Y-72955000D01*
X87154837Y-72955000D01*
X87209968Y-72932164D01*
X87252164Y-72889968D01*
X87275000Y-72834837D01*
X87275000Y-72804999D01*
X87478554Y-72804999D01*
X87478554Y-72805001D01*
X87802929Y-73129376D01*
X87847069Y-73129376D01*
X88171446Y-72805000D01*
X88141609Y-72775163D01*
X88375000Y-72775163D01*
X88375000Y-72834837D01*
X88397836Y-72889968D01*
X88440032Y-72932164D01*
X88495163Y-72955000D01*
X88554837Y-72955000D01*
X88609968Y-72932164D01*
X88652164Y-72889968D01*
X88675000Y-72834837D01*
X88675000Y-72804999D01*
X88878554Y-72804999D01*
X88878554Y-72805001D01*
X89202577Y-73129024D01*
X89202578Y-73129024D01*
X89246175Y-73023775D01*
X89246179Y-73023760D01*
X89274999Y-72878873D01*
X89275000Y-72878871D01*
X89275000Y-72731128D01*
X89274999Y-72731126D01*
X89246179Y-72586240D01*
X89246178Y-72586236D01*
X89202577Y-72480975D01*
X88878554Y-72804999D01*
X88675000Y-72804999D01*
X88675000Y-72775163D01*
X88652164Y-72720032D01*
X88609968Y-72677836D01*
X88554837Y-72655000D01*
X88495163Y-72655000D01*
X88440032Y-72677836D01*
X88397836Y-72720032D01*
X88375000Y-72775163D01*
X88141609Y-72775163D01*
X87847068Y-72480622D01*
X87802930Y-72480622D01*
X87478554Y-72804999D01*
X87275000Y-72804999D01*
X87275000Y-72775163D01*
X87252164Y-72720032D01*
X87209968Y-72677836D01*
X87154837Y-72655000D01*
X87095163Y-72655000D01*
X87040032Y-72677836D01*
X86997836Y-72720032D01*
X86975000Y-72775163D01*
X86741610Y-72775163D01*
X86447421Y-72480974D01*
X86447420Y-72480974D01*
X86403823Y-72586228D01*
X86403820Y-72586240D01*
X86375000Y-72731126D01*
X79746461Y-72731126D01*
X79744219Y-72127420D01*
X86800974Y-72127420D01*
X86800974Y-72127421D01*
X87125000Y-72451446D01*
X87125001Y-72451446D01*
X87449024Y-72127421D01*
X87449022Y-72127420D01*
X88200974Y-72127420D01*
X88200974Y-72127421D01*
X88525000Y-72451446D01*
X88525001Y-72451446D01*
X88849024Y-72127421D01*
X88743767Y-72083822D01*
X88743759Y-72083820D01*
X88598872Y-72055000D01*
X88451128Y-72055000D01*
X88306240Y-72083820D01*
X88306228Y-72083823D01*
X88200974Y-72127420D01*
X87449022Y-72127420D01*
X87343767Y-72083822D01*
X87343759Y-72083820D01*
X87198872Y-72055000D01*
X87051128Y-72055000D01*
X86906240Y-72083820D01*
X86906228Y-72083823D01*
X86800974Y-72127420D01*
X79744219Y-72127420D01*
X79727222Y-67549999D01*
X80447479Y-67549999D01*
X80449098Y-67570056D01*
X80449500Y-67580033D01*
X80449500Y-67672027D01*
X80449499Y-67672027D01*
X80464724Y-67768150D01*
X80465468Y-67772853D01*
X80467583Y-67799042D01*
X80473271Y-67822119D01*
X80474093Y-67827309D01*
X80474095Y-67827317D01*
X80487679Y-67913077D01*
X80519473Y-68010929D01*
X80519473Y-68010930D01*
X80520865Y-68015215D01*
X80527377Y-68041634D01*
X80536104Y-68062118D01*
X80537805Y-68067352D01*
X80563095Y-68145185D01*
X80612441Y-68242030D01*
X80612442Y-68242032D01*
X80614371Y-68245818D01*
X80625310Y-68271493D01*
X80636335Y-68288928D01*
X80638946Y-68294052D01*
X80673892Y-68362636D01*
X80673894Y-68362639D01*
X80743735Y-68458767D01*
X80758848Y-68482665D01*
X80771354Y-68496782D01*
X80817345Y-68560083D01*
X80817347Y-68560085D01*
X80905791Y-68648529D01*
X80924531Y-68669682D01*
X80937679Y-68680417D01*
X80989920Y-68732658D01*
X81052676Y-68778252D01*
X81096510Y-68810099D01*
X81118067Y-68827700D01*
X81131055Y-68835199D01*
X81136316Y-68839021D01*
X81136317Y-68839022D01*
X81184383Y-68873943D01*
X81187361Y-68876106D01*
X81311197Y-68939203D01*
X81334446Y-68952626D01*
X81346547Y-68957215D01*
X81371888Y-68970127D01*
X81404810Y-68986902D01*
X81404812Y-68986902D01*
X81404815Y-68986904D01*
X81544526Y-69032299D01*
X81568061Y-69041225D01*
X81578643Y-69043384D01*
X81636924Y-69062321D01*
X81790703Y-69086677D01*
X81812864Y-69091202D01*
X81821448Y-69091547D01*
X81877973Y-69100500D01*
X81877976Y-69100500D01*
X82043604Y-69100500D01*
X82062514Y-69101262D01*
X82068790Y-69100500D01*
X82122025Y-69100500D01*
X82122027Y-69100500D01*
X82296900Y-69072802D01*
X82310544Y-69071146D01*
X82314385Y-69070033D01*
X82363076Y-69062321D01*
X82544298Y-69003438D01*
X82550532Y-69001633D01*
X82552003Y-69000934D01*
X82595185Y-68986904D01*
X82812639Y-68876106D01*
X83010083Y-68732655D01*
X83182655Y-68560083D01*
X83326106Y-68362639D01*
X83436904Y-68145185D01*
X83512321Y-67913076D01*
X83550500Y-67672027D01*
X83550500Y-67427973D01*
X83512321Y-67186924D01*
X83436904Y-66954815D01*
X83326106Y-66737361D01*
X83256228Y-66641182D01*
X83182660Y-66539923D01*
X83182656Y-66539918D01*
X83010081Y-66367343D01*
X83010076Y-66367339D01*
X82812640Y-66223894D01*
X82666632Y-66149500D01*
X82595185Y-66113096D01*
X82557433Y-66100829D01*
X82557430Y-66100828D01*
X82551999Y-66099063D01*
X82550532Y-66098367D01*
X82544319Y-66096567D01*
X82542373Y-66095935D01*
X82363075Y-66037678D01*
X82322035Y-66031178D01*
X82314382Y-66029965D01*
X82310544Y-66028854D01*
X82296919Y-66027199D01*
X82294674Y-66026844D01*
X82294672Y-66026843D01*
X82122032Y-65999500D01*
X82122027Y-65999500D01*
X82068790Y-65999500D01*
X82062514Y-65998738D01*
X82043604Y-65999500D01*
X81877971Y-65999500D01*
X81828602Y-66007318D01*
X81821440Y-66008452D01*
X81812864Y-66008798D01*
X81790716Y-66013319D01*
X81787986Y-66013752D01*
X81787984Y-66013751D01*
X81787984Y-66013752D01*
X81636929Y-66037678D01*
X81636913Y-66037681D01*
X81585300Y-66054450D01*
X81578630Y-66056617D01*
X81568061Y-66058775D01*
X81544557Y-66067688D01*
X81541670Y-66068627D01*
X81404822Y-66113093D01*
X81404806Y-66113100D01*
X81352556Y-66139720D01*
X81352557Y-66139721D01*
X81346534Y-66142789D01*
X81334446Y-66147374D01*
X81311243Y-66160770D01*
X81308315Y-66162262D01*
X81308315Y-66162263D01*
X81187361Y-66223893D01*
X81136316Y-66260979D01*
X81131052Y-66264802D01*
X81118067Y-66272300D01*
X81096546Y-66289871D01*
X81093689Y-66291947D01*
X81093685Y-66291951D01*
X80989914Y-66367347D01*
X80989910Y-66367350D01*
X80937668Y-66419591D01*
X80924531Y-66430318D01*
X80905806Y-66451453D01*
X80903146Y-66454114D01*
X80817348Y-66539913D01*
X80817342Y-66539920D01*
X80774871Y-66598374D01*
X80771337Y-66603237D01*
X80758848Y-66617335D01*
X80743767Y-66641182D01*
X80741403Y-66644437D01*
X80741396Y-66644449D01*
X80673893Y-66737362D01*
X80673890Y-66737367D01*
X80638946Y-66805947D01*
X80636332Y-66811076D01*
X80625310Y-66828507D01*
X80614378Y-66854164D01*
X80612441Y-66857967D01*
X80563097Y-66954810D01*
X80563096Y-66954812D01*
X80537806Y-67032641D01*
X80537807Y-67032642D01*
X80536104Y-67037881D01*
X80527377Y-67058366D01*
X80520867Y-67084776D01*
X80519471Y-67089074D01*
X80487679Y-67186919D01*
X80474096Y-67272676D01*
X80473272Y-67277874D01*
X80467583Y-67300958D01*
X80465469Y-67327142D01*
X80464724Y-67331848D01*
X80449500Y-67427972D01*
X80449500Y-67519966D01*
X80449098Y-67529943D01*
X80447479Y-67549999D01*
X79727222Y-67549999D01*
X79717291Y-64875551D01*
X79736726Y-64808442D01*
X79789360Y-64762492D01*
X79841193Y-64751094D01*
X217860752Y-64648903D01*
X217927804Y-64668538D01*
G37*
%TD.AperFunction*%
%TD*%
M02*
