%TF.GenerationSoftware,KiCad,Pcbnew,10.0.2*%
%TF.CreationDate,2026-06-30T18:15:28-07:00*%
%TF.ProjectId,satWatch_main_LargePrototype,73617457-6174-4636-985f-6d61696e5f4c,v1*%
%TF.SameCoordinates,Original*%
%TF.FileFunction,Legend,Bot*%
%TF.FilePolarity,Positive*%
%FSLAX46Y46*%
G04 Gerber Fmt 4.6, Leading zero omitted, Abs format (unit mm)*
G04 Created by KiCad (PCBNEW 10.0.2) date 2026-06-30 18:15:28*
%MOMM*%
%LPD*%
G01*
G04 APERTURE LIST*
%ADD10C,0.150000*%
%ADD11C,0.127000*%
%ADD12C,0.200000*%
G04 APERTURE END LIST*
D10*
X200384444Y-87240009D02*
X200384444Y-88049532D01*
X200384444Y-88049532D02*
X200336825Y-88144770D01*
X200336825Y-88144770D02*
X200289206Y-88192390D01*
X200289206Y-88192390D02*
X200193968Y-88240009D01*
X200193968Y-88240009D02*
X200003492Y-88240009D01*
X200003492Y-88240009D02*
X199908254Y-88192390D01*
X199908254Y-88192390D02*
X199860635Y-88144770D01*
X199860635Y-88144770D02*
X199813016Y-88049532D01*
X199813016Y-88049532D02*
X199813016Y-87240009D01*
X199384444Y-87335247D02*
X199336825Y-87287628D01*
X199336825Y-87287628D02*
X199241587Y-87240009D01*
X199241587Y-87240009D02*
X199003492Y-87240009D01*
X199003492Y-87240009D02*
X198908254Y-87287628D01*
X198908254Y-87287628D02*
X198860635Y-87335247D01*
X198860635Y-87335247D02*
X198813016Y-87430485D01*
X198813016Y-87430485D02*
X198813016Y-87525723D01*
X198813016Y-87525723D02*
X198860635Y-87668580D01*
X198860635Y-87668580D02*
X199432063Y-88240009D01*
X199432063Y-88240009D02*
X198813016Y-88240009D01*
%TO.C,U2*%
D11*
X198300000Y-89036000D02*
X201700000Y-89036000D01*
X201700000Y-94864000D02*
X198300000Y-94864000D01*
D12*
X202460540Y-89462190D02*
G75*
G02*
X202260540Y-89462190I-100000J0D01*
G01*
X202260540Y-89462190D02*
G75*
G02*
X202460540Y-89462190I100000J0D01*
G01*
%TD*%
M02*
